%TF.GenerationSoftware,KiCad,Pcbnew,(5.1.6)-1*%
%TF.CreationDate,2020-10-27T18:56:41+11:00*%
%TF.ProjectId,swag-badge,73776167-2d62-4616-9467-652e6b696361,rev?*%
%TF.SameCoordinates,PX2d4cae0PY916f720*%
%TF.FileFunction,Legend,Top*%
%TF.FilePolarity,Positive*%
%FSLAX46Y46*%
G04 Gerber Fmt 4.6, Leading zero omitted, Abs format (unit mm)*
G04 Created by KiCad (PCBNEW (5.1.6)-1) date 2020-10-27 18:56:41*
%MOMM*%
%LPD*%
G01*
G04 APERTURE LIST*
%ADD10C,0.120000*%
%ADD11C,0.150000*%
%ADD12C,1.250000*%
%ADD13C,1.200000*%
%ADD14C,0.010000*%
G04 APERTURE END LIST*
D10*
X58500000Y92130000D02*
X58500000Y91430000D01*
X54500000Y91430000D02*
X54500000Y92130000D01*
X54500000Y91430000D02*
G75*
G03*
X55100000Y90830000I600000J0D01*
G01*
X57900000Y92730000D02*
X55100000Y92730000D01*
X55100000Y92730000D02*
G75*
G03*
X54500000Y92130000I0J-600000D01*
G01*
X58500000Y92130000D02*
G75*
G03*
X57900000Y92730000I-600000J0D01*
G01*
X55100000Y90830000D02*
X57900000Y90830000D01*
X57900000Y90830000D02*
G75*
G03*
X58500000Y91430000I0J600000D01*
G01*
X30450000Y92130000D02*
X30450000Y91430000D01*
X26450000Y91430000D02*
X26450000Y92130000D01*
X26450000Y91430000D02*
G75*
G03*
X27050000Y90830000I600000J0D01*
G01*
X29850000Y92730000D02*
X27050000Y92730000D01*
X27050000Y92730000D02*
G75*
G03*
X26450000Y92130000I0J-600000D01*
G01*
X30450000Y92130000D02*
G75*
G03*
X29850000Y92730000I-600000J0D01*
G01*
X27050000Y90830000D02*
X29850000Y90830000D01*
X29850000Y90830000D02*
G75*
G03*
X30450000Y91430000I0J600000D01*
G01*
D11*
X51304642Y99523810D02*
X51257023Y99571429D01*
X51161785Y99619048D01*
X51066547Y99619048D01*
X50971309Y99571429D01*
X50923690Y99523810D01*
X50876071Y99428572D01*
X50876071Y99333334D01*
X50923690Y99238096D01*
X50971309Y99190477D01*
X51066547Y99142858D01*
X51161785Y99142858D01*
X51257023Y99190477D01*
X51304642Y99238096D01*
X51304642Y99619048D02*
X51304642Y99238096D01*
X51352261Y99190477D01*
X51399880Y99190477D01*
X51495119Y99238096D01*
X51542738Y99333334D01*
X51542738Y99571429D01*
X51447500Y99714286D01*
X51304642Y99809524D01*
X51114166Y99857143D01*
X50923690Y99809524D01*
X50780833Y99714286D01*
X50685595Y99571429D01*
X50637976Y99380953D01*
X50685595Y99190477D01*
X50780833Y99047620D01*
X50923690Y98952381D01*
X51114166Y98904762D01*
X51304642Y98952381D01*
X51447500Y99047620D01*
X51923690Y99095239D02*
X52018928Y99047620D01*
X52209404Y99047620D01*
X52304642Y99095239D01*
X52352261Y99190477D01*
X52352261Y99238096D01*
X52304642Y99333334D01*
X52209404Y99380953D01*
X52066547Y99380953D01*
X51971309Y99428572D01*
X51923690Y99523810D01*
X51923690Y99571429D01*
X51971309Y99666667D01*
X52066547Y99714286D01*
X52209404Y99714286D01*
X52304642Y99666667D01*
X52685595Y99714286D02*
X52876071Y99047620D01*
X53066547Y99523810D01*
X53257023Y99047620D01*
X53447500Y99714286D01*
X54257023Y99047620D02*
X54257023Y99571429D01*
X54209404Y99666667D01*
X54114166Y99714286D01*
X53923690Y99714286D01*
X53828452Y99666667D01*
X54257023Y99095239D02*
X54161785Y99047620D01*
X53923690Y99047620D01*
X53828452Y99095239D01*
X53780833Y99190477D01*
X53780833Y99285715D01*
X53828452Y99380953D01*
X53923690Y99428572D01*
X54161785Y99428572D01*
X54257023Y99476191D01*
X55161785Y99714286D02*
X55161785Y98904762D01*
X55114166Y98809524D01*
X55066547Y98761905D01*
X54971309Y98714286D01*
X54828452Y98714286D01*
X54733214Y98761905D01*
X55161785Y99095239D02*
X55066547Y99047620D01*
X54876071Y99047620D01*
X54780833Y99095239D01*
X54733214Y99142858D01*
X54685595Y99238096D01*
X54685595Y99523810D01*
X54733214Y99619048D01*
X54780833Y99666667D01*
X54876071Y99714286D01*
X55066547Y99714286D01*
X55161785Y99666667D01*
X55637976Y99047620D02*
X55637976Y100047620D01*
X55637976Y99666667D02*
X55733214Y99714286D01*
X55923690Y99714286D01*
X56018928Y99666667D01*
X56066547Y99619048D01*
X56114166Y99523810D01*
X56114166Y99238096D01*
X56066547Y99142858D01*
X56018928Y99095239D01*
X55923690Y99047620D01*
X55733214Y99047620D01*
X55637976Y99095239D01*
X56971309Y99047620D02*
X56971309Y99571429D01*
X56923690Y99666667D01*
X56828452Y99714286D01*
X56637976Y99714286D01*
X56542738Y99666667D01*
X56971309Y99095239D02*
X56876071Y99047620D01*
X56637976Y99047620D01*
X56542738Y99095239D01*
X56495119Y99190477D01*
X56495119Y99285715D01*
X56542738Y99380953D01*
X56637976Y99428572D01*
X56876071Y99428572D01*
X56971309Y99476191D01*
X57876071Y99047620D02*
X57876071Y100047620D01*
X57876071Y99095239D02*
X57780833Y99047620D01*
X57590357Y99047620D01*
X57495119Y99095239D01*
X57447500Y99142858D01*
X57399880Y99238096D01*
X57399880Y99523810D01*
X57447500Y99619048D01*
X57495119Y99666667D01*
X57590357Y99714286D01*
X57780833Y99714286D01*
X57876071Y99666667D01*
X58780833Y99714286D02*
X58780833Y98904762D01*
X58733214Y98809524D01*
X58685595Y98761905D01*
X58590357Y98714286D01*
X58447500Y98714286D01*
X58352261Y98761905D01*
X58780833Y99095239D02*
X58685595Y99047620D01*
X58495119Y99047620D01*
X58399880Y99095239D01*
X58352261Y99142858D01*
X58304642Y99238096D01*
X58304642Y99523810D01*
X58352261Y99619048D01*
X58399880Y99666667D01*
X58495119Y99714286D01*
X58685595Y99714286D01*
X58780833Y99666667D01*
X59637976Y99095239D02*
X59542738Y99047620D01*
X59352261Y99047620D01*
X59257023Y99095239D01*
X59209404Y99190477D01*
X59209404Y99571429D01*
X59257023Y99666667D01*
X59352261Y99714286D01*
X59542738Y99714286D01*
X59637976Y99666667D01*
X59685595Y99571429D01*
X59685595Y99476191D01*
X59209404Y99380953D01*
X60066547Y99952381D02*
X60114166Y100000000D01*
X60209404Y100047620D01*
X60447500Y100047620D01*
X60542738Y100000000D01*
X60590357Y99952381D01*
X60637976Y99857143D01*
X60637976Y99761905D01*
X60590357Y99619048D01*
X60018928Y99047620D01*
X60637976Y99047620D01*
X61257023Y100047620D02*
X61352261Y100047620D01*
X61447500Y100000000D01*
X61495119Y99952381D01*
X61542738Y99857143D01*
X61590357Y99666667D01*
X61590357Y99428572D01*
X61542738Y99238096D01*
X61495119Y99142858D01*
X61447500Y99095239D01*
X61352261Y99047620D01*
X61257023Y99047620D01*
X61161785Y99095239D01*
X61114166Y99142858D01*
X61066547Y99238096D01*
X61018928Y99428572D01*
X61018928Y99666667D01*
X61066547Y99857143D01*
X61114166Y99952381D01*
X61161785Y100000000D01*
X61257023Y100047620D01*
X61971309Y99952381D02*
X62018928Y100000000D01*
X62114166Y100047620D01*
X62352261Y100047620D01*
X62447500Y100000000D01*
X62495119Y99952381D01*
X62542738Y99857143D01*
X62542738Y99761905D01*
X62495119Y99619048D01*
X61923690Y99047620D01*
X62542738Y99047620D01*
X63495119Y99047620D02*
X62923690Y99047620D01*
X63209404Y99047620D02*
X63209404Y100047620D01*
X63114166Y99904762D01*
X63018928Y99809524D01*
X62923690Y99761905D01*
X51304642Y101523810D02*
X51257023Y101571429D01*
X51161785Y101619048D01*
X51066547Y101619048D01*
X50971309Y101571429D01*
X50923690Y101523810D01*
X50876071Y101428572D01*
X50876071Y101333334D01*
X50923690Y101238096D01*
X50971309Y101190477D01*
X51066547Y101142858D01*
X51161785Y101142858D01*
X51257023Y101190477D01*
X51304642Y101238096D01*
X51304642Y101619048D02*
X51304642Y101238096D01*
X51352261Y101190477D01*
X51399880Y101190477D01*
X51495119Y101238096D01*
X51542738Y101333334D01*
X51542738Y101571429D01*
X51447500Y101714286D01*
X51304642Y101809524D01*
X51114166Y101857143D01*
X50923690Y101809524D01*
X50780833Y101714286D01*
X50685595Y101571429D01*
X50637976Y101380953D01*
X50685595Y101190477D01*
X50780833Y101047620D01*
X50923690Y100952381D01*
X51114166Y100904762D01*
X51304642Y100952381D01*
X51447500Y101047620D01*
X51971309Y101714286D02*
X51971309Y101047620D01*
X51971309Y101619048D02*
X52018928Y101666667D01*
X52114166Y101714286D01*
X52257023Y101714286D01*
X52352261Y101666667D01*
X52399880Y101571429D01*
X52399880Y101047620D01*
X52780833Y101714286D02*
X53018928Y101047620D01*
X53257023Y101714286D02*
X53018928Y101047620D01*
X52923690Y100809524D01*
X52876071Y100761905D01*
X52780833Y100714286D01*
X54018928Y101095239D02*
X53923690Y101047620D01*
X53733214Y101047620D01*
X53637976Y101095239D01*
X53590357Y101190477D01*
X53590357Y101571429D01*
X53637976Y101666667D01*
X53733214Y101714286D01*
X53923690Y101714286D01*
X54018928Y101666667D01*
X54066547Y101571429D01*
X54066547Y101476191D01*
X53590357Y101380953D01*
X54257023Y100952381D02*
X55018928Y100952381D01*
X55257023Y101714286D02*
X55257023Y101047620D01*
X55257023Y101619048D02*
X55304642Y101666667D01*
X55399880Y101714286D01*
X55542738Y101714286D01*
X55637976Y101666667D01*
X55685595Y101571429D01*
X55685595Y101047620D01*
X56161785Y101047620D02*
X56161785Y101714286D01*
X56161785Y102047620D02*
X56114166Y102000000D01*
X56161785Y101952381D01*
X56209404Y102000000D01*
X56161785Y102047620D01*
X56161785Y101952381D01*
X57066547Y101095239D02*
X56971309Y101047620D01*
X56780833Y101047620D01*
X56685595Y101095239D01*
X56637976Y101142858D01*
X56590357Y101238096D01*
X56590357Y101523810D01*
X56637976Y101619048D01*
X56685595Y101666667D01*
X56780833Y101714286D01*
X56971309Y101714286D01*
X57066547Y101666667D01*
X57637976Y101047620D02*
X57542738Y101095239D01*
X57495119Y101142858D01*
X57447500Y101238096D01*
X57447500Y101523810D01*
X57495119Y101619048D01*
X57542738Y101666667D01*
X57637976Y101714286D01*
X57780833Y101714286D01*
X57876071Y101666667D01*
X57923690Y101619048D01*
X57971309Y101523810D01*
X57971309Y101238096D01*
X57923690Y101142858D01*
X57876071Y101095239D01*
X57780833Y101047620D01*
X57637976Y101047620D01*
X58542738Y101047620D02*
X58447500Y101095239D01*
X58399880Y101190477D01*
X58399880Y102047620D01*
X59352261Y101047620D02*
X59352261Y101571429D01*
X59304642Y101666667D01*
X59209404Y101714286D01*
X59018928Y101714286D01*
X58923690Y101666667D01*
X59352261Y101095239D02*
X59257023Y101047620D01*
X59018928Y101047620D01*
X58923690Y101095239D01*
X58876071Y101190477D01*
X58876071Y101285715D01*
X58923690Y101380953D01*
X59018928Y101428572D01*
X59257023Y101428572D01*
X59352261Y101476191D01*
X51304642Y103523810D02*
X51257023Y103571429D01*
X51161785Y103619048D01*
X51066547Y103619048D01*
X50971309Y103571429D01*
X50923690Y103523810D01*
X50876071Y103428572D01*
X50876071Y103333334D01*
X50923690Y103238096D01*
X50971309Y103190477D01*
X51066547Y103142858D01*
X51161785Y103142858D01*
X51257023Y103190477D01*
X51304642Y103238096D01*
X51304642Y103619048D02*
X51304642Y103238096D01*
X51352261Y103190477D01*
X51399880Y103190477D01*
X51495119Y103238096D01*
X51542738Y103333334D01*
X51542738Y103571429D01*
X51447500Y103714286D01*
X51304642Y103809524D01*
X51114166Y103857143D01*
X50923690Y103809524D01*
X50780833Y103714286D01*
X50685595Y103571429D01*
X50637976Y103380953D01*
X50685595Y103190477D01*
X50780833Y103047620D01*
X50923690Y102952381D01*
X51114166Y102904762D01*
X51304642Y102952381D01*
X51447500Y103047620D01*
X51971309Y103047620D02*
X51971309Y103714286D01*
X51971309Y103619048D02*
X52018928Y103666667D01*
X52114166Y103714286D01*
X52257023Y103714286D01*
X52352261Y103666667D01*
X52399880Y103571429D01*
X52399880Y103047620D01*
X52399880Y103571429D02*
X52447500Y103666667D01*
X52542738Y103714286D01*
X52685595Y103714286D01*
X52780833Y103666667D01*
X52828452Y103571429D01*
X52828452Y103047620D01*
X53733214Y103047620D02*
X53733214Y103571429D01*
X53685595Y103666667D01*
X53590357Y103714286D01*
X53399880Y103714286D01*
X53304642Y103666667D01*
X53733214Y103095239D02*
X53637976Y103047620D01*
X53399880Y103047620D01*
X53304642Y103095239D01*
X53257023Y103190477D01*
X53257023Y103285715D01*
X53304642Y103380953D01*
X53399880Y103428572D01*
X53637976Y103428572D01*
X53733214Y103476191D01*
X54637976Y103714286D02*
X54637976Y102904762D01*
X54590357Y102809524D01*
X54542738Y102761905D01*
X54447500Y102714286D01*
X54304642Y102714286D01*
X54209404Y102761905D01*
X54637976Y103095239D02*
X54542738Y103047620D01*
X54352261Y103047620D01*
X54257023Y103095239D01*
X54209404Y103142858D01*
X54161785Y103238096D01*
X54161785Y103523810D01*
X54209404Y103619048D01*
X54257023Y103666667D01*
X54352261Y103714286D01*
X54542738Y103714286D01*
X54637976Y103666667D01*
X55495119Y103095239D02*
X55399880Y103047620D01*
X55209404Y103047620D01*
X55114166Y103095239D01*
X55066547Y103190477D01*
X55066547Y103571429D01*
X55114166Y103666667D01*
X55209404Y103714286D01*
X55399880Y103714286D01*
X55495119Y103666667D01*
X55542738Y103571429D01*
X55542738Y103476191D01*
X55066547Y103380953D01*
X56161785Y104047620D02*
X56257023Y104047620D01*
X56352261Y104000000D01*
X56399880Y103952381D01*
X56447500Y103857143D01*
X56495119Y103666667D01*
X56495119Y103428572D01*
X56447500Y103238096D01*
X56399880Y103142858D01*
X56352261Y103095239D01*
X56257023Y103047620D01*
X56161785Y103047620D01*
X56066547Y103095239D01*
X56018928Y103142858D01*
X55971309Y103238096D01*
X55923690Y103428572D01*
X55923690Y103666667D01*
X55971309Y103857143D01*
X56018928Y103952381D01*
X56066547Y104000000D01*
X56161785Y104047620D01*
X56923690Y103047620D02*
X56923690Y103714286D01*
X56923690Y103523810D02*
X56971309Y103619048D01*
X57018928Y103666667D01*
X57114166Y103714286D01*
X57209404Y103714286D01*
X51304642Y105523810D02*
X51257023Y105571429D01*
X51161785Y105619048D01*
X51066547Y105619048D01*
X50971309Y105571429D01*
X50923690Y105523810D01*
X50876071Y105428572D01*
X50876071Y105333334D01*
X50923690Y105238096D01*
X50971309Y105190477D01*
X51066547Y105142858D01*
X51161785Y105142858D01*
X51257023Y105190477D01*
X51304642Y105238096D01*
X51304642Y105619048D02*
X51304642Y105238096D01*
X51352261Y105190477D01*
X51399880Y105190477D01*
X51495119Y105238096D01*
X51542738Y105333334D01*
X51542738Y105571429D01*
X51447500Y105714286D01*
X51304642Y105809524D01*
X51114166Y105857143D01*
X50923690Y105809524D01*
X50780833Y105714286D01*
X50685595Y105571429D01*
X50637976Y105380953D01*
X50685595Y105190477D01*
X50780833Y105047620D01*
X50923690Y104952381D01*
X51114166Y104904762D01*
X51304642Y104952381D01*
X51447500Y105047620D01*
X51971309Y105714286D02*
X51971309Y104857143D01*
X51923690Y104761905D01*
X51828452Y104714286D01*
X51780833Y104714286D01*
X51971309Y106047620D02*
X51923690Y106000000D01*
X51971309Y105952381D01*
X52018928Y106000000D01*
X51971309Y106047620D01*
X51971309Y105952381D01*
X52590357Y105047620D02*
X52495119Y105095239D01*
X52447500Y105142858D01*
X52399880Y105238096D01*
X52399880Y105523810D01*
X52447500Y105619048D01*
X52495119Y105666667D01*
X52590357Y105714286D01*
X52733214Y105714286D01*
X52828452Y105666667D01*
X52876071Y105619048D01*
X52923690Y105523810D01*
X52923690Y105238096D01*
X52876071Y105142858D01*
X52828452Y105095239D01*
X52733214Y105047620D01*
X52590357Y105047620D01*
X53352261Y105714286D02*
X53352261Y105047620D01*
X53352261Y105619048D02*
X53399880Y105666667D01*
X53495119Y105714286D01*
X53637976Y105714286D01*
X53733214Y105666667D01*
X53780833Y105571429D01*
X53780833Y105047620D01*
X54399880Y105047620D02*
X54304642Y105095239D01*
X54257023Y105142858D01*
X54209404Y105238096D01*
X54209404Y105523810D01*
X54257023Y105619048D01*
X54304642Y105666667D01*
X54399880Y105714286D01*
X54542738Y105714286D01*
X54637976Y105666667D01*
X54685595Y105619048D01*
X54733214Y105523810D01*
X54733214Y105238096D01*
X54685595Y105142858D01*
X54637976Y105095239D01*
X54542738Y105047620D01*
X54399880Y105047620D01*
X55066547Y105047620D02*
X55590357Y105714286D01*
X55066547Y105714286D02*
X55590357Y105047620D01*
X56352261Y105095239D02*
X56257023Y105047620D01*
X56066547Y105047620D01*
X55971309Y105095239D01*
X55923690Y105190477D01*
X55923690Y105571429D01*
X55971309Y105666667D01*
X56066547Y105714286D01*
X56257023Y105714286D01*
X56352261Y105666667D01*
X56399880Y105571429D01*
X56399880Y105476191D01*
X55923690Y105380953D01*
X56828452Y105047620D02*
X56828452Y105714286D01*
X56828452Y105523810D02*
X56876071Y105619048D01*
X56923690Y105666667D01*
X57018928Y105714286D01*
X57114166Y105714286D01*
X23304642Y99523810D02*
X23257023Y99571429D01*
X23161785Y99619048D01*
X23066547Y99619048D01*
X22971309Y99571429D01*
X22923690Y99523810D01*
X22876071Y99428572D01*
X22876071Y99333334D01*
X22923690Y99238096D01*
X22971309Y99190477D01*
X23066547Y99142858D01*
X23161785Y99142858D01*
X23257023Y99190477D01*
X23304642Y99238096D01*
X23304642Y99619048D02*
X23304642Y99238096D01*
X23352261Y99190477D01*
X23399880Y99190477D01*
X23495119Y99238096D01*
X23542738Y99333334D01*
X23542738Y99571429D01*
X23447500Y99714286D01*
X23304642Y99809524D01*
X23114166Y99857143D01*
X22923690Y99809524D01*
X22780833Y99714286D01*
X22685595Y99571429D01*
X22637976Y99380953D01*
X22685595Y99190477D01*
X22780833Y99047620D01*
X22923690Y98952381D01*
X23114166Y98904762D01*
X23304642Y98952381D01*
X23447500Y99047620D01*
X24399880Y99714286D02*
X24399880Y98904762D01*
X24352261Y98809524D01*
X24304642Y98761905D01*
X24209404Y98714286D01*
X24066547Y98714286D01*
X23971309Y98761905D01*
X24399880Y99095239D02*
X24304642Y99047620D01*
X24114166Y99047620D01*
X24018928Y99095239D01*
X23971309Y99142858D01*
X23923690Y99238096D01*
X23923690Y99523810D01*
X23971309Y99619048D01*
X24018928Y99666667D01*
X24114166Y99714286D01*
X24304642Y99714286D01*
X24399880Y99666667D01*
X25257023Y99095239D02*
X25161785Y99047620D01*
X24971309Y99047620D01*
X24876071Y99095239D01*
X24828452Y99190477D01*
X24828452Y99571429D01*
X24876071Y99666667D01*
X24971309Y99714286D01*
X25161785Y99714286D01*
X25257023Y99666667D01*
X25304642Y99571429D01*
X25304642Y99476191D01*
X24828452Y99380953D01*
X26114166Y99095239D02*
X26018928Y99047620D01*
X25828452Y99047620D01*
X25733214Y99095239D01*
X25685595Y99190477D01*
X25685595Y99571429D01*
X25733214Y99666667D01*
X25828452Y99714286D01*
X26018928Y99714286D01*
X26114166Y99666667D01*
X26161785Y99571429D01*
X26161785Y99476191D01*
X25685595Y99380953D01*
X26590357Y99047620D02*
X26590357Y100047620D01*
X26685595Y99428572D02*
X26971309Y99047620D01*
X26971309Y99714286D02*
X26590357Y99333334D01*
X27352261Y99095239D02*
X27447500Y99047620D01*
X27637976Y99047620D01*
X27733214Y99095239D01*
X27780833Y99190477D01*
X27780833Y99238096D01*
X27733214Y99333334D01*
X27637976Y99380953D01*
X27495119Y99380953D01*
X27399880Y99428572D01*
X27352261Y99523810D01*
X27352261Y99571429D01*
X27399880Y99666667D01*
X27495119Y99714286D01*
X27637976Y99714286D01*
X27733214Y99666667D01*
X28637976Y99095239D02*
X28542738Y99047620D01*
X28352261Y99047620D01*
X28257023Y99095239D01*
X28209404Y99142858D01*
X28161785Y99238096D01*
X28161785Y99523810D01*
X28209404Y99619048D01*
X28257023Y99666667D01*
X28352261Y99714286D01*
X28542738Y99714286D01*
X28637976Y99666667D01*
X29495119Y99047620D02*
X29495119Y99571429D01*
X29447500Y99666667D01*
X29352261Y99714286D01*
X29161785Y99714286D01*
X29066547Y99666667D01*
X29495119Y99095239D02*
X29399880Y99047620D01*
X29161785Y99047620D01*
X29066547Y99095239D01*
X29018928Y99190477D01*
X29018928Y99285715D01*
X29066547Y99380953D01*
X29161785Y99428572D01*
X29399880Y99428572D01*
X29495119Y99476191D01*
X29971309Y99714286D02*
X29971309Y98714286D01*
X29971309Y99666667D02*
X30066547Y99714286D01*
X30257023Y99714286D01*
X30352261Y99666667D01*
X30399880Y99619048D01*
X30447500Y99523810D01*
X30447500Y99238096D01*
X30399880Y99142858D01*
X30352261Y99095239D01*
X30257023Y99047620D01*
X30066547Y99047620D01*
X29971309Y99095239D01*
X31257023Y99095239D02*
X31161785Y99047620D01*
X30971309Y99047620D01*
X30876071Y99095239D01*
X30828452Y99190477D01*
X30828452Y99571429D01*
X30876071Y99666667D01*
X30971309Y99714286D01*
X31161785Y99714286D01*
X31257023Y99666667D01*
X31304642Y99571429D01*
X31304642Y99476191D01*
X30828452Y99380953D01*
X23304642Y101523810D02*
X23257023Y101571429D01*
X23161785Y101619048D01*
X23066547Y101619048D01*
X22971309Y101571429D01*
X22923690Y101523810D01*
X22876071Y101428572D01*
X22876071Y101333334D01*
X22923690Y101238096D01*
X22971309Y101190477D01*
X23066547Y101142858D01*
X23161785Y101142858D01*
X23257023Y101190477D01*
X23304642Y101238096D01*
X23304642Y101619048D02*
X23304642Y101238096D01*
X23352261Y101190477D01*
X23399880Y101190477D01*
X23495119Y101238096D01*
X23542738Y101333334D01*
X23542738Y101571429D01*
X23447500Y101714286D01*
X23304642Y101809524D01*
X23114166Y101857143D01*
X22923690Y101809524D01*
X22780833Y101714286D01*
X22685595Y101571429D01*
X22637976Y101380953D01*
X22685595Y101190477D01*
X22780833Y101047620D01*
X22923690Y100952381D01*
X23114166Y100904762D01*
X23304642Y100952381D01*
X23447500Y101047620D01*
X23971309Y101047620D02*
X23971309Y101714286D01*
X23971309Y101523810D02*
X24018928Y101619048D01*
X24066547Y101666667D01*
X24161785Y101714286D01*
X24257023Y101714286D01*
X25018928Y101047620D02*
X25018928Y102047620D01*
X25018928Y101095239D02*
X24923690Y101047620D01*
X24733214Y101047620D01*
X24637976Y101095239D01*
X24590357Y101142858D01*
X24542738Y101238096D01*
X24542738Y101523810D01*
X24590357Y101619048D01*
X24637976Y101666667D01*
X24733214Y101714286D01*
X24923690Y101714286D01*
X25018928Y101666667D01*
X25257023Y100952381D02*
X26018928Y100952381D01*
X26257023Y101714286D02*
X26257023Y100714286D01*
X26257023Y101666667D02*
X26352261Y101714286D01*
X26542738Y101714286D01*
X26637976Y101666667D01*
X26685595Y101619048D01*
X26733214Y101523810D01*
X26733214Y101238096D01*
X26685595Y101142858D01*
X26637976Y101095239D01*
X26542738Y101047620D01*
X26352261Y101047620D01*
X26257023Y101095239D01*
X27304642Y101047620D02*
X27209404Y101095239D01*
X27161785Y101142858D01*
X27114166Y101238096D01*
X27114166Y101523810D01*
X27161785Y101619048D01*
X27209404Y101666667D01*
X27304642Y101714286D01*
X27447500Y101714286D01*
X27542738Y101666667D01*
X27590357Y101619048D01*
X27637976Y101523810D01*
X27637976Y101238096D01*
X27590357Y101142858D01*
X27542738Y101095239D01*
X27447500Y101047620D01*
X27304642Y101047620D01*
X27971309Y101714286D02*
X28161785Y101047620D01*
X28352261Y101523810D01*
X28542738Y101047620D01*
X28733214Y101714286D01*
X29495119Y101095239D02*
X29399880Y101047620D01*
X29209404Y101047620D01*
X29114166Y101095239D01*
X29066547Y101190477D01*
X29066547Y101571429D01*
X29114166Y101666667D01*
X29209404Y101714286D01*
X29399880Y101714286D01*
X29495119Y101666667D01*
X29542738Y101571429D01*
X29542738Y101476191D01*
X29066547Y101380953D01*
X29971309Y101047620D02*
X29971309Y101714286D01*
X29971309Y101523810D02*
X30018928Y101619048D01*
X30066547Y101666667D01*
X30161785Y101714286D01*
X30257023Y101714286D01*
X30542738Y101095239D02*
X30637976Y101047620D01*
X30828452Y101047620D01*
X30923690Y101095239D01*
X30971309Y101190477D01*
X30971309Y101238096D01*
X30923690Y101333334D01*
X30828452Y101380953D01*
X30685595Y101380953D01*
X30590357Y101428572D01*
X30542738Y101523810D01*
X30542738Y101571429D01*
X30590357Y101666667D01*
X30685595Y101714286D01*
X30828452Y101714286D01*
X30923690Y101666667D01*
X22685595Y103047620D02*
X22685595Y104047620D01*
X23066547Y104047620D01*
X23161785Y104000000D01*
X23209404Y103952381D01*
X23257023Y103857143D01*
X23257023Y103714286D01*
X23209404Y103619048D01*
X23161785Y103571429D01*
X23066547Y103523810D01*
X22685595Y103523810D01*
X24114166Y103047620D02*
X24114166Y103571429D01*
X24066547Y103666667D01*
X23971309Y103714286D01*
X23780833Y103714286D01*
X23685595Y103666667D01*
X24114166Y103095239D02*
X24018928Y103047620D01*
X23780833Y103047620D01*
X23685595Y103095239D01*
X23637976Y103190477D01*
X23637976Y103285715D01*
X23685595Y103380953D01*
X23780833Y103428572D01*
X24018928Y103428572D01*
X24114166Y103476191D01*
X24590357Y103714286D02*
X24590357Y103047620D01*
X24590357Y103619048D02*
X24637976Y103666667D01*
X24733214Y103714286D01*
X24876071Y103714286D01*
X24971309Y103666667D01*
X25018928Y103571429D01*
X25018928Y103047620D01*
X25923690Y103095239D02*
X25828452Y103047620D01*
X25637976Y103047620D01*
X25542738Y103095239D01*
X25495119Y103142858D01*
X25447500Y103238096D01*
X25447500Y103523810D01*
X25495119Y103619048D01*
X25542738Y103666667D01*
X25637976Y103714286D01*
X25828452Y103714286D01*
X25923690Y103666667D01*
X26780833Y103047620D02*
X26780833Y103571429D01*
X26733214Y103666667D01*
X26637976Y103714286D01*
X26447500Y103714286D01*
X26352261Y103666667D01*
X26780833Y103095239D02*
X26685595Y103047620D01*
X26447500Y103047620D01*
X26352261Y103095239D01*
X26304642Y103190477D01*
X26304642Y103285715D01*
X26352261Y103380953D01*
X26447500Y103428572D01*
X26685595Y103428572D01*
X26780833Y103476191D01*
X27257023Y103047620D02*
X27257023Y104047620D01*
X27352261Y103428572D02*
X27637976Y103047620D01*
X27637976Y103714286D02*
X27257023Y103333334D01*
X28447500Y103095239D02*
X28352261Y103047620D01*
X28161785Y103047620D01*
X28066547Y103095239D01*
X28018928Y103190477D01*
X28018928Y103571429D01*
X28066547Y103666667D01*
X28161785Y103714286D01*
X28352261Y103714286D01*
X28447500Y103666667D01*
X28495119Y103571429D01*
X28495119Y103476191D01*
X28018928Y103380953D01*
X29399880Y103047620D02*
X28923690Y103047620D01*
X28923690Y104047620D01*
X30114166Y103095239D02*
X30018928Y103047620D01*
X29828452Y103047620D01*
X29733214Y103095239D01*
X29685595Y103190477D01*
X29685595Y103571429D01*
X29733214Y103666667D01*
X29828452Y103714286D01*
X30018928Y103714286D01*
X30114166Y103666667D01*
X30161785Y103571429D01*
X30161785Y103476191D01*
X29685595Y103380953D01*
X31018928Y103714286D02*
X31018928Y102904762D01*
X30971309Y102809524D01*
X30923690Y102761905D01*
X30828452Y102714286D01*
X30685595Y102714286D01*
X30590357Y102761905D01*
X31018928Y103095239D02*
X30923690Y103047620D01*
X30733214Y103047620D01*
X30637976Y103095239D01*
X30590357Y103142858D01*
X30542738Y103238096D01*
X30542738Y103523810D01*
X30590357Y103619048D01*
X30637976Y103666667D01*
X30733214Y103714286D01*
X30923690Y103714286D01*
X31018928Y103666667D01*
X31876071Y103095239D02*
X31780833Y103047620D01*
X31590357Y103047620D01*
X31495119Y103095239D01*
X31447500Y103190477D01*
X31447500Y103571429D01*
X31495119Y103666667D01*
X31590357Y103714286D01*
X31780833Y103714286D01*
X31876071Y103666667D01*
X31923690Y103571429D01*
X31923690Y103476191D01*
X31447500Y103380953D01*
X32352261Y103714286D02*
X32352261Y103047620D01*
X32352261Y103619048D02*
X32399880Y103666667D01*
X32495119Y103714286D01*
X32637976Y103714286D01*
X32733214Y103666667D01*
X32780833Y103571429D01*
X32780833Y103047620D01*
X33685595Y103047620D02*
X33685595Y104047620D01*
X33685595Y103095239D02*
X33590357Y103047620D01*
X33399880Y103047620D01*
X33304642Y103095239D01*
X33257023Y103142858D01*
X33209404Y103238096D01*
X33209404Y103523810D01*
X33257023Y103619048D01*
X33304642Y103666667D01*
X33399880Y103714286D01*
X33590357Y103714286D01*
X33685595Y103666667D01*
X23304642Y105523810D02*
X23257023Y105571429D01*
X23161785Y105619048D01*
X23066547Y105619048D01*
X22971309Y105571429D01*
X22923690Y105523810D01*
X22876071Y105428572D01*
X22876071Y105333334D01*
X22923690Y105238096D01*
X22971309Y105190477D01*
X23066547Y105142858D01*
X23161785Y105142858D01*
X23257023Y105190477D01*
X23304642Y105238096D01*
X23304642Y105619048D02*
X23304642Y105238096D01*
X23352261Y105190477D01*
X23399880Y105190477D01*
X23495119Y105238096D01*
X23542738Y105333334D01*
X23542738Y105571429D01*
X23447500Y105714286D01*
X23304642Y105809524D01*
X23114166Y105857143D01*
X22923690Y105809524D01*
X22780833Y105714286D01*
X22685595Y105571429D01*
X22637976Y105380953D01*
X22685595Y105190477D01*
X22780833Y105047620D01*
X22923690Y104952381D01*
X23114166Y104904762D01*
X23304642Y104952381D01*
X23447500Y105047620D01*
X24114166Y105047620D02*
X24018928Y105095239D01*
X23971309Y105190477D01*
X23971309Y106047620D01*
X24495119Y105047620D02*
X24495119Y105714286D01*
X24495119Y106047620D02*
X24447500Y106000000D01*
X24495119Y105952381D01*
X24542738Y106000000D01*
X24495119Y106047620D01*
X24495119Y105952381D01*
X24971309Y105714286D02*
X24971309Y105047620D01*
X24971309Y105619048D02*
X25018928Y105666667D01*
X25114166Y105714286D01*
X25257023Y105714286D01*
X25352261Y105666667D01*
X25399880Y105571429D01*
X25399880Y105047620D01*
X26304642Y105714286D02*
X26304642Y105047620D01*
X25876071Y105714286D02*
X25876071Y105190477D01*
X25923690Y105095239D01*
X26018928Y105047620D01*
X26161785Y105047620D01*
X26257023Y105095239D01*
X26304642Y105142858D01*
X26685595Y105047620D02*
X27209404Y105714286D01*
X26685595Y105714286D02*
X27209404Y105047620D01*
X28018928Y105095239D02*
X27923690Y105047620D01*
X27733214Y105047620D01*
X27637976Y105095239D01*
X27590357Y105142858D01*
X27542738Y105238096D01*
X27542738Y105523810D01*
X27590357Y105619048D01*
X27637976Y105666667D01*
X27733214Y105714286D01*
X27923690Y105714286D01*
X28018928Y105666667D01*
X28590357Y105047620D02*
X28495119Y105095239D01*
X28447500Y105142858D01*
X28399880Y105238096D01*
X28399880Y105523810D01*
X28447500Y105619048D01*
X28495119Y105666667D01*
X28590357Y105714286D01*
X28733214Y105714286D01*
X28828452Y105666667D01*
X28876071Y105619048D01*
X28923690Y105523810D01*
X28923690Y105238096D01*
X28876071Y105142858D01*
X28828452Y105095239D01*
X28733214Y105047620D01*
X28590357Y105047620D01*
X29352261Y105714286D02*
X29352261Y105047620D01*
X29352261Y105619048D02*
X29399880Y105666667D01*
X29495119Y105714286D01*
X29637976Y105714286D01*
X29733214Y105666667D01*
X29780833Y105571429D01*
X29780833Y105047620D01*
X30114166Y105714286D02*
X30495119Y105714286D01*
X30257023Y105047620D02*
X30257023Y105904762D01*
X30304642Y106000000D01*
X30399880Y106047620D01*
X30495119Y106047620D01*
X31257023Y105047620D02*
X31257023Y105571429D01*
X31209404Y105666667D01*
X31114166Y105714286D01*
X30923690Y105714286D01*
X30828452Y105666667D01*
X31257023Y105095239D02*
X31161785Y105047620D01*
X30923690Y105047620D01*
X30828452Y105095239D01*
X30780833Y105190477D01*
X30780833Y105285715D01*
X30828452Y105380953D01*
X30923690Y105428572D01*
X31161785Y105428572D01*
X31257023Y105476191D01*
X32161785Y105714286D02*
X32161785Y105047620D01*
X31733214Y105714286D02*
X31733214Y105190477D01*
X31780833Y105095239D01*
X31876071Y105047620D01*
X32018928Y105047620D01*
X32114166Y105095239D01*
X32161785Y105142858D01*
D12*
%TO.C,J6*%
X4660280Y73128618D02*
G75*
G03*
X4660280Y73128618I-381000J0D01*
G01*
D10*
%TO.C,J7*%
X55199999Y10755000D02*
X55199999Y49490000D01*
X29800001Y49490000D02*
X29800001Y10755000D01*
X52659999Y52029999D02*
X32340001Y52029999D01*
X52659999Y52030000D02*
G75*
G02*
X55199999Y49490000I0J-2540000D01*
G01*
X29800002Y49490000D02*
G75*
G02*
X32340001Y52029999I2539999J0D01*
G01*
D12*
%TO.C,J4*%
X14182000Y119929000D02*
G75*
G03*
X14182000Y119929000I-381000J0D01*
G01*
D10*
%TO.C,SW4*%
X54500000Y96000000D02*
X58500000Y96000000D01*
X54500000Y93000000D02*
X58500000Y93000000D01*
%TO.C,SW3*%
X30500000Y93000000D02*
X26500000Y93000000D01*
X30500000Y96000000D02*
X26500000Y96000000D01*
D12*
%TO.C,J5*%
X75982974Y78247364D02*
G75*
G03*
X75982974Y78247364I-381000J0D01*
G01*
%TO.C,J3*%
X62182000Y119929000D02*
G75*
G03*
X62182000Y119929000I-381000J0D01*
G01*
D10*
%TO.C,SW1*%
X31500000Y93000000D02*
X25500000Y93000000D01*
X25500000Y93000000D02*
X25500000Y96000000D01*
X25500000Y96000000D02*
X31500000Y96000000D01*
X31500000Y96000000D02*
X31500000Y93000000D01*
%TO.C,SW2*%
X53500000Y96000000D02*
X59500000Y96000000D01*
X59500000Y96000000D02*
X59500000Y93000000D01*
X59500000Y93000000D02*
X53500000Y93000000D01*
X53500000Y93000000D02*
X53500000Y96000000D01*
D13*
%TO.C,T1*%
X16500000Y20000000D02*
X16500000Y40000000D01*
X22000000Y45500000D02*
G75*
G03*
X22000000Y45500000I-5500000J0D01*
G01*
X22000000Y14500000D02*
G75*
G03*
X22000000Y14500000I-5500000J0D01*
G01*
%TO.C,T2*%
X68500000Y20000000D02*
X68500000Y40000000D01*
X74000000Y45500000D02*
G75*
G03*
X74000000Y45500000I-5500000J0D01*
G01*
X74000000Y14500000D02*
G75*
G03*
X74000000Y14500000I-5500000J0D01*
G01*
D10*
%TO.C,J12*%
X13770000Y90340000D02*
X12500000Y90340000D01*
X13770000Y91610000D02*
X13770000Y90340000D01*
X8400000Y90280000D02*
X11060000Y90280000D01*
X8400000Y110720000D02*
X8400000Y90280000D01*
X11060000Y110720000D02*
X8400000Y110720000D01*
X11060000Y90280000D02*
X11060000Y110720000D01*
%TO.C,J13*%
X71230000Y110660000D02*
X72500000Y110660000D01*
X71230000Y109390000D02*
X71230000Y110660000D01*
X76600000Y110720000D02*
X73940000Y110720000D01*
X76600000Y90280000D02*
X76600000Y110720000D01*
X73940000Y90280000D02*
X76600000Y90280000D01*
X73940000Y110720000D02*
X73940000Y90280000D01*
D14*
%TO.C,L1*%
G36*
X19609296Y68081159D02*
G01*
X19217549Y68081159D01*
X19217549Y73396207D01*
X19609296Y73396207D01*
X19609296Y68081159D01*
G37*
X19609296Y68081159D02*
X19217549Y68081159D01*
X19217549Y73396207D01*
X19609296Y73396207D01*
X19609296Y68081159D01*
G36*
X33452772Y73395656D02*
G01*
X34294498Y72258084D01*
X34396452Y72120393D01*
X34494991Y71987505D01*
X34589377Y71860406D01*
X34678874Y71740080D01*
X34762745Y71627510D01*
X34840252Y71523682D01*
X34910660Y71429579D01*
X34973231Y71346185D01*
X35027228Y71274486D01*
X35071915Y71215464D01*
X35106555Y71170105D01*
X35130411Y71139393D01*
X35142746Y71124311D01*
X35144324Y71122877D01*
X35151496Y71131514D01*
X35170523Y71156184D01*
X35200667Y71195894D01*
X35241187Y71249656D01*
X35291344Y71316478D01*
X35350398Y71395370D01*
X35417609Y71485342D01*
X35492239Y71585404D01*
X35573547Y71694564D01*
X35660793Y71811832D01*
X35753239Y71936219D01*
X35850144Y72066733D01*
X35950769Y72202384D01*
X35992056Y72258078D01*
X36831687Y73390913D01*
X37051625Y73393778D01*
X37116997Y73394214D01*
X37174295Y73393799D01*
X37220477Y73392623D01*
X37252502Y73390772D01*
X37267329Y73388336D01*
X37267962Y73387488D01*
X37261361Y73378070D01*
X37242858Y73352570D01*
X37213146Y73311928D01*
X37172916Y73257084D01*
X37122862Y73188978D01*
X37063676Y73108551D01*
X36996052Y73016742D01*
X36920683Y72914492D01*
X36838260Y72802740D01*
X36749477Y72682428D01*
X36655026Y72554494D01*
X36555601Y72419880D01*
X36451894Y72279524D01*
X36344598Y72134368D01*
X36322051Y72103872D01*
X36214175Y71957900D01*
X36109819Y71816549D01*
X36009670Y71680759D01*
X35914417Y71551467D01*
X35824746Y71429610D01*
X35741345Y71316129D01*
X35664902Y71211959D01*
X35596105Y71118040D01*
X35535642Y71035310D01*
X35484199Y70964706D01*
X35442465Y70907167D01*
X35411128Y70863630D01*
X35390875Y70835035D01*
X35382394Y70822318D01*
X35382173Y70821751D01*
X35388651Y70812545D01*
X35407092Y70787251D01*
X35436824Y70746776D01*
X35477176Y70692026D01*
X35527477Y70623909D01*
X35587055Y70543329D01*
X35655240Y70451195D01*
X35731360Y70348411D01*
X35814744Y70235886D01*
X35904721Y70114524D01*
X36000619Y69985233D01*
X36101767Y69848919D01*
X36207495Y69706488D01*
X36317130Y69558846D01*
X36393847Y69455566D01*
X36505855Y69304779D01*
X36614476Y69158523D01*
X36719033Y69017709D01*
X36818851Y68883248D01*
X36913254Y68756053D01*
X37001566Y68637034D01*
X37083111Y68527104D01*
X37157212Y68427174D01*
X37223194Y68338155D01*
X37280382Y68260959D01*
X37328098Y68196497D01*
X37365667Y68145682D01*
X37392414Y68109423D01*
X37407661Y68088634D01*
X37411111Y68083806D01*
X37409627Y68079323D01*
X37397661Y68075918D01*
X37373150Y68073471D01*
X37334028Y68071859D01*
X37278233Y68070961D01*
X37203701Y68070655D01*
X37188224Y68070654D01*
X36957316Y68070736D01*
X36052063Y69289108D01*
X35946043Y69431761D01*
X35843403Y69569790D01*
X35744860Y69702235D01*
X35651130Y69828138D01*
X35562930Y69946537D01*
X35480975Y70056473D01*
X35405983Y70156986D01*
X35338670Y70247117D01*
X35279752Y70325905D01*
X35229945Y70392391D01*
X35189966Y70445616D01*
X35160531Y70484618D01*
X35142358Y70508439D01*
X35136223Y70516102D01*
X35128549Y70508870D01*
X35108788Y70485137D01*
X35077376Y70445477D01*
X35034746Y70390468D01*
X34981333Y70320685D01*
X34917573Y70236702D01*
X34843898Y70139097D01*
X34760744Y70028445D01*
X34668546Y69905321D01*
X34567738Y69770301D01*
X34458754Y69623961D01*
X34342029Y69466876D01*
X34217997Y69299623D01*
X34216534Y69297648D01*
X33307433Y68070571D01*
X33074408Y68070571D01*
X32996270Y68070799D01*
X32937245Y68071565D01*
X32895277Y68072991D01*
X32868309Y68075198D01*
X32854283Y68078311D01*
X32851143Y68082451D01*
X32851930Y68083806D01*
X32859328Y68093632D01*
X32878699Y68119528D01*
X32909364Y68160584D01*
X32950644Y68215890D01*
X33001861Y68284536D01*
X33062336Y68365611D01*
X33131390Y68458205D01*
X33208345Y68561408D01*
X33292522Y68674310D01*
X33383241Y68796001D01*
X33479825Y68925569D01*
X33581595Y69062106D01*
X33687871Y69204701D01*
X33797976Y69352443D01*
X33875012Y69455820D01*
X34000056Y69623761D01*
X34118913Y69783667D01*
X34231082Y69934856D01*
X34336061Y70076642D01*
X34433350Y70208342D01*
X34522447Y70329272D01*
X34602850Y70438748D01*
X34674059Y70536086D01*
X34735570Y70620601D01*
X34786885Y70691611D01*
X34827499Y70748430D01*
X34856914Y70790376D01*
X34874626Y70816764D01*
X34880135Y70826909D01*
X34880124Y70826933D01*
X34873091Y70836735D01*
X34854188Y70862632D01*
X34824115Y70903677D01*
X34783566Y70958921D01*
X34733241Y71027416D01*
X34673837Y71108214D01*
X34606051Y71200368D01*
X34530581Y71302928D01*
X34448124Y71414948D01*
X34359378Y71535479D01*
X34265040Y71663573D01*
X34165808Y71798282D01*
X34062379Y71938658D01*
X33955452Y72083752D01*
X33939222Y72105773D01*
X33831834Y72251485D01*
X33727841Y72392616D01*
X33627941Y72528218D01*
X33532830Y72657342D01*
X33443208Y72779041D01*
X33359770Y72892368D01*
X33283215Y72996374D01*
X33214239Y73090112D01*
X33153541Y73172635D01*
X33101817Y73242994D01*
X33059766Y73300243D01*
X33028084Y73343432D01*
X33007469Y73371615D01*
X32998619Y73383844D01*
X32998350Y73384243D01*
X33002021Y73388435D01*
X33019894Y73391615D01*
X33053494Y73393865D01*
X33104349Y73395262D01*
X33173985Y73395888D01*
X33221864Y73395932D01*
X33452772Y73395656D01*
G37*
X33452772Y73395656D02*
X34294498Y72258084D01*
X34396452Y72120393D01*
X34494991Y71987505D01*
X34589377Y71860406D01*
X34678874Y71740080D01*
X34762745Y71627510D01*
X34840252Y71523682D01*
X34910660Y71429579D01*
X34973231Y71346185D01*
X35027228Y71274486D01*
X35071915Y71215464D01*
X35106555Y71170105D01*
X35130411Y71139393D01*
X35142746Y71124311D01*
X35144324Y71122877D01*
X35151496Y71131514D01*
X35170523Y71156184D01*
X35200667Y71195894D01*
X35241187Y71249656D01*
X35291344Y71316478D01*
X35350398Y71395370D01*
X35417609Y71485342D01*
X35492239Y71585404D01*
X35573547Y71694564D01*
X35660793Y71811832D01*
X35753239Y71936219D01*
X35850144Y72066733D01*
X35950769Y72202384D01*
X35992056Y72258078D01*
X36831687Y73390913D01*
X37051625Y73393778D01*
X37116997Y73394214D01*
X37174295Y73393799D01*
X37220477Y73392623D01*
X37252502Y73390772D01*
X37267329Y73388336D01*
X37267962Y73387488D01*
X37261361Y73378070D01*
X37242858Y73352570D01*
X37213146Y73311928D01*
X37172916Y73257084D01*
X37122862Y73188978D01*
X37063676Y73108551D01*
X36996052Y73016742D01*
X36920683Y72914492D01*
X36838260Y72802740D01*
X36749477Y72682428D01*
X36655026Y72554494D01*
X36555601Y72419880D01*
X36451894Y72279524D01*
X36344598Y72134368D01*
X36322051Y72103872D01*
X36214175Y71957900D01*
X36109819Y71816549D01*
X36009670Y71680759D01*
X35914417Y71551467D01*
X35824746Y71429610D01*
X35741345Y71316129D01*
X35664902Y71211959D01*
X35596105Y71118040D01*
X35535642Y71035310D01*
X35484199Y70964706D01*
X35442465Y70907167D01*
X35411128Y70863630D01*
X35390875Y70835035D01*
X35382394Y70822318D01*
X35382173Y70821751D01*
X35388651Y70812545D01*
X35407092Y70787251D01*
X35436824Y70746776D01*
X35477176Y70692026D01*
X35527477Y70623909D01*
X35587055Y70543329D01*
X35655240Y70451195D01*
X35731360Y70348411D01*
X35814744Y70235886D01*
X35904721Y70114524D01*
X36000619Y69985233D01*
X36101767Y69848919D01*
X36207495Y69706488D01*
X36317130Y69558846D01*
X36393847Y69455566D01*
X36505855Y69304779D01*
X36614476Y69158523D01*
X36719033Y69017709D01*
X36818851Y68883248D01*
X36913254Y68756053D01*
X37001566Y68637034D01*
X37083111Y68527104D01*
X37157212Y68427174D01*
X37223194Y68338155D01*
X37280382Y68260959D01*
X37328098Y68196497D01*
X37365667Y68145682D01*
X37392414Y68109423D01*
X37407661Y68088634D01*
X37411111Y68083806D01*
X37409627Y68079323D01*
X37397661Y68075918D01*
X37373150Y68073471D01*
X37334028Y68071859D01*
X37278233Y68070961D01*
X37203701Y68070655D01*
X37188224Y68070654D01*
X36957316Y68070736D01*
X36052063Y69289108D01*
X35946043Y69431761D01*
X35843403Y69569790D01*
X35744860Y69702235D01*
X35651130Y69828138D01*
X35562930Y69946537D01*
X35480975Y70056473D01*
X35405983Y70156986D01*
X35338670Y70247117D01*
X35279752Y70325905D01*
X35229945Y70392391D01*
X35189966Y70445616D01*
X35160531Y70484618D01*
X35142358Y70508439D01*
X35136223Y70516102D01*
X35128549Y70508870D01*
X35108788Y70485137D01*
X35077376Y70445477D01*
X35034746Y70390468D01*
X34981333Y70320685D01*
X34917573Y70236702D01*
X34843898Y70139097D01*
X34760744Y70028445D01*
X34668546Y69905321D01*
X34567738Y69770301D01*
X34458754Y69623961D01*
X34342029Y69466876D01*
X34217997Y69299623D01*
X34216534Y69297648D01*
X33307433Y68070571D01*
X33074408Y68070571D01*
X32996270Y68070799D01*
X32937245Y68071565D01*
X32895277Y68072991D01*
X32868309Y68075198D01*
X32854283Y68078311D01*
X32851143Y68082451D01*
X32851930Y68083806D01*
X32859328Y68093632D01*
X32878699Y68119528D01*
X32909364Y68160584D01*
X32950644Y68215890D01*
X33001861Y68284536D01*
X33062336Y68365611D01*
X33131390Y68458205D01*
X33208345Y68561408D01*
X33292522Y68674310D01*
X33383241Y68796001D01*
X33479825Y68925569D01*
X33581595Y69062106D01*
X33687871Y69204701D01*
X33797976Y69352443D01*
X33875012Y69455820D01*
X34000056Y69623761D01*
X34118913Y69783667D01*
X34231082Y69934856D01*
X34336061Y70076642D01*
X34433350Y70208342D01*
X34522447Y70329272D01*
X34602850Y70438748D01*
X34674059Y70536086D01*
X34735570Y70620601D01*
X34786885Y70691611D01*
X34827499Y70748430D01*
X34856914Y70790376D01*
X34874626Y70816764D01*
X34880135Y70826909D01*
X34880124Y70826933D01*
X34873091Y70836735D01*
X34854188Y70862632D01*
X34824115Y70903677D01*
X34783566Y70958921D01*
X34733241Y71027416D01*
X34673837Y71108214D01*
X34606051Y71200368D01*
X34530581Y71302928D01*
X34448124Y71414948D01*
X34359378Y71535479D01*
X34265040Y71663573D01*
X34165808Y71798282D01*
X34062379Y71938658D01*
X33955452Y72083752D01*
X33939222Y72105773D01*
X33831834Y72251485D01*
X33727841Y72392616D01*
X33627941Y72528218D01*
X33532830Y72657342D01*
X33443208Y72779041D01*
X33359770Y72892368D01*
X33283215Y72996374D01*
X33214239Y73090112D01*
X33153541Y73172635D01*
X33101817Y73242994D01*
X33059766Y73300243D01*
X33028084Y73343432D01*
X33007469Y73371615D01*
X32998619Y73383844D01*
X32998350Y73384243D01*
X33002021Y73388435D01*
X33019894Y73391615D01*
X33053494Y73393865D01*
X33104349Y73395262D01*
X33173985Y73395888D01*
X33221864Y73395932D01*
X33452772Y73395656D01*
G36*
X25803126Y68080621D02*
G01*
X25637383Y68083537D01*
X25471639Y68086453D01*
X21859191Y72682695D01*
X21856521Y70376633D01*
X21853850Y68070571D01*
X21462151Y68070571D01*
X21462151Y73385619D01*
X21797884Y73385619D01*
X23607279Y71077903D01*
X25416674Y68770186D01*
X25419344Y71083196D01*
X25422015Y73396207D01*
X25803126Y73396207D01*
X25803126Y68080621D01*
G37*
X25803126Y68080621D02*
X25637383Y68083537D01*
X25471639Y68086453D01*
X21859191Y72682695D01*
X21856521Y70376633D01*
X21853850Y68070571D01*
X21462151Y68070571D01*
X21462151Y73385619D01*
X21797884Y73385619D01*
X23607279Y71077903D01*
X25416674Y68770186D01*
X25419344Y71083196D01*
X25422015Y73396207D01*
X25803126Y73396207D01*
X25803126Y68080621D01*
G36*
X15151855Y68419967D02*
G01*
X18222301Y68419967D01*
X18222301Y68070571D01*
X14760108Y68070571D01*
X14760108Y73396207D01*
X15151855Y73396207D01*
X15151855Y68419967D01*
G37*
X15151855Y68419967D02*
X18222301Y68419967D01*
X18222301Y68070571D01*
X14760108Y68070571D01*
X14760108Y73396207D01*
X15151855Y73396207D01*
X15151855Y68419967D01*
G36*
X63945186Y70736036D02*
G01*
X64048496Y70511836D01*
X64149539Y70292564D01*
X64247955Y70079004D01*
X64343382Y69871942D01*
X64435458Y69672162D01*
X64523822Y69480449D01*
X64608111Y69297586D01*
X64687964Y69124359D01*
X64763020Y68961552D01*
X64832916Y68809950D01*
X64897291Y68670337D01*
X64955783Y68543497D01*
X65008031Y68430216D01*
X65053673Y68331278D01*
X65092346Y68247466D01*
X65123690Y68179567D01*
X65147343Y68128364D01*
X65162942Y68094642D01*
X65170127Y68079185D01*
X65170553Y68078291D01*
X65172594Y68071967D01*
X65169774Y68067311D01*
X65159521Y68064122D01*
X65139262Y68062203D01*
X65106425Y68061352D01*
X65058438Y68061370D01*
X64992727Y68062058D01*
X64965852Y68062410D01*
X64751773Y68065278D01*
X64073629Y69552926D01*
X60981501Y69547562D01*
X60313881Y68060696D01*
X59886051Y68059984D01*
X59909387Y68110452D01*
X59915774Y68124296D01*
X59930656Y68156568D01*
X59953663Y68206467D01*
X59984426Y68273191D01*
X60022573Y68355937D01*
X60067736Y68453903D01*
X60119546Y68566287D01*
X60177631Y68692287D01*
X60241622Y68831101D01*
X60311151Y68981926D01*
X60385846Y69143962D01*
X60465338Y69316405D01*
X60549257Y69498453D01*
X60637234Y69689305D01*
X60728899Y69888158D01*
X60734198Y69899655D01*
X61144880Y69899655D01*
X61155251Y69898529D01*
X61185382Y69897396D01*
X61233857Y69896273D01*
X61299259Y69895171D01*
X61380172Y69894107D01*
X61475182Y69893094D01*
X61582871Y69892146D01*
X61701823Y69891278D01*
X61830623Y69890503D01*
X61967855Y69889836D01*
X62112103Y69889292D01*
X62206440Y69889016D01*
X62363045Y69888592D01*
X62519538Y69888134D01*
X62673859Y69887648D01*
X62823950Y69887145D01*
X62967751Y69886630D01*
X63103203Y69886112D01*
X63228247Y69885600D01*
X63340823Y69885101D01*
X63438872Y69884622D01*
X63520334Y69884172D01*
X63583151Y69883760D01*
X63594670Y69883671D01*
X63686481Y69883004D01*
X63759265Y69882695D01*
X63815169Y69882850D01*
X63856339Y69883575D01*
X63884922Y69884976D01*
X63903065Y69887161D01*
X63912915Y69890236D01*
X63916618Y69894306D01*
X63916322Y69899478D01*
X63916287Y69899604D01*
X63911354Y69911368D01*
X63898263Y69941083D01*
X63877585Y69987488D01*
X63849890Y70049327D01*
X63815747Y70125339D01*
X63775727Y70214267D01*
X63730400Y70314851D01*
X63680337Y70425832D01*
X63626108Y70545951D01*
X63568282Y70673951D01*
X63507431Y70808571D01*
X63444124Y70948553D01*
X63378931Y71092639D01*
X63312424Y71239569D01*
X63245171Y71388084D01*
X63177743Y71536926D01*
X63110711Y71684836D01*
X63044645Y71830556D01*
X62980115Y71972825D01*
X62917690Y72110386D01*
X62857942Y72241979D01*
X62801441Y72366346D01*
X62748756Y72482228D01*
X62700459Y72588366D01*
X62657118Y72683502D01*
X62619305Y72766375D01*
X62587590Y72835729D01*
X62562542Y72890303D01*
X62544733Y72928839D01*
X62534732Y72950078D01*
X62532725Y72953987D01*
X62527881Y72945219D01*
X62514892Y72918399D01*
X62494326Y72874776D01*
X62466749Y72815598D01*
X62432730Y72742114D01*
X62392835Y72655571D01*
X62347631Y72557218D01*
X62297687Y72448304D01*
X62243568Y72330077D01*
X62185842Y72203785D01*
X62125078Y72070677D01*
X62061841Y71932002D01*
X61996699Y71789007D01*
X61930219Y71642941D01*
X61862969Y71495053D01*
X61795516Y71346591D01*
X61728427Y71198803D01*
X61662270Y71052938D01*
X61597611Y70910244D01*
X61535019Y70771969D01*
X61475059Y70639363D01*
X61418300Y70513673D01*
X61365308Y70396148D01*
X61316652Y70288036D01*
X61272898Y70190586D01*
X61234613Y70105046D01*
X61202366Y70032664D01*
X61176722Y69974689D01*
X61158249Y69932370D01*
X61147515Y69906955D01*
X61144880Y69899655D01*
X60734198Y69899655D01*
X60823882Y70094210D01*
X60921813Y70306659D01*
X61022322Y70524703D01*
X61125040Y70747540D01*
X61134431Y70767912D01*
X62336140Y73374903D01*
X62532669Y73374967D01*
X62729198Y73375032D01*
X63945186Y70736036D01*
G37*
X63945186Y70736036D02*
X64048496Y70511836D01*
X64149539Y70292564D01*
X64247955Y70079004D01*
X64343382Y69871942D01*
X64435458Y69672162D01*
X64523822Y69480449D01*
X64608111Y69297586D01*
X64687964Y69124359D01*
X64763020Y68961552D01*
X64832916Y68809950D01*
X64897291Y68670337D01*
X64955783Y68543497D01*
X65008031Y68430216D01*
X65053673Y68331278D01*
X65092346Y68247466D01*
X65123690Y68179567D01*
X65147343Y68128364D01*
X65162942Y68094642D01*
X65170127Y68079185D01*
X65170553Y68078291D01*
X65172594Y68071967D01*
X65169774Y68067311D01*
X65159521Y68064122D01*
X65139262Y68062203D01*
X65106425Y68061352D01*
X65058438Y68061370D01*
X64992727Y68062058D01*
X64965852Y68062410D01*
X64751773Y68065278D01*
X64073629Y69552926D01*
X60981501Y69547562D01*
X60313881Y68060696D01*
X59886051Y68059984D01*
X59909387Y68110452D01*
X59915774Y68124296D01*
X59930656Y68156568D01*
X59953663Y68206467D01*
X59984426Y68273191D01*
X60022573Y68355937D01*
X60067736Y68453903D01*
X60119546Y68566287D01*
X60177631Y68692287D01*
X60241622Y68831101D01*
X60311151Y68981926D01*
X60385846Y69143962D01*
X60465338Y69316405D01*
X60549257Y69498453D01*
X60637234Y69689305D01*
X60728899Y69888158D01*
X60734198Y69899655D01*
X61144880Y69899655D01*
X61155251Y69898529D01*
X61185382Y69897396D01*
X61233857Y69896273D01*
X61299259Y69895171D01*
X61380172Y69894107D01*
X61475182Y69893094D01*
X61582871Y69892146D01*
X61701823Y69891278D01*
X61830623Y69890503D01*
X61967855Y69889836D01*
X62112103Y69889292D01*
X62206440Y69889016D01*
X62363045Y69888592D01*
X62519538Y69888134D01*
X62673859Y69887648D01*
X62823950Y69887145D01*
X62967751Y69886630D01*
X63103203Y69886112D01*
X63228247Y69885600D01*
X63340823Y69885101D01*
X63438872Y69884622D01*
X63520334Y69884172D01*
X63583151Y69883760D01*
X63594670Y69883671D01*
X63686481Y69883004D01*
X63759265Y69882695D01*
X63815169Y69882850D01*
X63856339Y69883575D01*
X63884922Y69884976D01*
X63903065Y69887161D01*
X63912915Y69890236D01*
X63916618Y69894306D01*
X63916322Y69899478D01*
X63916287Y69899604D01*
X63911354Y69911368D01*
X63898263Y69941083D01*
X63877585Y69987488D01*
X63849890Y70049327D01*
X63815747Y70125339D01*
X63775727Y70214267D01*
X63730400Y70314851D01*
X63680337Y70425832D01*
X63626108Y70545951D01*
X63568282Y70673951D01*
X63507431Y70808571D01*
X63444124Y70948553D01*
X63378931Y71092639D01*
X63312424Y71239569D01*
X63245171Y71388084D01*
X63177743Y71536926D01*
X63110711Y71684836D01*
X63044645Y71830556D01*
X62980115Y71972825D01*
X62917690Y72110386D01*
X62857942Y72241979D01*
X62801441Y72366346D01*
X62748756Y72482228D01*
X62700459Y72588366D01*
X62657118Y72683502D01*
X62619305Y72766375D01*
X62587590Y72835729D01*
X62562542Y72890303D01*
X62544733Y72928839D01*
X62534732Y72950078D01*
X62532725Y72953987D01*
X62527881Y72945219D01*
X62514892Y72918399D01*
X62494326Y72874776D01*
X62466749Y72815598D01*
X62432730Y72742114D01*
X62392835Y72655571D01*
X62347631Y72557218D01*
X62297687Y72448304D01*
X62243568Y72330077D01*
X62185842Y72203785D01*
X62125078Y72070677D01*
X62061841Y71932002D01*
X61996699Y71789007D01*
X61930219Y71642941D01*
X61862969Y71495053D01*
X61795516Y71346591D01*
X61728427Y71198803D01*
X61662270Y71052938D01*
X61597611Y70910244D01*
X61535019Y70771969D01*
X61475059Y70639363D01*
X61418300Y70513673D01*
X61365308Y70396148D01*
X61316652Y70288036D01*
X61272898Y70190586D01*
X61234613Y70105046D01*
X61202366Y70032664D01*
X61176722Y69974689D01*
X61158249Y69932370D01*
X61147515Y69906955D01*
X61144880Y69899655D01*
X60734198Y69899655D01*
X60823882Y70094210D01*
X60921813Y70306659D01*
X61022322Y70524703D01*
X61125040Y70747540D01*
X61134431Y70767912D01*
X62336140Y73374903D01*
X62532669Y73374967D01*
X62729198Y73375032D01*
X63945186Y70736036D01*
G36*
X66378216Y71710109D02*
G01*
X66378705Y71487028D01*
X66379187Y71284089D01*
X66379674Y71100258D01*
X66380179Y70934503D01*
X66380714Y70785790D01*
X66381292Y70653085D01*
X66381925Y70535355D01*
X66382626Y70431566D01*
X66383408Y70340686D01*
X66384282Y70261680D01*
X66385262Y70193516D01*
X66386360Y70135160D01*
X66387589Y70085578D01*
X66388961Y70043737D01*
X66390488Y70008604D01*
X66392184Y69979145D01*
X66394060Y69954326D01*
X66396130Y69933115D01*
X66398405Y69914478D01*
X66400151Y69902251D01*
X66433410Y69715241D01*
X66474462Y69545943D01*
X66524097Y69392084D01*
X66583106Y69251392D01*
X66652279Y69121595D01*
X66695330Y69053449D01*
X66768956Y68955508D01*
X66853807Y68866108D01*
X66952224Y68783331D01*
X67066550Y68705258D01*
X67199130Y68629969D01*
X67234766Y68611677D01*
X67413177Y68531140D01*
X67590530Y68470466D01*
X67770282Y68428828D01*
X67955886Y68405397D01*
X68122343Y68399179D01*
X68326604Y68409207D01*
X68524562Y68439349D01*
X68716466Y68489693D01*
X68902569Y68560326D01*
X69083125Y68651337D01*
X69258383Y68762813D01*
X69340498Y68823461D01*
X69438183Y68911910D01*
X69526833Y69019105D01*
X69606199Y69144524D01*
X69676029Y69287645D01*
X69736073Y69447947D01*
X69786080Y69624906D01*
X69825799Y69818002D01*
X69829851Y69842165D01*
X69832830Y69860613D01*
X69835540Y69878581D01*
X69837997Y69897111D01*
X69840215Y69917246D01*
X69842209Y69940029D01*
X69843994Y69966501D01*
X69845584Y69997707D01*
X69846995Y70034687D01*
X69848240Y70078485D01*
X69849336Y70130143D01*
X69850296Y70190704D01*
X69851136Y70261211D01*
X69851870Y70342705D01*
X69852513Y70436229D01*
X69853080Y70542827D01*
X69853585Y70663540D01*
X69854044Y70799410D01*
X69854471Y70951482D01*
X69854881Y71120796D01*
X69855289Y71308396D01*
X69855710Y71515325D01*
X69856053Y71688933D01*
X69859405Y73396207D01*
X70250479Y73396207D01*
X70250370Y71768341D01*
X70250335Y71542490D01*
X70250248Y71336703D01*
X70250087Y71149871D01*
X70249831Y70980883D01*
X70249459Y70828629D01*
X70248950Y70691999D01*
X70248283Y70569882D01*
X70247436Y70461167D01*
X70246388Y70364745D01*
X70245118Y70279504D01*
X70243605Y70204335D01*
X70241828Y70138127D01*
X70239765Y70079769D01*
X70237396Y70028152D01*
X70234698Y69982164D01*
X70231651Y69940696D01*
X70228234Y69902637D01*
X70224426Y69866877D01*
X70220204Y69832305D01*
X70215549Y69797810D01*
X70212323Y69775198D01*
X70178187Y69588095D01*
X70131423Y69407788D01*
X70072946Y69236124D01*
X70003673Y69074951D01*
X69924518Y68926117D01*
X69836399Y68791471D01*
X69740229Y68672859D01*
X69636926Y68572130D01*
X69601977Y68543558D01*
X69420519Y68415249D01*
X69228231Y68304422D01*
X69026822Y68211602D01*
X68818003Y68137315D01*
X68603484Y68082085D01*
X68384977Y68046438D01*
X68164192Y68030899D01*
X67947645Y68035659D01*
X67735082Y68060346D01*
X67523202Y68104715D01*
X67314799Y68167733D01*
X67112665Y68248365D01*
X66919592Y68345577D01*
X66738374Y68458335D01*
X66666625Y68509963D01*
X66599890Y68562860D01*
X66542973Y68614977D01*
X66489519Y68672679D01*
X66433175Y68742328D01*
X66428504Y68748409D01*
X66321980Y68903710D01*
X66230371Y69072147D01*
X66153515Y69254202D01*
X66091253Y69450356D01*
X66043425Y69661092D01*
X66009872Y69886892D01*
X65994683Y70055774D01*
X65993224Y70088393D01*
X65991847Y70141298D01*
X65990559Y70213599D01*
X65989365Y70304406D01*
X65988272Y70412829D01*
X65987283Y70537977D01*
X65986406Y70678962D01*
X65985645Y70834894D01*
X65985006Y71004882D01*
X65984495Y71188037D01*
X65984117Y71383469D01*
X65983877Y71590288D01*
X65983782Y71805398D01*
X65983618Y73396207D01*
X66374627Y73396207D01*
X66378216Y71710109D01*
G37*
X66378216Y71710109D02*
X66378705Y71487028D01*
X66379187Y71284089D01*
X66379674Y71100258D01*
X66380179Y70934503D01*
X66380714Y70785790D01*
X66381292Y70653085D01*
X66381925Y70535355D01*
X66382626Y70431566D01*
X66383408Y70340686D01*
X66384282Y70261680D01*
X66385262Y70193516D01*
X66386360Y70135160D01*
X66387589Y70085578D01*
X66388961Y70043737D01*
X66390488Y70008604D01*
X66392184Y69979145D01*
X66394060Y69954326D01*
X66396130Y69933115D01*
X66398405Y69914478D01*
X66400151Y69902251D01*
X66433410Y69715241D01*
X66474462Y69545943D01*
X66524097Y69392084D01*
X66583106Y69251392D01*
X66652279Y69121595D01*
X66695330Y69053449D01*
X66768956Y68955508D01*
X66853807Y68866108D01*
X66952224Y68783331D01*
X67066550Y68705258D01*
X67199130Y68629969D01*
X67234766Y68611677D01*
X67413177Y68531140D01*
X67590530Y68470466D01*
X67770282Y68428828D01*
X67955886Y68405397D01*
X68122343Y68399179D01*
X68326604Y68409207D01*
X68524562Y68439349D01*
X68716466Y68489693D01*
X68902569Y68560326D01*
X69083125Y68651337D01*
X69258383Y68762813D01*
X69340498Y68823461D01*
X69438183Y68911910D01*
X69526833Y69019105D01*
X69606199Y69144524D01*
X69676029Y69287645D01*
X69736073Y69447947D01*
X69786080Y69624906D01*
X69825799Y69818002D01*
X69829851Y69842165D01*
X69832830Y69860613D01*
X69835540Y69878581D01*
X69837997Y69897111D01*
X69840215Y69917246D01*
X69842209Y69940029D01*
X69843994Y69966501D01*
X69845584Y69997707D01*
X69846995Y70034687D01*
X69848240Y70078485D01*
X69849336Y70130143D01*
X69850296Y70190704D01*
X69851136Y70261211D01*
X69851870Y70342705D01*
X69852513Y70436229D01*
X69853080Y70542827D01*
X69853585Y70663540D01*
X69854044Y70799410D01*
X69854471Y70951482D01*
X69854881Y71120796D01*
X69855289Y71308396D01*
X69855710Y71515325D01*
X69856053Y71688933D01*
X69859405Y73396207D01*
X70250479Y73396207D01*
X70250370Y71768341D01*
X70250335Y71542490D01*
X70250248Y71336703D01*
X70250087Y71149871D01*
X70249831Y70980883D01*
X70249459Y70828629D01*
X70248950Y70691999D01*
X70248283Y70569882D01*
X70247436Y70461167D01*
X70246388Y70364745D01*
X70245118Y70279504D01*
X70243605Y70204335D01*
X70241828Y70138127D01*
X70239765Y70079769D01*
X70237396Y70028152D01*
X70234698Y69982164D01*
X70231651Y69940696D01*
X70228234Y69902637D01*
X70224426Y69866877D01*
X70220204Y69832305D01*
X70215549Y69797810D01*
X70212323Y69775198D01*
X70178187Y69588095D01*
X70131423Y69407788D01*
X70072946Y69236124D01*
X70003673Y69074951D01*
X69924518Y68926117D01*
X69836399Y68791471D01*
X69740229Y68672859D01*
X69636926Y68572130D01*
X69601977Y68543558D01*
X69420519Y68415249D01*
X69228231Y68304422D01*
X69026822Y68211602D01*
X68818003Y68137315D01*
X68603484Y68082085D01*
X68384977Y68046438D01*
X68164192Y68030899D01*
X67947645Y68035659D01*
X67735082Y68060346D01*
X67523202Y68104715D01*
X67314799Y68167733D01*
X67112665Y68248365D01*
X66919592Y68345577D01*
X66738374Y68458335D01*
X66666625Y68509963D01*
X66599890Y68562860D01*
X66542973Y68614977D01*
X66489519Y68672679D01*
X66433175Y68742328D01*
X66428504Y68748409D01*
X66321980Y68903710D01*
X66230371Y69072147D01*
X66153515Y69254202D01*
X66091253Y69450356D01*
X66043425Y69661092D01*
X66009872Y69886892D01*
X65994683Y70055774D01*
X65993224Y70088393D01*
X65991847Y70141298D01*
X65990559Y70213599D01*
X65989365Y70304406D01*
X65988272Y70412829D01*
X65987283Y70537977D01*
X65986406Y70678962D01*
X65985645Y70834894D01*
X65985006Y71004882D01*
X65984495Y71188037D01*
X65984117Y71383469D01*
X65983877Y71590288D01*
X65983782Y71805398D01*
X65983618Y73396207D01*
X66374627Y73396207D01*
X66378216Y71710109D01*
G36*
X28008068Y71704815D02*
G01*
X28011495Y70013423D01*
X28035301Y69865194D01*
X28073005Y69668335D01*
X28120275Y69489463D01*
X28177727Y69327375D01*
X28245976Y69180867D01*
X28325638Y69048735D01*
X28417327Y68929777D01*
X28521659Y68822788D01*
X28603585Y68753559D01*
X28759654Y68644562D01*
X28923906Y68555083D01*
X29096427Y68485086D01*
X29277307Y68434537D01*
X29466634Y68403401D01*
X29503608Y68399674D01*
X29575854Y68394997D01*
X29660633Y68392578D01*
X29752847Y68392291D01*
X29847399Y68394013D01*
X29939191Y68397618D01*
X30023123Y68402983D01*
X30094099Y68409982D01*
X30128478Y68414937D01*
X30299912Y68453160D01*
X30465191Y68507942D01*
X30622284Y68578047D01*
X30769159Y68662237D01*
X30903782Y68759274D01*
X31024124Y68867922D01*
X31128150Y68986943D01*
X31174822Y69052072D01*
X31257866Y69191629D01*
X31327896Y69341821D01*
X31385363Y69504144D01*
X31430715Y69680099D01*
X31464401Y69871181D01*
X31486871Y70078890D01*
X31488334Y70098125D01*
X31489896Y70130488D01*
X31491354Y70183319D01*
X31492704Y70255910D01*
X31493942Y70347551D01*
X31495063Y70457535D01*
X31496063Y70585154D01*
X31496936Y70729700D01*
X31497679Y70890465D01*
X31498287Y71066741D01*
X31498756Y71257819D01*
X31499081Y71462992D01*
X31499257Y71681552D01*
X31499290Y71821280D01*
X31499333Y73396207D01*
X31891080Y73396207D01*
X31890936Y71868925D01*
X31890846Y71685036D01*
X31890617Y71504804D01*
X31890257Y71329609D01*
X31889774Y71160834D01*
X31889177Y70999859D01*
X31888475Y70848066D01*
X31887675Y70706837D01*
X31886786Y70577553D01*
X31885816Y70461596D01*
X31884774Y70360346D01*
X31883668Y70275186D01*
X31882506Y70207497D01*
X31881297Y70158660D01*
X31880450Y70136883D01*
X31861006Y69894674D01*
X31827863Y69668413D01*
X31780881Y69457781D01*
X31719918Y69262459D01*
X31644832Y69082129D01*
X31555484Y68916473D01*
X31451731Y68765172D01*
X31333433Y68627906D01*
X31200448Y68504358D01*
X31134056Y68451858D01*
X30958497Y68333020D01*
X30773347Y68232915D01*
X30579611Y68151943D01*
X30378294Y68090503D01*
X30170402Y68048996D01*
X30096457Y68039272D01*
X30053196Y68035858D01*
X29992867Y68033227D01*
X29919561Y68031372D01*
X29837370Y68030286D01*
X29750387Y68029962D01*
X29662704Y68030392D01*
X29578413Y68031569D01*
X29501605Y68033486D01*
X29436373Y68036134D01*
X29386810Y68039508D01*
X29376490Y68040560D01*
X29207571Y68068257D01*
X29034040Y68112877D01*
X28861131Y68172595D01*
X28694077Y68245587D01*
X28538111Y68330029D01*
X28527256Y68336620D01*
X28373611Y68441002D01*
X28235110Y68557097D01*
X28111348Y68685602D01*
X28001922Y68827215D01*
X27906427Y68982635D01*
X27824459Y69152560D01*
X27755613Y69337687D01*
X27699484Y69538715D01*
X27655670Y69756342D01*
X27638311Y69871176D01*
X27635942Y69890156D01*
X27633779Y69911323D01*
X27631812Y69935709D01*
X27630026Y69964344D01*
X27628412Y69998261D01*
X27626955Y70038491D01*
X27625643Y70086065D01*
X27624466Y70142015D01*
X27623409Y70207373D01*
X27622462Y70283170D01*
X27621611Y70370437D01*
X27620845Y70470207D01*
X27620151Y70583510D01*
X27619517Y70711377D01*
X27618930Y70854842D01*
X27618379Y71014934D01*
X27617852Y71192686D01*
X27617336Y71389129D01*
X27616818Y71605295D01*
X27616603Y71699521D01*
X27612783Y73396207D01*
X28004642Y73396207D01*
X28008068Y71704815D01*
G37*
X28008068Y71704815D02*
X28011495Y70013423D01*
X28035301Y69865194D01*
X28073005Y69668335D01*
X28120275Y69489463D01*
X28177727Y69327375D01*
X28245976Y69180867D01*
X28325638Y69048735D01*
X28417327Y68929777D01*
X28521659Y68822788D01*
X28603585Y68753559D01*
X28759654Y68644562D01*
X28923906Y68555083D01*
X29096427Y68485086D01*
X29277307Y68434537D01*
X29466634Y68403401D01*
X29503608Y68399674D01*
X29575854Y68394997D01*
X29660633Y68392578D01*
X29752847Y68392291D01*
X29847399Y68394013D01*
X29939191Y68397618D01*
X30023123Y68402983D01*
X30094099Y68409982D01*
X30128478Y68414937D01*
X30299912Y68453160D01*
X30465191Y68507942D01*
X30622284Y68578047D01*
X30769159Y68662237D01*
X30903782Y68759274D01*
X31024124Y68867922D01*
X31128150Y68986943D01*
X31174822Y69052072D01*
X31257866Y69191629D01*
X31327896Y69341821D01*
X31385363Y69504144D01*
X31430715Y69680099D01*
X31464401Y69871181D01*
X31486871Y70078890D01*
X31488334Y70098125D01*
X31489896Y70130488D01*
X31491354Y70183319D01*
X31492704Y70255910D01*
X31493942Y70347551D01*
X31495063Y70457535D01*
X31496063Y70585154D01*
X31496936Y70729700D01*
X31497679Y70890465D01*
X31498287Y71066741D01*
X31498756Y71257819D01*
X31499081Y71462992D01*
X31499257Y71681552D01*
X31499290Y71821280D01*
X31499333Y73396207D01*
X31891080Y73396207D01*
X31890936Y71868925D01*
X31890846Y71685036D01*
X31890617Y71504804D01*
X31890257Y71329609D01*
X31889774Y71160834D01*
X31889177Y70999859D01*
X31888475Y70848066D01*
X31887675Y70706837D01*
X31886786Y70577553D01*
X31885816Y70461596D01*
X31884774Y70360346D01*
X31883668Y70275186D01*
X31882506Y70207497D01*
X31881297Y70158660D01*
X31880450Y70136883D01*
X31861006Y69894674D01*
X31827863Y69668413D01*
X31780881Y69457781D01*
X31719918Y69262459D01*
X31644832Y69082129D01*
X31555484Y68916473D01*
X31451731Y68765172D01*
X31333433Y68627906D01*
X31200448Y68504358D01*
X31134056Y68451858D01*
X30958497Y68333020D01*
X30773347Y68232915D01*
X30579611Y68151943D01*
X30378294Y68090503D01*
X30170402Y68048996D01*
X30096457Y68039272D01*
X30053196Y68035858D01*
X29992867Y68033227D01*
X29919561Y68031372D01*
X29837370Y68030286D01*
X29750387Y68029962D01*
X29662704Y68030392D01*
X29578413Y68031569D01*
X29501605Y68033486D01*
X29436373Y68036134D01*
X29386810Y68039508D01*
X29376490Y68040560D01*
X29207571Y68068257D01*
X29034040Y68112877D01*
X28861131Y68172595D01*
X28694077Y68245587D01*
X28538111Y68330029D01*
X28527256Y68336620D01*
X28373611Y68441002D01*
X28235110Y68557097D01*
X28111348Y68685602D01*
X28001922Y68827215D01*
X27906427Y68982635D01*
X27824459Y69152560D01*
X27755613Y69337687D01*
X27699484Y69538715D01*
X27655670Y69756342D01*
X27638311Y69871176D01*
X27635942Y69890156D01*
X27633779Y69911323D01*
X27631812Y69935709D01*
X27630026Y69964344D01*
X27628412Y69998261D01*
X27626955Y70038491D01*
X27625643Y70086065D01*
X27624466Y70142015D01*
X27623409Y70207373D01*
X27622462Y70283170D01*
X27621611Y70370437D01*
X27620845Y70470207D01*
X27620151Y70583510D01*
X27619517Y70711377D01*
X27618930Y70854842D01*
X27618379Y71014934D01*
X27617852Y71192686D01*
X27617336Y71389129D01*
X27616818Y71605295D01*
X27616603Y71699521D01*
X27612783Y73396207D01*
X28004642Y73396207D01*
X28008068Y71704815D01*
G36*
X47137432Y66048312D02*
G01*
X44638724Y66048312D01*
X44638724Y64396624D01*
X46872739Y64396624D01*
X46872739Y64131930D01*
X44638724Y64131930D01*
X44638724Y62406128D01*
X45055190Y62406128D01*
X45134109Y62406035D01*
X45231482Y62405767D01*
X45344588Y62405338D01*
X45470707Y62404763D01*
X45607118Y62404057D01*
X45751100Y62403235D01*
X45899933Y62402311D01*
X46050895Y62401300D01*
X46201267Y62400218D01*
X46346895Y62399091D01*
X47222134Y62392053D01*
X47222134Y62130847D01*
X44331680Y62130847D01*
X44331680Y66313006D01*
X47137432Y66313006D01*
X47137432Y66048312D01*
G37*
X47137432Y66048312D02*
X44638724Y66048312D01*
X44638724Y64396624D01*
X46872739Y64396624D01*
X46872739Y64131930D01*
X44638724Y64131930D01*
X44638724Y62406128D01*
X45055190Y62406128D01*
X45134109Y62406035D01*
X45231482Y62405767D01*
X45344588Y62405338D01*
X45470707Y62404763D01*
X45607118Y62404057D01*
X45751100Y62403235D01*
X45899933Y62402311D01*
X46050895Y62401300D01*
X46201267Y62400218D01*
X46346895Y62399091D01*
X47222134Y62392053D01*
X47222134Y62130847D01*
X44331680Y62130847D01*
X44331680Y66313006D01*
X47137432Y66313006D01*
X47137432Y66048312D01*
G36*
X34474489Y62395540D02*
G01*
X36888495Y62395540D01*
X36888495Y62130847D01*
X34167445Y62130847D01*
X34167445Y66313006D01*
X34474489Y66313006D01*
X34474489Y62395540D01*
G37*
X34474489Y62395540D02*
X36888495Y62395540D01*
X36888495Y62130847D01*
X34167445Y62130847D01*
X34167445Y66313006D01*
X34474489Y66313006D01*
X34474489Y62395540D01*
G36*
X41145667Y64495902D02*
G01*
X42568820Y62678799D01*
X42571497Y64495902D01*
X42574175Y66313006D01*
X42870571Y66313006D01*
X42870571Y62109056D01*
X42730562Y62112011D01*
X42590552Y62114965D01*
X41176810Y63932675D01*
X39763068Y65750384D01*
X39760391Y63930028D01*
X39757714Y62109671D01*
X39450730Y62109671D01*
X39450730Y66313006D01*
X39722514Y66313006D01*
X41145667Y64495902D01*
G37*
X41145667Y64495902D02*
X42568820Y62678799D01*
X42571497Y64495902D01*
X42574175Y66313006D01*
X42870571Y66313006D01*
X42870571Y62109056D01*
X42730562Y62112011D01*
X42590552Y62114965D01*
X41176810Y63932675D01*
X39763068Y65750384D01*
X39760391Y63930028D01*
X39757714Y62109671D01*
X39450730Y62109671D01*
X39450730Y66313006D01*
X39722514Y66313006D01*
X41145667Y64495902D01*
G36*
X37989621Y62109671D02*
G01*
X37682576Y62109671D01*
X37682576Y66313006D01*
X37989621Y66313006D01*
X37989621Y62109671D01*
G37*
X37989621Y62109671D02*
X37682576Y62109671D01*
X37682576Y66313006D01*
X37989621Y66313006D01*
X37989621Y62109671D01*
G36*
X29566614Y66307712D02*
G01*
X30985599Y64495968D01*
X32404585Y62684225D01*
X32407262Y64498615D01*
X32409939Y66313006D01*
X32706336Y66313006D01*
X32706336Y62109038D01*
X32575145Y62112002D01*
X32443954Y62114965D01*
X31021393Y63935451D01*
X29598833Y65755936D01*
X29596156Y63932804D01*
X29593479Y62109671D01*
X29286494Y62109671D01*
X29286494Y66313620D01*
X29566614Y66307712D01*
G37*
X29566614Y66307712D02*
X30985599Y64495968D01*
X32404585Y62684225D01*
X32407262Y64498615D01*
X32409939Y66313006D01*
X32706336Y66313006D01*
X32706336Y62109038D01*
X32575145Y62112002D01*
X32443954Y62114965D01*
X31021393Y63935451D01*
X29598833Y65755936D01*
X29596156Y63932804D01*
X29593479Y62109671D01*
X29286494Y62109671D01*
X29286494Y66313620D01*
X29566614Y66307712D01*
G36*
X26196180Y66336932D02*
G01*
X26299049Y66330492D01*
X26389723Y66320882D01*
X26431330Y66314451D01*
X26653425Y66266184D01*
X26860729Y66202765D01*
X27053247Y66124192D01*
X27230980Y66030465D01*
X27311880Y65979535D01*
X27473763Y65859160D01*
X27621953Y65723180D01*
X27755767Y65572701D01*
X27874521Y65408828D01*
X27977530Y65232667D01*
X28064109Y65045322D01*
X28133575Y64847899D01*
X28185242Y64641504D01*
X28203522Y64539558D01*
X28212622Y64462885D01*
X28218785Y64371447D01*
X28222018Y64270935D01*
X28222326Y64167035D01*
X28219715Y64065437D01*
X28214190Y63971827D01*
X28205758Y63891895D01*
X28202843Y63872531D01*
X28158641Y63657527D01*
X28098444Y63456211D01*
X28021980Y63268089D01*
X27928980Y63092668D01*
X27819173Y62929454D01*
X27692288Y62777953D01*
X27548056Y62637672D01*
X27507029Y62602429D01*
X27354008Y62487212D01*
X27185893Y62384406D01*
X27005585Y62295263D01*
X26815984Y62221032D01*
X26619993Y62162965D01*
X26420511Y62122312D01*
X26379024Y62116184D01*
X26291604Y62106433D01*
X26193375Y62099331D01*
X26091128Y62095094D01*
X25991654Y62093936D01*
X25901747Y62096073D01*
X25850771Y62099410D01*
X25629340Y62128606D01*
X25417494Y62175820D01*
X25215954Y62240379D01*
X25025445Y62321608D01*
X24846690Y62418833D01*
X24680412Y62531381D01*
X24527335Y62658577D01*
X24388182Y62799747D01*
X24263676Y62954218D01*
X24154540Y63121315D01*
X24061498Y63300364D01*
X23985274Y63490693D01*
X23926590Y63691625D01*
X23886170Y63902488D01*
X23881855Y63933952D01*
X23868377Y64088196D01*
X23866478Y64216632D01*
X24178454Y64216632D01*
X24178841Y64136214D01*
X24179811Y64072626D01*
X24181700Y64021521D01*
X24184847Y63978556D01*
X24189587Y63939385D01*
X24196257Y63899663D01*
X24205194Y63855046D01*
X24207221Y63845443D01*
X24252601Y63670510D01*
X24312809Y63500707D01*
X24386087Y63340169D01*
X24470675Y63193028D01*
X24508759Y63136770D01*
X24566592Y63062298D01*
X24637220Y62982129D01*
X24715368Y62901614D01*
X24795766Y62826100D01*
X24873139Y62760937D01*
X24897874Y62742049D01*
X24969377Y62693394D01*
X25054669Y62642245D01*
X25147241Y62592139D01*
X25240583Y62546615D01*
X25321384Y62511882D01*
X25457922Y62465516D01*
X25614097Y62426852D01*
X25789810Y62395909D01*
X25903710Y62381158D01*
X25961597Y62377172D01*
X26033580Y62376218D01*
X26112810Y62378200D01*
X26192439Y62383022D01*
X26222150Y62385654D01*
X26405524Y62411968D01*
X26585709Y62454228D01*
X26759537Y62511264D01*
X26923841Y62581907D01*
X27075453Y62664986D01*
X27190121Y62743106D01*
X27271462Y62809343D01*
X27355467Y62886491D01*
X27437270Y62969537D01*
X27512002Y63053465D01*
X27574796Y63133258D01*
X27590793Y63155953D01*
X27689777Y63319461D01*
X27770959Y63492897D01*
X27834072Y63674319D01*
X27878850Y63861783D01*
X27905024Y64053345D01*
X27912329Y64247064D01*
X27900497Y64440995D01*
X27869261Y64633196D01*
X27819292Y64818848D01*
X27786557Y64908170D01*
X27744609Y65005417D01*
X27696708Y65104000D01*
X27646114Y65197328D01*
X27596088Y65278809D01*
X27580330Y65301876D01*
X27534466Y65361293D01*
X27475824Y65428823D01*
X27408746Y65500120D01*
X27337579Y65570841D01*
X27266666Y65636641D01*
X27200353Y65693175D01*
X27153064Y65729142D01*
X27001762Y65823587D01*
X26837124Y65903805D01*
X26662145Y65969045D01*
X26479821Y66018559D01*
X26293148Y66051597D01*
X26105121Y66067410D01*
X25918736Y66065249D01*
X25837119Y66058313D01*
X25636591Y66026711D01*
X25444859Y65976877D01*
X25262859Y65909551D01*
X25091526Y65825472D01*
X24931797Y65725380D01*
X24784607Y65610017D01*
X24650893Y65480121D01*
X24531591Y65336433D01*
X24427635Y65179693D01*
X24339963Y65010641D01*
X24269509Y64830016D01*
X24264565Y64814840D01*
X24236524Y64723126D01*
X24215011Y64641033D01*
X24199261Y64563242D01*
X24188508Y64484435D01*
X24181985Y64399293D01*
X24178928Y64302497D01*
X24178454Y64216632D01*
X23866478Y64216632D01*
X23865943Y64252764D01*
X23874245Y64420108D01*
X23892975Y64582677D01*
X23912861Y64693081D01*
X23941359Y64807033D01*
X23979456Y64928590D01*
X24024608Y65050980D01*
X24074271Y65167433D01*
X24125901Y65271176D01*
X24138570Y65293899D01*
X24240214Y65453160D01*
X24357635Y65604340D01*
X24487971Y65744430D01*
X24628359Y65870419D01*
X24775936Y65979299D01*
X24813172Y66003214D01*
X24992265Y66102620D01*
X25185232Y66186271D01*
X25391617Y66254002D01*
X25610965Y66305650D01*
X25691955Y66320100D01*
X25773067Y66330144D01*
X25869561Y66336808D01*
X25975921Y66340132D01*
X26086632Y66340159D01*
X26196180Y66336932D01*
G37*
X26196180Y66336932D02*
X26299049Y66330492D01*
X26389723Y66320882D01*
X26431330Y66314451D01*
X26653425Y66266184D01*
X26860729Y66202765D01*
X27053247Y66124192D01*
X27230980Y66030465D01*
X27311880Y65979535D01*
X27473763Y65859160D01*
X27621953Y65723180D01*
X27755767Y65572701D01*
X27874521Y65408828D01*
X27977530Y65232667D01*
X28064109Y65045322D01*
X28133575Y64847899D01*
X28185242Y64641504D01*
X28203522Y64539558D01*
X28212622Y64462885D01*
X28218785Y64371447D01*
X28222018Y64270935D01*
X28222326Y64167035D01*
X28219715Y64065437D01*
X28214190Y63971827D01*
X28205758Y63891895D01*
X28202843Y63872531D01*
X28158641Y63657527D01*
X28098444Y63456211D01*
X28021980Y63268089D01*
X27928980Y63092668D01*
X27819173Y62929454D01*
X27692288Y62777953D01*
X27548056Y62637672D01*
X27507029Y62602429D01*
X27354008Y62487212D01*
X27185893Y62384406D01*
X27005585Y62295263D01*
X26815984Y62221032D01*
X26619993Y62162965D01*
X26420511Y62122312D01*
X26379024Y62116184D01*
X26291604Y62106433D01*
X26193375Y62099331D01*
X26091128Y62095094D01*
X25991654Y62093936D01*
X25901747Y62096073D01*
X25850771Y62099410D01*
X25629340Y62128606D01*
X25417494Y62175820D01*
X25215954Y62240379D01*
X25025445Y62321608D01*
X24846690Y62418833D01*
X24680412Y62531381D01*
X24527335Y62658577D01*
X24388182Y62799747D01*
X24263676Y62954218D01*
X24154540Y63121315D01*
X24061498Y63300364D01*
X23985274Y63490693D01*
X23926590Y63691625D01*
X23886170Y63902488D01*
X23881855Y63933952D01*
X23868377Y64088196D01*
X23866478Y64216632D01*
X24178454Y64216632D01*
X24178841Y64136214D01*
X24179811Y64072626D01*
X24181700Y64021521D01*
X24184847Y63978556D01*
X24189587Y63939385D01*
X24196257Y63899663D01*
X24205194Y63855046D01*
X24207221Y63845443D01*
X24252601Y63670510D01*
X24312809Y63500707D01*
X24386087Y63340169D01*
X24470675Y63193028D01*
X24508759Y63136770D01*
X24566592Y63062298D01*
X24637220Y62982129D01*
X24715368Y62901614D01*
X24795766Y62826100D01*
X24873139Y62760937D01*
X24897874Y62742049D01*
X24969377Y62693394D01*
X25054669Y62642245D01*
X25147241Y62592139D01*
X25240583Y62546615D01*
X25321384Y62511882D01*
X25457922Y62465516D01*
X25614097Y62426852D01*
X25789810Y62395909D01*
X25903710Y62381158D01*
X25961597Y62377172D01*
X26033580Y62376218D01*
X26112810Y62378200D01*
X26192439Y62383022D01*
X26222150Y62385654D01*
X26405524Y62411968D01*
X26585709Y62454228D01*
X26759537Y62511264D01*
X26923841Y62581907D01*
X27075453Y62664986D01*
X27190121Y62743106D01*
X27271462Y62809343D01*
X27355467Y62886491D01*
X27437270Y62969537D01*
X27512002Y63053465D01*
X27574796Y63133258D01*
X27590793Y63155953D01*
X27689777Y63319461D01*
X27770959Y63492897D01*
X27834072Y63674319D01*
X27878850Y63861783D01*
X27905024Y64053345D01*
X27912329Y64247064D01*
X27900497Y64440995D01*
X27869261Y64633196D01*
X27819292Y64818848D01*
X27786557Y64908170D01*
X27744609Y65005417D01*
X27696708Y65104000D01*
X27646114Y65197328D01*
X27596088Y65278809D01*
X27580330Y65301876D01*
X27534466Y65361293D01*
X27475824Y65428823D01*
X27408746Y65500120D01*
X27337579Y65570841D01*
X27266666Y65636641D01*
X27200353Y65693175D01*
X27153064Y65729142D01*
X27001762Y65823587D01*
X26837124Y65903805D01*
X26662145Y65969045D01*
X26479821Y66018559D01*
X26293148Y66051597D01*
X26105121Y66067410D01*
X25918736Y66065249D01*
X25837119Y66058313D01*
X25636591Y66026711D01*
X25444859Y65976877D01*
X25262859Y65909551D01*
X25091526Y65825472D01*
X24931797Y65725380D01*
X24784607Y65610017D01*
X24650893Y65480121D01*
X24531591Y65336433D01*
X24427635Y65179693D01*
X24339963Y65010641D01*
X24269509Y64830016D01*
X24264565Y64814840D01*
X24236524Y64723126D01*
X24215011Y64641033D01*
X24199261Y64563242D01*
X24188508Y64484435D01*
X24181985Y64399293D01*
X24178928Y64302497D01*
X24178454Y64216632D01*
X23866478Y64216632D01*
X23865943Y64252764D01*
X23874245Y64420108D01*
X23892975Y64582677D01*
X23912861Y64693081D01*
X23941359Y64807033D01*
X23979456Y64928590D01*
X24024608Y65050980D01*
X24074271Y65167433D01*
X24125901Y65271176D01*
X24138570Y65293899D01*
X24240214Y65453160D01*
X24357635Y65604340D01*
X24487971Y65744430D01*
X24628359Y65870419D01*
X24775936Y65979299D01*
X24813172Y66003214D01*
X24992265Y66102620D01*
X25185232Y66186271D01*
X25391617Y66254002D01*
X25610965Y66305650D01*
X25691955Y66320100D01*
X25773067Y66330144D01*
X25869561Y66336808D01*
X25975921Y66340132D01*
X26086632Y66340159D01*
X26196180Y66336932D01*
%TO.C,J6*%
D11*
X5607596Y73984925D02*
X5742283Y74052268D01*
X5910642Y74220627D01*
X5944314Y74321642D01*
X5944314Y74388986D01*
X5910642Y74490001D01*
X5843299Y74557344D01*
X5742283Y74591016D01*
X5674940Y74591016D01*
X5573925Y74557344D01*
X5405566Y74456329D01*
X5304551Y74422657D01*
X5237207Y74422657D01*
X5136192Y74456329D01*
X5068848Y74523673D01*
X5035177Y74624688D01*
X5035177Y74692031D01*
X5068848Y74793047D01*
X5237207Y74961405D01*
X5371894Y75028749D01*
X6112673Y74826718D02*
X6449390Y75163436D01*
X6247360Y74557344D02*
X5775955Y75500153D01*
X6718764Y75028749D01*
X6382047Y76106245D02*
X6516734Y76240932D01*
X6617749Y76274604D01*
X6752436Y76274604D01*
X6920795Y76173588D01*
X7156497Y75937886D01*
X7257512Y75769527D01*
X7257512Y75634840D01*
X7223840Y75533825D01*
X7089153Y75399138D01*
X6988138Y75365466D01*
X6853451Y75365466D01*
X6685092Y75466482D01*
X6449390Y75702184D01*
X6348375Y75870543D01*
X6348375Y76005230D01*
X6382047Y76106245D01*
X7594230Y75769527D02*
X8132978Y76308275D01*
X7459543Y77183741D02*
X7897275Y77621474D01*
X7930947Y77116397D01*
X8031962Y77217413D01*
X8132978Y77251084D01*
X8200321Y77251084D01*
X8301336Y77217413D01*
X8469695Y77049054D01*
X8503367Y76948039D01*
X8503367Y76880695D01*
X8469695Y76779680D01*
X8267665Y76577649D01*
X8166649Y76543978D01*
X8099306Y76543978D01*
%TO.C,J4*%
X16404761Y119595239D02*
X16547619Y119547620D01*
X16785714Y119547620D01*
X16880952Y119595239D01*
X16928571Y119642858D01*
X16976190Y119738096D01*
X16976190Y119833334D01*
X16928571Y119928572D01*
X16880952Y119976191D01*
X16785714Y120023810D01*
X16595238Y120071429D01*
X16500000Y120119048D01*
X16452380Y120166667D01*
X16404761Y120261905D01*
X16404761Y120357143D01*
X16452380Y120452381D01*
X16500000Y120500000D01*
X16595238Y120547620D01*
X16833333Y120547620D01*
X16976190Y120500000D01*
X17357142Y119833334D02*
X17833333Y119833334D01*
X17261904Y119547620D02*
X17595238Y120547620D01*
X17928571Y119547620D01*
X18452380Y120547620D02*
X18642857Y120547620D01*
X18738095Y120500000D01*
X18833333Y120404762D01*
X18880952Y120214286D01*
X18880952Y119880953D01*
X18833333Y119690477D01*
X18738095Y119595239D01*
X18642857Y119547620D01*
X18452380Y119547620D01*
X18357142Y119595239D01*
X18261904Y119690477D01*
X18214285Y119880953D01*
X18214285Y120214286D01*
X18261904Y120404762D01*
X18357142Y120500000D01*
X18452380Y120547620D01*
X19071428Y119452381D02*
X19833333Y119452381D01*
X20595238Y119547620D02*
X20023809Y119547620D01*
X20309523Y119547620D02*
X20309523Y120547620D01*
X20214285Y120404762D01*
X20119047Y120309524D01*
X20023809Y120261905D01*
%TO.C,J5*%
X77136396Y76099511D02*
X77203739Y75964824D01*
X77372098Y75796465D01*
X77473113Y75762793D01*
X77540457Y75762793D01*
X77641472Y75796465D01*
X77708815Y75863808D01*
X77742487Y75964824D01*
X77742487Y76032167D01*
X77708815Y76133182D01*
X77607800Y76301541D01*
X77574128Y76402556D01*
X77574128Y76469900D01*
X77607800Y76570915D01*
X77675144Y76638259D01*
X77776159Y76671930D01*
X77843502Y76671930D01*
X77944518Y76638259D01*
X78112876Y76469900D01*
X78180220Y76335213D01*
X77978189Y75594434D02*
X78314907Y75257717D01*
X77708815Y75459747D02*
X78651624Y75931152D01*
X78180220Y74988343D01*
X79257716Y75325060D02*
X79392403Y75190373D01*
X79426075Y75089358D01*
X79426075Y74954671D01*
X79325059Y74786312D01*
X79089357Y74550610D01*
X78920998Y74449595D01*
X78786311Y74449595D01*
X78685296Y74483267D01*
X78550609Y74617954D01*
X78516937Y74718969D01*
X78516937Y74853656D01*
X78617953Y75022015D01*
X78853655Y75257717D01*
X79022014Y75358732D01*
X79156701Y75358732D01*
X79257716Y75325060D01*
X78920998Y74112877D02*
X79459746Y73574129D01*
X80469899Y73641473D02*
X79998494Y73170068D01*
X80570914Y74079206D02*
X79897479Y73742488D01*
X80335212Y73304755D01*
%TO.C,J3*%
X64404761Y119595239D02*
X64547619Y119547620D01*
X64785714Y119547620D01*
X64880952Y119595239D01*
X64928571Y119642858D01*
X64976190Y119738096D01*
X64976190Y119833334D01*
X64928571Y119928572D01*
X64880952Y119976191D01*
X64785714Y120023810D01*
X64595238Y120071429D01*
X64500000Y120119048D01*
X64452380Y120166667D01*
X64404761Y120261905D01*
X64404761Y120357143D01*
X64452380Y120452381D01*
X64500000Y120500000D01*
X64595238Y120547620D01*
X64833333Y120547620D01*
X64976190Y120500000D01*
X65357142Y119833334D02*
X65833333Y119833334D01*
X65261904Y119547620D02*
X65595238Y120547620D01*
X65928571Y119547620D01*
X66452380Y120547620D02*
X66642857Y120547620D01*
X66738095Y120500000D01*
X66833333Y120404762D01*
X66880952Y120214286D01*
X66880952Y119880953D01*
X66833333Y119690477D01*
X66738095Y119595239D01*
X66642857Y119547620D01*
X66452380Y119547620D01*
X66357142Y119595239D01*
X66261904Y119690477D01*
X66214285Y119880953D01*
X66214285Y120214286D01*
X66261904Y120404762D01*
X66357142Y120500000D01*
X66452380Y120547620D01*
X67071428Y119452381D02*
X67833333Y119452381D01*
X68023809Y120452381D02*
X68071428Y120500000D01*
X68166666Y120547620D01*
X68404761Y120547620D01*
X68500000Y120500000D01*
X68547619Y120452381D01*
X68595238Y120357143D01*
X68595238Y120261905D01*
X68547619Y120119048D01*
X67976190Y119547620D01*
X68595238Y119547620D01*
%TO.C,SW1*%
X27043809Y91297620D02*
X27043809Y92297620D01*
X27710476Y92297620D02*
X27900952Y92297620D01*
X27996190Y92250000D01*
X28091428Y92154762D01*
X28139047Y91964286D01*
X28139047Y91630953D01*
X28091428Y91440477D01*
X27996190Y91345239D01*
X27900952Y91297620D01*
X27710476Y91297620D01*
X27615238Y91345239D01*
X27520000Y91440477D01*
X27472380Y91630953D01*
X27472380Y91964286D01*
X27520000Y92154762D01*
X27615238Y92250000D01*
X27710476Y92297620D01*
X29091428Y91297620D02*
X28520000Y91297620D01*
X28805714Y91297620D02*
X28805714Y92297620D01*
X28710476Y92154762D01*
X28615238Y92059524D01*
X28520000Y92011905D01*
X29948571Y92297620D02*
X29758095Y92297620D01*
X29662857Y92250000D01*
X29615238Y92202381D01*
X29520000Y92059524D01*
X29472380Y91869048D01*
X29472380Y91488096D01*
X29520000Y91392858D01*
X29567619Y91345239D01*
X29662857Y91297620D01*
X29853333Y91297620D01*
X29948571Y91345239D01*
X29996190Y91392858D01*
X30043809Y91488096D01*
X30043809Y91726191D01*
X29996190Y91821429D01*
X29948571Y91869048D01*
X29853333Y91916667D01*
X29662857Y91916667D01*
X29567619Y91869048D01*
X29520000Y91821429D01*
X29472380Y91726191D01*
%TO.C,SW2*%
X55023809Y91297620D02*
X55023809Y92297620D01*
X55690476Y92297620D02*
X55880952Y92297620D01*
X55976190Y92250000D01*
X56071428Y92154762D01*
X56119047Y91964286D01*
X56119047Y91630953D01*
X56071428Y91440477D01*
X55976190Y91345239D01*
X55880952Y91297620D01*
X55690476Y91297620D01*
X55595238Y91345239D01*
X55500000Y91440477D01*
X55452380Y91630953D01*
X55452380Y91964286D01*
X55500000Y92154762D01*
X55595238Y92250000D01*
X55690476Y92297620D01*
X57071428Y91297620D02*
X56500000Y91297620D01*
X56785714Y91297620D02*
X56785714Y92297620D01*
X56690476Y92154762D01*
X56595238Y92059524D01*
X56500000Y92011905D01*
X57404761Y92297620D02*
X58071428Y92297620D01*
X57642857Y91297620D01*
%TD*%
M02*
