%TF.GenerationSoftware,KiCad,Pcbnew,(5.1.6)-1*%
%TF.CreationDate,2020-10-12T09:25:38+11:00*%
%TF.ProjectId,swag-badge,73776167-2d62-4616-9467-652e6b696361,rev?*%
%TF.SameCoordinates,Original*%
%TF.FileFunction,Copper,L2,Bot*%
%TF.FilePolarity,Positive*%
%FSLAX46Y46*%
G04 Gerber Fmt 4.6, Leading zero omitted, Abs format (unit mm)*
G04 Created by KiCad (PCBNEW (5.1.6)-1) date 2020-10-12 09:25:38*
%MOMM*%
%LPD*%
G01*
G04 APERTURE LIST*
%TA.AperFunction,ComponentPad*%
%ADD10C,2.000000*%
%TD*%
%TA.AperFunction,ComponentPad*%
%ADD11C,0.100000*%
%TD*%
%TA.AperFunction,ComponentPad*%
%ADD12O,2.400000X1.600000*%
%TD*%
%TA.AperFunction,ComponentPad*%
%ADD13R,2.400000X1.600000*%
%TD*%
%TA.AperFunction,ComponentPad*%
%ADD14R,2.000000X2.000000*%
%TD*%
%TA.AperFunction,ComponentPad*%
%ADD15O,2.000000X2.000000*%
%TD*%
%TA.AperFunction,SMDPad,CuDef*%
%ADD16O,3.000000X9.000000*%
%TD*%
%TA.AperFunction,ViaPad*%
%ADD17C,0.800000*%
%TD*%
%TA.AperFunction,Conductor*%
%ADD18C,0.300000*%
%TD*%
%TA.AperFunction,Conductor*%
%ADD19C,0.254000*%
%TD*%
G04 APERTURE END LIST*
D10*
%TO.P,J6,3*%
%TO.N,/GPIO18*%
X6898026Y72694077D03*
%TO.P,J6,4*%
%TO.N,/GPIO23*%
X8694077Y70898026D03*
%TO.P,J6,2*%
%TO.N,/GPIO5*%
X5101974Y70898026D03*
%TO.P,J6,5*%
%TO.N,/GPIO4*%
X6898026Y69101974D03*
%TA.AperFunction,ComponentPad*%
D11*
%TO.P,J6,6*%
%TO.N,GND*%
G36*
X6516188Y67305923D02*
G01*
X5101974Y65891709D01*
X3687760Y67305923D01*
X5101974Y68720137D01*
X6516188Y67305923D01*
G37*
%TD.AperFunction*%
D10*
%TO.P,J6,1*%
%TO.N,+3V3*%
X3305923Y69101974D03*
%TD*%
D12*
%TO.P,J7,14*%
%TO.N,+3V3*%
X28570000Y42410000D03*
%TO.P,J7,15*%
%TO.N,/GPIO22*%
X28570000Y39870000D03*
%TO.P,J7,16*%
%TO.N,/GPIO19*%
X28570000Y37330000D03*
%TO.P,J7,17*%
%TO.N,/GPIO23*%
X28570000Y34790000D03*
%TO.P,J7,18*%
%TO.N,/GPIO18*%
X28570000Y32250000D03*
%TO.P,J7,19*%
%TO.N,/GPIO5*%
X28570000Y29710000D03*
%TO.P,J7,20*%
%TO.N,/GPIO17*%
X28570000Y27170000D03*
%TO.P,J7,21*%
%TO.N,/GPIO16*%
X28570000Y24630000D03*
%TO.P,J7,22*%
%TO.N,/GPIO4*%
X28570000Y22090000D03*
%TO.P,J7,23*%
%TO.N,/GPIO0*%
X28570000Y19550000D03*
%TO.P,J7,24*%
%TO.N,/GPIO2*%
X28570000Y17010000D03*
%TO.P,J7,25*%
%TO.N,/GPIO15*%
X28570000Y14470000D03*
%TO.P,J7,26*%
%TO.N,/GPIO13*%
X28570000Y11930000D03*
%TO.P,J7,13*%
%TO.N,N/C*%
X51430000Y42410000D03*
%TO.P,J7,12*%
X51430000Y39870000D03*
%TO.P,J7,11*%
X51430000Y37330000D03*
%TO.P,J7,10*%
%TO.N,/GPIO34*%
X51430000Y34790000D03*
%TO.P,J7,9*%
%TO.N,/GPIO35*%
X51430000Y32250000D03*
%TO.P,J7,8*%
%TO.N,/GPIO32*%
X51430000Y29710000D03*
%TO.P,J7,7*%
%TO.N,/GPIO33*%
X51430000Y27170000D03*
%TO.P,J7,6*%
%TO.N,/GPIO25*%
X51430000Y24630000D03*
%TO.P,J7,5*%
%TO.N,/GPIO26*%
X51430000Y22090000D03*
%TO.P,J7,4*%
%TO.N,/GPIO27*%
X51430000Y19550000D03*
%TO.P,J7,3*%
%TO.N,/GPIO14*%
X51430000Y17010000D03*
%TO.P,J7,2*%
%TO.N,/GPIO12*%
X51430000Y14470000D03*
D13*
%TO.P,J7,1*%
%TO.N,GND*%
X51430000Y11930000D03*
%TD*%
D10*
%TO.P,J4,3*%
%TO.N,/GPIO22*%
X18540000Y115270000D03*
%TO.P,J4,4*%
%TO.N,/GPIO19*%
X18540000Y112730000D03*
%TO.P,J4,2*%
%TO.N,/GPIO5*%
X16000000Y115270000D03*
%TO.P,J4,5*%
%TO.N,/GPIO4*%
X16000000Y112730000D03*
D14*
%TO.P,J4,6*%
%TO.N,GND*%
X13460000Y112730000D03*
D10*
%TO.P,J4,1*%
%TO.N,+3V3*%
X13460000Y115270000D03*
%TD*%
%TO.P,J1,4*%
%TO.N,/GPIO5*%
X29810000Y108000000D03*
%TO.P,J1,3*%
%TO.N,/GPIO4*%
X27270000Y108000000D03*
%TO.P,J1,2*%
%TO.N,GND*%
X24730000Y108000000D03*
%TO.P,J1,1*%
%TO.N,+3V3*%
X22190000Y108000000D03*
%TD*%
%TO.P,J2,4*%
%TO.N,/GPIO5*%
X57810000Y108000000D03*
%TO.P,J2,3*%
%TO.N,/GPIO4*%
X55270000Y108000000D03*
%TO.P,J2,2*%
%TO.N,GND*%
X52730000Y108000000D03*
%TO.P,J2,1*%
%TO.N,+3V3*%
X50190000Y108000000D03*
%TD*%
%TO.P,J5,3*%
%TO.N,/GPIO26*%
X76694077Y69101974D03*
%TO.P,J5,4*%
%TO.N,/GPIO25*%
X74898026Y67305923D03*
%TO.P,J5,2*%
%TO.N,/GPIO5*%
X74898026Y70898026D03*
%TO.P,J5,5*%
%TO.N,/GPIO4*%
X73101974Y69101974D03*
%TA.AperFunction,ComponentPad*%
D11*
%TO.P,J5,6*%
%TO.N,GND*%
G36*
X71305923Y69483812D02*
G01*
X69891709Y70898026D01*
X71305923Y72312240D01*
X72720137Y70898026D01*
X71305923Y69483812D01*
G37*
%TD.AperFunction*%
D10*
%TO.P,J5,1*%
%TO.N,+3V3*%
X73101974Y72694077D03*
%TD*%
%TO.P,J3,3*%
%TO.N,/GPIO32*%
X66540000Y115270000D03*
%TO.P,J3,4*%
%TO.N,/GPIO33*%
X66540000Y112730000D03*
%TO.P,J3,2*%
%TO.N,/GPIO5*%
X64000000Y115270000D03*
%TO.P,J3,5*%
%TO.N,/GPIO4*%
X64000000Y112730000D03*
D14*
%TO.P,J3,6*%
%TO.N,GND*%
X61460000Y112730000D03*
D10*
%TO.P,J3,1*%
%TO.N,+3V3*%
X61460000Y115270000D03*
%TD*%
D14*
%TO.P,J12,1*%
%TO.N,GND*%
X10000000Y89110000D03*
D15*
%TO.P,J12,2*%
%TO.N,/GPIO13*%
X10000000Y91650000D03*
%TO.P,J12,3*%
%TO.N,/GPIO2*%
X10000000Y94190000D03*
%TO.P,J12,4*%
%TO.N,/GPIO0*%
X10000000Y96730000D03*
%TO.P,J12,5*%
%TO.N,/GPIO4*%
X10000000Y99270000D03*
%TO.P,J12,6*%
%TO.N,/GPIO5*%
X10000000Y101810000D03*
%TO.P,J12,7*%
%TO.N,/GPIO18*%
X10000000Y104350000D03*
%TO.P,J12,8*%
%TO.N,+3V3*%
X10000000Y106890000D03*
%TD*%
D14*
%TO.P,J13,1*%
%TO.N,GND*%
X70000000Y106890000D03*
D15*
%TO.P,J13,2*%
%TO.N,/GPIO34*%
X70000000Y104350000D03*
%TO.P,J13,3*%
%TO.N,/GPIO35*%
X70000000Y101810000D03*
%TO.P,J13,4*%
%TO.N,/GPIO32*%
X70000000Y99270000D03*
%TO.P,J13,5*%
%TO.N,/GPIO33*%
X70000000Y96730000D03*
%TO.P,J13,6*%
%TO.N,/GPIO25*%
X70000000Y94190000D03*
%TO.P,J13,7*%
%TO.N,/GPIO26*%
X70000000Y91650000D03*
%TO.P,J13,8*%
%TO.N,+3V3*%
X70000000Y89110000D03*
%TD*%
D16*
%TO.P,J8,1*%
%TO.N,/GPIO27*%
X76000000Y35100000D03*
%TD*%
%TO.P,J9,1*%
%TO.N,/GPIO14*%
X76000000Y19900000D03*
%TD*%
%TO.P,J10,1*%
%TO.N,/GPIO15*%
X4000000Y35100000D03*
%TD*%
%TO.P,J11,1*%
%TO.N,/GPIO12*%
X4000000Y19900000D03*
%TD*%
D17*
%TO.N,*%
X53430000Y75000000D03*
X60700000Y75000000D03*
%TO.N,+3V3*%
X11080000Y57990000D03*
X12250000Y56820000D03*
X13465000Y55605000D03*
X14715000Y54355000D03*
X27300000Y54350000D03*
X24300000Y104800000D03*
X18000000Y104800000D03*
X22900000Y54355000D03*
%TO.N,/GPIO4*%
X65900000Y80600000D03*
%TO.N,/GPIO18*%
X16300000Y62400000D03*
X16400000Y50500000D03*
%TO.N,/GPIO23*%
X23500000Y97400000D03*
%TO.N,/GPIO17*%
X21940000Y84450000D03*
%TO.N,/GPIO16*%
X21900000Y86000000D03*
%TO.N,/GPIO15*%
X4000000Y35000000D03*
%TO.N,/GPIO27*%
X76000000Y35000000D03*
%TO.N,/GPIO14*%
X76000000Y20000000D03*
%TO.N,/GPIO12*%
X4000000Y20000000D03*
X40030000Y9830000D03*
%TO.N,/GPIO26*%
X76700000Y88100000D03*
%TD*%
D18*
%TO.N,/GPIO4*%
X55270000Y108000000D02*
X55663998Y108000000D01*
X24110000Y22090000D02*
X28570000Y22090000D01*
X20360030Y94539970D02*
X20360030Y25839970D01*
X10000000Y99270000D02*
X15630000Y99270000D01*
X20360030Y25839970D02*
X24110000Y22090000D01*
X15630000Y99270000D02*
X20360030Y94539970D01*
X65900000Y71700000D02*
X69600000Y68000000D01*
X65900000Y80600000D02*
X65900000Y71700000D01*
X72000000Y68000000D02*
X73101974Y69101974D01*
X69600000Y68000000D02*
X72000000Y68000000D01*
X9101974Y69101974D02*
X6898026Y69101974D01*
X7500000Y96770000D02*
X7500000Y74900000D01*
X7500000Y74900000D02*
X10250000Y72150000D01*
X10000000Y99270000D02*
X7500000Y96770000D01*
X10250000Y72150000D02*
X10250000Y70250000D01*
X10250000Y70250000D02*
X9101974Y69101974D01*
%TO.N,/GPIO5*%
X14549999Y116720001D02*
X16000000Y115270000D01*
X8549999Y103260001D02*
X8549999Y114049999D01*
X11500000Y117000000D02*
X14270000Y117000000D01*
X10000000Y101810000D02*
X8549999Y103260001D01*
X8549999Y114049999D02*
X11500000Y117000000D01*
X14270000Y117000000D02*
X14549999Y116720001D01*
X64000000Y115270000D02*
X64000000Y117000000D01*
X64000000Y117000000D02*
X63500000Y117500000D01*
X57810000Y115510000D02*
X59800000Y117500000D01*
X57810000Y108000000D02*
X57810000Y115510000D01*
X63500000Y117500000D02*
X59800000Y117500000D01*
X15590000Y101810000D02*
X10000000Y101810000D01*
X24169970Y93230030D02*
X15590000Y101810000D01*
X24169970Y32430030D02*
X24169970Y93230030D01*
X28570000Y29710000D02*
X26890000Y29710000D01*
X26890000Y29710000D02*
X24169970Y32430030D01*
X57810000Y108000000D02*
X54710000Y104900000D01*
X32910000Y104900000D02*
X29810000Y108000000D01*
X54710000Y104900000D02*
X32910000Y104900000D01*
X64500000Y117500000D02*
X67000000Y117500000D01*
X64000000Y117000000D02*
X64500000Y117500000D01*
X67000000Y117500000D02*
X72440000Y112060000D01*
X72440000Y112060000D02*
X72440000Y85060000D01*
X72440000Y85060000D02*
X74898026Y82601974D01*
X74898026Y82601974D02*
X74898026Y70898026D01*
X5101974Y72701974D02*
X5101974Y70898026D01*
X10000000Y101810000D02*
X6899990Y98709990D01*
X6899990Y74899990D02*
X5101974Y73101974D01*
X6899990Y98709990D02*
X6899990Y74899990D01*
X5101974Y73101974D02*
X5101974Y72701974D01*
%TO.N,/GPIO32*%
X70000000Y99270000D02*
X62870000Y99270000D01*
X56680020Y93080020D02*
X56680020Y92919980D01*
X62870000Y99270000D02*
X56680020Y93080020D01*
X51430000Y29710000D02*
X53810000Y29710000D01*
X53810000Y29710000D02*
X56680020Y32580020D01*
X56680020Y32580020D02*
X56680020Y32719980D01*
X56680020Y32719980D02*
X56680020Y92919980D01*
%TO.N,/GPIO33*%
X53870000Y27170000D02*
X51430000Y27170000D01*
X57280030Y91080030D02*
X57280030Y30580030D01*
X57280030Y30580030D02*
X53870000Y27170000D01*
X70000000Y96730000D02*
X62930000Y96730000D01*
X62930000Y96730000D02*
X57280030Y91080030D01*
%TO.N,/GPIO18*%
X10000000Y103956002D02*
X10000000Y104350000D01*
X17959990Y52059990D02*
X16400000Y50500000D01*
X16300000Y62400000D02*
X17959990Y60740010D01*
X17959990Y60740010D02*
X17959990Y52059990D01*
%TO.N,/GPIO23*%
X24769980Y36930020D02*
X24769980Y96130020D01*
X24769980Y96130020D02*
X23500000Y97400000D01*
X28570000Y34790000D02*
X26910000Y34790000D01*
X26910000Y34790000D02*
X24769980Y36930020D01*
%TO.N,/GPIO19*%
X19389991Y112010009D02*
X18670000Y112730000D01*
X26970000Y37330000D02*
X25369990Y38930010D01*
X25369990Y100181468D02*
X19389991Y106161467D01*
X19389991Y106161467D02*
X19389991Y112010009D01*
X18670000Y112730000D02*
X18540000Y112730000D01*
X28570000Y37330000D02*
X26970000Y37330000D01*
X25369990Y38930010D02*
X25369990Y100181468D01*
%TO.N,/GPIO22*%
X18540000Y115270000D02*
X19990001Y113819999D01*
X25970000Y100430000D02*
X19990001Y106409999D01*
X19990001Y113819999D02*
X19990001Y106490001D01*
X19990001Y106409999D02*
X19990001Y106490001D01*
X28570000Y39870000D02*
X26940000Y39870000D01*
X26940000Y39870000D02*
X25970000Y40840000D01*
X25970000Y40840000D02*
X25970000Y100430000D01*
%TO.N,/GPIO17*%
X21560050Y84070050D02*
X21940000Y84450000D01*
X21560050Y29739950D02*
X21560050Y84070050D01*
X28570000Y27170000D02*
X24130000Y27170000D01*
X24130000Y27170000D02*
X21560050Y29739950D01*
%TO.N,/GPIO16*%
X28570000Y24630000D02*
X28560000Y24630000D01*
X20960040Y27839960D02*
X24170000Y24630000D01*
X24170000Y24630000D02*
X28570000Y24630000D01*
X21900000Y86000000D02*
X20960040Y85060040D01*
X20960040Y85060040D02*
X20960040Y27839960D01*
%TO.N,/GPIO15*%
X29130000Y14470000D02*
X28570000Y14470000D01*
X4000000Y35000000D02*
X7060000Y31940000D01*
X7060000Y31940000D02*
X7060000Y8540000D01*
X7060000Y8540000D02*
X10979990Y4620010D01*
X10979990Y4620010D02*
X11378532Y4620010D01*
X16874690Y4620010D02*
X16820010Y4620010D01*
X22684690Y10430010D02*
X16874690Y4620010D01*
X29437791Y10430010D02*
X22684690Y10430010D01*
X11378532Y4620010D02*
X16820010Y4620010D01*
X30420010Y11412229D02*
X29437791Y10430010D01*
X29330000Y14470000D02*
X30420010Y13379990D01*
X30420010Y13379990D02*
X30420010Y11412229D01*
%TO.N,/GPIO27*%
X51430000Y19550000D02*
X50772916Y19550000D01*
X73100000Y32100000D02*
X76000000Y35000000D01*
X73109990Y21210010D02*
X73100000Y21220000D01*
X73100000Y21220000D02*
X73100000Y32100000D01*
X73109990Y8268532D02*
X73109990Y21210010D01*
X51430000Y19550000D02*
X55220000Y15760000D01*
X69431468Y4590010D02*
X69620729Y4779271D01*
X69620729Y4779271D02*
X73109990Y8268532D01*
X62449990Y4590010D02*
X55220000Y11820000D01*
X64190010Y4590010D02*
X62449990Y4590010D01*
X64190010Y4590010D02*
X69431468Y4590010D01*
X55220000Y15760000D02*
X55220000Y11820000D01*
%TO.N,/GPIO14*%
X52990000Y17010000D02*
X51430000Y17010000D01*
X54619990Y15380010D02*
X52990000Y17010000D01*
X54619990Y11571468D02*
X54619990Y15380010D01*
X76000000Y20000000D02*
X73710000Y17710000D01*
X73709999Y8019999D02*
X69680000Y3990000D01*
X73710000Y17710000D02*
X73709999Y8019999D01*
X69680000Y3990000D02*
X62201457Y3990001D01*
X62201457Y3990001D02*
X54619990Y11571468D01*
%TO.N,/GPIO12*%
X28233222Y9830000D02*
X39970000Y9830000D01*
X22933222Y9830000D02*
X28233222Y9830000D01*
X17123222Y4020000D02*
X17151611Y4048389D01*
X10731458Y4020000D02*
X17123222Y4020000D01*
X17151611Y4048389D02*
X22933222Y9830000D01*
X4000000Y20000000D02*
X6459990Y17540010D01*
X6459990Y17540010D02*
X6459991Y8291467D01*
X6459991Y8291467D02*
X10731458Y4020000D01*
%TO.N,/GPIO0*%
X19760020Y23939980D02*
X24150000Y19550000D01*
X10000000Y96730000D02*
X15670000Y96730000D01*
X24150000Y19550000D02*
X28570000Y19550000D01*
X19760020Y92639980D02*
X19760020Y23939980D01*
X15670000Y96730000D02*
X19760020Y92639980D01*
%TO.N,/GPIO2*%
X28570000Y17010000D02*
X27920000Y17010000D01*
X24190000Y17010000D02*
X28570000Y17010000D01*
X19160010Y22039990D02*
X24190000Y17010000D01*
X10000000Y94190000D02*
X15610000Y94190000D01*
X19160010Y90639990D02*
X19160010Y22039990D01*
X15610000Y94190000D02*
X19160010Y90639990D01*
%TO.N,/GPIO13*%
X24170000Y11930000D02*
X28570000Y11930000D01*
X18560000Y17540000D02*
X24170000Y11930000D01*
X18560000Y88740000D02*
X18560000Y17540000D01*
X10000000Y91650000D02*
X15650000Y91650000D01*
X15650000Y91650000D02*
X18560000Y88740000D01*
%TO.N,/GPIO34*%
X53780000Y34790000D02*
X55480000Y36490000D01*
X51430000Y34790000D02*
X53780000Y34790000D01*
X70000000Y104350000D02*
X62950000Y104350000D01*
X55480000Y96880000D02*
X55480000Y96720000D01*
X55480000Y36490000D02*
X55480000Y96720000D01*
X62950000Y104350000D02*
X55480000Y96880000D01*
%TO.N,/GPIO35*%
X56080010Y34480010D02*
X53850000Y32250000D01*
X56080010Y94980010D02*
X56080010Y34480010D01*
X53850000Y32250000D02*
X51430000Y32250000D01*
X70000000Y101810000D02*
X62910000Y101810000D01*
X62910000Y101810000D02*
X56080010Y94980010D01*
%TO.N,/GPIO25*%
X70000000Y94190000D02*
X62890000Y94190000D01*
X57930000Y89230000D02*
X57930000Y89130000D01*
X62890000Y94190000D02*
X57930000Y89230000D01*
X51430000Y24630000D02*
X53830000Y24630000D01*
X53830000Y24630000D02*
X57930000Y28730000D01*
X57930000Y28730000D02*
X57930000Y89130000D01*
%TO.N,/GPIO26*%
X53890000Y22090000D02*
X51430000Y22090000D01*
X62850000Y91650000D02*
X58530000Y87330000D01*
X70000000Y91650000D02*
X62850000Y91650000D01*
X58530010Y26730010D02*
X53890000Y22090000D01*
X58530000Y87330000D02*
X58530000Y29040000D01*
X58530000Y29040000D02*
X58530010Y29040010D01*
X58530010Y29040010D02*
X58530010Y26730010D01*
X76694077Y88094077D02*
X76700000Y88100000D01*
X76700000Y69107897D02*
X76694077Y69101974D01*
X76700000Y88100000D02*
X76700000Y69107897D01*
%TD*%
D19*
%TO.N,+3V3*%
G36*
X30873000Y116178178D02*
G01*
X30855451Y116000000D01*
X30925480Y115288984D01*
X31132876Y114605291D01*
X31469668Y113975197D01*
X31922915Y113422915D01*
X32475197Y112969668D01*
X33105291Y112632876D01*
X33788984Y112425480D01*
X34321822Y112373000D01*
X45678178Y112373000D01*
X46211016Y112425480D01*
X46894709Y112632876D01*
X47524803Y112969668D01*
X48077085Y113422915D01*
X48530332Y113975197D01*
X48867124Y114605291D01*
X49074520Y115288984D01*
X49144549Y116000000D01*
X49127000Y116178178D01*
X49127000Y119290000D01*
X72373000Y119290000D01*
X72373000Y115642772D01*
X72512383Y114942043D01*
X72785794Y114281971D01*
X73182725Y113687922D01*
X73687922Y113182725D01*
X74281971Y112785794D01*
X74942043Y112512383D01*
X75642772Y112373000D01*
X79290001Y112373000D01*
X79290000Y7627000D01*
X75642772Y7627000D01*
X74942043Y7487617D01*
X74281971Y7214206D01*
X73687922Y6817275D01*
X73182725Y6312078D01*
X72785794Y5718029D01*
X72512383Y5057957D01*
X72373000Y4357228D01*
X72373000Y710000D01*
X54004720Y710000D01*
X53861891Y724005D01*
X53757901Y755401D01*
X53661987Y806399D01*
X53577801Y875059D01*
X53508561Y958757D01*
X53456895Y1054311D01*
X53424773Y1158078D01*
X53410000Y1298641D01*
X53410000Y7654877D01*
X53406993Y7685413D01*
X53407047Y7693214D01*
X53406080Y7703080D01*
X53380172Y7949583D01*
X53367236Y8012601D01*
X53355174Y8075833D01*
X53352308Y8085323D01*
X53279013Y8322099D01*
X53254084Y8381403D01*
X53229971Y8441085D01*
X53225317Y8449837D01*
X53107429Y8667867D01*
X53071459Y8721195D01*
X53036207Y8775065D01*
X53029941Y8782747D01*
X52871949Y8973727D01*
X52826294Y9019064D01*
X52781264Y9065047D01*
X52773626Y9071366D01*
X52581548Y9228021D01*
X52527959Y9263625D01*
X52474850Y9299989D01*
X52466130Y9304704D01*
X52247283Y9421066D01*
X52187792Y9445587D01*
X52128643Y9470938D01*
X52119173Y9473869D01*
X52119175Y9473869D01*
X52119167Y9473871D01*
X51881892Y9545509D01*
X51818795Y9558003D01*
X51755821Y9571388D01*
X51745966Y9572424D01*
X51745962Y9572424D01*
X51500014Y9596539D01*
X51464877Y9600000D01*
X41039527Y9600000D01*
X41065000Y9728061D01*
X41065000Y9931939D01*
X41025226Y10131898D01*
X40947205Y10320256D01*
X40833937Y10489774D01*
X40689774Y10633937D01*
X40520256Y10747205D01*
X40331898Y10825226D01*
X40131939Y10865000D01*
X39928061Y10865000D01*
X39728102Y10825226D01*
X39539744Y10747205D01*
X39370226Y10633937D01*
X39351289Y10615000D01*
X30732939Y10615000D01*
X30947825Y10829886D01*
X30977774Y10854465D01*
X31075872Y10973996D01*
X31148764Y11110369D01*
X31193651Y11258342D01*
X31205010Y11373668D01*
X31205010Y11373675D01*
X31208807Y11412228D01*
X31205010Y11450781D01*
X31205010Y13341435D01*
X31208807Y13379990D01*
X31205010Y13418550D01*
X31205010Y13418551D01*
X31200516Y13464175D01*
X31193652Y13533877D01*
X31148764Y13681850D01*
X31141009Y13696359D01*
X31075872Y13818223D01*
X30977774Y13937754D01*
X30947827Y13962331D01*
X30408860Y14501297D01*
X30384236Y14751309D01*
X30302182Y15021808D01*
X30168932Y15271101D01*
X29989608Y15489608D01*
X29771101Y15668932D01*
X29638142Y15740000D01*
X29771101Y15811068D01*
X29989608Y15990392D01*
X30168932Y16208899D01*
X30302182Y16458192D01*
X30384236Y16728691D01*
X30411943Y17010000D01*
X30384236Y17291309D01*
X30302182Y17561808D01*
X30168932Y17811101D01*
X29989608Y18029608D01*
X29771101Y18208932D01*
X29638142Y18280000D01*
X29771101Y18351068D01*
X29989608Y18530392D01*
X30168932Y18748899D01*
X30302182Y18998192D01*
X30384236Y19268691D01*
X30411943Y19550000D01*
X30397276Y19698921D01*
X42465000Y19698921D01*
X42465000Y19101079D01*
X42581633Y18514723D01*
X42810418Y17962388D01*
X43142562Y17465300D01*
X43565300Y17042562D01*
X44062388Y16710418D01*
X44614723Y16481633D01*
X45201079Y16365000D01*
X45798921Y16365000D01*
X46385277Y16481633D01*
X46937612Y16710418D01*
X47434700Y17042562D01*
X47857438Y17465300D01*
X48189582Y17962388D01*
X48418367Y18514723D01*
X48535000Y19101079D01*
X48535000Y19698921D01*
X48418367Y20285277D01*
X48189582Y20837612D01*
X47857438Y21334700D01*
X47434700Y21757438D01*
X46937612Y22089582D01*
X46385277Y22318367D01*
X45798921Y22435000D01*
X45201079Y22435000D01*
X44614723Y22318367D01*
X44062388Y22089582D01*
X43565300Y21757438D01*
X43142562Y21334700D01*
X42810418Y20837612D01*
X42581633Y20285277D01*
X42465000Y19698921D01*
X30397276Y19698921D01*
X30384236Y19831309D01*
X30302182Y20101808D01*
X30168932Y20351101D01*
X29989608Y20569608D01*
X29771101Y20748932D01*
X29638142Y20820000D01*
X29771101Y20891068D01*
X29989608Y21070392D01*
X30168932Y21288899D01*
X30302182Y21538192D01*
X30384236Y21808691D01*
X30411943Y22090000D01*
X30384236Y22371309D01*
X30302182Y22641808D01*
X30168932Y22891101D01*
X29989608Y23109608D01*
X29771101Y23288932D01*
X29638142Y23360000D01*
X29771101Y23431068D01*
X29989608Y23610392D01*
X30168932Y23828899D01*
X30302182Y24078192D01*
X30384236Y24348691D01*
X30411943Y24630000D01*
X30384236Y24911309D01*
X30302182Y25181808D01*
X30168932Y25431101D01*
X29989608Y25649608D01*
X29771101Y25828932D01*
X29638142Y25900000D01*
X29771101Y25971068D01*
X29989608Y26150392D01*
X30168932Y26368899D01*
X30302182Y26618192D01*
X30384236Y26888691D01*
X30411943Y27170000D01*
X30384236Y27451309D01*
X30302182Y27721808D01*
X30168932Y27971101D01*
X29989608Y28189608D01*
X29771101Y28368932D01*
X29638142Y28440000D01*
X29771101Y28511068D01*
X29989608Y28690392D01*
X30168932Y28908899D01*
X30302182Y29158192D01*
X30384236Y29428691D01*
X30411943Y29710000D01*
X30384236Y29991309D01*
X30302182Y30261808D01*
X30168932Y30511101D01*
X29989608Y30729608D01*
X29771101Y30908932D01*
X29638142Y30980000D01*
X29771101Y31051068D01*
X29989608Y31230392D01*
X30168932Y31448899D01*
X30302182Y31698192D01*
X30384236Y31968691D01*
X30411943Y32250000D01*
X30384236Y32531309D01*
X30302182Y32801808D01*
X30168932Y33051101D01*
X29989608Y33269608D01*
X29771101Y33448932D01*
X29638142Y33520000D01*
X29771101Y33591068D01*
X29989608Y33770392D01*
X30168932Y33988899D01*
X30302182Y34238192D01*
X30384236Y34508691D01*
X30411943Y34790000D01*
X30384236Y35071309D01*
X30302182Y35341808D01*
X30168932Y35591101D01*
X29989608Y35809608D01*
X29771101Y35988932D01*
X29638142Y36060000D01*
X29771101Y36131068D01*
X29989608Y36310392D01*
X30168932Y36528899D01*
X30302182Y36778192D01*
X30384236Y37048691D01*
X30411943Y37330000D01*
X30384236Y37611309D01*
X30302182Y37881808D01*
X30168932Y38131101D01*
X29989608Y38349608D01*
X29771101Y38528932D01*
X29638142Y38600000D01*
X29771101Y38671068D01*
X29989608Y38850392D01*
X30065273Y38942589D01*
X30265300Y38742562D01*
X30762388Y38410418D01*
X31314723Y38181633D01*
X31901079Y38065000D01*
X32498921Y38065000D01*
X33085277Y38181633D01*
X33637612Y38410418D01*
X34134700Y38742562D01*
X34557438Y39165300D01*
X34889582Y39662388D01*
X35118367Y40214723D01*
X35235000Y40801079D01*
X35235000Y41398921D01*
X35118367Y41985277D01*
X34889582Y42537612D01*
X34557438Y43034700D01*
X34393737Y43198401D01*
X49824280Y43198401D01*
X49697818Y42961808D01*
X49615764Y42691309D01*
X49588057Y42410000D01*
X49615764Y42128691D01*
X49697818Y41858192D01*
X49831068Y41608899D01*
X50010392Y41390392D01*
X50228899Y41211068D01*
X50361858Y41140000D01*
X50228899Y41068932D01*
X50010392Y40889608D01*
X49831068Y40671101D01*
X49697818Y40421808D01*
X49615764Y40151309D01*
X49588057Y39870000D01*
X49615764Y39588691D01*
X49697818Y39318192D01*
X49831068Y39068899D01*
X50010392Y38850392D01*
X50228899Y38671068D01*
X50361858Y38600000D01*
X50228899Y38528932D01*
X50010392Y38349608D01*
X49831068Y38131101D01*
X49697818Y37881808D01*
X49615764Y37611309D01*
X49588057Y37330000D01*
X49615764Y37048691D01*
X49697818Y36778192D01*
X49831068Y36528899D01*
X50010392Y36310392D01*
X50228899Y36131068D01*
X50361858Y36060000D01*
X50228899Y35988932D01*
X50010392Y35809608D01*
X49831068Y35591101D01*
X49697818Y35341808D01*
X49615764Y35071309D01*
X49588057Y34790000D01*
X49615764Y34508691D01*
X49697818Y34238192D01*
X49831068Y33988899D01*
X50010392Y33770392D01*
X50228899Y33591068D01*
X50361858Y33520000D01*
X50228899Y33448932D01*
X50010392Y33269608D01*
X49831068Y33051101D01*
X49697818Y32801808D01*
X49615764Y32531309D01*
X49588057Y32250000D01*
X49615764Y31968691D01*
X49697818Y31698192D01*
X49831068Y31448899D01*
X50010392Y31230392D01*
X50228899Y31051068D01*
X50361858Y30980000D01*
X50228899Y30908932D01*
X50010392Y30729608D01*
X49831068Y30511101D01*
X49697818Y30261808D01*
X49615764Y29991309D01*
X49588057Y29710000D01*
X49615764Y29428691D01*
X49697818Y29158192D01*
X49831068Y28908899D01*
X50010392Y28690392D01*
X50228899Y28511068D01*
X50361858Y28440000D01*
X50228899Y28368932D01*
X50010392Y28189608D01*
X49831068Y27971101D01*
X49697818Y27721808D01*
X49615764Y27451309D01*
X49588057Y27170000D01*
X49615764Y26888691D01*
X49697818Y26618192D01*
X49831068Y26368899D01*
X50010392Y26150392D01*
X50228899Y25971068D01*
X50361858Y25900000D01*
X50228899Y25828932D01*
X50010392Y25649608D01*
X49831068Y25431101D01*
X49697818Y25181808D01*
X49615764Y24911309D01*
X49588057Y24630000D01*
X49615764Y24348691D01*
X49697818Y24078192D01*
X49831068Y23828899D01*
X50010392Y23610392D01*
X50228899Y23431068D01*
X50361858Y23360000D01*
X50228899Y23288932D01*
X50010392Y23109608D01*
X49831068Y22891101D01*
X49697818Y22641808D01*
X49615764Y22371309D01*
X49588057Y22090000D01*
X49615764Y21808691D01*
X49697818Y21538192D01*
X49831068Y21288899D01*
X50010392Y21070392D01*
X50228899Y20891068D01*
X50361858Y20820000D01*
X50228899Y20748932D01*
X50010392Y20569608D01*
X49831068Y20351101D01*
X49697818Y20101808D01*
X49615764Y19831309D01*
X49588057Y19550000D01*
X49615764Y19268691D01*
X49697818Y18998192D01*
X49831068Y18748899D01*
X50010392Y18530392D01*
X50228899Y18351068D01*
X50361858Y18280000D01*
X50228899Y18208932D01*
X50010392Y18029608D01*
X49831068Y17811101D01*
X49697818Y17561808D01*
X49615764Y17291309D01*
X49588057Y17010000D01*
X49615764Y16728691D01*
X49697818Y16458192D01*
X49831068Y16208899D01*
X50010392Y15990392D01*
X50228899Y15811068D01*
X50361858Y15740000D01*
X50228899Y15668932D01*
X50010392Y15489608D01*
X49831068Y15271101D01*
X49697818Y15021808D01*
X49615764Y14751309D01*
X49588057Y14470000D01*
X49615764Y14188691D01*
X49697818Y13918192D01*
X49831068Y13668899D01*
X50010392Y13450392D01*
X50123482Y13357581D01*
X50105518Y13355812D01*
X49985820Y13319502D01*
X49875506Y13260537D01*
X49778815Y13181185D01*
X49699463Y13084494D01*
X49640498Y12974180D01*
X49604188Y12854482D01*
X49591928Y12730000D01*
X49591928Y11130000D01*
X49604188Y11005518D01*
X49640498Y10885820D01*
X49699463Y10775506D01*
X49778815Y10678815D01*
X49875506Y10599463D01*
X49985820Y10540498D01*
X50105518Y10504188D01*
X50230000Y10491928D01*
X52630000Y10491928D01*
X52754482Y10504188D01*
X52874180Y10540498D01*
X52984494Y10599463D01*
X53081185Y10678815D01*
X53160537Y10775506D01*
X53219502Y10885820D01*
X53255812Y11005518D01*
X53268072Y11130000D01*
X53268072Y12730000D01*
X53255812Y12854482D01*
X53219502Y12974180D01*
X53160537Y13084494D01*
X53081185Y13181185D01*
X52984494Y13260537D01*
X52874180Y13319502D01*
X52754482Y13355812D01*
X52736518Y13357581D01*
X52849608Y13450392D01*
X53028932Y13668899D01*
X53162182Y13918192D01*
X53244236Y14188691D01*
X53271943Y14470000D01*
X53244236Y14751309D01*
X53162182Y15021808D01*
X53028932Y15271101D01*
X52849608Y15489608D01*
X52631101Y15668932D01*
X52498142Y15740000D01*
X52631101Y15811068D01*
X52849608Y15990392D01*
X52872075Y16017768D01*
X53834991Y15054851D01*
X53834990Y11610021D01*
X53831193Y11571468D01*
X53834990Y11532915D01*
X53834990Y11532908D01*
X53846349Y11417582D01*
X53891236Y11269609D01*
X53964128Y11133236D01*
X54062226Y11013704D01*
X54092180Y10989121D01*
X61619119Y3462181D01*
X61643693Y3432238D01*
X61673636Y3407664D01*
X61673644Y3407656D01*
X61763224Y3334140D01*
X61899597Y3261248D01*
X62047569Y3216360D01*
X62201456Y3201204D01*
X62240019Y3205002D01*
X69641447Y3205000D01*
X69680000Y3201203D01*
X69718553Y3205000D01*
X69718560Y3205000D01*
X69833886Y3216359D01*
X69981859Y3261246D01*
X70118232Y3334138D01*
X70178440Y3383550D01*
X70207812Y3407655D01*
X70207815Y3407658D01*
X70237763Y3432236D01*
X70262341Y3462184D01*
X74237819Y7437661D01*
X74267762Y7462235D01*
X74292336Y7492178D01*
X74292344Y7492186D01*
X74365860Y7581766D01*
X74438752Y7718139D01*
X74483640Y7866111D01*
X74498796Y8019998D01*
X74494998Y8058561D01*
X74494999Y10859483D01*
X74535825Y10798382D01*
X74798382Y10535825D01*
X75107118Y10329534D01*
X75450166Y10187439D01*
X75814344Y10115000D01*
X76185656Y10115000D01*
X76549834Y10187439D01*
X76892882Y10329534D01*
X77201618Y10535825D01*
X77464175Y10798382D01*
X77670466Y11107118D01*
X77812561Y11450166D01*
X77885000Y11814344D01*
X77885000Y12185656D01*
X77812561Y12549834D01*
X77670466Y12892882D01*
X77464175Y13201618D01*
X77201618Y13464175D01*
X76892882Y13670466D01*
X76549834Y13812561D01*
X76185656Y13885000D01*
X75814344Y13885000D01*
X75450166Y13812561D01*
X75107118Y13670466D01*
X74798382Y13464175D01*
X74535825Y13201618D01*
X74494999Y13140518D01*
X74495000Y15373194D01*
X74808119Y15116223D01*
X75179018Y14917974D01*
X75581467Y14795892D01*
X76000000Y14754670D01*
X76418532Y14795892D01*
X76820981Y14917974D01*
X77191881Y15116223D01*
X77516977Y15383023D01*
X77783777Y15708119D01*
X77982026Y16079018D01*
X78104108Y16481467D01*
X78135000Y16795118D01*
X78135000Y23004882D01*
X78104108Y23318533D01*
X77982026Y23720982D01*
X77783777Y24091881D01*
X77516977Y24416977D01*
X77191881Y24683777D01*
X76820982Y24882026D01*
X76418533Y25004108D01*
X76000000Y25045330D01*
X75581468Y25004108D01*
X75179019Y24882026D01*
X74808120Y24683777D01*
X74483024Y24416977D01*
X74216224Y24091881D01*
X74017975Y23720982D01*
X73895893Y23318533D01*
X73885000Y23207935D01*
X73885000Y31774843D01*
X73886544Y31776387D01*
X73895893Y31681467D01*
X74017975Y31279018D01*
X74216224Y30908119D01*
X74483024Y30583023D01*
X74808120Y30316223D01*
X75179019Y30117974D01*
X75581468Y29995892D01*
X76000000Y29954670D01*
X76418533Y29995892D01*
X76820982Y30117974D01*
X77191881Y30316223D01*
X77516977Y30583023D01*
X77783777Y30908119D01*
X77982026Y31279018D01*
X78104108Y31681467D01*
X78135000Y31995118D01*
X78135000Y38204882D01*
X78104108Y38518533D01*
X77982026Y38920982D01*
X77783777Y39291881D01*
X77516977Y39616977D01*
X77191881Y39883777D01*
X76820981Y40082026D01*
X76418532Y40204108D01*
X76000000Y40245330D01*
X75581467Y40204108D01*
X75179018Y40082026D01*
X74808119Y39883777D01*
X74483023Y39616977D01*
X74216223Y39291881D01*
X74017974Y38920981D01*
X73895892Y38518532D01*
X73865000Y38204881D01*
X73865001Y33975158D01*
X72572185Y32682342D01*
X72542237Y32657764D01*
X72517659Y32627816D01*
X72517655Y32627812D01*
X72484690Y32587644D01*
X72444139Y32538233D01*
X72422508Y32497764D01*
X72371246Y32401859D01*
X72326359Y32253886D01*
X72311203Y32100000D01*
X72315001Y32061437D01*
X72315000Y21258553D01*
X72311203Y21220000D01*
X72315000Y21181447D01*
X72315000Y21181440D01*
X72324991Y21080003D01*
X72324990Y8593690D01*
X69106311Y5375010D01*
X62775148Y5375010D01*
X56005000Y12145157D01*
X56005000Y15721448D01*
X56008797Y15760001D01*
X56005000Y15798554D01*
X56005000Y15798561D01*
X55993641Y15913887D01*
X55948754Y16061860D01*
X55875862Y16198233D01*
X55777764Y16317764D01*
X55747817Y16342341D01*
X53137724Y18952434D01*
X53162182Y18998192D01*
X53244236Y19268691D01*
X53271943Y19550000D01*
X53244236Y19831309D01*
X53162182Y20101808D01*
X53028932Y20351101D01*
X52849608Y20569608D01*
X52631101Y20748932D01*
X52498142Y20820000D01*
X52631101Y20891068D01*
X52849608Y21070392D01*
X53028932Y21288899D01*
X53037538Y21305000D01*
X53851447Y21305000D01*
X53890000Y21301203D01*
X53928553Y21305000D01*
X53928561Y21305000D01*
X54043887Y21316359D01*
X54191860Y21361246D01*
X54328233Y21434138D01*
X54447764Y21532236D01*
X54472347Y21562190D01*
X59057826Y26147668D01*
X59087774Y26172246D01*
X59185872Y26291777D01*
X59258764Y26428150D01*
X59303651Y26576123D01*
X59315010Y26691449D01*
X59315010Y26691456D01*
X59318807Y26730009D01*
X59315010Y26768562D01*
X59315010Y29001456D01*
X59318807Y29040009D01*
X59315010Y29078562D01*
X59315010Y29078571D01*
X59315000Y29078673D01*
X59315000Y43185656D01*
X74115000Y43185656D01*
X74115000Y42814344D01*
X74187439Y42450166D01*
X74329534Y42107118D01*
X74535825Y41798382D01*
X74798382Y41535825D01*
X75107118Y41329534D01*
X75450166Y41187439D01*
X75814344Y41115000D01*
X76185656Y41115000D01*
X76549834Y41187439D01*
X76892882Y41329534D01*
X77201618Y41535825D01*
X77464175Y41798382D01*
X77670466Y42107118D01*
X77812561Y42450166D01*
X77885000Y42814344D01*
X77885000Y43185656D01*
X77812561Y43549834D01*
X77670466Y43892882D01*
X77464175Y44201618D01*
X77201618Y44464175D01*
X76892882Y44670466D01*
X76549834Y44812561D01*
X76185656Y44885000D01*
X75814344Y44885000D01*
X75450166Y44812561D01*
X75107118Y44670466D01*
X74798382Y44464175D01*
X74535825Y44201618D01*
X74329534Y43892882D01*
X74187439Y43549834D01*
X74115000Y43185656D01*
X59315000Y43185656D01*
X59315000Y75101939D01*
X59665000Y75101939D01*
X59665000Y74898061D01*
X59704774Y74698102D01*
X59782795Y74509744D01*
X59896063Y74340226D01*
X60040226Y74196063D01*
X60209744Y74082795D01*
X60398102Y74004774D01*
X60598061Y73965000D01*
X60801939Y73965000D01*
X61001898Y74004774D01*
X61190256Y74082795D01*
X61359774Y74196063D01*
X61503937Y74340226D01*
X61617205Y74509744D01*
X61695226Y74698102D01*
X61735000Y74898061D01*
X61735000Y75101939D01*
X61695226Y75301898D01*
X61617205Y75490256D01*
X61503937Y75659774D01*
X61359774Y75803937D01*
X61190256Y75917205D01*
X61001898Y75995226D01*
X60801939Y76035000D01*
X60598061Y76035000D01*
X60398102Y75995226D01*
X60209744Y75917205D01*
X60040226Y75803937D01*
X59896063Y75659774D01*
X59782795Y75490256D01*
X59704774Y75301898D01*
X59665000Y75101939D01*
X59315000Y75101939D01*
X59315000Y87004843D01*
X61039723Y88729566D01*
X68409876Y88729566D01*
X68466498Y88542893D01*
X68606601Y88254618D01*
X68800252Y87999215D01*
X69040008Y87786499D01*
X69316656Y87624644D01*
X69619565Y87519871D01*
X69873000Y87638685D01*
X69873000Y88983000D01*
X70127000Y88983000D01*
X70127000Y87638685D01*
X70380435Y87519871D01*
X70683344Y87624644D01*
X70959992Y87786499D01*
X71199748Y87999215D01*
X71393399Y88254618D01*
X71533502Y88542893D01*
X71590124Y88729566D01*
X71470777Y88983000D01*
X70127000Y88983000D01*
X69873000Y88983000D01*
X68529223Y88983000D01*
X68409876Y88729566D01*
X61039723Y88729566D01*
X63175157Y90865000D01*
X68558123Y90865000D01*
X68730013Y90607748D01*
X68957748Y90380013D01*
X68970282Y90371638D01*
X68800252Y90220785D01*
X68606601Y89965382D01*
X68466498Y89677107D01*
X68409876Y89490434D01*
X68529223Y89237000D01*
X69873000Y89237000D01*
X69873000Y89257000D01*
X70127000Y89257000D01*
X70127000Y89237000D01*
X71470777Y89237000D01*
X71590124Y89490434D01*
X71533502Y89677107D01*
X71393399Y89965382D01*
X71199748Y90220785D01*
X71029718Y90371638D01*
X71042252Y90380013D01*
X71269987Y90607748D01*
X71448918Y90875537D01*
X71572168Y91173088D01*
X71635000Y91488967D01*
X71635000Y91811033D01*
X71572168Y92126912D01*
X71448918Y92424463D01*
X71269987Y92692252D01*
X71042252Y92919987D01*
X71042233Y92920000D01*
X71042252Y92920013D01*
X71269987Y93147748D01*
X71448918Y93415537D01*
X71572168Y93713088D01*
X71635000Y94028967D01*
X71635000Y94351033D01*
X71572168Y94666912D01*
X71448918Y94964463D01*
X71269987Y95232252D01*
X71042252Y95459987D01*
X71042233Y95460000D01*
X71042252Y95460013D01*
X71269987Y95687748D01*
X71448918Y95955537D01*
X71572168Y96253088D01*
X71635000Y96568967D01*
X71635000Y96891033D01*
X71572168Y97206912D01*
X71448918Y97504463D01*
X71269987Y97772252D01*
X71042252Y97999987D01*
X71042233Y98000000D01*
X71042252Y98000013D01*
X71269987Y98227748D01*
X71448918Y98495537D01*
X71572168Y98793088D01*
X71635000Y99108967D01*
X71635000Y99431033D01*
X71572168Y99746912D01*
X71448918Y100044463D01*
X71269987Y100312252D01*
X71042252Y100539987D01*
X71042233Y100540000D01*
X71042252Y100540013D01*
X71269987Y100767748D01*
X71448918Y101035537D01*
X71572168Y101333088D01*
X71635000Y101648967D01*
X71635000Y101971033D01*
X71572168Y102286912D01*
X71448918Y102584463D01*
X71269987Y102852252D01*
X71042252Y103079987D01*
X71042233Y103080000D01*
X71042252Y103080013D01*
X71269987Y103307748D01*
X71448918Y103575537D01*
X71572168Y103873088D01*
X71635000Y104188967D01*
X71635000Y104511033D01*
X71572168Y104826912D01*
X71448918Y105124463D01*
X71308370Y105334809D01*
X71354494Y105359463D01*
X71451185Y105438815D01*
X71530537Y105535506D01*
X71589502Y105645820D01*
X71625812Y105765518D01*
X71638072Y105890000D01*
X71638072Y107890000D01*
X71625812Y108014482D01*
X71589502Y108134180D01*
X71530537Y108244494D01*
X71451185Y108341185D01*
X71354494Y108420537D01*
X71244180Y108479502D01*
X71124482Y108515812D01*
X71000000Y108528072D01*
X69000000Y108528072D01*
X68875518Y108515812D01*
X68755820Y108479502D01*
X68645506Y108420537D01*
X68548815Y108341185D01*
X68469463Y108244494D01*
X68410498Y108134180D01*
X68374188Y108014482D01*
X68361928Y107890000D01*
X68361928Y105890000D01*
X68374188Y105765518D01*
X68410498Y105645820D01*
X68469463Y105535506D01*
X68548815Y105438815D01*
X68645506Y105359463D01*
X68691630Y105334809D01*
X68558123Y105135000D01*
X62988552Y105135000D01*
X62949999Y105138797D01*
X62911446Y105135000D01*
X62911439Y105135000D01*
X62810490Y105125057D01*
X62796112Y105123641D01*
X62761672Y105113194D01*
X62648140Y105078754D01*
X62511767Y105005862D01*
X62451559Y104956450D01*
X62422187Y104932345D01*
X62422184Y104932342D01*
X62392236Y104907764D01*
X62367658Y104877816D01*
X54952190Y97462347D01*
X54922236Y97437764D01*
X54824138Y97318232D01*
X54751246Y97181859D01*
X54706359Y97033886D01*
X54695000Y96918560D01*
X54695000Y96918553D01*
X54691203Y96880000D01*
X54695000Y96841447D01*
X54695000Y96681439D01*
X54695001Y96681429D01*
X54695000Y36815158D01*
X53454843Y35575000D01*
X53037538Y35575000D01*
X53028932Y35591101D01*
X52849608Y35809608D01*
X52631101Y35988932D01*
X52498142Y36060000D01*
X52631101Y36131068D01*
X52849608Y36310392D01*
X53028932Y36528899D01*
X53162182Y36778192D01*
X53244236Y37048691D01*
X53271943Y37330000D01*
X53244236Y37611309D01*
X53162182Y37881808D01*
X53028932Y38131101D01*
X52849608Y38349608D01*
X52631101Y38528932D01*
X52498142Y38600000D01*
X52631101Y38671068D01*
X52849608Y38850392D01*
X53028932Y39068899D01*
X53162182Y39318192D01*
X53244236Y39588691D01*
X53271943Y39870000D01*
X53244236Y40151309D01*
X53162182Y40421808D01*
X53028932Y40671101D01*
X52849608Y40889608D01*
X52631101Y41068932D01*
X52498142Y41140000D01*
X52631101Y41211068D01*
X52849608Y41390392D01*
X53028932Y41608899D01*
X53162182Y41858192D01*
X53244236Y42128691D01*
X53271943Y42410000D01*
X53244236Y42691309D01*
X53162182Y42961808D01*
X53028932Y43211101D01*
X52849608Y43429608D01*
X52758822Y43504114D01*
X52758823Y47047394D01*
X52758822Y47047834D01*
X52758776Y47061114D01*
X52758081Y47073949D01*
X52707626Y47553996D01*
X52702642Y47578276D01*
X52561138Y48035400D01*
X52551533Y48058249D01*
X52323937Y48479178D01*
X52310077Y48499727D01*
X52005056Y48868435D01*
X51987469Y48885900D01*
X51616637Y49188343D01*
X51595992Y49202059D01*
X51173481Y49426711D01*
X51150565Y49436157D01*
X50692466Y49574465D01*
X50668152Y49579279D01*
X50187640Y49626394D01*
X50175247Y49627000D01*
X29859545Y49627000D01*
X29859105Y49626999D01*
X29846111Y49626954D01*
X29833276Y49626259D01*
X29353229Y49575804D01*
X29328949Y49570820D01*
X28871826Y49429316D01*
X28848977Y49419711D01*
X28428048Y49192116D01*
X28407499Y49178256D01*
X28038791Y48873234D01*
X28021326Y48855647D01*
X27718883Y48484815D01*
X27705167Y48464170D01*
X27480515Y48041659D01*
X27471069Y48018743D01*
X27332761Y47560645D01*
X27327947Y47536331D01*
X27280830Y47055799D01*
X27280224Y47043406D01*
X27280224Y43541144D01*
X27267161Y43532601D01*
X27065500Y43334895D01*
X26906285Y43101646D01*
X26795633Y42841818D01*
X26778096Y42759039D01*
X26900084Y42537002D01*
X26755000Y42537002D01*
X26755000Y75101939D01*
X52395000Y75101939D01*
X52395000Y74898061D01*
X52434774Y74698102D01*
X52512795Y74509744D01*
X52626063Y74340226D01*
X52770226Y74196063D01*
X52939744Y74082795D01*
X53128102Y74004774D01*
X53328061Y73965000D01*
X53531939Y73965000D01*
X53731898Y74004774D01*
X53920256Y74082795D01*
X54089774Y74196063D01*
X54233937Y74340226D01*
X54347205Y74509744D01*
X54425226Y74698102D01*
X54465000Y74898061D01*
X54465000Y75101939D01*
X54425226Y75301898D01*
X54347205Y75490256D01*
X54233937Y75659774D01*
X54089774Y75803937D01*
X53920256Y75917205D01*
X53731898Y75995226D01*
X53531939Y76035000D01*
X53328061Y76035000D01*
X53128102Y75995226D01*
X52939744Y75917205D01*
X52770226Y75803937D01*
X52626063Y75659774D01*
X52512795Y75490256D01*
X52434774Y75301898D01*
X52395000Y75101939D01*
X26755000Y75101939D01*
X26755000Y100391444D01*
X26758797Y100430000D01*
X26755000Y100468556D01*
X26755000Y100468561D01*
X26747965Y100539987D01*
X26743642Y100583887D01*
X26698754Y100731860D01*
X26694814Y100739232D01*
X26625862Y100868233D01*
X26527764Y100987764D01*
X26497810Y101012347D01*
X20775001Y106735156D01*
X20775001Y106864587D01*
X21234192Y106864587D01*
X21329956Y106600186D01*
X21619571Y106459296D01*
X21931108Y106377616D01*
X22252595Y106358282D01*
X22571675Y106402039D01*
X22876088Y106507205D01*
X23050044Y106600186D01*
X23145808Y106864587D01*
X22190000Y107820395D01*
X21234192Y106864587D01*
X20775001Y106864587D01*
X20775001Y107168365D01*
X20790186Y107139956D01*
X21054587Y107044192D01*
X22010395Y108000000D01*
X22369605Y108000000D01*
X23325413Y107044192D01*
X23387280Y107066600D01*
X23460013Y106957748D01*
X23687748Y106730013D01*
X23955537Y106551082D01*
X24253088Y106427832D01*
X24568967Y106365000D01*
X24891033Y106365000D01*
X25206912Y106427832D01*
X25504463Y106551082D01*
X25772252Y106730013D01*
X25999987Y106957748D01*
X26000000Y106957767D01*
X26000013Y106957748D01*
X26227748Y106730013D01*
X26495537Y106551082D01*
X26793088Y106427832D01*
X27108967Y106365000D01*
X27431033Y106365000D01*
X27746912Y106427832D01*
X28044463Y106551082D01*
X28312252Y106730013D01*
X28539987Y106957748D01*
X28540000Y106957767D01*
X28540013Y106957748D01*
X28767748Y106730013D01*
X29035537Y106551082D01*
X29333088Y106427832D01*
X29648967Y106365000D01*
X29971033Y106365000D01*
X30274483Y106425360D01*
X32327658Y104372184D01*
X32352236Y104342236D01*
X32382184Y104317658D01*
X32382187Y104317655D01*
X32411559Y104293550D01*
X32471767Y104244138D01*
X32608140Y104171246D01*
X32756113Y104126359D01*
X32871439Y104115000D01*
X32871446Y104115000D01*
X32909999Y104111203D01*
X32948552Y104115000D01*
X54671447Y104115000D01*
X54710000Y104111203D01*
X54748553Y104115000D01*
X54748561Y104115000D01*
X54863887Y104126359D01*
X55011860Y104171246D01*
X55148233Y104244138D01*
X55267764Y104342236D01*
X55292347Y104372190D01*
X57345517Y106425360D01*
X57648967Y106365000D01*
X57971033Y106365000D01*
X58286912Y106427832D01*
X58584463Y106551082D01*
X58852252Y106730013D01*
X59079987Y106957748D01*
X59258918Y107225537D01*
X59382168Y107523088D01*
X59445000Y107838967D01*
X59445000Y108161033D01*
X59382168Y108476912D01*
X59258918Y108774463D01*
X59079987Y109042252D01*
X58852252Y109269987D01*
X58595000Y109441877D01*
X58595000Y115184843D01*
X60125158Y116715000D01*
X60682695Y116715000D01*
X60551627Y116638946D01*
X60465149Y116371364D01*
X61453732Y115449496D01*
X62375601Y116438079D01*
X62270667Y116698976D01*
X62234578Y116715000D01*
X63174843Y116715000D01*
X63192800Y116697044D01*
X62957748Y116539987D01*
X62730013Y116312252D01*
X62674014Y116228444D01*
X62561364Y116264851D01*
X61639496Y115276268D01*
X62628079Y114354399D01*
X62641721Y114359886D01*
X62659687Y114332999D01*
X62584482Y114355812D01*
X62550444Y114359164D01*
X61653749Y115255859D01*
X61477717Y115079827D01*
X61466268Y115090504D01*
X60792589Y114368072D01*
X60737680Y114368072D01*
X61445859Y115076251D01*
X61269827Y115252283D01*
X61280504Y115263732D01*
X60291921Y116185601D01*
X60031024Y116080667D01*
X59900327Y115786311D01*
X59829569Y115472113D01*
X59821467Y115150148D01*
X59876333Y114832789D01*
X59992058Y114532232D01*
X60091054Y114361627D01*
X60218697Y114320375D01*
X60215820Y114319502D01*
X60105506Y114260537D01*
X60008815Y114181185D01*
X59929463Y114084494D01*
X59870498Y113974180D01*
X59834188Y113854482D01*
X59821928Y113730000D01*
X59821928Y111730000D01*
X59834188Y111605518D01*
X59870498Y111485820D01*
X59929463Y111375506D01*
X60008815Y111278815D01*
X60105506Y111199463D01*
X60215820Y111140498D01*
X60335518Y111104188D01*
X60460000Y111091928D01*
X62460000Y111091928D01*
X62584482Y111104188D01*
X62704180Y111140498D01*
X62814494Y111199463D01*
X62911185Y111278815D01*
X62990537Y111375506D01*
X63015191Y111421630D01*
X63225537Y111281082D01*
X63523088Y111157832D01*
X63838967Y111095000D01*
X64161033Y111095000D01*
X64476912Y111157832D01*
X64774463Y111281082D01*
X65042252Y111460013D01*
X65269987Y111687748D01*
X65270000Y111687767D01*
X65270013Y111687748D01*
X65497748Y111460013D01*
X65765537Y111281082D01*
X66063088Y111157832D01*
X66378967Y111095000D01*
X66701033Y111095000D01*
X67016912Y111157832D01*
X67314463Y111281082D01*
X67582252Y111460013D01*
X67809987Y111687748D01*
X67988918Y111955537D01*
X68112168Y112253088D01*
X68175000Y112568967D01*
X68175000Y112891033D01*
X68112168Y113206912D01*
X67988918Y113504463D01*
X67809987Y113772252D01*
X67582252Y113999987D01*
X67582233Y114000000D01*
X67582252Y114000013D01*
X67809987Y114227748D01*
X67988918Y114495537D01*
X68112168Y114793088D01*
X68175000Y115108967D01*
X68175000Y115214843D01*
X71655000Y111734843D01*
X71655001Y85098563D01*
X71651203Y85060000D01*
X71666359Y84906114D01*
X71711246Y84758141D01*
X71711247Y84758140D01*
X71784139Y84621767D01*
X71798814Y84603886D01*
X71857655Y84532188D01*
X71857659Y84532184D01*
X71882237Y84502236D01*
X71912185Y84477658D01*
X74113026Y82276817D01*
X74113027Y73981742D01*
X73912641Y74123053D01*
X73618285Y74253749D01*
X73427648Y74304385D01*
X73177290Y74176325D01*
X73218703Y72990414D01*
X73116115Y72887826D01*
X73295723Y72708218D01*
X73419757Y72832252D01*
X74113027Y72856461D01*
X74113027Y72602307D01*
X73398311Y72577348D01*
X73295723Y72679936D01*
X73116115Y72500328D01*
X73240149Y72376294D01*
X73280503Y71220693D01*
X73294030Y71214926D01*
X73287721Y71183211D01*
X73250674Y71252520D01*
X73171322Y71349211D01*
X73016452Y71504081D01*
X72985245Y72397740D01*
X73087833Y72500328D01*
X72908225Y72679936D01*
X72784191Y72555902D01*
X71992285Y72528248D01*
X71757108Y72763425D01*
X71744526Y72773751D01*
X72970619Y72816567D01*
X72923445Y74167461D01*
X72664763Y74277744D01*
X72364206Y74162020D01*
X72092001Y73989882D01*
X71858608Y73767947D01*
X71672998Y73504744D01*
X71542302Y73210388D01*
X71491666Y73019751D01*
X71552753Y72900326D01*
X71550103Y72901742D01*
X71430405Y72938052D01*
X71305923Y72950312D01*
X71181441Y72938052D01*
X71061743Y72901742D01*
X70951429Y72842777D01*
X70854738Y72763425D01*
X69440524Y71349211D01*
X69361172Y71252520D01*
X69302207Y71142206D01*
X69265897Y71022508D01*
X69253637Y70898026D01*
X69265897Y70773544D01*
X69302207Y70653846D01*
X69361172Y70543532D01*
X69440524Y70446841D01*
X70854738Y69032627D01*
X70951429Y68953275D01*
X71061743Y68894310D01*
X71181441Y68858000D01*
X71305923Y68845740D01*
X71430405Y68858000D01*
X71480452Y68873182D01*
X71497992Y68785000D01*
X69925158Y68785000D01*
X66685000Y72025157D01*
X66685000Y79921289D01*
X66703937Y79940226D01*
X66817205Y80109744D01*
X66895226Y80298102D01*
X66935000Y80498061D01*
X66935000Y80701939D01*
X66895226Y80901898D01*
X66817205Y81090256D01*
X66703937Y81259774D01*
X66559774Y81403937D01*
X66390256Y81517205D01*
X66201898Y81595226D01*
X66001939Y81635000D01*
X65798061Y81635000D01*
X65598102Y81595226D01*
X65409744Y81517205D01*
X65240226Y81403937D01*
X65096063Y81259774D01*
X64982795Y81090256D01*
X64904774Y80901898D01*
X64865000Y80701939D01*
X64865000Y80498061D01*
X64904774Y80298102D01*
X64982795Y80109744D01*
X65096063Y79940226D01*
X65115000Y79921289D01*
X65115001Y71738563D01*
X65111203Y71700000D01*
X65126359Y71546114D01*
X65171246Y71398141D01*
X65190990Y71361203D01*
X65244139Y71261767D01*
X65273383Y71226134D01*
X65317655Y71172188D01*
X65317659Y71172184D01*
X65342237Y71142236D01*
X65372185Y71117658D01*
X69017658Y67472184D01*
X69042236Y67442236D01*
X69072184Y67417658D01*
X69072187Y67417655D01*
X69101559Y67393550D01*
X69161767Y67344138D01*
X69298140Y67271246D01*
X69446112Y67226359D01*
X69460490Y67224943D01*
X69561439Y67215000D01*
X69561446Y67215000D01*
X69599999Y67211203D01*
X69638552Y67215000D01*
X71961447Y67215000D01*
X72000000Y67211203D01*
X72038553Y67215000D01*
X72038561Y67215000D01*
X72153887Y67226359D01*
X72301860Y67271246D01*
X72438233Y67344138D01*
X72557764Y67442236D01*
X72582347Y67472190D01*
X72637491Y67527334D01*
X72940941Y67466974D01*
X73263007Y67466974D01*
X73263031Y67466979D01*
X73263026Y67466956D01*
X73263026Y67144890D01*
X73325858Y66829011D01*
X73449108Y66531460D01*
X73628039Y66263671D01*
X73855774Y66035936D01*
X74123563Y65857005D01*
X74421114Y65733755D01*
X74736993Y65670923D01*
X75059059Y65670923D01*
X75374938Y65733755D01*
X75672489Y65857005D01*
X75940278Y66035936D01*
X76168013Y66263671D01*
X76346944Y66531460D01*
X76470194Y66829011D01*
X76533026Y67144890D01*
X76533026Y67466956D01*
X76533022Y67466978D01*
X76533044Y67466974D01*
X76855110Y67466974D01*
X77170989Y67529806D01*
X77468540Y67653056D01*
X77736329Y67831987D01*
X77964064Y68059722D01*
X78142995Y68327511D01*
X78266245Y68625062D01*
X78329077Y68940941D01*
X78329077Y69263007D01*
X78266245Y69578886D01*
X78142995Y69876437D01*
X77964064Y70144226D01*
X77736329Y70371961D01*
X77485000Y70539894D01*
X77485000Y87421289D01*
X77503937Y87440226D01*
X77617205Y87609744D01*
X77695226Y87798102D01*
X77735000Y87998061D01*
X77735000Y88201939D01*
X77695226Y88401898D01*
X77617205Y88590256D01*
X77503937Y88759774D01*
X77359774Y88903937D01*
X77190256Y89017205D01*
X77001898Y89095226D01*
X76801939Y89135000D01*
X76598061Y89135000D01*
X76398102Y89095226D01*
X76209744Y89017205D01*
X76040226Y88903937D01*
X75896063Y88759774D01*
X75782795Y88590256D01*
X75704774Y88401898D01*
X75665000Y88201939D01*
X75665000Y87998061D01*
X75704774Y87798102D01*
X75782795Y87609744D01*
X75896063Y87440226D01*
X75915000Y87421289D01*
X75915001Y72184903D01*
X75683026Y72339903D01*
X75683026Y82563418D01*
X75686823Y82601974D01*
X75683026Y82640534D01*
X75683026Y82640535D01*
X75679046Y82680948D01*
X75671668Y82755861D01*
X75626780Y82903834D01*
X75553888Y83040207D01*
X75455790Y83159738D01*
X75425837Y83184320D01*
X73225000Y85385157D01*
X73225000Y112021444D01*
X73228797Y112060000D01*
X73225000Y112098560D01*
X73225000Y112098561D01*
X73218565Y112163896D01*
X73213642Y112213887D01*
X73168754Y112361860D01*
X73161495Y112375440D01*
X73095862Y112498233D01*
X72997764Y112617764D01*
X72967811Y112642346D01*
X67582347Y118027810D01*
X67557764Y118057764D01*
X67438233Y118155862D01*
X67301860Y118228754D01*
X67153887Y118273641D01*
X67038561Y118285000D01*
X67038553Y118285000D01*
X67000000Y118288797D01*
X66961447Y118285000D01*
X64538556Y118285000D01*
X64500000Y118288797D01*
X64461444Y118285000D01*
X64461439Y118285000D01*
X64421026Y118281020D01*
X64346113Y118273642D01*
X64206731Y118231360D01*
X64198140Y118228754D01*
X64061767Y118155862D01*
X64000000Y118105170D01*
X63938233Y118155862D01*
X63801860Y118228754D01*
X63653887Y118273641D01*
X63538561Y118285000D01*
X63538553Y118285000D01*
X63500000Y118288797D01*
X63461447Y118285000D01*
X59838555Y118285000D01*
X59800000Y118288797D01*
X59761444Y118285000D01*
X59761439Y118285000D01*
X59721026Y118281020D01*
X59646113Y118273642D01*
X59506731Y118231360D01*
X59498140Y118228754D01*
X59361767Y118155862D01*
X59342792Y118140289D01*
X59272187Y118082345D01*
X59272184Y118082342D01*
X59242236Y118057764D01*
X59217658Y118027816D01*
X57282185Y116092342D01*
X57252237Y116067764D01*
X57227659Y116037816D01*
X57227655Y116037812D01*
X57196624Y116000000D01*
X57154139Y115948233D01*
X57133809Y115910197D01*
X57081246Y115811859D01*
X57036359Y115663886D01*
X57021203Y115510000D01*
X57025001Y115471437D01*
X57025000Y109441878D01*
X56767748Y109269987D01*
X56540013Y109042252D01*
X56540000Y109042233D01*
X56539987Y109042252D01*
X56312252Y109269987D01*
X56044463Y109448918D01*
X55746912Y109572168D01*
X55431033Y109635000D01*
X55108967Y109635000D01*
X54793088Y109572168D01*
X54495537Y109448918D01*
X54227748Y109269987D01*
X54000013Y109042252D01*
X54000000Y109042233D01*
X53999987Y109042252D01*
X53772252Y109269987D01*
X53504463Y109448918D01*
X53206912Y109572168D01*
X52891033Y109635000D01*
X52568967Y109635000D01*
X52253088Y109572168D01*
X51955537Y109448918D01*
X51687748Y109269987D01*
X51460013Y109042252D01*
X51387280Y108933400D01*
X51325413Y108955808D01*
X50369605Y108000000D01*
X51325413Y107044192D01*
X51387280Y107066600D01*
X51460013Y106957748D01*
X51687748Y106730013D01*
X51955537Y106551082D01*
X52253088Y106427832D01*
X52568967Y106365000D01*
X52891033Y106365000D01*
X53206912Y106427832D01*
X53504463Y106551082D01*
X53772252Y106730013D01*
X53999987Y106957748D01*
X54000000Y106957767D01*
X54000013Y106957748D01*
X54227748Y106730013D01*
X54495537Y106551082D01*
X54793088Y106427832D01*
X55072163Y106372321D01*
X54384843Y105685000D01*
X33235158Y105685000D01*
X32055571Y106864587D01*
X49234192Y106864587D01*
X49329956Y106600186D01*
X49619571Y106459296D01*
X49931108Y106377616D01*
X50252595Y106358282D01*
X50571675Y106402039D01*
X50876088Y106507205D01*
X51050044Y106600186D01*
X51145808Y106864587D01*
X50190000Y107820395D01*
X49234192Y106864587D01*
X32055571Y106864587D01*
X31384640Y107535517D01*
X31445000Y107838967D01*
X31445000Y107937405D01*
X48548282Y107937405D01*
X48592039Y107618325D01*
X48697205Y107313912D01*
X48790186Y107139956D01*
X49054587Y107044192D01*
X50010395Y108000000D01*
X49054587Y108955808D01*
X48790186Y108860044D01*
X48649296Y108570429D01*
X48567616Y108258892D01*
X48548282Y107937405D01*
X31445000Y107937405D01*
X31445000Y108161033D01*
X31382168Y108476912D01*
X31258918Y108774463D01*
X31079987Y109042252D01*
X30986826Y109135413D01*
X49234192Y109135413D01*
X50190000Y108179605D01*
X51145808Y109135413D01*
X51050044Y109399814D01*
X50760429Y109540704D01*
X50448892Y109622384D01*
X50127405Y109641718D01*
X49808325Y109597961D01*
X49503912Y109492795D01*
X49329956Y109399814D01*
X49234192Y109135413D01*
X30986826Y109135413D01*
X30852252Y109269987D01*
X30584463Y109448918D01*
X30286912Y109572168D01*
X29971033Y109635000D01*
X29648967Y109635000D01*
X29333088Y109572168D01*
X29035537Y109448918D01*
X28767748Y109269987D01*
X28540013Y109042252D01*
X28540000Y109042233D01*
X28539987Y109042252D01*
X28312252Y109269987D01*
X28044463Y109448918D01*
X27746912Y109572168D01*
X27431033Y109635000D01*
X27108967Y109635000D01*
X26793088Y109572168D01*
X26495537Y109448918D01*
X26227748Y109269987D01*
X26000013Y109042252D01*
X26000000Y109042233D01*
X25999987Y109042252D01*
X25772252Y109269987D01*
X25504463Y109448918D01*
X25206912Y109572168D01*
X24891033Y109635000D01*
X24568967Y109635000D01*
X24253088Y109572168D01*
X23955537Y109448918D01*
X23687748Y109269987D01*
X23460013Y109042252D01*
X23387280Y108933400D01*
X23325413Y108955808D01*
X22369605Y108000000D01*
X22010395Y108000000D01*
X21054587Y108955808D01*
X20790186Y108860044D01*
X20775001Y108828830D01*
X20775001Y109135413D01*
X21234192Y109135413D01*
X22190000Y108179605D01*
X23145808Y109135413D01*
X23050044Y109399814D01*
X22760429Y109540704D01*
X22448892Y109622384D01*
X22127405Y109641718D01*
X21808325Y109597961D01*
X21503912Y109492795D01*
X21329956Y109399814D01*
X21234192Y109135413D01*
X20775001Y109135413D01*
X20775001Y113781447D01*
X20778798Y113820000D01*
X20775001Y113858553D01*
X20775001Y113858560D01*
X20763642Y113973886D01*
X20718755Y114121859D01*
X20645863Y114258232D01*
X20547765Y114377763D01*
X20517818Y114402340D01*
X20114640Y114805517D01*
X20175000Y115108967D01*
X20175000Y115431033D01*
X20112168Y115746912D01*
X19988918Y116044463D01*
X19809987Y116312252D01*
X19582252Y116539987D01*
X19314463Y116718918D01*
X19016912Y116842168D01*
X18701033Y116905000D01*
X18378967Y116905000D01*
X18063088Y116842168D01*
X17765537Y116718918D01*
X17497748Y116539987D01*
X17270013Y116312252D01*
X17270000Y116312233D01*
X17269987Y116312252D01*
X17042252Y116539987D01*
X16774463Y116718918D01*
X16476912Y116842168D01*
X16161033Y116905000D01*
X15838967Y116905000D01*
X15535517Y116844640D01*
X14852345Y117527812D01*
X14827764Y117557764D01*
X14708233Y117655862D01*
X14571860Y117728754D01*
X14423887Y117773641D01*
X14308561Y117785000D01*
X14308553Y117785000D01*
X14270000Y117788797D01*
X14231447Y117785000D01*
X11538552Y117785000D01*
X11499999Y117788797D01*
X11461446Y117785000D01*
X11461439Y117785000D01*
X11360490Y117775057D01*
X11346112Y117773641D01*
X11317050Y117764825D01*
X11198140Y117728754D01*
X11061767Y117655862D01*
X11011260Y117614411D01*
X10972187Y117582345D01*
X10972184Y117582342D01*
X10942236Y117557764D01*
X10917658Y117527816D01*
X8022184Y114632341D01*
X7992236Y114607763D01*
X7967658Y114577815D01*
X7967654Y114577811D01*
X7943807Y114548753D01*
X7894138Y114488232D01*
X7855176Y114415339D01*
X7821245Y114351858D01*
X7776358Y114203885D01*
X7761202Y114049999D01*
X7765000Y114011436D01*
X7764999Y103298554D01*
X7761202Y103260001D01*
X7764999Y103221448D01*
X7764999Y103221441D01*
X7776358Y103106115D01*
X7821245Y102958142D01*
X7894137Y102821769D01*
X7992235Y102702237D01*
X8022189Y102677654D01*
X8425360Y102274483D01*
X8365000Y101971033D01*
X8365000Y101648967D01*
X8425360Y101345517D01*
X6372180Y99292337D01*
X6342226Y99267754D01*
X6244128Y99148222D01*
X6171236Y99011849D01*
X6126349Y98863876D01*
X6114990Y98748550D01*
X6114990Y98748543D01*
X6111193Y98709990D01*
X6114990Y98671437D01*
X6114991Y75225148D01*
X4574164Y73684321D01*
X4544210Y73659738D01*
X4446112Y73540206D01*
X4373220Y73403833D01*
X4328333Y73255860D01*
X4316974Y73140534D01*
X4316974Y73140527D01*
X4313177Y73101974D01*
X4316974Y73063421D01*
X4316974Y72339904D01*
X4059722Y72168013D01*
X3831987Y71940278D01*
X3653056Y71672489D01*
X3529806Y71374938D01*
X3466974Y71059059D01*
X3466974Y70736993D01*
X3486638Y70638134D01*
X3381239Y70584222D01*
X3422652Y69398311D01*
X3320064Y69295723D01*
X3499672Y69116115D01*
X3623706Y69240149D01*
X4779307Y69280503D01*
X4785074Y69294030D01*
X4816789Y69287721D01*
X4747480Y69250674D01*
X4650789Y69171322D01*
X4495919Y69016452D01*
X3602260Y68985245D01*
X3499672Y69087833D01*
X3320064Y68908225D01*
X3444098Y68784191D01*
X3471752Y67992285D01*
X3236575Y67757108D01*
X3226249Y67744526D01*
X3183433Y68970619D01*
X1832539Y68923445D01*
X1722256Y68664763D01*
X1837980Y68364206D01*
X2010118Y68092001D01*
X2232053Y67858608D01*
X2495256Y67672998D01*
X2789612Y67542302D01*
X2980249Y67491666D01*
X3099674Y67552753D01*
X3098258Y67550103D01*
X3061948Y67430405D01*
X3049688Y67305923D01*
X3061948Y67181441D01*
X3098258Y67061743D01*
X3157223Y66951429D01*
X3236575Y66854738D01*
X4650789Y65440524D01*
X4747480Y65361172D01*
X4857794Y65302207D01*
X4977492Y65265897D01*
X5101974Y65253637D01*
X5226456Y65265897D01*
X5346154Y65302207D01*
X5456468Y65361172D01*
X5553159Y65440524D01*
X6967373Y66854738D01*
X7046725Y66951429D01*
X7105690Y67061743D01*
X7142000Y67181441D01*
X7154260Y67305923D01*
X7142000Y67430405D01*
X7126818Y67480452D01*
X7374938Y67529806D01*
X7672489Y67653056D01*
X7940278Y67831987D01*
X8168013Y68059722D01*
X8339903Y68316974D01*
X9063421Y68316974D01*
X9101974Y68313177D01*
X9140527Y68316974D01*
X9140535Y68316974D01*
X9255861Y68328333D01*
X9403834Y68373220D01*
X9540207Y68446112D01*
X9659738Y68544210D01*
X9684321Y68574164D01*
X10777815Y69667658D01*
X10807764Y69692236D01*
X10905862Y69811767D01*
X10978754Y69948140D01*
X11023642Y70096113D01*
X11031494Y70175844D01*
X11035000Y70211439D01*
X11035000Y70211444D01*
X11038797Y70250000D01*
X11035000Y70288555D01*
X11035000Y72111448D01*
X11038797Y72150001D01*
X11035000Y72188554D01*
X11035000Y72188561D01*
X11023641Y72303887D01*
X10978754Y72451860D01*
X10905862Y72588233D01*
X10856450Y72648441D01*
X10832345Y72677813D01*
X10832342Y72677816D01*
X10807764Y72707764D01*
X10777817Y72732341D01*
X8285000Y75225157D01*
X8285000Y96444843D01*
X8372321Y96532164D01*
X8427832Y96253088D01*
X8551082Y95955537D01*
X8730013Y95687748D01*
X8957748Y95460013D01*
X8957767Y95460000D01*
X8957748Y95459987D01*
X8730013Y95232252D01*
X8551082Y94964463D01*
X8427832Y94666912D01*
X8365000Y94351033D01*
X8365000Y94028967D01*
X8427832Y93713088D01*
X8551082Y93415537D01*
X8730013Y93147748D01*
X8957748Y92920013D01*
X8957767Y92920000D01*
X8957748Y92919987D01*
X8730013Y92692252D01*
X8551082Y92424463D01*
X8427832Y92126912D01*
X8365000Y91811033D01*
X8365000Y91488967D01*
X8427832Y91173088D01*
X8551082Y90875537D01*
X8691630Y90665191D01*
X8645506Y90640537D01*
X8548815Y90561185D01*
X8469463Y90464494D01*
X8410498Y90354180D01*
X8374188Y90234482D01*
X8361928Y90110000D01*
X8361928Y88110000D01*
X8374188Y87985518D01*
X8410498Y87865820D01*
X8469463Y87755506D01*
X8548815Y87658815D01*
X8645506Y87579463D01*
X8755820Y87520498D01*
X8875518Y87484188D01*
X9000000Y87471928D01*
X11000000Y87471928D01*
X11124482Y87484188D01*
X11244180Y87520498D01*
X11354494Y87579463D01*
X11451185Y87658815D01*
X11530537Y87755506D01*
X11589502Y87865820D01*
X11625812Y87985518D01*
X11638072Y88110000D01*
X11638072Y90110000D01*
X11625812Y90234482D01*
X11589502Y90354180D01*
X11530537Y90464494D01*
X11451185Y90561185D01*
X11354494Y90640537D01*
X11308370Y90665191D01*
X11441877Y90865000D01*
X15324843Y90865000D01*
X17775000Y88414842D01*
X17775000Y62035157D01*
X17335000Y62475157D01*
X17335000Y62501939D01*
X17295226Y62701898D01*
X17217205Y62890256D01*
X17103937Y63059774D01*
X16959774Y63203937D01*
X16790256Y63317205D01*
X16601898Y63395226D01*
X16401939Y63435000D01*
X16198061Y63435000D01*
X15998102Y63395226D01*
X15809744Y63317205D01*
X15640226Y63203937D01*
X15496063Y63059774D01*
X15382795Y62890256D01*
X15304774Y62701898D01*
X15265000Y62501939D01*
X15265000Y62298061D01*
X15304774Y62098102D01*
X15382795Y61909744D01*
X15496063Y61740226D01*
X15640226Y61596063D01*
X15809744Y61482795D01*
X15998102Y61404774D01*
X16198061Y61365000D01*
X16224843Y61365000D01*
X17174990Y60414852D01*
X17174991Y52385149D01*
X16324843Y51535000D01*
X16298061Y51535000D01*
X16098102Y51495226D01*
X15909744Y51417205D01*
X15740226Y51303937D01*
X15596063Y51159774D01*
X15482795Y50990256D01*
X15404774Y50801898D01*
X15365000Y50601939D01*
X15365000Y50398061D01*
X15404774Y50198102D01*
X15482795Y50009744D01*
X15596063Y49840226D01*
X15740226Y49696063D01*
X15909744Y49582795D01*
X16098102Y49504774D01*
X16298061Y49465000D01*
X16501939Y49465000D01*
X16701898Y49504774D01*
X16890256Y49582795D01*
X17059774Y49696063D01*
X17203937Y49840226D01*
X17317205Y50009744D01*
X17395226Y50198102D01*
X17435000Y50398061D01*
X17435000Y50424843D01*
X17775001Y50764843D01*
X17775001Y17578563D01*
X17771203Y17540000D01*
X17786359Y17386114D01*
X17831246Y17238141D01*
X17831247Y17238140D01*
X17904139Y17101767D01*
X17943227Y17054139D01*
X17977655Y17012188D01*
X17977659Y17012184D01*
X18002237Y16982236D01*
X18032185Y16957658D01*
X23587658Y11402184D01*
X23612236Y11372236D01*
X23642184Y11347658D01*
X23642187Y11347655D01*
X23671559Y11323550D01*
X23731767Y11274138D01*
X23842389Y11215010D01*
X22723246Y11215010D01*
X22684690Y11218807D01*
X22646134Y11215010D01*
X22646129Y11215010D01*
X22605716Y11211030D01*
X22530803Y11203652D01*
X22382830Y11158764D01*
X22246457Y11085872D01*
X22126926Y10987774D01*
X22102345Y10957822D01*
X16549533Y5405010D01*
X11305148Y5405010D01*
X7845000Y8865157D01*
X7845000Y31901444D01*
X7848797Y31940000D01*
X7845000Y31978560D01*
X7845000Y31978561D01*
X7840696Y32022256D01*
X7833642Y32093887D01*
X7788754Y32241860D01*
X7782326Y32253886D01*
X7715862Y32378233D01*
X7617764Y32497764D01*
X7587811Y32522346D01*
X6135000Y33975157D01*
X6135000Y38204882D01*
X6104108Y38518533D01*
X5982026Y38920982D01*
X5783777Y39291881D01*
X5516977Y39616977D01*
X5191881Y39883777D01*
X4820981Y40082026D01*
X4418532Y40204108D01*
X4000000Y40245330D01*
X3581467Y40204108D01*
X3179018Y40082026D01*
X2808119Y39883777D01*
X2483023Y39616977D01*
X2216223Y39291881D01*
X2017974Y38920981D01*
X1895892Y38518532D01*
X1865000Y38204881D01*
X1865001Y31995118D01*
X1895893Y31681467D01*
X2017975Y31279018D01*
X2216224Y30908119D01*
X2483024Y30583023D01*
X2808120Y30316223D01*
X3179019Y30117974D01*
X3581468Y29995892D01*
X4000000Y29954670D01*
X4418533Y29995892D01*
X4820982Y30117974D01*
X5191881Y30316223D01*
X5516977Y30583023D01*
X5783777Y30908119D01*
X5982026Y31279018D01*
X6104108Y31681467D01*
X6113457Y31776386D01*
X6275000Y31614843D01*
X6275001Y18835157D01*
X6135000Y18975158D01*
X6135000Y23004882D01*
X6104108Y23318533D01*
X5982026Y23720982D01*
X5783777Y24091881D01*
X5516977Y24416977D01*
X5191881Y24683777D01*
X4820982Y24882026D01*
X4418533Y25004108D01*
X4000000Y25045330D01*
X3581468Y25004108D01*
X3179019Y24882026D01*
X2808120Y24683777D01*
X2483024Y24416977D01*
X2216224Y24091881D01*
X2017975Y23720982D01*
X1895893Y23318533D01*
X1865001Y23004882D01*
X1865000Y16795119D01*
X1895892Y16481468D01*
X2017974Y16079019D01*
X2216223Y15708119D01*
X2483023Y15383023D01*
X2808119Y15116223D01*
X3179018Y14917974D01*
X3581467Y14795892D01*
X4000000Y14754670D01*
X4418532Y14795892D01*
X4820981Y14917974D01*
X5191881Y15116223D01*
X5516977Y15383023D01*
X5674990Y15575562D01*
X5674991Y12881958D01*
X5670466Y12892882D01*
X5464175Y13201618D01*
X5201618Y13464175D01*
X4892882Y13670466D01*
X4549834Y13812561D01*
X4185656Y13885000D01*
X3814344Y13885000D01*
X3450166Y13812561D01*
X3107118Y13670466D01*
X2798382Y13464175D01*
X2535825Y13201618D01*
X2329534Y12892882D01*
X2187439Y12549834D01*
X2115000Y12185656D01*
X2115000Y11814344D01*
X2187439Y11450166D01*
X2329534Y11107118D01*
X2535825Y10798382D01*
X2798382Y10535825D01*
X3107118Y10329534D01*
X3450166Y10187439D01*
X3814344Y10115000D01*
X4185656Y10115000D01*
X4549834Y10187439D01*
X4892882Y10329534D01*
X5201618Y10535825D01*
X5464175Y10798382D01*
X5670466Y11107118D01*
X5674991Y11118043D01*
X5674992Y8330030D01*
X5671194Y8291467D01*
X5686350Y8137581D01*
X5731237Y7989608D01*
X5765168Y7926127D01*
X5804130Y7853234D01*
X5822952Y7830300D01*
X5877646Y7763655D01*
X5877650Y7763651D01*
X5902228Y7733703D01*
X5932176Y7709125D01*
X10149111Y3492190D01*
X10173694Y3462236D01*
X10293225Y3364138D01*
X10427538Y3292347D01*
X10429598Y3291246D01*
X10577571Y3246358D01*
X10652484Y3238980D01*
X10692897Y3235000D01*
X10692902Y3235000D01*
X10731458Y3231203D01*
X10770014Y3235000D01*
X17084669Y3235000D01*
X17123222Y3231203D01*
X17161775Y3235000D01*
X17161783Y3235000D01*
X17277109Y3246359D01*
X17425082Y3291246D01*
X17561455Y3364138D01*
X17680986Y3462236D01*
X17705569Y3492190D01*
X23258379Y9045000D01*
X27199443Y9045000D01*
X27170937Y9016294D01*
X27124954Y8971264D01*
X27118635Y8963626D01*
X26961980Y8771548D01*
X26926376Y8717959D01*
X26890012Y8664850D01*
X26885297Y8656130D01*
X26768935Y8437283D01*
X26744414Y8377792D01*
X26719063Y8318643D01*
X26716132Y8309173D01*
X26644492Y8071892D01*
X26631998Y8008795D01*
X26618613Y7945821D01*
X26617577Y7935962D01*
X26593440Y7689789D01*
X26590001Y7654876D01*
X26590002Y1304730D01*
X26575996Y1161891D01*
X26544600Y1057901D01*
X26493602Y961987D01*
X26424942Y877801D01*
X26341244Y808561D01*
X26245690Y756895D01*
X26141923Y724773D01*
X26001360Y710000D01*
X7627000Y710000D01*
X7627000Y4357228D01*
X7487617Y5057957D01*
X7214206Y5718029D01*
X6817275Y6312078D01*
X6312078Y6817275D01*
X5718029Y7214206D01*
X5057957Y7487617D01*
X4357228Y7627000D01*
X710000Y7627000D01*
X710000Y43185656D01*
X2115000Y43185656D01*
X2115000Y42814344D01*
X2187439Y42450166D01*
X2329534Y42107118D01*
X2535825Y41798382D01*
X2798382Y41535825D01*
X3107118Y41329534D01*
X3450166Y41187439D01*
X3814344Y41115000D01*
X4185656Y41115000D01*
X4549834Y41187439D01*
X4892882Y41329534D01*
X5201618Y41535825D01*
X5464175Y41798382D01*
X5670466Y42107118D01*
X5812561Y42450166D01*
X5885000Y42814344D01*
X5885000Y43185656D01*
X5812561Y43549834D01*
X5670466Y43892882D01*
X5464175Y44201618D01*
X5201618Y44464175D01*
X4892882Y44670466D01*
X4549834Y44812561D01*
X4185656Y44885000D01*
X3814344Y44885000D01*
X3450166Y44812561D01*
X3107118Y44670466D01*
X2798382Y44464175D01*
X2535825Y44201618D01*
X2329534Y43892882D01*
X2187439Y43549834D01*
X2115000Y43185656D01*
X710000Y43185656D01*
X710000Y69427648D01*
X1695615Y69427648D01*
X1823675Y69177290D01*
X3174568Y69224464D01*
X3127394Y70575358D01*
X2868712Y70685641D01*
X2568155Y70569917D01*
X2295950Y70397779D01*
X2062557Y70175844D01*
X1876947Y69912641D01*
X1746251Y69618285D01*
X1695615Y69427648D01*
X710000Y69427648D01*
X710000Y112373000D01*
X4357228Y112373000D01*
X5057957Y112512383D01*
X5718029Y112785794D01*
X6312078Y113182725D01*
X6817275Y113687922D01*
X7214206Y114281971D01*
X7487617Y114942043D01*
X7627000Y115642772D01*
X7627000Y119290000D01*
X30873000Y119290000D01*
X30873000Y116178178D01*
G37*
X30873000Y116178178D02*
X30855451Y116000000D01*
X30925480Y115288984D01*
X31132876Y114605291D01*
X31469668Y113975197D01*
X31922915Y113422915D01*
X32475197Y112969668D01*
X33105291Y112632876D01*
X33788984Y112425480D01*
X34321822Y112373000D01*
X45678178Y112373000D01*
X46211016Y112425480D01*
X46894709Y112632876D01*
X47524803Y112969668D01*
X48077085Y113422915D01*
X48530332Y113975197D01*
X48867124Y114605291D01*
X49074520Y115288984D01*
X49144549Y116000000D01*
X49127000Y116178178D01*
X49127000Y119290000D01*
X72373000Y119290000D01*
X72373000Y115642772D01*
X72512383Y114942043D01*
X72785794Y114281971D01*
X73182725Y113687922D01*
X73687922Y113182725D01*
X74281971Y112785794D01*
X74942043Y112512383D01*
X75642772Y112373000D01*
X79290001Y112373000D01*
X79290000Y7627000D01*
X75642772Y7627000D01*
X74942043Y7487617D01*
X74281971Y7214206D01*
X73687922Y6817275D01*
X73182725Y6312078D01*
X72785794Y5718029D01*
X72512383Y5057957D01*
X72373000Y4357228D01*
X72373000Y710000D01*
X54004720Y710000D01*
X53861891Y724005D01*
X53757901Y755401D01*
X53661987Y806399D01*
X53577801Y875059D01*
X53508561Y958757D01*
X53456895Y1054311D01*
X53424773Y1158078D01*
X53410000Y1298641D01*
X53410000Y7654877D01*
X53406993Y7685413D01*
X53407047Y7693214D01*
X53406080Y7703080D01*
X53380172Y7949583D01*
X53367236Y8012601D01*
X53355174Y8075833D01*
X53352308Y8085323D01*
X53279013Y8322099D01*
X53254084Y8381403D01*
X53229971Y8441085D01*
X53225317Y8449837D01*
X53107429Y8667867D01*
X53071459Y8721195D01*
X53036207Y8775065D01*
X53029941Y8782747D01*
X52871949Y8973727D01*
X52826294Y9019064D01*
X52781264Y9065047D01*
X52773626Y9071366D01*
X52581548Y9228021D01*
X52527959Y9263625D01*
X52474850Y9299989D01*
X52466130Y9304704D01*
X52247283Y9421066D01*
X52187792Y9445587D01*
X52128643Y9470938D01*
X52119173Y9473869D01*
X52119175Y9473869D01*
X52119167Y9473871D01*
X51881892Y9545509D01*
X51818795Y9558003D01*
X51755821Y9571388D01*
X51745966Y9572424D01*
X51745962Y9572424D01*
X51500014Y9596539D01*
X51464877Y9600000D01*
X41039527Y9600000D01*
X41065000Y9728061D01*
X41065000Y9931939D01*
X41025226Y10131898D01*
X40947205Y10320256D01*
X40833937Y10489774D01*
X40689774Y10633937D01*
X40520256Y10747205D01*
X40331898Y10825226D01*
X40131939Y10865000D01*
X39928061Y10865000D01*
X39728102Y10825226D01*
X39539744Y10747205D01*
X39370226Y10633937D01*
X39351289Y10615000D01*
X30732939Y10615000D01*
X30947825Y10829886D01*
X30977774Y10854465D01*
X31075872Y10973996D01*
X31148764Y11110369D01*
X31193651Y11258342D01*
X31205010Y11373668D01*
X31205010Y11373675D01*
X31208807Y11412228D01*
X31205010Y11450781D01*
X31205010Y13341435D01*
X31208807Y13379990D01*
X31205010Y13418550D01*
X31205010Y13418551D01*
X31200516Y13464175D01*
X31193652Y13533877D01*
X31148764Y13681850D01*
X31141009Y13696359D01*
X31075872Y13818223D01*
X30977774Y13937754D01*
X30947827Y13962331D01*
X30408860Y14501297D01*
X30384236Y14751309D01*
X30302182Y15021808D01*
X30168932Y15271101D01*
X29989608Y15489608D01*
X29771101Y15668932D01*
X29638142Y15740000D01*
X29771101Y15811068D01*
X29989608Y15990392D01*
X30168932Y16208899D01*
X30302182Y16458192D01*
X30384236Y16728691D01*
X30411943Y17010000D01*
X30384236Y17291309D01*
X30302182Y17561808D01*
X30168932Y17811101D01*
X29989608Y18029608D01*
X29771101Y18208932D01*
X29638142Y18280000D01*
X29771101Y18351068D01*
X29989608Y18530392D01*
X30168932Y18748899D01*
X30302182Y18998192D01*
X30384236Y19268691D01*
X30411943Y19550000D01*
X30397276Y19698921D01*
X42465000Y19698921D01*
X42465000Y19101079D01*
X42581633Y18514723D01*
X42810418Y17962388D01*
X43142562Y17465300D01*
X43565300Y17042562D01*
X44062388Y16710418D01*
X44614723Y16481633D01*
X45201079Y16365000D01*
X45798921Y16365000D01*
X46385277Y16481633D01*
X46937612Y16710418D01*
X47434700Y17042562D01*
X47857438Y17465300D01*
X48189582Y17962388D01*
X48418367Y18514723D01*
X48535000Y19101079D01*
X48535000Y19698921D01*
X48418367Y20285277D01*
X48189582Y20837612D01*
X47857438Y21334700D01*
X47434700Y21757438D01*
X46937612Y22089582D01*
X46385277Y22318367D01*
X45798921Y22435000D01*
X45201079Y22435000D01*
X44614723Y22318367D01*
X44062388Y22089582D01*
X43565300Y21757438D01*
X43142562Y21334700D01*
X42810418Y20837612D01*
X42581633Y20285277D01*
X42465000Y19698921D01*
X30397276Y19698921D01*
X30384236Y19831309D01*
X30302182Y20101808D01*
X30168932Y20351101D01*
X29989608Y20569608D01*
X29771101Y20748932D01*
X29638142Y20820000D01*
X29771101Y20891068D01*
X29989608Y21070392D01*
X30168932Y21288899D01*
X30302182Y21538192D01*
X30384236Y21808691D01*
X30411943Y22090000D01*
X30384236Y22371309D01*
X30302182Y22641808D01*
X30168932Y22891101D01*
X29989608Y23109608D01*
X29771101Y23288932D01*
X29638142Y23360000D01*
X29771101Y23431068D01*
X29989608Y23610392D01*
X30168932Y23828899D01*
X30302182Y24078192D01*
X30384236Y24348691D01*
X30411943Y24630000D01*
X30384236Y24911309D01*
X30302182Y25181808D01*
X30168932Y25431101D01*
X29989608Y25649608D01*
X29771101Y25828932D01*
X29638142Y25900000D01*
X29771101Y25971068D01*
X29989608Y26150392D01*
X30168932Y26368899D01*
X30302182Y26618192D01*
X30384236Y26888691D01*
X30411943Y27170000D01*
X30384236Y27451309D01*
X30302182Y27721808D01*
X30168932Y27971101D01*
X29989608Y28189608D01*
X29771101Y28368932D01*
X29638142Y28440000D01*
X29771101Y28511068D01*
X29989608Y28690392D01*
X30168932Y28908899D01*
X30302182Y29158192D01*
X30384236Y29428691D01*
X30411943Y29710000D01*
X30384236Y29991309D01*
X30302182Y30261808D01*
X30168932Y30511101D01*
X29989608Y30729608D01*
X29771101Y30908932D01*
X29638142Y30980000D01*
X29771101Y31051068D01*
X29989608Y31230392D01*
X30168932Y31448899D01*
X30302182Y31698192D01*
X30384236Y31968691D01*
X30411943Y32250000D01*
X30384236Y32531309D01*
X30302182Y32801808D01*
X30168932Y33051101D01*
X29989608Y33269608D01*
X29771101Y33448932D01*
X29638142Y33520000D01*
X29771101Y33591068D01*
X29989608Y33770392D01*
X30168932Y33988899D01*
X30302182Y34238192D01*
X30384236Y34508691D01*
X30411943Y34790000D01*
X30384236Y35071309D01*
X30302182Y35341808D01*
X30168932Y35591101D01*
X29989608Y35809608D01*
X29771101Y35988932D01*
X29638142Y36060000D01*
X29771101Y36131068D01*
X29989608Y36310392D01*
X30168932Y36528899D01*
X30302182Y36778192D01*
X30384236Y37048691D01*
X30411943Y37330000D01*
X30384236Y37611309D01*
X30302182Y37881808D01*
X30168932Y38131101D01*
X29989608Y38349608D01*
X29771101Y38528932D01*
X29638142Y38600000D01*
X29771101Y38671068D01*
X29989608Y38850392D01*
X30065273Y38942589D01*
X30265300Y38742562D01*
X30762388Y38410418D01*
X31314723Y38181633D01*
X31901079Y38065000D01*
X32498921Y38065000D01*
X33085277Y38181633D01*
X33637612Y38410418D01*
X34134700Y38742562D01*
X34557438Y39165300D01*
X34889582Y39662388D01*
X35118367Y40214723D01*
X35235000Y40801079D01*
X35235000Y41398921D01*
X35118367Y41985277D01*
X34889582Y42537612D01*
X34557438Y43034700D01*
X34393737Y43198401D01*
X49824280Y43198401D01*
X49697818Y42961808D01*
X49615764Y42691309D01*
X49588057Y42410000D01*
X49615764Y42128691D01*
X49697818Y41858192D01*
X49831068Y41608899D01*
X50010392Y41390392D01*
X50228899Y41211068D01*
X50361858Y41140000D01*
X50228899Y41068932D01*
X50010392Y40889608D01*
X49831068Y40671101D01*
X49697818Y40421808D01*
X49615764Y40151309D01*
X49588057Y39870000D01*
X49615764Y39588691D01*
X49697818Y39318192D01*
X49831068Y39068899D01*
X50010392Y38850392D01*
X50228899Y38671068D01*
X50361858Y38600000D01*
X50228899Y38528932D01*
X50010392Y38349608D01*
X49831068Y38131101D01*
X49697818Y37881808D01*
X49615764Y37611309D01*
X49588057Y37330000D01*
X49615764Y37048691D01*
X49697818Y36778192D01*
X49831068Y36528899D01*
X50010392Y36310392D01*
X50228899Y36131068D01*
X50361858Y36060000D01*
X50228899Y35988932D01*
X50010392Y35809608D01*
X49831068Y35591101D01*
X49697818Y35341808D01*
X49615764Y35071309D01*
X49588057Y34790000D01*
X49615764Y34508691D01*
X49697818Y34238192D01*
X49831068Y33988899D01*
X50010392Y33770392D01*
X50228899Y33591068D01*
X50361858Y33520000D01*
X50228899Y33448932D01*
X50010392Y33269608D01*
X49831068Y33051101D01*
X49697818Y32801808D01*
X49615764Y32531309D01*
X49588057Y32250000D01*
X49615764Y31968691D01*
X49697818Y31698192D01*
X49831068Y31448899D01*
X50010392Y31230392D01*
X50228899Y31051068D01*
X50361858Y30980000D01*
X50228899Y30908932D01*
X50010392Y30729608D01*
X49831068Y30511101D01*
X49697818Y30261808D01*
X49615764Y29991309D01*
X49588057Y29710000D01*
X49615764Y29428691D01*
X49697818Y29158192D01*
X49831068Y28908899D01*
X50010392Y28690392D01*
X50228899Y28511068D01*
X50361858Y28440000D01*
X50228899Y28368932D01*
X50010392Y28189608D01*
X49831068Y27971101D01*
X49697818Y27721808D01*
X49615764Y27451309D01*
X49588057Y27170000D01*
X49615764Y26888691D01*
X49697818Y26618192D01*
X49831068Y26368899D01*
X50010392Y26150392D01*
X50228899Y25971068D01*
X50361858Y25900000D01*
X50228899Y25828932D01*
X50010392Y25649608D01*
X49831068Y25431101D01*
X49697818Y25181808D01*
X49615764Y24911309D01*
X49588057Y24630000D01*
X49615764Y24348691D01*
X49697818Y24078192D01*
X49831068Y23828899D01*
X50010392Y23610392D01*
X50228899Y23431068D01*
X50361858Y23360000D01*
X50228899Y23288932D01*
X50010392Y23109608D01*
X49831068Y22891101D01*
X49697818Y22641808D01*
X49615764Y22371309D01*
X49588057Y22090000D01*
X49615764Y21808691D01*
X49697818Y21538192D01*
X49831068Y21288899D01*
X50010392Y21070392D01*
X50228899Y20891068D01*
X50361858Y20820000D01*
X50228899Y20748932D01*
X50010392Y20569608D01*
X49831068Y20351101D01*
X49697818Y20101808D01*
X49615764Y19831309D01*
X49588057Y19550000D01*
X49615764Y19268691D01*
X49697818Y18998192D01*
X49831068Y18748899D01*
X50010392Y18530392D01*
X50228899Y18351068D01*
X50361858Y18280000D01*
X50228899Y18208932D01*
X50010392Y18029608D01*
X49831068Y17811101D01*
X49697818Y17561808D01*
X49615764Y17291309D01*
X49588057Y17010000D01*
X49615764Y16728691D01*
X49697818Y16458192D01*
X49831068Y16208899D01*
X50010392Y15990392D01*
X50228899Y15811068D01*
X50361858Y15740000D01*
X50228899Y15668932D01*
X50010392Y15489608D01*
X49831068Y15271101D01*
X49697818Y15021808D01*
X49615764Y14751309D01*
X49588057Y14470000D01*
X49615764Y14188691D01*
X49697818Y13918192D01*
X49831068Y13668899D01*
X50010392Y13450392D01*
X50123482Y13357581D01*
X50105518Y13355812D01*
X49985820Y13319502D01*
X49875506Y13260537D01*
X49778815Y13181185D01*
X49699463Y13084494D01*
X49640498Y12974180D01*
X49604188Y12854482D01*
X49591928Y12730000D01*
X49591928Y11130000D01*
X49604188Y11005518D01*
X49640498Y10885820D01*
X49699463Y10775506D01*
X49778815Y10678815D01*
X49875506Y10599463D01*
X49985820Y10540498D01*
X50105518Y10504188D01*
X50230000Y10491928D01*
X52630000Y10491928D01*
X52754482Y10504188D01*
X52874180Y10540498D01*
X52984494Y10599463D01*
X53081185Y10678815D01*
X53160537Y10775506D01*
X53219502Y10885820D01*
X53255812Y11005518D01*
X53268072Y11130000D01*
X53268072Y12730000D01*
X53255812Y12854482D01*
X53219502Y12974180D01*
X53160537Y13084494D01*
X53081185Y13181185D01*
X52984494Y13260537D01*
X52874180Y13319502D01*
X52754482Y13355812D01*
X52736518Y13357581D01*
X52849608Y13450392D01*
X53028932Y13668899D01*
X53162182Y13918192D01*
X53244236Y14188691D01*
X53271943Y14470000D01*
X53244236Y14751309D01*
X53162182Y15021808D01*
X53028932Y15271101D01*
X52849608Y15489608D01*
X52631101Y15668932D01*
X52498142Y15740000D01*
X52631101Y15811068D01*
X52849608Y15990392D01*
X52872075Y16017768D01*
X53834991Y15054851D01*
X53834990Y11610021D01*
X53831193Y11571468D01*
X53834990Y11532915D01*
X53834990Y11532908D01*
X53846349Y11417582D01*
X53891236Y11269609D01*
X53964128Y11133236D01*
X54062226Y11013704D01*
X54092180Y10989121D01*
X61619119Y3462181D01*
X61643693Y3432238D01*
X61673636Y3407664D01*
X61673644Y3407656D01*
X61763224Y3334140D01*
X61899597Y3261248D01*
X62047569Y3216360D01*
X62201456Y3201204D01*
X62240019Y3205002D01*
X69641447Y3205000D01*
X69680000Y3201203D01*
X69718553Y3205000D01*
X69718560Y3205000D01*
X69833886Y3216359D01*
X69981859Y3261246D01*
X70118232Y3334138D01*
X70178440Y3383550D01*
X70207812Y3407655D01*
X70207815Y3407658D01*
X70237763Y3432236D01*
X70262341Y3462184D01*
X74237819Y7437661D01*
X74267762Y7462235D01*
X74292336Y7492178D01*
X74292344Y7492186D01*
X74365860Y7581766D01*
X74438752Y7718139D01*
X74483640Y7866111D01*
X74498796Y8019998D01*
X74494998Y8058561D01*
X74494999Y10859483D01*
X74535825Y10798382D01*
X74798382Y10535825D01*
X75107118Y10329534D01*
X75450166Y10187439D01*
X75814344Y10115000D01*
X76185656Y10115000D01*
X76549834Y10187439D01*
X76892882Y10329534D01*
X77201618Y10535825D01*
X77464175Y10798382D01*
X77670466Y11107118D01*
X77812561Y11450166D01*
X77885000Y11814344D01*
X77885000Y12185656D01*
X77812561Y12549834D01*
X77670466Y12892882D01*
X77464175Y13201618D01*
X77201618Y13464175D01*
X76892882Y13670466D01*
X76549834Y13812561D01*
X76185656Y13885000D01*
X75814344Y13885000D01*
X75450166Y13812561D01*
X75107118Y13670466D01*
X74798382Y13464175D01*
X74535825Y13201618D01*
X74494999Y13140518D01*
X74495000Y15373194D01*
X74808119Y15116223D01*
X75179018Y14917974D01*
X75581467Y14795892D01*
X76000000Y14754670D01*
X76418532Y14795892D01*
X76820981Y14917974D01*
X77191881Y15116223D01*
X77516977Y15383023D01*
X77783777Y15708119D01*
X77982026Y16079018D01*
X78104108Y16481467D01*
X78135000Y16795118D01*
X78135000Y23004882D01*
X78104108Y23318533D01*
X77982026Y23720982D01*
X77783777Y24091881D01*
X77516977Y24416977D01*
X77191881Y24683777D01*
X76820982Y24882026D01*
X76418533Y25004108D01*
X76000000Y25045330D01*
X75581468Y25004108D01*
X75179019Y24882026D01*
X74808120Y24683777D01*
X74483024Y24416977D01*
X74216224Y24091881D01*
X74017975Y23720982D01*
X73895893Y23318533D01*
X73885000Y23207935D01*
X73885000Y31774843D01*
X73886544Y31776387D01*
X73895893Y31681467D01*
X74017975Y31279018D01*
X74216224Y30908119D01*
X74483024Y30583023D01*
X74808120Y30316223D01*
X75179019Y30117974D01*
X75581468Y29995892D01*
X76000000Y29954670D01*
X76418533Y29995892D01*
X76820982Y30117974D01*
X77191881Y30316223D01*
X77516977Y30583023D01*
X77783777Y30908119D01*
X77982026Y31279018D01*
X78104108Y31681467D01*
X78135000Y31995118D01*
X78135000Y38204882D01*
X78104108Y38518533D01*
X77982026Y38920982D01*
X77783777Y39291881D01*
X77516977Y39616977D01*
X77191881Y39883777D01*
X76820981Y40082026D01*
X76418532Y40204108D01*
X76000000Y40245330D01*
X75581467Y40204108D01*
X75179018Y40082026D01*
X74808119Y39883777D01*
X74483023Y39616977D01*
X74216223Y39291881D01*
X74017974Y38920981D01*
X73895892Y38518532D01*
X73865000Y38204881D01*
X73865001Y33975158D01*
X72572185Y32682342D01*
X72542237Y32657764D01*
X72517659Y32627816D01*
X72517655Y32627812D01*
X72484690Y32587644D01*
X72444139Y32538233D01*
X72422508Y32497764D01*
X72371246Y32401859D01*
X72326359Y32253886D01*
X72311203Y32100000D01*
X72315001Y32061437D01*
X72315000Y21258553D01*
X72311203Y21220000D01*
X72315000Y21181447D01*
X72315000Y21181440D01*
X72324991Y21080003D01*
X72324990Y8593690D01*
X69106311Y5375010D01*
X62775148Y5375010D01*
X56005000Y12145157D01*
X56005000Y15721448D01*
X56008797Y15760001D01*
X56005000Y15798554D01*
X56005000Y15798561D01*
X55993641Y15913887D01*
X55948754Y16061860D01*
X55875862Y16198233D01*
X55777764Y16317764D01*
X55747817Y16342341D01*
X53137724Y18952434D01*
X53162182Y18998192D01*
X53244236Y19268691D01*
X53271943Y19550000D01*
X53244236Y19831309D01*
X53162182Y20101808D01*
X53028932Y20351101D01*
X52849608Y20569608D01*
X52631101Y20748932D01*
X52498142Y20820000D01*
X52631101Y20891068D01*
X52849608Y21070392D01*
X53028932Y21288899D01*
X53037538Y21305000D01*
X53851447Y21305000D01*
X53890000Y21301203D01*
X53928553Y21305000D01*
X53928561Y21305000D01*
X54043887Y21316359D01*
X54191860Y21361246D01*
X54328233Y21434138D01*
X54447764Y21532236D01*
X54472347Y21562190D01*
X59057826Y26147668D01*
X59087774Y26172246D01*
X59185872Y26291777D01*
X59258764Y26428150D01*
X59303651Y26576123D01*
X59315010Y26691449D01*
X59315010Y26691456D01*
X59318807Y26730009D01*
X59315010Y26768562D01*
X59315010Y29001456D01*
X59318807Y29040009D01*
X59315010Y29078562D01*
X59315010Y29078571D01*
X59315000Y29078673D01*
X59315000Y43185656D01*
X74115000Y43185656D01*
X74115000Y42814344D01*
X74187439Y42450166D01*
X74329534Y42107118D01*
X74535825Y41798382D01*
X74798382Y41535825D01*
X75107118Y41329534D01*
X75450166Y41187439D01*
X75814344Y41115000D01*
X76185656Y41115000D01*
X76549834Y41187439D01*
X76892882Y41329534D01*
X77201618Y41535825D01*
X77464175Y41798382D01*
X77670466Y42107118D01*
X77812561Y42450166D01*
X77885000Y42814344D01*
X77885000Y43185656D01*
X77812561Y43549834D01*
X77670466Y43892882D01*
X77464175Y44201618D01*
X77201618Y44464175D01*
X76892882Y44670466D01*
X76549834Y44812561D01*
X76185656Y44885000D01*
X75814344Y44885000D01*
X75450166Y44812561D01*
X75107118Y44670466D01*
X74798382Y44464175D01*
X74535825Y44201618D01*
X74329534Y43892882D01*
X74187439Y43549834D01*
X74115000Y43185656D01*
X59315000Y43185656D01*
X59315000Y75101939D01*
X59665000Y75101939D01*
X59665000Y74898061D01*
X59704774Y74698102D01*
X59782795Y74509744D01*
X59896063Y74340226D01*
X60040226Y74196063D01*
X60209744Y74082795D01*
X60398102Y74004774D01*
X60598061Y73965000D01*
X60801939Y73965000D01*
X61001898Y74004774D01*
X61190256Y74082795D01*
X61359774Y74196063D01*
X61503937Y74340226D01*
X61617205Y74509744D01*
X61695226Y74698102D01*
X61735000Y74898061D01*
X61735000Y75101939D01*
X61695226Y75301898D01*
X61617205Y75490256D01*
X61503937Y75659774D01*
X61359774Y75803937D01*
X61190256Y75917205D01*
X61001898Y75995226D01*
X60801939Y76035000D01*
X60598061Y76035000D01*
X60398102Y75995226D01*
X60209744Y75917205D01*
X60040226Y75803937D01*
X59896063Y75659774D01*
X59782795Y75490256D01*
X59704774Y75301898D01*
X59665000Y75101939D01*
X59315000Y75101939D01*
X59315000Y87004843D01*
X61039723Y88729566D01*
X68409876Y88729566D01*
X68466498Y88542893D01*
X68606601Y88254618D01*
X68800252Y87999215D01*
X69040008Y87786499D01*
X69316656Y87624644D01*
X69619565Y87519871D01*
X69873000Y87638685D01*
X69873000Y88983000D01*
X70127000Y88983000D01*
X70127000Y87638685D01*
X70380435Y87519871D01*
X70683344Y87624644D01*
X70959992Y87786499D01*
X71199748Y87999215D01*
X71393399Y88254618D01*
X71533502Y88542893D01*
X71590124Y88729566D01*
X71470777Y88983000D01*
X70127000Y88983000D01*
X69873000Y88983000D01*
X68529223Y88983000D01*
X68409876Y88729566D01*
X61039723Y88729566D01*
X63175157Y90865000D01*
X68558123Y90865000D01*
X68730013Y90607748D01*
X68957748Y90380013D01*
X68970282Y90371638D01*
X68800252Y90220785D01*
X68606601Y89965382D01*
X68466498Y89677107D01*
X68409876Y89490434D01*
X68529223Y89237000D01*
X69873000Y89237000D01*
X69873000Y89257000D01*
X70127000Y89257000D01*
X70127000Y89237000D01*
X71470777Y89237000D01*
X71590124Y89490434D01*
X71533502Y89677107D01*
X71393399Y89965382D01*
X71199748Y90220785D01*
X71029718Y90371638D01*
X71042252Y90380013D01*
X71269987Y90607748D01*
X71448918Y90875537D01*
X71572168Y91173088D01*
X71635000Y91488967D01*
X71635000Y91811033D01*
X71572168Y92126912D01*
X71448918Y92424463D01*
X71269987Y92692252D01*
X71042252Y92919987D01*
X71042233Y92920000D01*
X71042252Y92920013D01*
X71269987Y93147748D01*
X71448918Y93415537D01*
X71572168Y93713088D01*
X71635000Y94028967D01*
X71635000Y94351033D01*
X71572168Y94666912D01*
X71448918Y94964463D01*
X71269987Y95232252D01*
X71042252Y95459987D01*
X71042233Y95460000D01*
X71042252Y95460013D01*
X71269987Y95687748D01*
X71448918Y95955537D01*
X71572168Y96253088D01*
X71635000Y96568967D01*
X71635000Y96891033D01*
X71572168Y97206912D01*
X71448918Y97504463D01*
X71269987Y97772252D01*
X71042252Y97999987D01*
X71042233Y98000000D01*
X71042252Y98000013D01*
X71269987Y98227748D01*
X71448918Y98495537D01*
X71572168Y98793088D01*
X71635000Y99108967D01*
X71635000Y99431033D01*
X71572168Y99746912D01*
X71448918Y100044463D01*
X71269987Y100312252D01*
X71042252Y100539987D01*
X71042233Y100540000D01*
X71042252Y100540013D01*
X71269987Y100767748D01*
X71448918Y101035537D01*
X71572168Y101333088D01*
X71635000Y101648967D01*
X71635000Y101971033D01*
X71572168Y102286912D01*
X71448918Y102584463D01*
X71269987Y102852252D01*
X71042252Y103079987D01*
X71042233Y103080000D01*
X71042252Y103080013D01*
X71269987Y103307748D01*
X71448918Y103575537D01*
X71572168Y103873088D01*
X71635000Y104188967D01*
X71635000Y104511033D01*
X71572168Y104826912D01*
X71448918Y105124463D01*
X71308370Y105334809D01*
X71354494Y105359463D01*
X71451185Y105438815D01*
X71530537Y105535506D01*
X71589502Y105645820D01*
X71625812Y105765518D01*
X71638072Y105890000D01*
X71638072Y107890000D01*
X71625812Y108014482D01*
X71589502Y108134180D01*
X71530537Y108244494D01*
X71451185Y108341185D01*
X71354494Y108420537D01*
X71244180Y108479502D01*
X71124482Y108515812D01*
X71000000Y108528072D01*
X69000000Y108528072D01*
X68875518Y108515812D01*
X68755820Y108479502D01*
X68645506Y108420537D01*
X68548815Y108341185D01*
X68469463Y108244494D01*
X68410498Y108134180D01*
X68374188Y108014482D01*
X68361928Y107890000D01*
X68361928Y105890000D01*
X68374188Y105765518D01*
X68410498Y105645820D01*
X68469463Y105535506D01*
X68548815Y105438815D01*
X68645506Y105359463D01*
X68691630Y105334809D01*
X68558123Y105135000D01*
X62988552Y105135000D01*
X62949999Y105138797D01*
X62911446Y105135000D01*
X62911439Y105135000D01*
X62810490Y105125057D01*
X62796112Y105123641D01*
X62761672Y105113194D01*
X62648140Y105078754D01*
X62511767Y105005862D01*
X62451559Y104956450D01*
X62422187Y104932345D01*
X62422184Y104932342D01*
X62392236Y104907764D01*
X62367658Y104877816D01*
X54952190Y97462347D01*
X54922236Y97437764D01*
X54824138Y97318232D01*
X54751246Y97181859D01*
X54706359Y97033886D01*
X54695000Y96918560D01*
X54695000Y96918553D01*
X54691203Y96880000D01*
X54695000Y96841447D01*
X54695000Y96681439D01*
X54695001Y96681429D01*
X54695000Y36815158D01*
X53454843Y35575000D01*
X53037538Y35575000D01*
X53028932Y35591101D01*
X52849608Y35809608D01*
X52631101Y35988932D01*
X52498142Y36060000D01*
X52631101Y36131068D01*
X52849608Y36310392D01*
X53028932Y36528899D01*
X53162182Y36778192D01*
X53244236Y37048691D01*
X53271943Y37330000D01*
X53244236Y37611309D01*
X53162182Y37881808D01*
X53028932Y38131101D01*
X52849608Y38349608D01*
X52631101Y38528932D01*
X52498142Y38600000D01*
X52631101Y38671068D01*
X52849608Y38850392D01*
X53028932Y39068899D01*
X53162182Y39318192D01*
X53244236Y39588691D01*
X53271943Y39870000D01*
X53244236Y40151309D01*
X53162182Y40421808D01*
X53028932Y40671101D01*
X52849608Y40889608D01*
X52631101Y41068932D01*
X52498142Y41140000D01*
X52631101Y41211068D01*
X52849608Y41390392D01*
X53028932Y41608899D01*
X53162182Y41858192D01*
X53244236Y42128691D01*
X53271943Y42410000D01*
X53244236Y42691309D01*
X53162182Y42961808D01*
X53028932Y43211101D01*
X52849608Y43429608D01*
X52758822Y43504114D01*
X52758823Y47047394D01*
X52758822Y47047834D01*
X52758776Y47061114D01*
X52758081Y47073949D01*
X52707626Y47553996D01*
X52702642Y47578276D01*
X52561138Y48035400D01*
X52551533Y48058249D01*
X52323937Y48479178D01*
X52310077Y48499727D01*
X52005056Y48868435D01*
X51987469Y48885900D01*
X51616637Y49188343D01*
X51595992Y49202059D01*
X51173481Y49426711D01*
X51150565Y49436157D01*
X50692466Y49574465D01*
X50668152Y49579279D01*
X50187640Y49626394D01*
X50175247Y49627000D01*
X29859545Y49627000D01*
X29859105Y49626999D01*
X29846111Y49626954D01*
X29833276Y49626259D01*
X29353229Y49575804D01*
X29328949Y49570820D01*
X28871826Y49429316D01*
X28848977Y49419711D01*
X28428048Y49192116D01*
X28407499Y49178256D01*
X28038791Y48873234D01*
X28021326Y48855647D01*
X27718883Y48484815D01*
X27705167Y48464170D01*
X27480515Y48041659D01*
X27471069Y48018743D01*
X27332761Y47560645D01*
X27327947Y47536331D01*
X27280830Y47055799D01*
X27280224Y47043406D01*
X27280224Y43541144D01*
X27267161Y43532601D01*
X27065500Y43334895D01*
X26906285Y43101646D01*
X26795633Y42841818D01*
X26778096Y42759039D01*
X26900084Y42537002D01*
X26755000Y42537002D01*
X26755000Y75101939D01*
X52395000Y75101939D01*
X52395000Y74898061D01*
X52434774Y74698102D01*
X52512795Y74509744D01*
X52626063Y74340226D01*
X52770226Y74196063D01*
X52939744Y74082795D01*
X53128102Y74004774D01*
X53328061Y73965000D01*
X53531939Y73965000D01*
X53731898Y74004774D01*
X53920256Y74082795D01*
X54089774Y74196063D01*
X54233937Y74340226D01*
X54347205Y74509744D01*
X54425226Y74698102D01*
X54465000Y74898061D01*
X54465000Y75101939D01*
X54425226Y75301898D01*
X54347205Y75490256D01*
X54233937Y75659774D01*
X54089774Y75803937D01*
X53920256Y75917205D01*
X53731898Y75995226D01*
X53531939Y76035000D01*
X53328061Y76035000D01*
X53128102Y75995226D01*
X52939744Y75917205D01*
X52770226Y75803937D01*
X52626063Y75659774D01*
X52512795Y75490256D01*
X52434774Y75301898D01*
X52395000Y75101939D01*
X26755000Y75101939D01*
X26755000Y100391444D01*
X26758797Y100430000D01*
X26755000Y100468556D01*
X26755000Y100468561D01*
X26747965Y100539987D01*
X26743642Y100583887D01*
X26698754Y100731860D01*
X26694814Y100739232D01*
X26625862Y100868233D01*
X26527764Y100987764D01*
X26497810Y101012347D01*
X20775001Y106735156D01*
X20775001Y106864587D01*
X21234192Y106864587D01*
X21329956Y106600186D01*
X21619571Y106459296D01*
X21931108Y106377616D01*
X22252595Y106358282D01*
X22571675Y106402039D01*
X22876088Y106507205D01*
X23050044Y106600186D01*
X23145808Y106864587D01*
X22190000Y107820395D01*
X21234192Y106864587D01*
X20775001Y106864587D01*
X20775001Y107168365D01*
X20790186Y107139956D01*
X21054587Y107044192D01*
X22010395Y108000000D01*
X22369605Y108000000D01*
X23325413Y107044192D01*
X23387280Y107066600D01*
X23460013Y106957748D01*
X23687748Y106730013D01*
X23955537Y106551082D01*
X24253088Y106427832D01*
X24568967Y106365000D01*
X24891033Y106365000D01*
X25206912Y106427832D01*
X25504463Y106551082D01*
X25772252Y106730013D01*
X25999987Y106957748D01*
X26000000Y106957767D01*
X26000013Y106957748D01*
X26227748Y106730013D01*
X26495537Y106551082D01*
X26793088Y106427832D01*
X27108967Y106365000D01*
X27431033Y106365000D01*
X27746912Y106427832D01*
X28044463Y106551082D01*
X28312252Y106730013D01*
X28539987Y106957748D01*
X28540000Y106957767D01*
X28540013Y106957748D01*
X28767748Y106730013D01*
X29035537Y106551082D01*
X29333088Y106427832D01*
X29648967Y106365000D01*
X29971033Y106365000D01*
X30274483Y106425360D01*
X32327658Y104372184D01*
X32352236Y104342236D01*
X32382184Y104317658D01*
X32382187Y104317655D01*
X32411559Y104293550D01*
X32471767Y104244138D01*
X32608140Y104171246D01*
X32756113Y104126359D01*
X32871439Y104115000D01*
X32871446Y104115000D01*
X32909999Y104111203D01*
X32948552Y104115000D01*
X54671447Y104115000D01*
X54710000Y104111203D01*
X54748553Y104115000D01*
X54748561Y104115000D01*
X54863887Y104126359D01*
X55011860Y104171246D01*
X55148233Y104244138D01*
X55267764Y104342236D01*
X55292347Y104372190D01*
X57345517Y106425360D01*
X57648967Y106365000D01*
X57971033Y106365000D01*
X58286912Y106427832D01*
X58584463Y106551082D01*
X58852252Y106730013D01*
X59079987Y106957748D01*
X59258918Y107225537D01*
X59382168Y107523088D01*
X59445000Y107838967D01*
X59445000Y108161033D01*
X59382168Y108476912D01*
X59258918Y108774463D01*
X59079987Y109042252D01*
X58852252Y109269987D01*
X58595000Y109441877D01*
X58595000Y115184843D01*
X60125158Y116715000D01*
X60682695Y116715000D01*
X60551627Y116638946D01*
X60465149Y116371364D01*
X61453732Y115449496D01*
X62375601Y116438079D01*
X62270667Y116698976D01*
X62234578Y116715000D01*
X63174843Y116715000D01*
X63192800Y116697044D01*
X62957748Y116539987D01*
X62730013Y116312252D01*
X62674014Y116228444D01*
X62561364Y116264851D01*
X61639496Y115276268D01*
X62628079Y114354399D01*
X62641721Y114359886D01*
X62659687Y114332999D01*
X62584482Y114355812D01*
X62550444Y114359164D01*
X61653749Y115255859D01*
X61477717Y115079827D01*
X61466268Y115090504D01*
X60792589Y114368072D01*
X60737680Y114368072D01*
X61445859Y115076251D01*
X61269827Y115252283D01*
X61280504Y115263732D01*
X60291921Y116185601D01*
X60031024Y116080667D01*
X59900327Y115786311D01*
X59829569Y115472113D01*
X59821467Y115150148D01*
X59876333Y114832789D01*
X59992058Y114532232D01*
X60091054Y114361627D01*
X60218697Y114320375D01*
X60215820Y114319502D01*
X60105506Y114260537D01*
X60008815Y114181185D01*
X59929463Y114084494D01*
X59870498Y113974180D01*
X59834188Y113854482D01*
X59821928Y113730000D01*
X59821928Y111730000D01*
X59834188Y111605518D01*
X59870498Y111485820D01*
X59929463Y111375506D01*
X60008815Y111278815D01*
X60105506Y111199463D01*
X60215820Y111140498D01*
X60335518Y111104188D01*
X60460000Y111091928D01*
X62460000Y111091928D01*
X62584482Y111104188D01*
X62704180Y111140498D01*
X62814494Y111199463D01*
X62911185Y111278815D01*
X62990537Y111375506D01*
X63015191Y111421630D01*
X63225537Y111281082D01*
X63523088Y111157832D01*
X63838967Y111095000D01*
X64161033Y111095000D01*
X64476912Y111157832D01*
X64774463Y111281082D01*
X65042252Y111460013D01*
X65269987Y111687748D01*
X65270000Y111687767D01*
X65270013Y111687748D01*
X65497748Y111460013D01*
X65765537Y111281082D01*
X66063088Y111157832D01*
X66378967Y111095000D01*
X66701033Y111095000D01*
X67016912Y111157832D01*
X67314463Y111281082D01*
X67582252Y111460013D01*
X67809987Y111687748D01*
X67988918Y111955537D01*
X68112168Y112253088D01*
X68175000Y112568967D01*
X68175000Y112891033D01*
X68112168Y113206912D01*
X67988918Y113504463D01*
X67809987Y113772252D01*
X67582252Y113999987D01*
X67582233Y114000000D01*
X67582252Y114000013D01*
X67809987Y114227748D01*
X67988918Y114495537D01*
X68112168Y114793088D01*
X68175000Y115108967D01*
X68175000Y115214843D01*
X71655000Y111734843D01*
X71655001Y85098563D01*
X71651203Y85060000D01*
X71666359Y84906114D01*
X71711246Y84758141D01*
X71711247Y84758140D01*
X71784139Y84621767D01*
X71798814Y84603886D01*
X71857655Y84532188D01*
X71857659Y84532184D01*
X71882237Y84502236D01*
X71912185Y84477658D01*
X74113026Y82276817D01*
X74113027Y73981742D01*
X73912641Y74123053D01*
X73618285Y74253749D01*
X73427648Y74304385D01*
X73177290Y74176325D01*
X73218703Y72990414D01*
X73116115Y72887826D01*
X73295723Y72708218D01*
X73419757Y72832252D01*
X74113027Y72856461D01*
X74113027Y72602307D01*
X73398311Y72577348D01*
X73295723Y72679936D01*
X73116115Y72500328D01*
X73240149Y72376294D01*
X73280503Y71220693D01*
X73294030Y71214926D01*
X73287721Y71183211D01*
X73250674Y71252520D01*
X73171322Y71349211D01*
X73016452Y71504081D01*
X72985245Y72397740D01*
X73087833Y72500328D01*
X72908225Y72679936D01*
X72784191Y72555902D01*
X71992285Y72528248D01*
X71757108Y72763425D01*
X71744526Y72773751D01*
X72970619Y72816567D01*
X72923445Y74167461D01*
X72664763Y74277744D01*
X72364206Y74162020D01*
X72092001Y73989882D01*
X71858608Y73767947D01*
X71672998Y73504744D01*
X71542302Y73210388D01*
X71491666Y73019751D01*
X71552753Y72900326D01*
X71550103Y72901742D01*
X71430405Y72938052D01*
X71305923Y72950312D01*
X71181441Y72938052D01*
X71061743Y72901742D01*
X70951429Y72842777D01*
X70854738Y72763425D01*
X69440524Y71349211D01*
X69361172Y71252520D01*
X69302207Y71142206D01*
X69265897Y71022508D01*
X69253637Y70898026D01*
X69265897Y70773544D01*
X69302207Y70653846D01*
X69361172Y70543532D01*
X69440524Y70446841D01*
X70854738Y69032627D01*
X70951429Y68953275D01*
X71061743Y68894310D01*
X71181441Y68858000D01*
X71305923Y68845740D01*
X71430405Y68858000D01*
X71480452Y68873182D01*
X71497992Y68785000D01*
X69925158Y68785000D01*
X66685000Y72025157D01*
X66685000Y79921289D01*
X66703937Y79940226D01*
X66817205Y80109744D01*
X66895226Y80298102D01*
X66935000Y80498061D01*
X66935000Y80701939D01*
X66895226Y80901898D01*
X66817205Y81090256D01*
X66703937Y81259774D01*
X66559774Y81403937D01*
X66390256Y81517205D01*
X66201898Y81595226D01*
X66001939Y81635000D01*
X65798061Y81635000D01*
X65598102Y81595226D01*
X65409744Y81517205D01*
X65240226Y81403937D01*
X65096063Y81259774D01*
X64982795Y81090256D01*
X64904774Y80901898D01*
X64865000Y80701939D01*
X64865000Y80498061D01*
X64904774Y80298102D01*
X64982795Y80109744D01*
X65096063Y79940226D01*
X65115000Y79921289D01*
X65115001Y71738563D01*
X65111203Y71700000D01*
X65126359Y71546114D01*
X65171246Y71398141D01*
X65190990Y71361203D01*
X65244139Y71261767D01*
X65273383Y71226134D01*
X65317655Y71172188D01*
X65317659Y71172184D01*
X65342237Y71142236D01*
X65372185Y71117658D01*
X69017658Y67472184D01*
X69042236Y67442236D01*
X69072184Y67417658D01*
X69072187Y67417655D01*
X69101559Y67393550D01*
X69161767Y67344138D01*
X69298140Y67271246D01*
X69446112Y67226359D01*
X69460490Y67224943D01*
X69561439Y67215000D01*
X69561446Y67215000D01*
X69599999Y67211203D01*
X69638552Y67215000D01*
X71961447Y67215000D01*
X72000000Y67211203D01*
X72038553Y67215000D01*
X72038561Y67215000D01*
X72153887Y67226359D01*
X72301860Y67271246D01*
X72438233Y67344138D01*
X72557764Y67442236D01*
X72582347Y67472190D01*
X72637491Y67527334D01*
X72940941Y67466974D01*
X73263007Y67466974D01*
X73263031Y67466979D01*
X73263026Y67466956D01*
X73263026Y67144890D01*
X73325858Y66829011D01*
X73449108Y66531460D01*
X73628039Y66263671D01*
X73855774Y66035936D01*
X74123563Y65857005D01*
X74421114Y65733755D01*
X74736993Y65670923D01*
X75059059Y65670923D01*
X75374938Y65733755D01*
X75672489Y65857005D01*
X75940278Y66035936D01*
X76168013Y66263671D01*
X76346944Y66531460D01*
X76470194Y66829011D01*
X76533026Y67144890D01*
X76533026Y67466956D01*
X76533022Y67466978D01*
X76533044Y67466974D01*
X76855110Y67466974D01*
X77170989Y67529806D01*
X77468540Y67653056D01*
X77736329Y67831987D01*
X77964064Y68059722D01*
X78142995Y68327511D01*
X78266245Y68625062D01*
X78329077Y68940941D01*
X78329077Y69263007D01*
X78266245Y69578886D01*
X78142995Y69876437D01*
X77964064Y70144226D01*
X77736329Y70371961D01*
X77485000Y70539894D01*
X77485000Y87421289D01*
X77503937Y87440226D01*
X77617205Y87609744D01*
X77695226Y87798102D01*
X77735000Y87998061D01*
X77735000Y88201939D01*
X77695226Y88401898D01*
X77617205Y88590256D01*
X77503937Y88759774D01*
X77359774Y88903937D01*
X77190256Y89017205D01*
X77001898Y89095226D01*
X76801939Y89135000D01*
X76598061Y89135000D01*
X76398102Y89095226D01*
X76209744Y89017205D01*
X76040226Y88903937D01*
X75896063Y88759774D01*
X75782795Y88590256D01*
X75704774Y88401898D01*
X75665000Y88201939D01*
X75665000Y87998061D01*
X75704774Y87798102D01*
X75782795Y87609744D01*
X75896063Y87440226D01*
X75915000Y87421289D01*
X75915001Y72184903D01*
X75683026Y72339903D01*
X75683026Y82563418D01*
X75686823Y82601974D01*
X75683026Y82640534D01*
X75683026Y82640535D01*
X75679046Y82680948D01*
X75671668Y82755861D01*
X75626780Y82903834D01*
X75553888Y83040207D01*
X75455790Y83159738D01*
X75425837Y83184320D01*
X73225000Y85385157D01*
X73225000Y112021444D01*
X73228797Y112060000D01*
X73225000Y112098560D01*
X73225000Y112098561D01*
X73218565Y112163896D01*
X73213642Y112213887D01*
X73168754Y112361860D01*
X73161495Y112375440D01*
X73095862Y112498233D01*
X72997764Y112617764D01*
X72967811Y112642346D01*
X67582347Y118027810D01*
X67557764Y118057764D01*
X67438233Y118155862D01*
X67301860Y118228754D01*
X67153887Y118273641D01*
X67038561Y118285000D01*
X67038553Y118285000D01*
X67000000Y118288797D01*
X66961447Y118285000D01*
X64538556Y118285000D01*
X64500000Y118288797D01*
X64461444Y118285000D01*
X64461439Y118285000D01*
X64421026Y118281020D01*
X64346113Y118273642D01*
X64206731Y118231360D01*
X64198140Y118228754D01*
X64061767Y118155862D01*
X64000000Y118105170D01*
X63938233Y118155862D01*
X63801860Y118228754D01*
X63653887Y118273641D01*
X63538561Y118285000D01*
X63538553Y118285000D01*
X63500000Y118288797D01*
X63461447Y118285000D01*
X59838555Y118285000D01*
X59800000Y118288797D01*
X59761444Y118285000D01*
X59761439Y118285000D01*
X59721026Y118281020D01*
X59646113Y118273642D01*
X59506731Y118231360D01*
X59498140Y118228754D01*
X59361767Y118155862D01*
X59342792Y118140289D01*
X59272187Y118082345D01*
X59272184Y118082342D01*
X59242236Y118057764D01*
X59217658Y118027816D01*
X57282185Y116092342D01*
X57252237Y116067764D01*
X57227659Y116037816D01*
X57227655Y116037812D01*
X57196624Y116000000D01*
X57154139Y115948233D01*
X57133809Y115910197D01*
X57081246Y115811859D01*
X57036359Y115663886D01*
X57021203Y115510000D01*
X57025001Y115471437D01*
X57025000Y109441878D01*
X56767748Y109269987D01*
X56540013Y109042252D01*
X56540000Y109042233D01*
X56539987Y109042252D01*
X56312252Y109269987D01*
X56044463Y109448918D01*
X55746912Y109572168D01*
X55431033Y109635000D01*
X55108967Y109635000D01*
X54793088Y109572168D01*
X54495537Y109448918D01*
X54227748Y109269987D01*
X54000013Y109042252D01*
X54000000Y109042233D01*
X53999987Y109042252D01*
X53772252Y109269987D01*
X53504463Y109448918D01*
X53206912Y109572168D01*
X52891033Y109635000D01*
X52568967Y109635000D01*
X52253088Y109572168D01*
X51955537Y109448918D01*
X51687748Y109269987D01*
X51460013Y109042252D01*
X51387280Y108933400D01*
X51325413Y108955808D01*
X50369605Y108000000D01*
X51325413Y107044192D01*
X51387280Y107066600D01*
X51460013Y106957748D01*
X51687748Y106730013D01*
X51955537Y106551082D01*
X52253088Y106427832D01*
X52568967Y106365000D01*
X52891033Y106365000D01*
X53206912Y106427832D01*
X53504463Y106551082D01*
X53772252Y106730013D01*
X53999987Y106957748D01*
X54000000Y106957767D01*
X54000013Y106957748D01*
X54227748Y106730013D01*
X54495537Y106551082D01*
X54793088Y106427832D01*
X55072163Y106372321D01*
X54384843Y105685000D01*
X33235158Y105685000D01*
X32055571Y106864587D01*
X49234192Y106864587D01*
X49329956Y106600186D01*
X49619571Y106459296D01*
X49931108Y106377616D01*
X50252595Y106358282D01*
X50571675Y106402039D01*
X50876088Y106507205D01*
X51050044Y106600186D01*
X51145808Y106864587D01*
X50190000Y107820395D01*
X49234192Y106864587D01*
X32055571Y106864587D01*
X31384640Y107535517D01*
X31445000Y107838967D01*
X31445000Y107937405D01*
X48548282Y107937405D01*
X48592039Y107618325D01*
X48697205Y107313912D01*
X48790186Y107139956D01*
X49054587Y107044192D01*
X50010395Y108000000D01*
X49054587Y108955808D01*
X48790186Y108860044D01*
X48649296Y108570429D01*
X48567616Y108258892D01*
X48548282Y107937405D01*
X31445000Y107937405D01*
X31445000Y108161033D01*
X31382168Y108476912D01*
X31258918Y108774463D01*
X31079987Y109042252D01*
X30986826Y109135413D01*
X49234192Y109135413D01*
X50190000Y108179605D01*
X51145808Y109135413D01*
X51050044Y109399814D01*
X50760429Y109540704D01*
X50448892Y109622384D01*
X50127405Y109641718D01*
X49808325Y109597961D01*
X49503912Y109492795D01*
X49329956Y109399814D01*
X49234192Y109135413D01*
X30986826Y109135413D01*
X30852252Y109269987D01*
X30584463Y109448918D01*
X30286912Y109572168D01*
X29971033Y109635000D01*
X29648967Y109635000D01*
X29333088Y109572168D01*
X29035537Y109448918D01*
X28767748Y109269987D01*
X28540013Y109042252D01*
X28540000Y109042233D01*
X28539987Y109042252D01*
X28312252Y109269987D01*
X28044463Y109448918D01*
X27746912Y109572168D01*
X27431033Y109635000D01*
X27108967Y109635000D01*
X26793088Y109572168D01*
X26495537Y109448918D01*
X26227748Y109269987D01*
X26000013Y109042252D01*
X26000000Y109042233D01*
X25999987Y109042252D01*
X25772252Y109269987D01*
X25504463Y109448918D01*
X25206912Y109572168D01*
X24891033Y109635000D01*
X24568967Y109635000D01*
X24253088Y109572168D01*
X23955537Y109448918D01*
X23687748Y109269987D01*
X23460013Y109042252D01*
X23387280Y108933400D01*
X23325413Y108955808D01*
X22369605Y108000000D01*
X22010395Y108000000D01*
X21054587Y108955808D01*
X20790186Y108860044D01*
X20775001Y108828830D01*
X20775001Y109135413D01*
X21234192Y109135413D01*
X22190000Y108179605D01*
X23145808Y109135413D01*
X23050044Y109399814D01*
X22760429Y109540704D01*
X22448892Y109622384D01*
X22127405Y109641718D01*
X21808325Y109597961D01*
X21503912Y109492795D01*
X21329956Y109399814D01*
X21234192Y109135413D01*
X20775001Y109135413D01*
X20775001Y113781447D01*
X20778798Y113820000D01*
X20775001Y113858553D01*
X20775001Y113858560D01*
X20763642Y113973886D01*
X20718755Y114121859D01*
X20645863Y114258232D01*
X20547765Y114377763D01*
X20517818Y114402340D01*
X20114640Y114805517D01*
X20175000Y115108967D01*
X20175000Y115431033D01*
X20112168Y115746912D01*
X19988918Y116044463D01*
X19809987Y116312252D01*
X19582252Y116539987D01*
X19314463Y116718918D01*
X19016912Y116842168D01*
X18701033Y116905000D01*
X18378967Y116905000D01*
X18063088Y116842168D01*
X17765537Y116718918D01*
X17497748Y116539987D01*
X17270013Y116312252D01*
X17270000Y116312233D01*
X17269987Y116312252D01*
X17042252Y116539987D01*
X16774463Y116718918D01*
X16476912Y116842168D01*
X16161033Y116905000D01*
X15838967Y116905000D01*
X15535517Y116844640D01*
X14852345Y117527812D01*
X14827764Y117557764D01*
X14708233Y117655862D01*
X14571860Y117728754D01*
X14423887Y117773641D01*
X14308561Y117785000D01*
X14308553Y117785000D01*
X14270000Y117788797D01*
X14231447Y117785000D01*
X11538552Y117785000D01*
X11499999Y117788797D01*
X11461446Y117785000D01*
X11461439Y117785000D01*
X11360490Y117775057D01*
X11346112Y117773641D01*
X11317050Y117764825D01*
X11198140Y117728754D01*
X11061767Y117655862D01*
X11011260Y117614411D01*
X10972187Y117582345D01*
X10972184Y117582342D01*
X10942236Y117557764D01*
X10917658Y117527816D01*
X8022184Y114632341D01*
X7992236Y114607763D01*
X7967658Y114577815D01*
X7967654Y114577811D01*
X7943807Y114548753D01*
X7894138Y114488232D01*
X7855176Y114415339D01*
X7821245Y114351858D01*
X7776358Y114203885D01*
X7761202Y114049999D01*
X7765000Y114011436D01*
X7764999Y103298554D01*
X7761202Y103260001D01*
X7764999Y103221448D01*
X7764999Y103221441D01*
X7776358Y103106115D01*
X7821245Y102958142D01*
X7894137Y102821769D01*
X7992235Y102702237D01*
X8022189Y102677654D01*
X8425360Y102274483D01*
X8365000Y101971033D01*
X8365000Y101648967D01*
X8425360Y101345517D01*
X6372180Y99292337D01*
X6342226Y99267754D01*
X6244128Y99148222D01*
X6171236Y99011849D01*
X6126349Y98863876D01*
X6114990Y98748550D01*
X6114990Y98748543D01*
X6111193Y98709990D01*
X6114990Y98671437D01*
X6114991Y75225148D01*
X4574164Y73684321D01*
X4544210Y73659738D01*
X4446112Y73540206D01*
X4373220Y73403833D01*
X4328333Y73255860D01*
X4316974Y73140534D01*
X4316974Y73140527D01*
X4313177Y73101974D01*
X4316974Y73063421D01*
X4316974Y72339904D01*
X4059722Y72168013D01*
X3831987Y71940278D01*
X3653056Y71672489D01*
X3529806Y71374938D01*
X3466974Y71059059D01*
X3466974Y70736993D01*
X3486638Y70638134D01*
X3381239Y70584222D01*
X3422652Y69398311D01*
X3320064Y69295723D01*
X3499672Y69116115D01*
X3623706Y69240149D01*
X4779307Y69280503D01*
X4785074Y69294030D01*
X4816789Y69287721D01*
X4747480Y69250674D01*
X4650789Y69171322D01*
X4495919Y69016452D01*
X3602260Y68985245D01*
X3499672Y69087833D01*
X3320064Y68908225D01*
X3444098Y68784191D01*
X3471752Y67992285D01*
X3236575Y67757108D01*
X3226249Y67744526D01*
X3183433Y68970619D01*
X1832539Y68923445D01*
X1722256Y68664763D01*
X1837980Y68364206D01*
X2010118Y68092001D01*
X2232053Y67858608D01*
X2495256Y67672998D01*
X2789612Y67542302D01*
X2980249Y67491666D01*
X3099674Y67552753D01*
X3098258Y67550103D01*
X3061948Y67430405D01*
X3049688Y67305923D01*
X3061948Y67181441D01*
X3098258Y67061743D01*
X3157223Y66951429D01*
X3236575Y66854738D01*
X4650789Y65440524D01*
X4747480Y65361172D01*
X4857794Y65302207D01*
X4977492Y65265897D01*
X5101974Y65253637D01*
X5226456Y65265897D01*
X5346154Y65302207D01*
X5456468Y65361172D01*
X5553159Y65440524D01*
X6967373Y66854738D01*
X7046725Y66951429D01*
X7105690Y67061743D01*
X7142000Y67181441D01*
X7154260Y67305923D01*
X7142000Y67430405D01*
X7126818Y67480452D01*
X7374938Y67529806D01*
X7672489Y67653056D01*
X7940278Y67831987D01*
X8168013Y68059722D01*
X8339903Y68316974D01*
X9063421Y68316974D01*
X9101974Y68313177D01*
X9140527Y68316974D01*
X9140535Y68316974D01*
X9255861Y68328333D01*
X9403834Y68373220D01*
X9540207Y68446112D01*
X9659738Y68544210D01*
X9684321Y68574164D01*
X10777815Y69667658D01*
X10807764Y69692236D01*
X10905862Y69811767D01*
X10978754Y69948140D01*
X11023642Y70096113D01*
X11031494Y70175844D01*
X11035000Y70211439D01*
X11035000Y70211444D01*
X11038797Y70250000D01*
X11035000Y70288555D01*
X11035000Y72111448D01*
X11038797Y72150001D01*
X11035000Y72188554D01*
X11035000Y72188561D01*
X11023641Y72303887D01*
X10978754Y72451860D01*
X10905862Y72588233D01*
X10856450Y72648441D01*
X10832345Y72677813D01*
X10832342Y72677816D01*
X10807764Y72707764D01*
X10777817Y72732341D01*
X8285000Y75225157D01*
X8285000Y96444843D01*
X8372321Y96532164D01*
X8427832Y96253088D01*
X8551082Y95955537D01*
X8730013Y95687748D01*
X8957748Y95460013D01*
X8957767Y95460000D01*
X8957748Y95459987D01*
X8730013Y95232252D01*
X8551082Y94964463D01*
X8427832Y94666912D01*
X8365000Y94351033D01*
X8365000Y94028967D01*
X8427832Y93713088D01*
X8551082Y93415537D01*
X8730013Y93147748D01*
X8957748Y92920013D01*
X8957767Y92920000D01*
X8957748Y92919987D01*
X8730013Y92692252D01*
X8551082Y92424463D01*
X8427832Y92126912D01*
X8365000Y91811033D01*
X8365000Y91488967D01*
X8427832Y91173088D01*
X8551082Y90875537D01*
X8691630Y90665191D01*
X8645506Y90640537D01*
X8548815Y90561185D01*
X8469463Y90464494D01*
X8410498Y90354180D01*
X8374188Y90234482D01*
X8361928Y90110000D01*
X8361928Y88110000D01*
X8374188Y87985518D01*
X8410498Y87865820D01*
X8469463Y87755506D01*
X8548815Y87658815D01*
X8645506Y87579463D01*
X8755820Y87520498D01*
X8875518Y87484188D01*
X9000000Y87471928D01*
X11000000Y87471928D01*
X11124482Y87484188D01*
X11244180Y87520498D01*
X11354494Y87579463D01*
X11451185Y87658815D01*
X11530537Y87755506D01*
X11589502Y87865820D01*
X11625812Y87985518D01*
X11638072Y88110000D01*
X11638072Y90110000D01*
X11625812Y90234482D01*
X11589502Y90354180D01*
X11530537Y90464494D01*
X11451185Y90561185D01*
X11354494Y90640537D01*
X11308370Y90665191D01*
X11441877Y90865000D01*
X15324843Y90865000D01*
X17775000Y88414842D01*
X17775000Y62035157D01*
X17335000Y62475157D01*
X17335000Y62501939D01*
X17295226Y62701898D01*
X17217205Y62890256D01*
X17103937Y63059774D01*
X16959774Y63203937D01*
X16790256Y63317205D01*
X16601898Y63395226D01*
X16401939Y63435000D01*
X16198061Y63435000D01*
X15998102Y63395226D01*
X15809744Y63317205D01*
X15640226Y63203937D01*
X15496063Y63059774D01*
X15382795Y62890256D01*
X15304774Y62701898D01*
X15265000Y62501939D01*
X15265000Y62298061D01*
X15304774Y62098102D01*
X15382795Y61909744D01*
X15496063Y61740226D01*
X15640226Y61596063D01*
X15809744Y61482795D01*
X15998102Y61404774D01*
X16198061Y61365000D01*
X16224843Y61365000D01*
X17174990Y60414852D01*
X17174991Y52385149D01*
X16324843Y51535000D01*
X16298061Y51535000D01*
X16098102Y51495226D01*
X15909744Y51417205D01*
X15740226Y51303937D01*
X15596063Y51159774D01*
X15482795Y50990256D01*
X15404774Y50801898D01*
X15365000Y50601939D01*
X15365000Y50398061D01*
X15404774Y50198102D01*
X15482795Y50009744D01*
X15596063Y49840226D01*
X15740226Y49696063D01*
X15909744Y49582795D01*
X16098102Y49504774D01*
X16298061Y49465000D01*
X16501939Y49465000D01*
X16701898Y49504774D01*
X16890256Y49582795D01*
X17059774Y49696063D01*
X17203937Y49840226D01*
X17317205Y50009744D01*
X17395226Y50198102D01*
X17435000Y50398061D01*
X17435000Y50424843D01*
X17775001Y50764843D01*
X17775001Y17578563D01*
X17771203Y17540000D01*
X17786359Y17386114D01*
X17831246Y17238141D01*
X17831247Y17238140D01*
X17904139Y17101767D01*
X17943227Y17054139D01*
X17977655Y17012188D01*
X17977659Y17012184D01*
X18002237Y16982236D01*
X18032185Y16957658D01*
X23587658Y11402184D01*
X23612236Y11372236D01*
X23642184Y11347658D01*
X23642187Y11347655D01*
X23671559Y11323550D01*
X23731767Y11274138D01*
X23842389Y11215010D01*
X22723246Y11215010D01*
X22684690Y11218807D01*
X22646134Y11215010D01*
X22646129Y11215010D01*
X22605716Y11211030D01*
X22530803Y11203652D01*
X22382830Y11158764D01*
X22246457Y11085872D01*
X22126926Y10987774D01*
X22102345Y10957822D01*
X16549533Y5405010D01*
X11305148Y5405010D01*
X7845000Y8865157D01*
X7845000Y31901444D01*
X7848797Y31940000D01*
X7845000Y31978560D01*
X7845000Y31978561D01*
X7840696Y32022256D01*
X7833642Y32093887D01*
X7788754Y32241860D01*
X7782326Y32253886D01*
X7715862Y32378233D01*
X7617764Y32497764D01*
X7587811Y32522346D01*
X6135000Y33975157D01*
X6135000Y38204882D01*
X6104108Y38518533D01*
X5982026Y38920982D01*
X5783777Y39291881D01*
X5516977Y39616977D01*
X5191881Y39883777D01*
X4820981Y40082026D01*
X4418532Y40204108D01*
X4000000Y40245330D01*
X3581467Y40204108D01*
X3179018Y40082026D01*
X2808119Y39883777D01*
X2483023Y39616977D01*
X2216223Y39291881D01*
X2017974Y38920981D01*
X1895892Y38518532D01*
X1865000Y38204881D01*
X1865001Y31995118D01*
X1895893Y31681467D01*
X2017975Y31279018D01*
X2216224Y30908119D01*
X2483024Y30583023D01*
X2808120Y30316223D01*
X3179019Y30117974D01*
X3581468Y29995892D01*
X4000000Y29954670D01*
X4418533Y29995892D01*
X4820982Y30117974D01*
X5191881Y30316223D01*
X5516977Y30583023D01*
X5783777Y30908119D01*
X5982026Y31279018D01*
X6104108Y31681467D01*
X6113457Y31776386D01*
X6275000Y31614843D01*
X6275001Y18835157D01*
X6135000Y18975158D01*
X6135000Y23004882D01*
X6104108Y23318533D01*
X5982026Y23720982D01*
X5783777Y24091881D01*
X5516977Y24416977D01*
X5191881Y24683777D01*
X4820982Y24882026D01*
X4418533Y25004108D01*
X4000000Y25045330D01*
X3581468Y25004108D01*
X3179019Y24882026D01*
X2808120Y24683777D01*
X2483024Y24416977D01*
X2216224Y24091881D01*
X2017975Y23720982D01*
X1895893Y23318533D01*
X1865001Y23004882D01*
X1865000Y16795119D01*
X1895892Y16481468D01*
X2017974Y16079019D01*
X2216223Y15708119D01*
X2483023Y15383023D01*
X2808119Y15116223D01*
X3179018Y14917974D01*
X3581467Y14795892D01*
X4000000Y14754670D01*
X4418532Y14795892D01*
X4820981Y14917974D01*
X5191881Y15116223D01*
X5516977Y15383023D01*
X5674990Y15575562D01*
X5674991Y12881958D01*
X5670466Y12892882D01*
X5464175Y13201618D01*
X5201618Y13464175D01*
X4892882Y13670466D01*
X4549834Y13812561D01*
X4185656Y13885000D01*
X3814344Y13885000D01*
X3450166Y13812561D01*
X3107118Y13670466D01*
X2798382Y13464175D01*
X2535825Y13201618D01*
X2329534Y12892882D01*
X2187439Y12549834D01*
X2115000Y12185656D01*
X2115000Y11814344D01*
X2187439Y11450166D01*
X2329534Y11107118D01*
X2535825Y10798382D01*
X2798382Y10535825D01*
X3107118Y10329534D01*
X3450166Y10187439D01*
X3814344Y10115000D01*
X4185656Y10115000D01*
X4549834Y10187439D01*
X4892882Y10329534D01*
X5201618Y10535825D01*
X5464175Y10798382D01*
X5670466Y11107118D01*
X5674991Y11118043D01*
X5674992Y8330030D01*
X5671194Y8291467D01*
X5686350Y8137581D01*
X5731237Y7989608D01*
X5765168Y7926127D01*
X5804130Y7853234D01*
X5822952Y7830300D01*
X5877646Y7763655D01*
X5877650Y7763651D01*
X5902228Y7733703D01*
X5932176Y7709125D01*
X10149111Y3492190D01*
X10173694Y3462236D01*
X10293225Y3364138D01*
X10427538Y3292347D01*
X10429598Y3291246D01*
X10577571Y3246358D01*
X10652484Y3238980D01*
X10692897Y3235000D01*
X10692902Y3235000D01*
X10731458Y3231203D01*
X10770014Y3235000D01*
X17084669Y3235000D01*
X17123222Y3231203D01*
X17161775Y3235000D01*
X17161783Y3235000D01*
X17277109Y3246359D01*
X17425082Y3291246D01*
X17561455Y3364138D01*
X17680986Y3462236D01*
X17705569Y3492190D01*
X23258379Y9045000D01*
X27199443Y9045000D01*
X27170937Y9016294D01*
X27124954Y8971264D01*
X27118635Y8963626D01*
X26961980Y8771548D01*
X26926376Y8717959D01*
X26890012Y8664850D01*
X26885297Y8656130D01*
X26768935Y8437283D01*
X26744414Y8377792D01*
X26719063Y8318643D01*
X26716132Y8309173D01*
X26644492Y8071892D01*
X26631998Y8008795D01*
X26618613Y7945821D01*
X26617577Y7935962D01*
X26593440Y7689789D01*
X26590001Y7654876D01*
X26590002Y1304730D01*
X26575996Y1161891D01*
X26544600Y1057901D01*
X26493602Y961987D01*
X26424942Y877801D01*
X26341244Y808561D01*
X26245690Y756895D01*
X26141923Y724773D01*
X26001360Y710000D01*
X7627000Y710000D01*
X7627000Y4357228D01*
X7487617Y5057957D01*
X7214206Y5718029D01*
X6817275Y6312078D01*
X6312078Y6817275D01*
X5718029Y7214206D01*
X5057957Y7487617D01*
X4357228Y7627000D01*
X710000Y7627000D01*
X710000Y43185656D01*
X2115000Y43185656D01*
X2115000Y42814344D01*
X2187439Y42450166D01*
X2329534Y42107118D01*
X2535825Y41798382D01*
X2798382Y41535825D01*
X3107118Y41329534D01*
X3450166Y41187439D01*
X3814344Y41115000D01*
X4185656Y41115000D01*
X4549834Y41187439D01*
X4892882Y41329534D01*
X5201618Y41535825D01*
X5464175Y41798382D01*
X5670466Y42107118D01*
X5812561Y42450166D01*
X5885000Y42814344D01*
X5885000Y43185656D01*
X5812561Y43549834D01*
X5670466Y43892882D01*
X5464175Y44201618D01*
X5201618Y44464175D01*
X4892882Y44670466D01*
X4549834Y44812561D01*
X4185656Y44885000D01*
X3814344Y44885000D01*
X3450166Y44812561D01*
X3107118Y44670466D01*
X2798382Y44464175D01*
X2535825Y44201618D01*
X2329534Y43892882D01*
X2187439Y43549834D01*
X2115000Y43185656D01*
X710000Y43185656D01*
X710000Y69427648D01*
X1695615Y69427648D01*
X1823675Y69177290D01*
X3174568Y69224464D01*
X3127394Y70575358D01*
X2868712Y70685641D01*
X2568155Y70569917D01*
X2295950Y70397779D01*
X2062557Y70175844D01*
X1876947Y69912641D01*
X1746251Y69618285D01*
X1695615Y69427648D01*
X710000Y69427648D01*
X710000Y112373000D01*
X4357228Y112373000D01*
X5057957Y112512383D01*
X5718029Y112785794D01*
X6312078Y113182725D01*
X6817275Y113687922D01*
X7214206Y114281971D01*
X7487617Y114942043D01*
X7627000Y115642772D01*
X7627000Y119290000D01*
X30873000Y119290000D01*
X30873000Y116178178D01*
G36*
X23384971Y92904871D02*
G01*
X23384970Y32468583D01*
X23381173Y32430030D01*
X23384970Y32391477D01*
X23384970Y32391470D01*
X23396329Y32276144D01*
X23441216Y32128171D01*
X23514108Y31991798D01*
X23612206Y31872266D01*
X23642160Y31847683D01*
X26307656Y29182186D01*
X26332236Y29152236D01*
X26362184Y29127658D01*
X26362187Y29127655D01*
X26391559Y29103550D01*
X26451767Y29054138D01*
X26588140Y28981246D01*
X26687347Y28951152D01*
X26736112Y28936359D01*
X26750490Y28934943D01*
X26851439Y28925000D01*
X26851446Y28925000D01*
X26889999Y28921203D01*
X26928552Y28925000D01*
X26962462Y28925000D01*
X26971068Y28908899D01*
X27150392Y28690392D01*
X27368899Y28511068D01*
X27501858Y28440000D01*
X27368899Y28368932D01*
X27150392Y28189608D01*
X26971068Y27971101D01*
X26962462Y27955000D01*
X24455158Y27955000D01*
X22345050Y30065107D01*
X22345050Y83497501D01*
X22430256Y83532795D01*
X22599774Y83646063D01*
X22743937Y83790226D01*
X22857205Y83959744D01*
X22935226Y84148102D01*
X22975000Y84348061D01*
X22975000Y84551939D01*
X22935226Y84751898D01*
X22857205Y84940256D01*
X22743937Y85109774D01*
X22608711Y85245000D01*
X22703937Y85340226D01*
X22817205Y85509744D01*
X22895226Y85698102D01*
X22935000Y85898061D01*
X22935000Y86101939D01*
X22895226Y86301898D01*
X22817205Y86490256D01*
X22703937Y86659774D01*
X22559774Y86803937D01*
X22390256Y86917205D01*
X22201898Y86995226D01*
X22001939Y87035000D01*
X21798061Y87035000D01*
X21598102Y86995226D01*
X21409744Y86917205D01*
X21240226Y86803937D01*
X21145030Y86708741D01*
X21145030Y94501414D01*
X21148827Y94539970D01*
X21145030Y94578530D01*
X21145030Y94578531D01*
X21140135Y94628233D01*
X21133672Y94693857D01*
X21088784Y94841830D01*
X21086629Y94845862D01*
X21015892Y94978203D01*
X20917794Y95097734D01*
X20887841Y95122316D01*
X16212347Y99797810D01*
X16187764Y99827764D01*
X16068233Y99925862D01*
X15931860Y99998754D01*
X15783887Y100043641D01*
X15668561Y100055000D01*
X15668553Y100055000D01*
X15630000Y100058797D01*
X15591447Y100055000D01*
X11441877Y100055000D01*
X11269987Y100312252D01*
X11042252Y100539987D01*
X11042233Y100540000D01*
X11042252Y100540013D01*
X11269987Y100767748D01*
X11441877Y101025000D01*
X15264843Y101025000D01*
X23384971Y92904871D01*
G37*
X23384971Y92904871D02*
X23384970Y32468583D01*
X23381173Y32430030D01*
X23384970Y32391477D01*
X23384970Y32391470D01*
X23396329Y32276144D01*
X23441216Y32128171D01*
X23514108Y31991798D01*
X23612206Y31872266D01*
X23642160Y31847683D01*
X26307656Y29182186D01*
X26332236Y29152236D01*
X26362184Y29127658D01*
X26362187Y29127655D01*
X26391559Y29103550D01*
X26451767Y29054138D01*
X26588140Y28981246D01*
X26687347Y28951152D01*
X26736112Y28936359D01*
X26750490Y28934943D01*
X26851439Y28925000D01*
X26851446Y28925000D01*
X26889999Y28921203D01*
X26928552Y28925000D01*
X26962462Y28925000D01*
X26971068Y28908899D01*
X27150392Y28690392D01*
X27368899Y28511068D01*
X27501858Y28440000D01*
X27368899Y28368932D01*
X27150392Y28189608D01*
X26971068Y27971101D01*
X26962462Y27955000D01*
X24455158Y27955000D01*
X22345050Y30065107D01*
X22345050Y83497501D01*
X22430256Y83532795D01*
X22599774Y83646063D01*
X22743937Y83790226D01*
X22857205Y83959744D01*
X22935226Y84148102D01*
X22975000Y84348061D01*
X22975000Y84551939D01*
X22935226Y84751898D01*
X22857205Y84940256D01*
X22743937Y85109774D01*
X22608711Y85245000D01*
X22703937Y85340226D01*
X22817205Y85509744D01*
X22895226Y85698102D01*
X22935000Y85898061D01*
X22935000Y86101939D01*
X22895226Y86301898D01*
X22817205Y86490256D01*
X22703937Y86659774D01*
X22559774Y86803937D01*
X22390256Y86917205D01*
X22201898Y86995226D01*
X22001939Y87035000D01*
X21798061Y87035000D01*
X21598102Y86995226D01*
X21409744Y86917205D01*
X21240226Y86803937D01*
X21145030Y86708741D01*
X21145030Y94501414D01*
X21148827Y94539970D01*
X21145030Y94578530D01*
X21145030Y94578531D01*
X21140135Y94628233D01*
X21133672Y94693857D01*
X21088784Y94841830D01*
X21086629Y94845862D01*
X21015892Y94978203D01*
X20917794Y95097734D01*
X20887841Y95122316D01*
X16212347Y99797810D01*
X16187764Y99827764D01*
X16068233Y99925862D01*
X15931860Y99998754D01*
X15783887Y100043641D01*
X15668561Y100055000D01*
X15668553Y100055000D01*
X15630000Y100058797D01*
X15591447Y100055000D01*
X11441877Y100055000D01*
X11269987Y100312252D01*
X11042252Y100539987D01*
X11042233Y100540000D01*
X11042252Y100540013D01*
X11269987Y100767748D01*
X11441877Y101025000D01*
X15264843Y101025000D01*
X23384971Y92904871D01*
G36*
X28697000Y42537000D02*
G01*
X28717000Y42537000D01*
X28717000Y42283000D01*
X28697000Y42283000D01*
X28697000Y42263000D01*
X28443000Y42263000D01*
X28443000Y42283000D01*
X28423000Y42283000D01*
X28423000Y42537000D01*
X28443000Y42537000D01*
X28443000Y42557000D01*
X28697000Y42557000D01*
X28697000Y42537000D01*
G37*
X28697000Y42537000D02*
X28717000Y42537000D01*
X28717000Y42283000D01*
X28697000Y42283000D01*
X28697000Y42263000D01*
X28443000Y42263000D01*
X28443000Y42283000D01*
X28423000Y42283000D01*
X28423000Y42537000D01*
X28443000Y42537000D01*
X28443000Y42557000D01*
X28697000Y42557000D01*
X28697000Y42537000D01*
G36*
X13266251Y115284141D02*
G01*
X13442283Y115460173D01*
X13453732Y115449496D01*
X14060099Y116099744D01*
X14085118Y116074726D01*
X13474141Y115463749D01*
X13650173Y115287717D01*
X13639496Y115276268D01*
X14628079Y114354399D01*
X14641721Y114359886D01*
X14659687Y114332999D01*
X14584482Y114355812D01*
X14550444Y114359164D01*
X13653749Y115255859D01*
X13477717Y115079827D01*
X13466268Y115090504D01*
X12792589Y114368072D01*
X12737680Y114368072D01*
X13445859Y115076251D01*
X13269827Y115252283D01*
X13280504Y115263732D01*
X12291921Y116185601D01*
X12031024Y116080667D01*
X11900327Y115786311D01*
X11829569Y115472113D01*
X11821467Y115150148D01*
X11876333Y114832789D01*
X11992058Y114532232D01*
X12091054Y114361627D01*
X12218697Y114320375D01*
X12215820Y114319502D01*
X12105506Y114260537D01*
X12008815Y114181185D01*
X11929463Y114084494D01*
X11870498Y113974180D01*
X11834188Y113854482D01*
X11821928Y113730000D01*
X11821928Y111730000D01*
X11834188Y111605518D01*
X11870498Y111485820D01*
X11929463Y111375506D01*
X12008815Y111278815D01*
X12105506Y111199463D01*
X12215820Y111140498D01*
X12335518Y111104188D01*
X12460000Y111091928D01*
X14460000Y111091928D01*
X14584482Y111104188D01*
X14704180Y111140498D01*
X14814494Y111199463D01*
X14911185Y111278815D01*
X14990537Y111375506D01*
X15015191Y111421630D01*
X15225537Y111281082D01*
X15523088Y111157832D01*
X15838967Y111095000D01*
X16161033Y111095000D01*
X16476912Y111157832D01*
X16774463Y111281082D01*
X17042252Y111460013D01*
X17269987Y111687748D01*
X17270000Y111687767D01*
X17270013Y111687748D01*
X17497748Y111460013D01*
X17765537Y111281082D01*
X18063088Y111157832D01*
X18378967Y111095000D01*
X18604992Y111095000D01*
X18604991Y106200020D01*
X18601194Y106161467D01*
X18604991Y106122914D01*
X18604991Y106122907D01*
X18616350Y106007581D01*
X18661237Y105859608D01*
X18734129Y105723235D01*
X18832227Y105603703D01*
X18862181Y105579120D01*
X24584991Y99856310D01*
X24584991Y97425166D01*
X24535000Y97475157D01*
X24535000Y97501939D01*
X24495226Y97701898D01*
X24417205Y97890256D01*
X24303937Y98059774D01*
X24159774Y98203937D01*
X23990256Y98317205D01*
X23801898Y98395226D01*
X23601939Y98435000D01*
X23398061Y98435000D01*
X23198102Y98395226D01*
X23009744Y98317205D01*
X22840226Y98203937D01*
X22696063Y98059774D01*
X22582795Y97890256D01*
X22504774Y97701898D01*
X22465000Y97501939D01*
X22465000Y97298061D01*
X22504774Y97098102D01*
X22582795Y96909744D01*
X22696063Y96740226D01*
X22840226Y96596063D01*
X23009744Y96482795D01*
X23198102Y96404774D01*
X23398061Y96365000D01*
X23424843Y96365000D01*
X23984981Y95804861D01*
X23984981Y94525177D01*
X16172347Y102337810D01*
X16147764Y102367764D01*
X16028233Y102465862D01*
X15891860Y102538754D01*
X15743887Y102583641D01*
X15628561Y102595000D01*
X15628553Y102595000D01*
X15590000Y102598797D01*
X15551447Y102595000D01*
X11441877Y102595000D01*
X11269987Y102852252D01*
X11042252Y103079987D01*
X11042233Y103080000D01*
X11042252Y103080013D01*
X11269987Y103307748D01*
X11448918Y103575537D01*
X11572168Y103873088D01*
X11635000Y104188967D01*
X11635000Y104511033D01*
X11572168Y104826912D01*
X11448918Y105124463D01*
X11269987Y105392252D01*
X11042252Y105619987D01*
X11029718Y105628362D01*
X11199748Y105779215D01*
X11393399Y106034618D01*
X11533502Y106322893D01*
X11590124Y106509566D01*
X11470777Y106763000D01*
X10127000Y106763000D01*
X10127000Y106743000D01*
X9873000Y106743000D01*
X9873000Y106763000D01*
X9853000Y106763000D01*
X9853000Y107017000D01*
X9873000Y107017000D01*
X9873000Y108361315D01*
X10127000Y108361315D01*
X10127000Y107017000D01*
X11470777Y107017000D01*
X11590124Y107270434D01*
X11533502Y107457107D01*
X11393399Y107745382D01*
X11199748Y108000785D01*
X10959992Y108213501D01*
X10683344Y108375356D01*
X10380435Y108480129D01*
X10127000Y108361315D01*
X9873000Y108361315D01*
X9619565Y108480129D01*
X9334999Y108381701D01*
X9334999Y113724842D01*
X11825158Y116215000D01*
X12335392Y116215000D01*
X13266251Y115284141D01*
G37*
X13266251Y115284141D02*
X13442283Y115460173D01*
X13453732Y115449496D01*
X14060099Y116099744D01*
X14085118Y116074726D01*
X13474141Y115463749D01*
X13650173Y115287717D01*
X13639496Y115276268D01*
X14628079Y114354399D01*
X14641721Y114359886D01*
X14659687Y114332999D01*
X14584482Y114355812D01*
X14550444Y114359164D01*
X13653749Y115255859D01*
X13477717Y115079827D01*
X13466268Y115090504D01*
X12792589Y114368072D01*
X12737680Y114368072D01*
X13445859Y115076251D01*
X13269827Y115252283D01*
X13280504Y115263732D01*
X12291921Y116185601D01*
X12031024Y116080667D01*
X11900327Y115786311D01*
X11829569Y115472113D01*
X11821467Y115150148D01*
X11876333Y114832789D01*
X11992058Y114532232D01*
X12091054Y114361627D01*
X12218697Y114320375D01*
X12215820Y114319502D01*
X12105506Y114260537D01*
X12008815Y114181185D01*
X11929463Y114084494D01*
X11870498Y113974180D01*
X11834188Y113854482D01*
X11821928Y113730000D01*
X11821928Y111730000D01*
X11834188Y111605518D01*
X11870498Y111485820D01*
X11929463Y111375506D01*
X12008815Y111278815D01*
X12105506Y111199463D01*
X12215820Y111140498D01*
X12335518Y111104188D01*
X12460000Y111091928D01*
X14460000Y111091928D01*
X14584482Y111104188D01*
X14704180Y111140498D01*
X14814494Y111199463D01*
X14911185Y111278815D01*
X14990537Y111375506D01*
X15015191Y111421630D01*
X15225537Y111281082D01*
X15523088Y111157832D01*
X15838967Y111095000D01*
X16161033Y111095000D01*
X16476912Y111157832D01*
X16774463Y111281082D01*
X17042252Y111460013D01*
X17269987Y111687748D01*
X17270000Y111687767D01*
X17270013Y111687748D01*
X17497748Y111460013D01*
X17765537Y111281082D01*
X18063088Y111157832D01*
X18378967Y111095000D01*
X18604992Y111095000D01*
X18604991Y106200020D01*
X18601194Y106161467D01*
X18604991Y106122914D01*
X18604991Y106122907D01*
X18616350Y106007581D01*
X18661237Y105859608D01*
X18734129Y105723235D01*
X18832227Y105603703D01*
X18862181Y105579120D01*
X24584991Y99856310D01*
X24584991Y97425166D01*
X24535000Y97475157D01*
X24535000Y97501939D01*
X24495226Y97701898D01*
X24417205Y97890256D01*
X24303937Y98059774D01*
X24159774Y98203937D01*
X23990256Y98317205D01*
X23801898Y98395226D01*
X23601939Y98435000D01*
X23398061Y98435000D01*
X23198102Y98395226D01*
X23009744Y98317205D01*
X22840226Y98203937D01*
X22696063Y98059774D01*
X22582795Y97890256D01*
X22504774Y97701898D01*
X22465000Y97501939D01*
X22465000Y97298061D01*
X22504774Y97098102D01*
X22582795Y96909744D01*
X22696063Y96740226D01*
X22840226Y96596063D01*
X23009744Y96482795D01*
X23198102Y96404774D01*
X23398061Y96365000D01*
X23424843Y96365000D01*
X23984981Y95804861D01*
X23984981Y94525177D01*
X16172347Y102337810D01*
X16147764Y102367764D01*
X16028233Y102465862D01*
X15891860Y102538754D01*
X15743887Y102583641D01*
X15628561Y102595000D01*
X15628553Y102595000D01*
X15590000Y102598797D01*
X15551447Y102595000D01*
X11441877Y102595000D01*
X11269987Y102852252D01*
X11042252Y103079987D01*
X11042233Y103080000D01*
X11042252Y103080013D01*
X11269987Y103307748D01*
X11448918Y103575537D01*
X11572168Y103873088D01*
X11635000Y104188967D01*
X11635000Y104511033D01*
X11572168Y104826912D01*
X11448918Y105124463D01*
X11269987Y105392252D01*
X11042252Y105619987D01*
X11029718Y105628362D01*
X11199748Y105779215D01*
X11393399Y106034618D01*
X11533502Y106322893D01*
X11590124Y106509566D01*
X11470777Y106763000D01*
X10127000Y106763000D01*
X10127000Y106743000D01*
X9873000Y106743000D01*
X9873000Y106763000D01*
X9853000Y106763000D01*
X9853000Y107017000D01*
X9873000Y107017000D01*
X9873000Y108361315D01*
X10127000Y108361315D01*
X10127000Y107017000D01*
X11470777Y107017000D01*
X11590124Y107270434D01*
X11533502Y107457107D01*
X11393399Y107745382D01*
X11199748Y108000785D01*
X10959992Y108213501D01*
X10683344Y108375356D01*
X10380435Y108480129D01*
X10127000Y108361315D01*
X9873000Y108361315D01*
X9619565Y108480129D01*
X9334999Y108381701D01*
X9334999Y113724842D01*
X11825158Y116215000D01*
X12335392Y116215000D01*
X13266251Y115284141D01*
%TD*%
M02*
