%TF.GenerationSoftware,KiCad,Pcbnew,(5.1.6)-1*%
%TF.CreationDate,2020-10-12T10:25:55+11:00*%
%TF.ProjectId,swag-badge,73776167-2d62-4616-9467-652e6b696361,rev?*%
%TF.SameCoordinates,Original*%
%TF.FileFunction,Soldermask,Bot*%
%TF.FilePolarity,Negative*%
%FSLAX46Y46*%
G04 Gerber Fmt 4.6, Leading zero omitted, Abs format (unit mm)*
G04 Created by KiCad (PCBNEW (5.1.6)-1) date 2020-10-12 10:25:55*
%MOMM*%
%LPD*%
G01*
G04 APERTURE LIST*
%ADD10C,0.010000*%
%ADD11C,2.100000*%
%ADD12C,0.100000*%
%ADD13C,4.900000*%
%ADD14O,2.500000X1.700000*%
%ADD15R,2.500000X1.700000*%
%ADD16R,2.100000X2.100000*%
%ADD17O,14.100000X3.100000*%
%ADD18C,4.100000*%
%ADD19O,2.100000X2.100000*%
%ADD20C,2.600000*%
%ADD21O,3.100000X9.100000*%
G04 APERTURE END LIST*
D10*
%TO.C,L2*%
G36*
X52202653Y70465615D02*
G01*
X52162108Y70459682D01*
X52006341Y70424016D01*
X51858439Y70369558D01*
X51719794Y70297643D01*
X51591799Y70209609D01*
X51475845Y70106791D01*
X51373324Y69990526D01*
X51285627Y69862151D01*
X51214147Y69723002D01*
X51160274Y69574415D01*
X51135444Y69473827D01*
X51122471Y69387109D01*
X51115197Y69287947D01*
X51113723Y69184321D01*
X51118150Y69084208D01*
X51128579Y68995587D01*
X51129328Y68991205D01*
X51166231Y68839912D01*
X51222192Y68695308D01*
X51295706Y68559032D01*
X51385266Y68432725D01*
X51489365Y68318029D01*
X51606497Y68216584D01*
X51735156Y68130032D01*
X51873834Y68060013D01*
X52021026Y68008169D01*
X52035376Y68004254D01*
X52185209Y67972938D01*
X52333209Y67959995D01*
X52485821Y67964933D01*
X52514154Y67967670D01*
X52661438Y67993523D01*
X52806626Y68038809D01*
X52946826Y68101848D01*
X53079144Y68180961D01*
X53200689Y68274468D01*
X53308567Y68380692D01*
X53381128Y68470964D01*
X53469008Y68608502D01*
X53536427Y68748971D01*
X53584081Y68894534D01*
X53612667Y69047354D01*
X53622881Y69209593D01*
X53622926Y69221602D01*
X53612941Y69382380D01*
X53583828Y69536379D01*
X53536852Y69682527D01*
X53473276Y69819754D01*
X53394365Y69946987D01*
X53301383Y70063156D01*
X53195594Y70167188D01*
X53078261Y70258014D01*
X52950650Y70334560D01*
X52814024Y70395757D01*
X52669647Y70440532D01*
X52518784Y70467814D01*
X52362698Y70476533D01*
X52202653Y70465615D01*
G37*
X52202653Y70465615D02*
X52162108Y70459682D01*
X52006341Y70424016D01*
X51858439Y70369558D01*
X51719794Y70297643D01*
X51591799Y70209609D01*
X51475845Y70106791D01*
X51373324Y69990526D01*
X51285627Y69862151D01*
X51214147Y69723002D01*
X51160274Y69574415D01*
X51135444Y69473827D01*
X51122471Y69387109D01*
X51115197Y69287947D01*
X51113723Y69184321D01*
X51118150Y69084208D01*
X51128579Y68995587D01*
X51129328Y68991205D01*
X51166231Y68839912D01*
X51222192Y68695308D01*
X51295706Y68559032D01*
X51385266Y68432725D01*
X51489365Y68318029D01*
X51606497Y68216584D01*
X51735156Y68130032D01*
X51873834Y68060013D01*
X52021026Y68008169D01*
X52035376Y68004254D01*
X52185209Y67972938D01*
X52333209Y67959995D01*
X52485821Y67964933D01*
X52514154Y67967670D01*
X52661438Y67993523D01*
X52806626Y68038809D01*
X52946826Y68101848D01*
X53079144Y68180961D01*
X53200689Y68274468D01*
X53308567Y68380692D01*
X53381128Y68470964D01*
X53469008Y68608502D01*
X53536427Y68748971D01*
X53584081Y68894534D01*
X53612667Y69047354D01*
X53622881Y69209593D01*
X53622926Y69221602D01*
X53612941Y69382380D01*
X53583828Y69536379D01*
X53536852Y69682527D01*
X53473276Y69819754D01*
X53394365Y69946987D01*
X53301383Y70063156D01*
X53195594Y70167188D01*
X53078261Y70258014D01*
X52950650Y70334560D01*
X52814024Y70395757D01*
X52669647Y70440532D01*
X52518784Y70467814D01*
X52362698Y70476533D01*
X52202653Y70465615D01*
G36*
X62351446Y71512548D02*
G01*
X62267750Y71509762D01*
X62197617Y71504927D01*
X62177546Y71502772D01*
X61958350Y71465736D01*
X61745627Y71408630D01*
X61540164Y71331781D01*
X61342743Y71235516D01*
X61154151Y71120160D01*
X61016176Y71019111D01*
X60959367Y70971023D01*
X60894304Y70910579D01*
X60825435Y70842368D01*
X60757209Y70770978D01*
X60694073Y70700997D01*
X60640475Y70637013D01*
X60619704Y70610130D01*
X60499101Y70431424D01*
X60397328Y70244918D01*
X60314291Y70051973D01*
X60249898Y69853950D01*
X60204055Y69652208D01*
X60176670Y69448109D01*
X60167649Y69243013D01*
X60176899Y69038280D01*
X60204328Y68835271D01*
X60249841Y68635346D01*
X60313347Y68439866D01*
X60394751Y68250191D01*
X60493961Y68067683D01*
X60610884Y67893700D01*
X60745427Y67729604D01*
X60822304Y67648652D01*
X60986721Y67498408D01*
X61161286Y67366627D01*
X61345404Y67253523D01*
X61538477Y67159311D01*
X61739911Y67084206D01*
X61949111Y67028421D01*
X62165479Y66992173D01*
X62388421Y66975674D01*
X62617342Y66979141D01*
X62670154Y66982737D01*
X62883759Y67009801D01*
X63092303Y67056934D01*
X63294536Y67123375D01*
X63489212Y67208363D01*
X63675084Y67311139D01*
X63850903Y67430942D01*
X64015421Y67567010D01*
X64167393Y67718585D01*
X64305569Y67884905D01*
X64418159Y68048254D01*
X64513826Y68218742D01*
X64595762Y68402427D01*
X64662492Y68595237D01*
X64712544Y68793102D01*
X64735953Y68926051D01*
X64745218Y69010277D01*
X64751210Y69108239D01*
X64753933Y69213856D01*
X64753390Y69321048D01*
X64749583Y69423735D01*
X64742516Y69515837D01*
X64735627Y69570780D01*
X64701232Y69753260D01*
X64655012Y69924075D01*
X64594726Y70090444D01*
X64527959Y70239518D01*
X64423512Y70431106D01*
X64302777Y70609806D01*
X64166839Y70774839D01*
X64016781Y70925424D01*
X63853688Y71060784D01*
X63678645Y71180137D01*
X63492736Y71282705D01*
X63297044Y71367708D01*
X63092655Y71434367D01*
X62880652Y71481902D01*
X62778136Y71497486D01*
X62710298Y71504201D01*
X62628132Y71509114D01*
X62537215Y71512175D01*
X62443127Y71513336D01*
X62351446Y71512548D01*
G37*
X62351446Y71512548D02*
X62267750Y71509762D01*
X62197617Y71504927D01*
X62177546Y71502772D01*
X61958350Y71465736D01*
X61745627Y71408630D01*
X61540164Y71331781D01*
X61342743Y71235516D01*
X61154151Y71120160D01*
X61016176Y71019111D01*
X60959367Y70971023D01*
X60894304Y70910579D01*
X60825435Y70842368D01*
X60757209Y70770978D01*
X60694073Y70700997D01*
X60640475Y70637013D01*
X60619704Y70610130D01*
X60499101Y70431424D01*
X60397328Y70244918D01*
X60314291Y70051973D01*
X60249898Y69853950D01*
X60204055Y69652208D01*
X60176670Y69448109D01*
X60167649Y69243013D01*
X60176899Y69038280D01*
X60204328Y68835271D01*
X60249841Y68635346D01*
X60313347Y68439866D01*
X60394751Y68250191D01*
X60493961Y68067683D01*
X60610884Y67893700D01*
X60745427Y67729604D01*
X60822304Y67648652D01*
X60986721Y67498408D01*
X61161286Y67366627D01*
X61345404Y67253523D01*
X61538477Y67159311D01*
X61739911Y67084206D01*
X61949111Y67028421D01*
X62165479Y66992173D01*
X62388421Y66975674D01*
X62617342Y66979141D01*
X62670154Y66982737D01*
X62883759Y67009801D01*
X63092303Y67056934D01*
X63294536Y67123375D01*
X63489212Y67208363D01*
X63675084Y67311139D01*
X63850903Y67430942D01*
X64015421Y67567010D01*
X64167393Y67718585D01*
X64305569Y67884905D01*
X64418159Y68048254D01*
X64513826Y68218742D01*
X64595762Y68402427D01*
X64662492Y68595237D01*
X64712544Y68793102D01*
X64735953Y68926051D01*
X64745218Y69010277D01*
X64751210Y69108239D01*
X64753933Y69213856D01*
X64753390Y69321048D01*
X64749583Y69423735D01*
X64742516Y69515837D01*
X64735627Y69570780D01*
X64701232Y69753260D01*
X64655012Y69924075D01*
X64594726Y70090444D01*
X64527959Y70239518D01*
X64423512Y70431106D01*
X64302777Y70609806D01*
X64166839Y70774839D01*
X64016781Y70925424D01*
X63853688Y71060784D01*
X63678645Y71180137D01*
X63492736Y71282705D01*
X63297044Y71367708D01*
X63092655Y71434367D01*
X62880652Y71481902D01*
X62778136Y71497486D01*
X62710298Y71504201D01*
X62628132Y71509114D01*
X62537215Y71512175D01*
X62443127Y71513336D01*
X62351446Y71512548D01*
G36*
X64547005Y63756675D02*
G01*
X64454887Y63754272D01*
X64373899Y63749731D01*
X64316548Y63743997D01*
X64077040Y63702507D01*
X63847363Y63642293D01*
X63627136Y63563180D01*
X63415979Y63464995D01*
X63213511Y63347565D01*
X63019354Y63210714D01*
X62860115Y63078589D01*
X62815158Y63036965D01*
X62767520Y62990115D01*
X62719611Y62940718D01*
X62673843Y62891454D01*
X62632626Y62845004D01*
X62598371Y62804046D01*
X62573490Y62771262D01*
X62560392Y62749330D01*
X62558983Y62743856D01*
X62561461Y62727467D01*
X62568307Y62694514D01*
X62578635Y62648947D01*
X62591562Y62594716D01*
X62600470Y62558569D01*
X62679971Y62198055D01*
X62738354Y61838243D01*
X62775646Y61478730D01*
X62791875Y61119111D01*
X62787068Y60758979D01*
X62761255Y60397931D01*
X62753809Y60327679D01*
X62730875Y60149969D01*
X62700697Y59960180D01*
X62664560Y59765612D01*
X62623751Y59573568D01*
X62612380Y59524299D01*
X62590304Y59430298D01*
X62619549Y59391956D01*
X62648359Y59357720D01*
X62689693Y59313312D01*
X62739920Y59262255D01*
X62795412Y59208071D01*
X62852541Y59154280D01*
X62907676Y59104406D01*
X62957189Y59061969D01*
X62971905Y59050014D01*
X63163680Y58910343D01*
X63366197Y58788550D01*
X63578116Y58685206D01*
X63798094Y58600882D01*
X64024790Y58536147D01*
X64256862Y58491572D01*
X64298562Y58485804D01*
X64368442Y58478967D01*
X64453783Y58474175D01*
X64549255Y58471423D01*
X64649526Y58470702D01*
X64749264Y58472004D01*
X64843139Y58475323D01*
X64925819Y58480650D01*
X64983576Y58486787D01*
X65211167Y58528023D01*
X65435127Y58589089D01*
X65653196Y58669062D01*
X65863113Y58767022D01*
X66062619Y58882046D01*
X66219887Y58990719D01*
X66402994Y59140857D01*
X66570437Y59304938D01*
X66721721Y59482125D01*
X66856349Y59671584D01*
X66973825Y59872479D01*
X67073652Y60083975D01*
X67155334Y60305237D01*
X67218375Y60535429D01*
X67256595Y60735307D01*
X67265054Y60807159D01*
X67271181Y60894959D01*
X67274977Y60993606D01*
X67276440Y61098000D01*
X67275571Y61203041D01*
X67272369Y61303630D01*
X67266833Y61394667D01*
X67258963Y61471051D01*
X67256665Y61487037D01*
X67209950Y61726466D01*
X67145276Y61954756D01*
X67062451Y62172290D01*
X66961281Y62379453D01*
X66841575Y62576626D01*
X66703138Y62764195D01*
X66545780Y62942543D01*
X66503456Y62985739D01*
X66327678Y63147463D01*
X66142617Y63290267D01*
X65947967Y63414302D01*
X65743420Y63519720D01*
X65528671Y63606674D01*
X65303414Y63675315D01*
X65067343Y63725796D01*
X64988870Y63738227D01*
X64920678Y63745827D01*
X64837090Y63751517D01*
X64743412Y63755252D01*
X64644948Y63756987D01*
X64547005Y63756675D01*
G37*
X64547005Y63756675D02*
X64454887Y63754272D01*
X64373899Y63749731D01*
X64316548Y63743997D01*
X64077040Y63702507D01*
X63847363Y63642293D01*
X63627136Y63563180D01*
X63415979Y63464995D01*
X63213511Y63347565D01*
X63019354Y63210714D01*
X62860115Y63078589D01*
X62815158Y63036965D01*
X62767520Y62990115D01*
X62719611Y62940718D01*
X62673843Y62891454D01*
X62632626Y62845004D01*
X62598371Y62804046D01*
X62573490Y62771262D01*
X62560392Y62749330D01*
X62558983Y62743856D01*
X62561461Y62727467D01*
X62568307Y62694514D01*
X62578635Y62648947D01*
X62591562Y62594716D01*
X62600470Y62558569D01*
X62679971Y62198055D01*
X62738354Y61838243D01*
X62775646Y61478730D01*
X62791875Y61119111D01*
X62787068Y60758979D01*
X62761255Y60397931D01*
X62753809Y60327679D01*
X62730875Y60149969D01*
X62700697Y59960180D01*
X62664560Y59765612D01*
X62623751Y59573568D01*
X62612380Y59524299D01*
X62590304Y59430298D01*
X62619549Y59391956D01*
X62648359Y59357720D01*
X62689693Y59313312D01*
X62739920Y59262255D01*
X62795412Y59208071D01*
X62852541Y59154280D01*
X62907676Y59104406D01*
X62957189Y59061969D01*
X62971905Y59050014D01*
X63163680Y58910343D01*
X63366197Y58788550D01*
X63578116Y58685206D01*
X63798094Y58600882D01*
X64024790Y58536147D01*
X64256862Y58491572D01*
X64298562Y58485804D01*
X64368442Y58478967D01*
X64453783Y58474175D01*
X64549255Y58471423D01*
X64649526Y58470702D01*
X64749264Y58472004D01*
X64843139Y58475323D01*
X64925819Y58480650D01*
X64983576Y58486787D01*
X65211167Y58528023D01*
X65435127Y58589089D01*
X65653196Y58669062D01*
X65863113Y58767022D01*
X66062619Y58882046D01*
X66219887Y58990719D01*
X66402994Y59140857D01*
X66570437Y59304938D01*
X66721721Y59482125D01*
X66856349Y59671584D01*
X66973825Y59872479D01*
X67073652Y60083975D01*
X67155334Y60305237D01*
X67218375Y60535429D01*
X67256595Y60735307D01*
X67265054Y60807159D01*
X67271181Y60894959D01*
X67274977Y60993606D01*
X67276440Y61098000D01*
X67275571Y61203041D01*
X67272369Y61303630D01*
X67266833Y61394667D01*
X67258963Y61471051D01*
X67256665Y61487037D01*
X67209950Y61726466D01*
X67145276Y61954756D01*
X67062451Y62172290D01*
X66961281Y62379453D01*
X66841575Y62576626D01*
X66703138Y62764195D01*
X66545780Y62942543D01*
X66503456Y62985739D01*
X66327678Y63147463D01*
X66142617Y63290267D01*
X65947967Y63414302D01*
X65743420Y63519720D01*
X65528671Y63606674D01*
X65303414Y63675315D01*
X65067343Y63725796D01*
X64988870Y63738227D01*
X64920678Y63745827D01*
X64837090Y63751517D01*
X64743412Y63755252D01*
X64644948Y63756987D01*
X64547005Y63756675D01*
G36*
X46011761Y59655633D02*
G01*
X45904174Y59644972D01*
X45801798Y59625888D01*
X45697096Y59597206D01*
X45660942Y59585498D01*
X45500697Y59520966D01*
X45350635Y59438653D01*
X45211961Y59339956D01*
X45085881Y59226271D01*
X44973599Y59098997D01*
X44876321Y58959529D01*
X44795251Y58809265D01*
X44731594Y58649601D01*
X44686555Y58481935D01*
X44680031Y58448354D01*
X44669821Y58372538D01*
X44663652Y58283753D01*
X44661518Y58188614D01*
X44663414Y58093738D01*
X44669332Y58005744D01*
X44679268Y57931247D01*
X44680511Y57924645D01*
X44724581Y57750801D01*
X44786600Y57586797D01*
X44865489Y57433647D01*
X44960169Y57292366D01*
X45069564Y57163968D01*
X45192595Y57049469D01*
X45328184Y56949882D01*
X45475253Y56866222D01*
X45632725Y56799505D01*
X45799520Y56750745D01*
X45957121Y56723002D01*
X46018294Y56717641D01*
X46090869Y56714581D01*
X46166429Y56713916D01*
X46236557Y56715741D01*
X46285619Y56719321D01*
X46461046Y56748487D01*
X46629237Y56797390D01*
X46789193Y56865551D01*
X46939914Y56952493D01*
X47080401Y57057735D01*
X47175380Y57145301D01*
X47291439Y57275663D01*
X47388871Y57414000D01*
X47468009Y57558894D01*
X47529188Y57708926D01*
X47572743Y57862677D01*
X47599008Y58018729D01*
X47608319Y58175662D01*
X47601009Y58332059D01*
X47577414Y58486499D01*
X47537867Y58637566D01*
X47482704Y58783839D01*
X47412259Y58923900D01*
X47326866Y59056331D01*
X47226862Y59179712D01*
X47112579Y59292626D01*
X46984352Y59393652D01*
X46842517Y59481373D01*
X46687408Y59554370D01*
X46599559Y59586727D01*
X46492823Y59618667D01*
X46390893Y59640545D01*
X46286201Y59653532D01*
X46171180Y59658799D01*
X46132097Y59659047D01*
X46011761Y59655633D01*
G37*
X46011761Y59655633D02*
X45904174Y59644972D01*
X45801798Y59625888D01*
X45697096Y59597206D01*
X45660942Y59585498D01*
X45500697Y59520966D01*
X45350635Y59438653D01*
X45211961Y59339956D01*
X45085881Y59226271D01*
X44973599Y59098997D01*
X44876321Y58959529D01*
X44795251Y58809265D01*
X44731594Y58649601D01*
X44686555Y58481935D01*
X44680031Y58448354D01*
X44669821Y58372538D01*
X44663652Y58283753D01*
X44661518Y58188614D01*
X44663414Y58093738D01*
X44669332Y58005744D01*
X44679268Y57931247D01*
X44680511Y57924645D01*
X44724581Y57750801D01*
X44786600Y57586797D01*
X44865489Y57433647D01*
X44960169Y57292366D01*
X45069564Y57163968D01*
X45192595Y57049469D01*
X45328184Y56949882D01*
X45475253Y56866222D01*
X45632725Y56799505D01*
X45799520Y56750745D01*
X45957121Y56723002D01*
X46018294Y56717641D01*
X46090869Y56714581D01*
X46166429Y56713916D01*
X46236557Y56715741D01*
X46285619Y56719321D01*
X46461046Y56748487D01*
X46629237Y56797390D01*
X46789193Y56865551D01*
X46939914Y56952493D01*
X47080401Y57057735D01*
X47175380Y57145301D01*
X47291439Y57275663D01*
X47388871Y57414000D01*
X47468009Y57558894D01*
X47529188Y57708926D01*
X47572743Y57862677D01*
X47599008Y58018729D01*
X47608319Y58175662D01*
X47601009Y58332059D01*
X47577414Y58486499D01*
X47537867Y58637566D01*
X47482704Y58783839D01*
X47412259Y58923900D01*
X47326866Y59056331D01*
X47226862Y59179712D01*
X47112579Y59292626D01*
X46984352Y59393652D01*
X46842517Y59481373D01*
X46687408Y59554370D01*
X46599559Y59586727D01*
X46492823Y59618667D01*
X46390893Y59640545D01*
X46286201Y59653532D01*
X46171180Y59658799D01*
X46132097Y59659047D01*
X46011761Y59655633D01*
G36*
X51939675Y53765668D02*
G01*
X51865024Y53760808D01*
X51847373Y53758907D01*
X51651383Y53725134D01*
X51462236Y53672125D01*
X51281079Y53600917D01*
X51109064Y53512545D01*
X50947338Y53408045D01*
X50797053Y53288452D01*
X50659358Y53154804D01*
X50535401Y53008134D01*
X50426333Y52849481D01*
X50333303Y52679878D01*
X50257461Y52500363D01*
X50199955Y52311971D01*
X50188728Y52264278D01*
X50153960Y52060687D01*
X50140263Y51858846D01*
X50147586Y51659164D01*
X50175879Y51462047D01*
X50225089Y51267902D01*
X50295168Y51077138D01*
X50351443Y50956024D01*
X50451545Y50780432D01*
X50568012Y50618060D01*
X50700125Y50469619D01*
X50847167Y50335817D01*
X51008419Y50217364D01*
X51183162Y50114969D01*
X51224802Y50093952D01*
X51410965Y50014332D01*
X51603161Y49954845D01*
X51800275Y49915692D01*
X52001192Y49897074D01*
X52204795Y49899190D01*
X52275797Y49904800D01*
X52464158Y49933289D01*
X52650296Y49981475D01*
X52831880Y50048152D01*
X53006578Y50132115D01*
X53172060Y50232159D01*
X53325996Y50347080D01*
X53466053Y50475673D01*
X53543518Y50560128D01*
X53665457Y50717762D01*
X53770805Y50886083D01*
X53858618Y51062972D01*
X53927955Y51246309D01*
X53977874Y51433973D01*
X54004572Y51597368D01*
X54011647Y51687094D01*
X54014210Y51789406D01*
X54012515Y51898063D01*
X54006818Y52006824D01*
X53997373Y52109445D01*
X53984436Y52199685D01*
X53978793Y52228789D01*
X53926809Y52425031D01*
X53856364Y52611869D01*
X53768406Y52788366D01*
X53663883Y52953586D01*
X53543743Y53106590D01*
X53408933Y53246442D01*
X53260403Y53372205D01*
X53099101Y53482941D01*
X52925973Y53577714D01*
X52741970Y53655585D01*
X52548037Y53715618D01*
X52452365Y53737686D01*
X52387102Y53748173D01*
X52306325Y53756593D01*
X52215615Y53762747D01*
X52120550Y53766442D01*
X52026711Y53767481D01*
X51939675Y53765668D01*
G37*
X51939675Y53765668D02*
X51865024Y53760808D01*
X51847373Y53758907D01*
X51651383Y53725134D01*
X51462236Y53672125D01*
X51281079Y53600917D01*
X51109064Y53512545D01*
X50947338Y53408045D01*
X50797053Y53288452D01*
X50659358Y53154804D01*
X50535401Y53008134D01*
X50426333Y52849481D01*
X50333303Y52679878D01*
X50257461Y52500363D01*
X50199955Y52311971D01*
X50188728Y52264278D01*
X50153960Y52060687D01*
X50140263Y51858846D01*
X50147586Y51659164D01*
X50175879Y51462047D01*
X50225089Y51267902D01*
X50295168Y51077138D01*
X50351443Y50956024D01*
X50451545Y50780432D01*
X50568012Y50618060D01*
X50700125Y50469619D01*
X50847167Y50335817D01*
X51008419Y50217364D01*
X51183162Y50114969D01*
X51224802Y50093952D01*
X51410965Y50014332D01*
X51603161Y49954845D01*
X51800275Y49915692D01*
X52001192Y49897074D01*
X52204795Y49899190D01*
X52275797Y49904800D01*
X52464158Y49933289D01*
X52650296Y49981475D01*
X52831880Y50048152D01*
X53006578Y50132115D01*
X53172060Y50232159D01*
X53325996Y50347080D01*
X53466053Y50475673D01*
X53543518Y50560128D01*
X53665457Y50717762D01*
X53770805Y50886083D01*
X53858618Y51062972D01*
X53927955Y51246309D01*
X53977874Y51433973D01*
X54004572Y51597368D01*
X54011647Y51687094D01*
X54014210Y51789406D01*
X54012515Y51898063D01*
X54006818Y52006824D01*
X53997373Y52109445D01*
X53984436Y52199685D01*
X53978793Y52228789D01*
X53926809Y52425031D01*
X53856364Y52611869D01*
X53768406Y52788366D01*
X53663883Y52953586D01*
X53543743Y53106590D01*
X53408933Y53246442D01*
X53260403Y53372205D01*
X53099101Y53482941D01*
X52925973Y53577714D01*
X52741970Y53655585D01*
X52548037Y53715618D01*
X52452365Y53737686D01*
X52387102Y53748173D01*
X52306325Y53756593D01*
X52215615Y53762747D01*
X52120550Y53766442D01*
X52026711Y53767481D01*
X51939675Y53765668D01*
%TO.C,L4*%
G36*
X40907849Y89385787D02*
G01*
X40889371Y89371655D01*
X40885225Y89367046D01*
X40881659Y89361101D01*
X40878629Y89352294D01*
X40876091Y89339097D01*
X40874002Y89319985D01*
X40872318Y89293431D01*
X40870995Y89257907D01*
X40869991Y89211888D01*
X40869260Y89153847D01*
X40868760Y89082257D01*
X40868448Y88995592D01*
X40868278Y88892324D01*
X40868209Y88770928D01*
X40868195Y88630513D01*
X40868209Y88489547D01*
X40868279Y88368230D01*
X40868449Y88265036D01*
X40868762Y88178437D01*
X40869263Y88106907D01*
X40869994Y88048920D01*
X40871000Y88002948D01*
X40872324Y87967466D01*
X40874010Y87940946D01*
X40876101Y87921861D01*
X40878640Y87908687D01*
X40881673Y87899895D01*
X40885241Y87893958D01*
X40889371Y87889371D01*
X40895875Y87883195D01*
X40903133Y87878203D01*
X40913028Y87874437D01*
X40927441Y87871938D01*
X40948254Y87870745D01*
X40977349Y87870901D01*
X41016607Y87872447D01*
X41067911Y87875423D01*
X41133143Y87879870D01*
X41214184Y87885830D01*
X41312916Y87893343D01*
X41408170Y87900675D01*
X41497337Y87907515D01*
X41580517Y87913837D01*
X41655181Y87919452D01*
X41718802Y87924172D01*
X41768852Y87927811D01*
X41802802Y87930180D01*
X41818033Y87931090D01*
X41842215Y87939048D01*
X41863031Y87954893D01*
X41867437Y87960055D01*
X41871199Y87966425D01*
X41874368Y87975608D01*
X41876994Y87989211D01*
X41879128Y88008841D01*
X41880822Y88036104D01*
X41882126Y88072606D01*
X41883091Y88119953D01*
X41883768Y88179752D01*
X41884209Y88253609D01*
X41884463Y88343130D01*
X41884582Y88449922D01*
X41884617Y88575592D01*
X41884619Y88635957D01*
X41884619Y89293849D01*
X41860796Y89316093D01*
X41853907Y89321598D01*
X41844674Y89326346D01*
X41831121Y89330543D01*
X41811274Y89334398D01*
X41783156Y89338118D01*
X41744792Y89341913D01*
X41694206Y89345990D01*
X41629422Y89350556D01*
X41548466Y89355820D01*
X41449361Y89361990D01*
X41390680Y89365584D01*
X41295086Y89371396D01*
X41205710Y89376784D01*
X41124839Y89381614D01*
X41054763Y89385751D01*
X40997769Y89389061D01*
X40956146Y89391408D01*
X40932183Y89392658D01*
X40927466Y89392830D01*
X40907849Y89385787D01*
G37*
X40907849Y89385787D02*
X40889371Y89371655D01*
X40885225Y89367046D01*
X40881659Y89361101D01*
X40878629Y89352294D01*
X40876091Y89339097D01*
X40874002Y89319985D01*
X40872318Y89293431D01*
X40870995Y89257907D01*
X40869991Y89211888D01*
X40869260Y89153847D01*
X40868760Y89082257D01*
X40868448Y88995592D01*
X40868278Y88892324D01*
X40868209Y88770928D01*
X40868195Y88630513D01*
X40868209Y88489547D01*
X40868279Y88368230D01*
X40868449Y88265036D01*
X40868762Y88178437D01*
X40869263Y88106907D01*
X40869994Y88048920D01*
X40871000Y88002948D01*
X40872324Y87967466D01*
X40874010Y87940946D01*
X40876101Y87921861D01*
X40878640Y87908687D01*
X40881673Y87899895D01*
X40885241Y87893958D01*
X40889371Y87889371D01*
X40895875Y87883195D01*
X40903133Y87878203D01*
X40913028Y87874437D01*
X40927441Y87871938D01*
X40948254Y87870745D01*
X40977349Y87870901D01*
X41016607Y87872447D01*
X41067911Y87875423D01*
X41133143Y87879870D01*
X41214184Y87885830D01*
X41312916Y87893343D01*
X41408170Y87900675D01*
X41497337Y87907515D01*
X41580517Y87913837D01*
X41655181Y87919452D01*
X41718802Y87924172D01*
X41768852Y87927811D01*
X41802802Y87930180D01*
X41818033Y87931090D01*
X41842215Y87939048D01*
X41863031Y87954893D01*
X41867437Y87960055D01*
X41871199Y87966425D01*
X41874368Y87975608D01*
X41876994Y87989211D01*
X41879128Y88008841D01*
X41880822Y88036104D01*
X41882126Y88072606D01*
X41883091Y88119953D01*
X41883768Y88179752D01*
X41884209Y88253609D01*
X41884463Y88343130D01*
X41884582Y88449922D01*
X41884617Y88575592D01*
X41884619Y88635957D01*
X41884619Y89293849D01*
X41860796Y89316093D01*
X41853907Y89321598D01*
X41844674Y89326346D01*
X41831121Y89330543D01*
X41811274Y89334398D01*
X41783156Y89338118D01*
X41744792Y89341913D01*
X41694206Y89345990D01*
X41629422Y89350556D01*
X41548466Y89355820D01*
X41449361Y89361990D01*
X41390680Y89365584D01*
X41295086Y89371396D01*
X41205710Y89376784D01*
X41124839Y89381614D01*
X41054763Y89385751D01*
X40997769Y89389061D01*
X40956146Y89391408D01*
X40932183Y89392658D01*
X40927466Y89392830D01*
X40907849Y89385787D01*
G36*
X36536747Y91800389D02*
G01*
X36502762Y91786306D01*
X36476741Y91772499D01*
X36453961Y91755095D01*
X36429701Y91730218D01*
X36399238Y91693993D01*
X36383799Y91674886D01*
X36344410Y91622869D01*
X36302674Y91562826D01*
X36265062Y91504253D01*
X36249251Y91477472D01*
X36179732Y91365367D01*
X36097035Y91252059D01*
X35998627Y91134165D01*
X35960891Y91092163D01*
X35915592Y91040916D01*
X35866979Y90983201D01*
X35821380Y90926665D01*
X35789955Y90885574D01*
X35748454Y90833390D01*
X35698436Y90776614D01*
X35647814Y90724021D01*
X35623086Y90700515D01*
X35575020Y90654763D01*
X35538255Y90614006D01*
X35506870Y90570917D01*
X35474946Y90518168D01*
X35472936Y90514628D01*
X35447724Y90468407D01*
X35428888Y90428477D01*
X35414050Y90388272D01*
X35400834Y90341227D01*
X35386864Y90280775D01*
X35384716Y90270882D01*
X35372233Y90211528D01*
X35364032Y90165880D01*
X35359573Y90127025D01*
X35358315Y90088053D01*
X35359719Y90042048D01*
X35362756Y89989805D01*
X35366601Y89932608D01*
X35370645Y89890737D01*
X35376301Y89858377D01*
X35384984Y89829713D01*
X35398108Y89798930D01*
X35417086Y89760213D01*
X35419984Y89754439D01*
X35440302Y89713138D01*
X35456429Y89678746D01*
X35466322Y89655717D01*
X35468445Y89648823D01*
X35460806Y89639051D01*
X35439802Y89618360D01*
X35408301Y89589425D01*
X35369171Y89554923D01*
X35351936Y89540088D01*
X35235427Y89440475D01*
X35149305Y89271071D01*
X35120292Y89213664D01*
X35097934Y89167661D01*
X35080579Y89128302D01*
X35066575Y89090828D01*
X35054274Y89050479D01*
X35042022Y89002496D01*
X35028170Y88942119D01*
X35015839Y88886304D01*
X34968495Y88670941D01*
X34885828Y88524118D01*
X34854231Y88467129D01*
X34830114Y88420564D01*
X34811126Y88378566D01*
X34794915Y88335275D01*
X34779128Y88284832D01*
X34761415Y88221377D01*
X34755529Y88199506D01*
X34727444Y88080537D01*
X34704328Y87950986D01*
X34685914Y87808588D01*
X34671936Y87651078D01*
X34662126Y87476193D01*
X34658532Y87375865D01*
X34656473Y87294457D01*
X34655850Y87226923D01*
X34656938Y87166922D01*
X34660014Y87108113D01*
X34665352Y87044157D01*
X34673231Y86968711D01*
X34678155Y86925161D01*
X34686831Y86851272D01*
X34694643Y86791029D01*
X34702634Y86739525D01*
X34711847Y86691858D01*
X34723324Y86643121D01*
X34738107Y86588408D01*
X34757238Y86522817D01*
X34779077Y86450294D01*
X34853780Y86203787D01*
X34749279Y85921631D01*
X34720057Y85842516D01*
X34691325Y85764331D01*
X34664478Y85690902D01*
X34640910Y85626053D01*
X34622016Y85573610D01*
X34609712Y85538891D01*
X34594335Y85498218D01*
X34576250Y85458108D01*
X34553391Y85414832D01*
X34523692Y85364660D01*
X34485087Y85303862D01*
X34449807Y85250194D01*
X34324969Y85062081D01*
X34324981Y84792455D01*
X34449381Y84716157D01*
X34499101Y84683746D01*
X34559379Y84641461D01*
X34624772Y84593296D01*
X34689835Y84543244D01*
X34738863Y84503808D01*
X34903946Y84367756D01*
X35141198Y84281708D01*
X35378449Y84195660D01*
X35696082Y84169112D01*
X35793496Y84161594D01*
X35899913Y84154452D01*
X36009027Y84148038D01*
X36114536Y84142703D01*
X36210134Y84138797D01*
X36273114Y84136983D01*
X36532514Y84131402D01*
X36709219Y84172055D01*
X36785204Y84190958D01*
X36863476Y84212901D01*
X36936719Y84235704D01*
X36997616Y84257190D01*
X37005675Y84260340D01*
X37062041Y84282044D01*
X37120617Y84303407D01*
X37173501Y84321605D01*
X37204835Y84331524D01*
X37245167Y84344753D01*
X37277064Y84359394D01*
X37307166Y84379492D01*
X37342114Y84409090D01*
X37361605Y84426969D01*
X37438966Y84498862D01*
X37407144Y84666834D01*
X37396716Y84722688D01*
X37388951Y84768135D01*
X37383553Y84807777D01*
X37380229Y84846214D01*
X37378681Y84888049D01*
X37378616Y84937882D01*
X37379739Y85000315D01*
X37381432Y85067737D01*
X37387542Y85300667D01*
X37270654Y85650063D01*
X37188288Y85899696D01*
X37114473Y86130657D01*
X37049019Y86343563D01*
X36991737Y86539028D01*
X36946192Y86703612D01*
X36889535Y86915116D01*
X36923713Y87134903D01*
X36957891Y87354689D01*
X37408023Y88688745D01*
X37437986Y88921676D01*
X37467949Y89154606D01*
X37578406Y89461651D01*
X37609584Y89548152D01*
X37634962Y89617666D01*
X37655890Y89673139D01*
X37673717Y89717516D01*
X37689791Y89753743D01*
X37705462Y89784766D01*
X37722079Y89813531D01*
X37740990Y89842982D01*
X37763545Y89876066D01*
X37777207Y89895748D01*
X37810047Y89941696D01*
X37852907Y89999748D01*
X37902490Y90065545D01*
X37955497Y90134728D01*
X38008632Y90202937D01*
X38031866Y90232355D01*
X38081155Y90293927D01*
X38125086Y90347318D01*
X38166546Y90395604D01*
X38208419Y90441864D01*
X38253589Y90489174D01*
X38304941Y90540613D01*
X38365359Y90599257D01*
X38437730Y90668185D01*
X38461179Y90690362D01*
X38724177Y90938815D01*
X38856524Y90932102D01*
X38988870Y90925388D01*
X39112341Y90860548D01*
X39235812Y90795707D01*
X39367514Y90458425D01*
X39361969Y90245907D01*
X39356343Y90117079D01*
X39345911Y89991066D01*
X39330052Y89864006D01*
X39308142Y89732036D01*
X39279559Y89591295D01*
X39243678Y89437921D01*
X39211038Y89310120D01*
X39188378Y89223717D01*
X39170733Y89155393D01*
X39157653Y89102768D01*
X39148688Y89063462D01*
X39143388Y89035096D01*
X39141301Y89015290D01*
X39141978Y89001664D01*
X39144968Y88991839D01*
X39149346Y88984156D01*
X39164885Y88966617D01*
X39177622Y88961653D01*
X39184752Y88971817D01*
X39199600Y88998812D01*
X39220971Y89040258D01*
X39247668Y89093779D01*
X39278495Y89156996D01*
X39312255Y89227533D01*
X39325648Y89255854D01*
X39376349Y89364997D01*
X39419157Y89461012D01*
X39456314Y89549362D01*
X39490061Y89635511D01*
X39522639Y89724924D01*
X39546893Y89795165D01*
X39631219Y90043977D01*
X39640223Y90292789D01*
X39649228Y90541601D01*
X39610649Y90679210D01*
X39572069Y90816819D01*
X39460662Y90933316D01*
X39416353Y90979150D01*
X39381265Y91013333D01*
X39350230Y91039750D01*
X39318080Y91062286D01*
X39279649Y91084828D01*
X39229768Y91111260D01*
X39211414Y91120727D01*
X39073572Y91191641D01*
X38939902Y91192194D01*
X38885542Y91192930D01*
X38836010Y91194527D01*
X38796732Y91196751D01*
X38773134Y91199367D01*
X38772960Y91199401D01*
X38755844Y91206011D01*
X38735260Y91220890D01*
X38708775Y91246325D01*
X38673958Y91284606D01*
X38638784Y91325643D01*
X38563181Y91408401D01*
X38484224Y91479961D01*
X38395264Y91545974D01*
X38330848Y91587406D01*
X38315837Y91593544D01*
X38285072Y91604068D01*
X38243136Y91617465D01*
X38197902Y91631247D01*
X38135127Y91648505D01*
X38076387Y91660995D01*
X38013732Y91670086D01*
X37939208Y91677144D01*
X37924802Y91678239D01*
X37866081Y91682027D01*
X37811347Y91684550D01*
X37765795Y91685639D01*
X37734616Y91685123D01*
X37728929Y91684640D01*
X37706150Y91682261D01*
X37665970Y91678363D01*
X37612080Y91673290D01*
X37548173Y91667389D01*
X37477939Y91661005D01*
X37446045Y91658139D01*
X37366906Y91651185D01*
X37304465Y91646222D01*
X37254347Y91643197D01*
X37212174Y91642055D01*
X37173568Y91642743D01*
X37134154Y91645206D01*
X37089552Y91649392D01*
X37053002Y91653307D01*
X36900492Y91670020D01*
X36756620Y91750113D01*
X36612747Y91830207D01*
X36536747Y91800389D01*
G37*
X36536747Y91800389D02*
X36502762Y91786306D01*
X36476741Y91772499D01*
X36453961Y91755095D01*
X36429701Y91730218D01*
X36399238Y91693993D01*
X36383799Y91674886D01*
X36344410Y91622869D01*
X36302674Y91562826D01*
X36265062Y91504253D01*
X36249251Y91477472D01*
X36179732Y91365367D01*
X36097035Y91252059D01*
X35998627Y91134165D01*
X35960891Y91092163D01*
X35915592Y91040916D01*
X35866979Y90983201D01*
X35821380Y90926665D01*
X35789955Y90885574D01*
X35748454Y90833390D01*
X35698436Y90776614D01*
X35647814Y90724021D01*
X35623086Y90700515D01*
X35575020Y90654763D01*
X35538255Y90614006D01*
X35506870Y90570917D01*
X35474946Y90518168D01*
X35472936Y90514628D01*
X35447724Y90468407D01*
X35428888Y90428477D01*
X35414050Y90388272D01*
X35400834Y90341227D01*
X35386864Y90280775D01*
X35384716Y90270882D01*
X35372233Y90211528D01*
X35364032Y90165880D01*
X35359573Y90127025D01*
X35358315Y90088053D01*
X35359719Y90042048D01*
X35362756Y89989805D01*
X35366601Y89932608D01*
X35370645Y89890737D01*
X35376301Y89858377D01*
X35384984Y89829713D01*
X35398108Y89798930D01*
X35417086Y89760213D01*
X35419984Y89754439D01*
X35440302Y89713138D01*
X35456429Y89678746D01*
X35466322Y89655717D01*
X35468445Y89648823D01*
X35460806Y89639051D01*
X35439802Y89618360D01*
X35408301Y89589425D01*
X35369171Y89554923D01*
X35351936Y89540088D01*
X35235427Y89440475D01*
X35149305Y89271071D01*
X35120292Y89213664D01*
X35097934Y89167661D01*
X35080579Y89128302D01*
X35066575Y89090828D01*
X35054274Y89050479D01*
X35042022Y89002496D01*
X35028170Y88942119D01*
X35015839Y88886304D01*
X34968495Y88670941D01*
X34885828Y88524118D01*
X34854231Y88467129D01*
X34830114Y88420564D01*
X34811126Y88378566D01*
X34794915Y88335275D01*
X34779128Y88284832D01*
X34761415Y88221377D01*
X34755529Y88199506D01*
X34727444Y88080537D01*
X34704328Y87950986D01*
X34685914Y87808588D01*
X34671936Y87651078D01*
X34662126Y87476193D01*
X34658532Y87375865D01*
X34656473Y87294457D01*
X34655850Y87226923D01*
X34656938Y87166922D01*
X34660014Y87108113D01*
X34665352Y87044157D01*
X34673231Y86968711D01*
X34678155Y86925161D01*
X34686831Y86851272D01*
X34694643Y86791029D01*
X34702634Y86739525D01*
X34711847Y86691858D01*
X34723324Y86643121D01*
X34738107Y86588408D01*
X34757238Y86522817D01*
X34779077Y86450294D01*
X34853780Y86203787D01*
X34749279Y85921631D01*
X34720057Y85842516D01*
X34691325Y85764331D01*
X34664478Y85690902D01*
X34640910Y85626053D01*
X34622016Y85573610D01*
X34609712Y85538891D01*
X34594335Y85498218D01*
X34576250Y85458108D01*
X34553391Y85414832D01*
X34523692Y85364660D01*
X34485087Y85303862D01*
X34449807Y85250194D01*
X34324969Y85062081D01*
X34324981Y84792455D01*
X34449381Y84716157D01*
X34499101Y84683746D01*
X34559379Y84641461D01*
X34624772Y84593296D01*
X34689835Y84543244D01*
X34738863Y84503808D01*
X34903946Y84367756D01*
X35141198Y84281708D01*
X35378449Y84195660D01*
X35696082Y84169112D01*
X35793496Y84161594D01*
X35899913Y84154452D01*
X36009027Y84148038D01*
X36114536Y84142703D01*
X36210134Y84138797D01*
X36273114Y84136983D01*
X36532514Y84131402D01*
X36709219Y84172055D01*
X36785204Y84190958D01*
X36863476Y84212901D01*
X36936719Y84235704D01*
X36997616Y84257190D01*
X37005675Y84260340D01*
X37062041Y84282044D01*
X37120617Y84303407D01*
X37173501Y84321605D01*
X37204835Y84331524D01*
X37245167Y84344753D01*
X37277064Y84359394D01*
X37307166Y84379492D01*
X37342114Y84409090D01*
X37361605Y84426969D01*
X37438966Y84498862D01*
X37407144Y84666834D01*
X37396716Y84722688D01*
X37388951Y84768135D01*
X37383553Y84807777D01*
X37380229Y84846214D01*
X37378681Y84888049D01*
X37378616Y84937882D01*
X37379739Y85000315D01*
X37381432Y85067737D01*
X37387542Y85300667D01*
X37270654Y85650063D01*
X37188288Y85899696D01*
X37114473Y86130657D01*
X37049019Y86343563D01*
X36991737Y86539028D01*
X36946192Y86703612D01*
X36889535Y86915116D01*
X36923713Y87134903D01*
X36957891Y87354689D01*
X37408023Y88688745D01*
X37437986Y88921676D01*
X37467949Y89154606D01*
X37578406Y89461651D01*
X37609584Y89548152D01*
X37634962Y89617666D01*
X37655890Y89673139D01*
X37673717Y89717516D01*
X37689791Y89753743D01*
X37705462Y89784766D01*
X37722079Y89813531D01*
X37740990Y89842982D01*
X37763545Y89876066D01*
X37777207Y89895748D01*
X37810047Y89941696D01*
X37852907Y89999748D01*
X37902490Y90065545D01*
X37955497Y90134728D01*
X38008632Y90202937D01*
X38031866Y90232355D01*
X38081155Y90293927D01*
X38125086Y90347318D01*
X38166546Y90395604D01*
X38208419Y90441864D01*
X38253589Y90489174D01*
X38304941Y90540613D01*
X38365359Y90599257D01*
X38437730Y90668185D01*
X38461179Y90690362D01*
X38724177Y90938815D01*
X38856524Y90932102D01*
X38988870Y90925388D01*
X39112341Y90860548D01*
X39235812Y90795707D01*
X39367514Y90458425D01*
X39361969Y90245907D01*
X39356343Y90117079D01*
X39345911Y89991066D01*
X39330052Y89864006D01*
X39308142Y89732036D01*
X39279559Y89591295D01*
X39243678Y89437921D01*
X39211038Y89310120D01*
X39188378Y89223717D01*
X39170733Y89155393D01*
X39157653Y89102768D01*
X39148688Y89063462D01*
X39143388Y89035096D01*
X39141301Y89015290D01*
X39141978Y89001664D01*
X39144968Y88991839D01*
X39149346Y88984156D01*
X39164885Y88966617D01*
X39177622Y88961653D01*
X39184752Y88971817D01*
X39199600Y88998812D01*
X39220971Y89040258D01*
X39247668Y89093779D01*
X39278495Y89156996D01*
X39312255Y89227533D01*
X39325648Y89255854D01*
X39376349Y89364997D01*
X39419157Y89461012D01*
X39456314Y89549362D01*
X39490061Y89635511D01*
X39522639Y89724924D01*
X39546893Y89795165D01*
X39631219Y90043977D01*
X39640223Y90292789D01*
X39649228Y90541601D01*
X39610649Y90679210D01*
X39572069Y90816819D01*
X39460662Y90933316D01*
X39416353Y90979150D01*
X39381265Y91013333D01*
X39350230Y91039750D01*
X39318080Y91062286D01*
X39279649Y91084828D01*
X39229768Y91111260D01*
X39211414Y91120727D01*
X39073572Y91191641D01*
X38939902Y91192194D01*
X38885542Y91192930D01*
X38836010Y91194527D01*
X38796732Y91196751D01*
X38773134Y91199367D01*
X38772960Y91199401D01*
X38755844Y91206011D01*
X38735260Y91220890D01*
X38708775Y91246325D01*
X38673958Y91284606D01*
X38638784Y91325643D01*
X38563181Y91408401D01*
X38484224Y91479961D01*
X38395264Y91545974D01*
X38330848Y91587406D01*
X38315837Y91593544D01*
X38285072Y91604068D01*
X38243136Y91617465D01*
X38197902Y91631247D01*
X38135127Y91648505D01*
X38076387Y91660995D01*
X38013732Y91670086D01*
X37939208Y91677144D01*
X37924802Y91678239D01*
X37866081Y91682027D01*
X37811347Y91684550D01*
X37765795Y91685639D01*
X37734616Y91685123D01*
X37728929Y91684640D01*
X37706150Y91682261D01*
X37665970Y91678363D01*
X37612080Y91673290D01*
X37548173Y91667389D01*
X37477939Y91661005D01*
X37446045Y91658139D01*
X37366906Y91651185D01*
X37304465Y91646222D01*
X37254347Y91643197D01*
X37212174Y91642055D01*
X37173568Y91642743D01*
X37134154Y91645206D01*
X37089552Y91649392D01*
X37053002Y91653307D01*
X36900492Y91670020D01*
X36756620Y91750113D01*
X36612747Y91830207D01*
X36536747Y91800389D01*
%TD*%
D11*
%TO.C,J6*%
X6898026Y72694077D03*
X8694077Y70898026D03*
X5101974Y70898026D03*
X6898026Y69101974D03*
D12*
G36*
X6586898Y67305923D02*
G01*
X5101974Y65820999D01*
X3617050Y67305923D01*
X5101974Y68790847D01*
X6586898Y67305923D01*
G37*
D11*
X3305923Y69101974D03*
%TD*%
D13*
%TO.C,J7*%
X32200000Y41100000D03*
X45500000Y19400000D03*
D14*
X28570000Y42410000D03*
X28570000Y39870000D03*
X28570000Y37330000D03*
X28570000Y34790000D03*
X28570000Y32250000D03*
X28570000Y29710000D03*
X28570000Y27170000D03*
X28570000Y24630000D03*
X28570000Y22090000D03*
X28570000Y19550000D03*
X28570000Y17010000D03*
X28570000Y14470000D03*
X28570000Y11930000D03*
X51430000Y42410000D03*
X51430000Y39870000D03*
X51430000Y37330000D03*
X51430000Y34790000D03*
X51430000Y32250000D03*
X51430000Y29710000D03*
X51430000Y27170000D03*
X51430000Y24630000D03*
X51430000Y22090000D03*
X51430000Y19550000D03*
X51430000Y17010000D03*
X51430000Y14470000D03*
D15*
X51430000Y11930000D03*
%TD*%
D11*
%TO.C,J4*%
X18540000Y115270000D03*
X18540000Y112730000D03*
X16000000Y115270000D03*
X16000000Y112730000D03*
D16*
X13460000Y112730000D03*
D11*
X13460000Y115270000D03*
%TD*%
%TO.C,J1*%
X29810000Y108000000D03*
X27270000Y108000000D03*
X24730000Y108000000D03*
X22190000Y108000000D03*
%TD*%
%TO.C,J2*%
X57810000Y108000000D03*
X55270000Y108000000D03*
X52730000Y108000000D03*
X50190000Y108000000D03*
%TD*%
%TO.C,J5*%
X76694077Y69101974D03*
X74898026Y67305923D03*
X74898026Y70898026D03*
X73101974Y69101974D03*
D12*
G36*
X71305923Y69413102D02*
G01*
X69820999Y70898026D01*
X71305923Y72382950D01*
X72790847Y70898026D01*
X71305923Y69413102D01*
G37*
D11*
X73101974Y72694077D03*
%TD*%
%TO.C,J3*%
X66540000Y115270000D03*
X66540000Y112730000D03*
X64000000Y115270000D03*
X64000000Y112730000D03*
D16*
X61460000Y112730000D03*
D11*
X61460000Y115270000D03*
%TD*%
D17*
%TO.C,H5*%
X40000000Y116000000D03*
%TD*%
D18*
%TO.C,H1*%
X4000000Y116000000D03*
%TD*%
%TO.C,H2*%
X76000000Y116000000D03*
%TD*%
%TO.C,H3*%
X4000000Y4000000D03*
%TD*%
%TO.C,H4*%
X76000000Y4000000D03*
%TD*%
D16*
%TO.C,J12*%
X10000000Y89110000D03*
D19*
X10000000Y91650000D03*
X10000000Y94190000D03*
X10000000Y96730000D03*
X10000000Y99270000D03*
X10000000Y101810000D03*
X10000000Y104350000D03*
X10000000Y106890000D03*
%TD*%
D16*
%TO.C,J13*%
X70000000Y106890000D03*
D19*
X70000000Y104350000D03*
X70000000Y101810000D03*
X70000000Y99270000D03*
X70000000Y96730000D03*
X70000000Y94190000D03*
X70000000Y91650000D03*
X70000000Y89110000D03*
%TD*%
D20*
%TO.C,J8*%
X76000000Y43000000D03*
D21*
X76000000Y35100000D03*
%TD*%
D20*
%TO.C,J9*%
X76000000Y12000000D03*
D21*
X76000000Y19900000D03*
%TD*%
D20*
%TO.C,J10*%
X4000000Y43000000D03*
D21*
X4000000Y35100000D03*
%TD*%
D20*
%TO.C,J11*%
X4000000Y12000000D03*
D21*
X4000000Y19900000D03*
%TD*%
M02*
