%TF.GenerationSoftware,KiCad,Pcbnew,(5.1.6)-1*%
%TF.CreationDate,2020-10-27T18:56:41+11:00*%
%TF.ProjectId,swag-badge,73776167-2d62-4616-9467-652e6b696361,rev?*%
%TF.SameCoordinates,PX2d4cae0PY916f720*%
%TF.FileFunction,Soldermask,Bot*%
%TF.FilePolarity,Negative*%
%FSLAX46Y46*%
G04 Gerber Fmt 4.6, Leading zero omitted, Abs format (unit mm)*
G04 Created by KiCad (PCBNEW (5.1.6)-1) date 2020-10-27 18:56:41*
%MOMM*%
%LPD*%
G01*
G04 APERTURE LIST*
%ADD10C,0.010000*%
%ADD11C,2.100000*%
%ADD12C,0.100000*%
%ADD13C,4.900000*%
%ADD14O,2.500000X1.700000*%
%ADD15R,2.500000X1.700000*%
%ADD16R,2.100000X2.100000*%
%ADD17O,14.100000X3.100000*%
%ADD18C,4.100000*%
%ADD19O,2.100000X2.100000*%
%ADD20C,2.600000*%
%ADD21O,3.100000X9.100000*%
G04 APERTURE END LIST*
D10*
%TO.C,L2*%
G36*
X54702653Y72965615D02*
G01*
X54662108Y72959682D01*
X54506341Y72924016D01*
X54358439Y72869558D01*
X54219794Y72797643D01*
X54091799Y72709609D01*
X53975845Y72606791D01*
X53873324Y72490526D01*
X53785627Y72362151D01*
X53714147Y72223002D01*
X53660274Y72074415D01*
X53635444Y71973827D01*
X53622471Y71887109D01*
X53615197Y71787947D01*
X53613723Y71684321D01*
X53618150Y71584208D01*
X53628579Y71495587D01*
X53629328Y71491205D01*
X53666231Y71339912D01*
X53722192Y71195308D01*
X53795706Y71059032D01*
X53885266Y70932725D01*
X53989365Y70818029D01*
X54106497Y70716584D01*
X54235156Y70630032D01*
X54373834Y70560013D01*
X54521026Y70508169D01*
X54535376Y70504254D01*
X54685209Y70472938D01*
X54833209Y70459995D01*
X54985821Y70464933D01*
X55014154Y70467670D01*
X55161438Y70493523D01*
X55306626Y70538809D01*
X55446826Y70601848D01*
X55579144Y70680961D01*
X55700689Y70774468D01*
X55808567Y70880692D01*
X55881128Y70970964D01*
X55969008Y71108502D01*
X56036427Y71248971D01*
X56084081Y71394534D01*
X56112667Y71547354D01*
X56122881Y71709593D01*
X56122926Y71721602D01*
X56112941Y71882380D01*
X56083828Y72036379D01*
X56036852Y72182527D01*
X55973276Y72319754D01*
X55894365Y72446987D01*
X55801383Y72563156D01*
X55695594Y72667188D01*
X55578261Y72758014D01*
X55450650Y72834560D01*
X55314024Y72895757D01*
X55169647Y72940532D01*
X55018784Y72967814D01*
X54862698Y72976533D01*
X54702653Y72965615D01*
G37*
X54702653Y72965615D02*
X54662108Y72959682D01*
X54506341Y72924016D01*
X54358439Y72869558D01*
X54219794Y72797643D01*
X54091799Y72709609D01*
X53975845Y72606791D01*
X53873324Y72490526D01*
X53785627Y72362151D01*
X53714147Y72223002D01*
X53660274Y72074415D01*
X53635444Y71973827D01*
X53622471Y71887109D01*
X53615197Y71787947D01*
X53613723Y71684321D01*
X53618150Y71584208D01*
X53628579Y71495587D01*
X53629328Y71491205D01*
X53666231Y71339912D01*
X53722192Y71195308D01*
X53795706Y71059032D01*
X53885266Y70932725D01*
X53989365Y70818029D01*
X54106497Y70716584D01*
X54235156Y70630032D01*
X54373834Y70560013D01*
X54521026Y70508169D01*
X54535376Y70504254D01*
X54685209Y70472938D01*
X54833209Y70459995D01*
X54985821Y70464933D01*
X55014154Y70467670D01*
X55161438Y70493523D01*
X55306626Y70538809D01*
X55446826Y70601848D01*
X55579144Y70680961D01*
X55700689Y70774468D01*
X55808567Y70880692D01*
X55881128Y70970964D01*
X55969008Y71108502D01*
X56036427Y71248971D01*
X56084081Y71394534D01*
X56112667Y71547354D01*
X56122881Y71709593D01*
X56122926Y71721602D01*
X56112941Y71882380D01*
X56083828Y72036379D01*
X56036852Y72182527D01*
X55973276Y72319754D01*
X55894365Y72446987D01*
X55801383Y72563156D01*
X55695594Y72667188D01*
X55578261Y72758014D01*
X55450650Y72834560D01*
X55314024Y72895757D01*
X55169647Y72940532D01*
X55018784Y72967814D01*
X54862698Y72976533D01*
X54702653Y72965615D01*
G36*
X64851446Y74012548D02*
G01*
X64767750Y74009762D01*
X64697617Y74004927D01*
X64677546Y74002772D01*
X64458350Y73965736D01*
X64245627Y73908630D01*
X64040164Y73831781D01*
X63842743Y73735516D01*
X63654151Y73620160D01*
X63516176Y73519111D01*
X63459367Y73471023D01*
X63394304Y73410579D01*
X63325435Y73342368D01*
X63257209Y73270978D01*
X63194073Y73200997D01*
X63140475Y73137013D01*
X63119704Y73110130D01*
X62999101Y72931424D01*
X62897328Y72744918D01*
X62814291Y72551973D01*
X62749898Y72353950D01*
X62704055Y72152208D01*
X62676670Y71948109D01*
X62667649Y71743013D01*
X62676899Y71538280D01*
X62704328Y71335271D01*
X62749841Y71135346D01*
X62813347Y70939866D01*
X62894751Y70750191D01*
X62993961Y70567683D01*
X63110884Y70393700D01*
X63245427Y70229604D01*
X63322304Y70148652D01*
X63486721Y69998408D01*
X63661286Y69866627D01*
X63845404Y69753523D01*
X64038477Y69659311D01*
X64239911Y69584206D01*
X64449111Y69528421D01*
X64665479Y69492173D01*
X64888421Y69475674D01*
X65117342Y69479141D01*
X65170154Y69482737D01*
X65383759Y69509801D01*
X65592303Y69556934D01*
X65794536Y69623375D01*
X65989212Y69708363D01*
X66175084Y69811139D01*
X66350903Y69930942D01*
X66515421Y70067010D01*
X66667393Y70218585D01*
X66805569Y70384905D01*
X66918159Y70548254D01*
X67013826Y70718742D01*
X67095762Y70902427D01*
X67162492Y71095237D01*
X67212544Y71293102D01*
X67235953Y71426051D01*
X67245218Y71510277D01*
X67251210Y71608239D01*
X67253933Y71713856D01*
X67253390Y71821048D01*
X67249583Y71923735D01*
X67242516Y72015837D01*
X67235627Y72070780D01*
X67201232Y72253260D01*
X67155012Y72424075D01*
X67094726Y72590444D01*
X67027959Y72739518D01*
X66923512Y72931106D01*
X66802777Y73109806D01*
X66666839Y73274839D01*
X66516781Y73425424D01*
X66353688Y73560784D01*
X66178645Y73680137D01*
X65992736Y73782705D01*
X65797044Y73867708D01*
X65592655Y73934367D01*
X65380652Y73981902D01*
X65278136Y73997486D01*
X65210298Y74004201D01*
X65128132Y74009114D01*
X65037215Y74012175D01*
X64943127Y74013336D01*
X64851446Y74012548D01*
G37*
X64851446Y74012548D02*
X64767750Y74009762D01*
X64697617Y74004927D01*
X64677546Y74002772D01*
X64458350Y73965736D01*
X64245627Y73908630D01*
X64040164Y73831781D01*
X63842743Y73735516D01*
X63654151Y73620160D01*
X63516176Y73519111D01*
X63459367Y73471023D01*
X63394304Y73410579D01*
X63325435Y73342368D01*
X63257209Y73270978D01*
X63194073Y73200997D01*
X63140475Y73137013D01*
X63119704Y73110130D01*
X62999101Y72931424D01*
X62897328Y72744918D01*
X62814291Y72551973D01*
X62749898Y72353950D01*
X62704055Y72152208D01*
X62676670Y71948109D01*
X62667649Y71743013D01*
X62676899Y71538280D01*
X62704328Y71335271D01*
X62749841Y71135346D01*
X62813347Y70939866D01*
X62894751Y70750191D01*
X62993961Y70567683D01*
X63110884Y70393700D01*
X63245427Y70229604D01*
X63322304Y70148652D01*
X63486721Y69998408D01*
X63661286Y69866627D01*
X63845404Y69753523D01*
X64038477Y69659311D01*
X64239911Y69584206D01*
X64449111Y69528421D01*
X64665479Y69492173D01*
X64888421Y69475674D01*
X65117342Y69479141D01*
X65170154Y69482737D01*
X65383759Y69509801D01*
X65592303Y69556934D01*
X65794536Y69623375D01*
X65989212Y69708363D01*
X66175084Y69811139D01*
X66350903Y69930942D01*
X66515421Y70067010D01*
X66667393Y70218585D01*
X66805569Y70384905D01*
X66918159Y70548254D01*
X67013826Y70718742D01*
X67095762Y70902427D01*
X67162492Y71095237D01*
X67212544Y71293102D01*
X67235953Y71426051D01*
X67245218Y71510277D01*
X67251210Y71608239D01*
X67253933Y71713856D01*
X67253390Y71821048D01*
X67249583Y71923735D01*
X67242516Y72015837D01*
X67235627Y72070780D01*
X67201232Y72253260D01*
X67155012Y72424075D01*
X67094726Y72590444D01*
X67027959Y72739518D01*
X66923512Y72931106D01*
X66802777Y73109806D01*
X66666839Y73274839D01*
X66516781Y73425424D01*
X66353688Y73560784D01*
X66178645Y73680137D01*
X65992736Y73782705D01*
X65797044Y73867708D01*
X65592655Y73934367D01*
X65380652Y73981902D01*
X65278136Y73997486D01*
X65210298Y74004201D01*
X65128132Y74009114D01*
X65037215Y74012175D01*
X64943127Y74013336D01*
X64851446Y74012548D01*
G36*
X67047005Y66256675D02*
G01*
X66954887Y66254272D01*
X66873899Y66249731D01*
X66816548Y66243997D01*
X66577040Y66202507D01*
X66347363Y66142293D01*
X66127136Y66063180D01*
X65915979Y65964995D01*
X65713511Y65847565D01*
X65519354Y65710714D01*
X65360115Y65578589D01*
X65315158Y65536965D01*
X65267520Y65490115D01*
X65219611Y65440718D01*
X65173843Y65391454D01*
X65132626Y65345004D01*
X65098371Y65304046D01*
X65073490Y65271262D01*
X65060392Y65249330D01*
X65058983Y65243856D01*
X65061461Y65227467D01*
X65068307Y65194514D01*
X65078635Y65148947D01*
X65091562Y65094716D01*
X65100470Y65058569D01*
X65179971Y64698055D01*
X65238354Y64338243D01*
X65275646Y63978730D01*
X65291875Y63619111D01*
X65287068Y63258979D01*
X65261255Y62897931D01*
X65253809Y62827679D01*
X65230875Y62649969D01*
X65200697Y62460180D01*
X65164560Y62265612D01*
X65123751Y62073568D01*
X65112380Y62024299D01*
X65090304Y61930298D01*
X65119549Y61891956D01*
X65148359Y61857720D01*
X65189693Y61813312D01*
X65239920Y61762255D01*
X65295412Y61708071D01*
X65352541Y61654280D01*
X65407676Y61604406D01*
X65457189Y61561969D01*
X65471905Y61550014D01*
X65663680Y61410343D01*
X65866197Y61288550D01*
X66078116Y61185206D01*
X66298094Y61100882D01*
X66524790Y61036147D01*
X66756862Y60991572D01*
X66798562Y60985804D01*
X66868442Y60978967D01*
X66953783Y60974175D01*
X67049255Y60971423D01*
X67149526Y60970702D01*
X67249264Y60972004D01*
X67343139Y60975323D01*
X67425819Y60980650D01*
X67483576Y60986787D01*
X67711167Y61028023D01*
X67935127Y61089089D01*
X68153196Y61169062D01*
X68363113Y61267022D01*
X68562619Y61382046D01*
X68719887Y61490719D01*
X68902994Y61640857D01*
X69070437Y61804938D01*
X69221721Y61982125D01*
X69356349Y62171584D01*
X69473825Y62372479D01*
X69573652Y62583975D01*
X69655334Y62805237D01*
X69718375Y63035429D01*
X69756595Y63235307D01*
X69765054Y63307159D01*
X69771181Y63394959D01*
X69774977Y63493606D01*
X69776440Y63598000D01*
X69775571Y63703041D01*
X69772369Y63803630D01*
X69766833Y63894667D01*
X69758963Y63971051D01*
X69756665Y63987037D01*
X69709950Y64226466D01*
X69645276Y64454756D01*
X69562451Y64672290D01*
X69461281Y64879453D01*
X69341575Y65076626D01*
X69203138Y65264195D01*
X69045780Y65442543D01*
X69003456Y65485739D01*
X68827678Y65647463D01*
X68642617Y65790267D01*
X68447967Y65914302D01*
X68243420Y66019720D01*
X68028671Y66106674D01*
X67803414Y66175315D01*
X67567343Y66225796D01*
X67488870Y66238227D01*
X67420678Y66245827D01*
X67337090Y66251517D01*
X67243412Y66255252D01*
X67144948Y66256987D01*
X67047005Y66256675D01*
G37*
X67047005Y66256675D02*
X66954887Y66254272D01*
X66873899Y66249731D01*
X66816548Y66243997D01*
X66577040Y66202507D01*
X66347363Y66142293D01*
X66127136Y66063180D01*
X65915979Y65964995D01*
X65713511Y65847565D01*
X65519354Y65710714D01*
X65360115Y65578589D01*
X65315158Y65536965D01*
X65267520Y65490115D01*
X65219611Y65440718D01*
X65173843Y65391454D01*
X65132626Y65345004D01*
X65098371Y65304046D01*
X65073490Y65271262D01*
X65060392Y65249330D01*
X65058983Y65243856D01*
X65061461Y65227467D01*
X65068307Y65194514D01*
X65078635Y65148947D01*
X65091562Y65094716D01*
X65100470Y65058569D01*
X65179971Y64698055D01*
X65238354Y64338243D01*
X65275646Y63978730D01*
X65291875Y63619111D01*
X65287068Y63258979D01*
X65261255Y62897931D01*
X65253809Y62827679D01*
X65230875Y62649969D01*
X65200697Y62460180D01*
X65164560Y62265612D01*
X65123751Y62073568D01*
X65112380Y62024299D01*
X65090304Y61930298D01*
X65119549Y61891956D01*
X65148359Y61857720D01*
X65189693Y61813312D01*
X65239920Y61762255D01*
X65295412Y61708071D01*
X65352541Y61654280D01*
X65407676Y61604406D01*
X65457189Y61561969D01*
X65471905Y61550014D01*
X65663680Y61410343D01*
X65866197Y61288550D01*
X66078116Y61185206D01*
X66298094Y61100882D01*
X66524790Y61036147D01*
X66756862Y60991572D01*
X66798562Y60985804D01*
X66868442Y60978967D01*
X66953783Y60974175D01*
X67049255Y60971423D01*
X67149526Y60970702D01*
X67249264Y60972004D01*
X67343139Y60975323D01*
X67425819Y60980650D01*
X67483576Y60986787D01*
X67711167Y61028023D01*
X67935127Y61089089D01*
X68153196Y61169062D01*
X68363113Y61267022D01*
X68562619Y61382046D01*
X68719887Y61490719D01*
X68902994Y61640857D01*
X69070437Y61804938D01*
X69221721Y61982125D01*
X69356349Y62171584D01*
X69473825Y62372479D01*
X69573652Y62583975D01*
X69655334Y62805237D01*
X69718375Y63035429D01*
X69756595Y63235307D01*
X69765054Y63307159D01*
X69771181Y63394959D01*
X69774977Y63493606D01*
X69776440Y63598000D01*
X69775571Y63703041D01*
X69772369Y63803630D01*
X69766833Y63894667D01*
X69758963Y63971051D01*
X69756665Y63987037D01*
X69709950Y64226466D01*
X69645276Y64454756D01*
X69562451Y64672290D01*
X69461281Y64879453D01*
X69341575Y65076626D01*
X69203138Y65264195D01*
X69045780Y65442543D01*
X69003456Y65485739D01*
X68827678Y65647463D01*
X68642617Y65790267D01*
X68447967Y65914302D01*
X68243420Y66019720D01*
X68028671Y66106674D01*
X67803414Y66175315D01*
X67567343Y66225796D01*
X67488870Y66238227D01*
X67420678Y66245827D01*
X67337090Y66251517D01*
X67243412Y66255252D01*
X67144948Y66256987D01*
X67047005Y66256675D01*
G36*
X48511761Y62155633D02*
G01*
X48404174Y62144972D01*
X48301798Y62125888D01*
X48197096Y62097206D01*
X48160942Y62085498D01*
X48000697Y62020966D01*
X47850635Y61938653D01*
X47711961Y61839956D01*
X47585881Y61726271D01*
X47473599Y61598997D01*
X47376321Y61459529D01*
X47295251Y61309265D01*
X47231594Y61149601D01*
X47186555Y60981935D01*
X47180031Y60948354D01*
X47169821Y60872538D01*
X47163652Y60783753D01*
X47161518Y60688614D01*
X47163414Y60593738D01*
X47169332Y60505744D01*
X47179268Y60431247D01*
X47180511Y60424645D01*
X47224581Y60250801D01*
X47286600Y60086797D01*
X47365489Y59933647D01*
X47460169Y59792366D01*
X47569564Y59663968D01*
X47692595Y59549469D01*
X47828184Y59449882D01*
X47975253Y59366222D01*
X48132725Y59299505D01*
X48299520Y59250745D01*
X48457121Y59223002D01*
X48518294Y59217641D01*
X48590869Y59214581D01*
X48666429Y59213916D01*
X48736557Y59215741D01*
X48785619Y59219321D01*
X48961046Y59248487D01*
X49129237Y59297390D01*
X49289193Y59365551D01*
X49439914Y59452493D01*
X49580401Y59557735D01*
X49675380Y59645301D01*
X49791439Y59775663D01*
X49888871Y59914000D01*
X49968009Y60058894D01*
X50029188Y60208926D01*
X50072743Y60362677D01*
X50099008Y60518729D01*
X50108319Y60675662D01*
X50101009Y60832059D01*
X50077414Y60986499D01*
X50037867Y61137566D01*
X49982704Y61283839D01*
X49912259Y61423900D01*
X49826866Y61556331D01*
X49726862Y61679712D01*
X49612579Y61792626D01*
X49484352Y61893652D01*
X49342517Y61981373D01*
X49187408Y62054370D01*
X49099559Y62086727D01*
X48992823Y62118667D01*
X48890893Y62140545D01*
X48786201Y62153532D01*
X48671180Y62158799D01*
X48632097Y62159047D01*
X48511761Y62155633D01*
G37*
X48511761Y62155633D02*
X48404174Y62144972D01*
X48301798Y62125888D01*
X48197096Y62097206D01*
X48160942Y62085498D01*
X48000697Y62020966D01*
X47850635Y61938653D01*
X47711961Y61839956D01*
X47585881Y61726271D01*
X47473599Y61598997D01*
X47376321Y61459529D01*
X47295251Y61309265D01*
X47231594Y61149601D01*
X47186555Y60981935D01*
X47180031Y60948354D01*
X47169821Y60872538D01*
X47163652Y60783753D01*
X47161518Y60688614D01*
X47163414Y60593738D01*
X47169332Y60505744D01*
X47179268Y60431247D01*
X47180511Y60424645D01*
X47224581Y60250801D01*
X47286600Y60086797D01*
X47365489Y59933647D01*
X47460169Y59792366D01*
X47569564Y59663968D01*
X47692595Y59549469D01*
X47828184Y59449882D01*
X47975253Y59366222D01*
X48132725Y59299505D01*
X48299520Y59250745D01*
X48457121Y59223002D01*
X48518294Y59217641D01*
X48590869Y59214581D01*
X48666429Y59213916D01*
X48736557Y59215741D01*
X48785619Y59219321D01*
X48961046Y59248487D01*
X49129237Y59297390D01*
X49289193Y59365551D01*
X49439914Y59452493D01*
X49580401Y59557735D01*
X49675380Y59645301D01*
X49791439Y59775663D01*
X49888871Y59914000D01*
X49968009Y60058894D01*
X50029188Y60208926D01*
X50072743Y60362677D01*
X50099008Y60518729D01*
X50108319Y60675662D01*
X50101009Y60832059D01*
X50077414Y60986499D01*
X50037867Y61137566D01*
X49982704Y61283839D01*
X49912259Y61423900D01*
X49826866Y61556331D01*
X49726862Y61679712D01*
X49612579Y61792626D01*
X49484352Y61893652D01*
X49342517Y61981373D01*
X49187408Y62054370D01*
X49099559Y62086727D01*
X48992823Y62118667D01*
X48890893Y62140545D01*
X48786201Y62153532D01*
X48671180Y62158799D01*
X48632097Y62159047D01*
X48511761Y62155633D01*
G36*
X54439675Y56265668D02*
G01*
X54365024Y56260808D01*
X54347373Y56258907D01*
X54151383Y56225134D01*
X53962236Y56172125D01*
X53781079Y56100917D01*
X53609064Y56012545D01*
X53447338Y55908045D01*
X53297053Y55788452D01*
X53159358Y55654804D01*
X53035401Y55508134D01*
X52926333Y55349481D01*
X52833303Y55179878D01*
X52757461Y55000363D01*
X52699955Y54811971D01*
X52688728Y54764278D01*
X52653960Y54560687D01*
X52640263Y54358846D01*
X52647586Y54159164D01*
X52675879Y53962047D01*
X52725089Y53767902D01*
X52795168Y53577138D01*
X52851443Y53456024D01*
X52951545Y53280432D01*
X53068012Y53118060D01*
X53200125Y52969619D01*
X53347167Y52835817D01*
X53508419Y52717364D01*
X53683162Y52614969D01*
X53724802Y52593952D01*
X53910965Y52514332D01*
X54103161Y52454845D01*
X54300275Y52415692D01*
X54501192Y52397074D01*
X54704795Y52399190D01*
X54775797Y52404800D01*
X54964158Y52433289D01*
X55150296Y52481475D01*
X55331880Y52548152D01*
X55506578Y52632115D01*
X55672060Y52732159D01*
X55825996Y52847080D01*
X55966053Y52975673D01*
X56043518Y53060128D01*
X56165457Y53217762D01*
X56270805Y53386083D01*
X56358618Y53562972D01*
X56427955Y53746309D01*
X56477874Y53933973D01*
X56504572Y54097368D01*
X56511647Y54187094D01*
X56514210Y54289406D01*
X56512515Y54398063D01*
X56506818Y54506824D01*
X56497373Y54609445D01*
X56484436Y54699685D01*
X56478793Y54728789D01*
X56426809Y54925031D01*
X56356364Y55111869D01*
X56268406Y55288366D01*
X56163883Y55453586D01*
X56043743Y55606590D01*
X55908933Y55746442D01*
X55760403Y55872205D01*
X55599101Y55982941D01*
X55425973Y56077714D01*
X55241970Y56155585D01*
X55048037Y56215618D01*
X54952365Y56237686D01*
X54887102Y56248173D01*
X54806325Y56256593D01*
X54715615Y56262747D01*
X54620550Y56266442D01*
X54526711Y56267481D01*
X54439675Y56265668D01*
G37*
X54439675Y56265668D02*
X54365024Y56260808D01*
X54347373Y56258907D01*
X54151383Y56225134D01*
X53962236Y56172125D01*
X53781079Y56100917D01*
X53609064Y56012545D01*
X53447338Y55908045D01*
X53297053Y55788452D01*
X53159358Y55654804D01*
X53035401Y55508134D01*
X52926333Y55349481D01*
X52833303Y55179878D01*
X52757461Y55000363D01*
X52699955Y54811971D01*
X52688728Y54764278D01*
X52653960Y54560687D01*
X52640263Y54358846D01*
X52647586Y54159164D01*
X52675879Y53962047D01*
X52725089Y53767902D01*
X52795168Y53577138D01*
X52851443Y53456024D01*
X52951545Y53280432D01*
X53068012Y53118060D01*
X53200125Y52969619D01*
X53347167Y52835817D01*
X53508419Y52717364D01*
X53683162Y52614969D01*
X53724802Y52593952D01*
X53910965Y52514332D01*
X54103161Y52454845D01*
X54300275Y52415692D01*
X54501192Y52397074D01*
X54704795Y52399190D01*
X54775797Y52404800D01*
X54964158Y52433289D01*
X55150296Y52481475D01*
X55331880Y52548152D01*
X55506578Y52632115D01*
X55672060Y52732159D01*
X55825996Y52847080D01*
X55966053Y52975673D01*
X56043518Y53060128D01*
X56165457Y53217762D01*
X56270805Y53386083D01*
X56358618Y53562972D01*
X56427955Y53746309D01*
X56477874Y53933973D01*
X56504572Y54097368D01*
X56511647Y54187094D01*
X56514210Y54289406D01*
X56512515Y54398063D01*
X56506818Y54506824D01*
X56497373Y54609445D01*
X56484436Y54699685D01*
X56478793Y54728789D01*
X56426809Y54925031D01*
X56356364Y55111869D01*
X56268406Y55288366D01*
X56163883Y55453586D01*
X56043743Y55606590D01*
X55908933Y55746442D01*
X55760403Y55872205D01*
X55599101Y55982941D01*
X55425973Y56077714D01*
X55241970Y56155585D01*
X55048037Y56215618D01*
X54952365Y56237686D01*
X54887102Y56248173D01*
X54806325Y56256593D01*
X54715615Y56262747D01*
X54620550Y56266442D01*
X54526711Y56267481D01*
X54439675Y56265668D01*
%TO.C,L4*%
G36*
X43407849Y91885787D02*
G01*
X43389371Y91871655D01*
X43385225Y91867046D01*
X43381659Y91861101D01*
X43378629Y91852294D01*
X43376091Y91839097D01*
X43374002Y91819985D01*
X43372318Y91793431D01*
X43370995Y91757907D01*
X43369991Y91711888D01*
X43369260Y91653847D01*
X43368760Y91582257D01*
X43368448Y91495592D01*
X43368278Y91392324D01*
X43368209Y91270928D01*
X43368195Y91130513D01*
X43368209Y90989547D01*
X43368279Y90868230D01*
X43368449Y90765036D01*
X43368762Y90678437D01*
X43369263Y90606907D01*
X43369994Y90548920D01*
X43371000Y90502948D01*
X43372324Y90467466D01*
X43374010Y90440946D01*
X43376101Y90421861D01*
X43378640Y90408687D01*
X43381673Y90399895D01*
X43385241Y90393958D01*
X43389371Y90389371D01*
X43395875Y90383195D01*
X43403133Y90378203D01*
X43413028Y90374437D01*
X43427441Y90371938D01*
X43448254Y90370745D01*
X43477349Y90370901D01*
X43516607Y90372447D01*
X43567911Y90375423D01*
X43633143Y90379870D01*
X43714184Y90385830D01*
X43812916Y90393343D01*
X43908170Y90400675D01*
X43997337Y90407515D01*
X44080517Y90413837D01*
X44155181Y90419452D01*
X44218802Y90424172D01*
X44268852Y90427811D01*
X44302802Y90430180D01*
X44318033Y90431090D01*
X44342215Y90439048D01*
X44363031Y90454893D01*
X44367437Y90460055D01*
X44371199Y90466425D01*
X44374368Y90475608D01*
X44376994Y90489211D01*
X44379128Y90508841D01*
X44380822Y90536104D01*
X44382126Y90572606D01*
X44383091Y90619953D01*
X44383768Y90679752D01*
X44384209Y90753609D01*
X44384463Y90843130D01*
X44384582Y90949922D01*
X44384617Y91075592D01*
X44384619Y91135957D01*
X44384619Y91793849D01*
X44360796Y91816093D01*
X44353907Y91821598D01*
X44344674Y91826346D01*
X44331121Y91830543D01*
X44311274Y91834398D01*
X44283156Y91838118D01*
X44244792Y91841913D01*
X44194206Y91845990D01*
X44129422Y91850556D01*
X44048466Y91855820D01*
X43949361Y91861990D01*
X43890680Y91865584D01*
X43795086Y91871396D01*
X43705710Y91876784D01*
X43624839Y91881614D01*
X43554763Y91885751D01*
X43497769Y91889061D01*
X43456146Y91891408D01*
X43432183Y91892658D01*
X43427466Y91892830D01*
X43407849Y91885787D01*
G37*
X43407849Y91885787D02*
X43389371Y91871655D01*
X43385225Y91867046D01*
X43381659Y91861101D01*
X43378629Y91852294D01*
X43376091Y91839097D01*
X43374002Y91819985D01*
X43372318Y91793431D01*
X43370995Y91757907D01*
X43369991Y91711888D01*
X43369260Y91653847D01*
X43368760Y91582257D01*
X43368448Y91495592D01*
X43368278Y91392324D01*
X43368209Y91270928D01*
X43368195Y91130513D01*
X43368209Y90989547D01*
X43368279Y90868230D01*
X43368449Y90765036D01*
X43368762Y90678437D01*
X43369263Y90606907D01*
X43369994Y90548920D01*
X43371000Y90502948D01*
X43372324Y90467466D01*
X43374010Y90440946D01*
X43376101Y90421861D01*
X43378640Y90408687D01*
X43381673Y90399895D01*
X43385241Y90393958D01*
X43389371Y90389371D01*
X43395875Y90383195D01*
X43403133Y90378203D01*
X43413028Y90374437D01*
X43427441Y90371938D01*
X43448254Y90370745D01*
X43477349Y90370901D01*
X43516607Y90372447D01*
X43567911Y90375423D01*
X43633143Y90379870D01*
X43714184Y90385830D01*
X43812916Y90393343D01*
X43908170Y90400675D01*
X43997337Y90407515D01*
X44080517Y90413837D01*
X44155181Y90419452D01*
X44218802Y90424172D01*
X44268852Y90427811D01*
X44302802Y90430180D01*
X44318033Y90431090D01*
X44342215Y90439048D01*
X44363031Y90454893D01*
X44367437Y90460055D01*
X44371199Y90466425D01*
X44374368Y90475608D01*
X44376994Y90489211D01*
X44379128Y90508841D01*
X44380822Y90536104D01*
X44382126Y90572606D01*
X44383091Y90619953D01*
X44383768Y90679752D01*
X44384209Y90753609D01*
X44384463Y90843130D01*
X44384582Y90949922D01*
X44384617Y91075592D01*
X44384619Y91135957D01*
X44384619Y91793849D01*
X44360796Y91816093D01*
X44353907Y91821598D01*
X44344674Y91826346D01*
X44331121Y91830543D01*
X44311274Y91834398D01*
X44283156Y91838118D01*
X44244792Y91841913D01*
X44194206Y91845990D01*
X44129422Y91850556D01*
X44048466Y91855820D01*
X43949361Y91861990D01*
X43890680Y91865584D01*
X43795086Y91871396D01*
X43705710Y91876784D01*
X43624839Y91881614D01*
X43554763Y91885751D01*
X43497769Y91889061D01*
X43456146Y91891408D01*
X43432183Y91892658D01*
X43427466Y91892830D01*
X43407849Y91885787D01*
G36*
X39036747Y94300389D02*
G01*
X39002762Y94286306D01*
X38976741Y94272499D01*
X38953961Y94255095D01*
X38929701Y94230218D01*
X38899238Y94193993D01*
X38883799Y94174886D01*
X38844410Y94122869D01*
X38802674Y94062826D01*
X38765062Y94004253D01*
X38749251Y93977472D01*
X38679732Y93865367D01*
X38597035Y93752059D01*
X38498627Y93634165D01*
X38460891Y93592163D01*
X38415592Y93540916D01*
X38366979Y93483201D01*
X38321380Y93426665D01*
X38289955Y93385574D01*
X38248454Y93333390D01*
X38198436Y93276614D01*
X38147814Y93224021D01*
X38123086Y93200515D01*
X38075020Y93154763D01*
X38038255Y93114006D01*
X38006870Y93070917D01*
X37974946Y93018168D01*
X37972936Y93014628D01*
X37947724Y92968407D01*
X37928888Y92928477D01*
X37914050Y92888272D01*
X37900834Y92841227D01*
X37886864Y92780775D01*
X37884716Y92770882D01*
X37872233Y92711528D01*
X37864032Y92665880D01*
X37859573Y92627025D01*
X37858315Y92588053D01*
X37859719Y92542048D01*
X37862756Y92489805D01*
X37866601Y92432608D01*
X37870645Y92390737D01*
X37876301Y92358377D01*
X37884984Y92329713D01*
X37898108Y92298930D01*
X37917086Y92260213D01*
X37919984Y92254439D01*
X37940302Y92213138D01*
X37956429Y92178746D01*
X37966322Y92155717D01*
X37968445Y92148823D01*
X37960806Y92139051D01*
X37939802Y92118360D01*
X37908301Y92089425D01*
X37869171Y92054923D01*
X37851936Y92040088D01*
X37735427Y91940475D01*
X37649305Y91771071D01*
X37620292Y91713664D01*
X37597934Y91667661D01*
X37580579Y91628302D01*
X37566575Y91590828D01*
X37554274Y91550479D01*
X37542022Y91502496D01*
X37528170Y91442119D01*
X37515839Y91386304D01*
X37468495Y91170941D01*
X37385828Y91024118D01*
X37354231Y90967129D01*
X37330114Y90920564D01*
X37311126Y90878566D01*
X37294915Y90835275D01*
X37279128Y90784832D01*
X37261415Y90721377D01*
X37255529Y90699506D01*
X37227444Y90580537D01*
X37204328Y90450986D01*
X37185914Y90308588D01*
X37171936Y90151078D01*
X37162126Y89976193D01*
X37158532Y89875865D01*
X37156473Y89794457D01*
X37155850Y89726923D01*
X37156938Y89666922D01*
X37160014Y89608113D01*
X37165352Y89544157D01*
X37173231Y89468711D01*
X37178155Y89425161D01*
X37186831Y89351272D01*
X37194643Y89291029D01*
X37202634Y89239525D01*
X37211847Y89191858D01*
X37223324Y89143121D01*
X37238107Y89088408D01*
X37257238Y89022817D01*
X37279077Y88950294D01*
X37353780Y88703787D01*
X37249279Y88421631D01*
X37220057Y88342516D01*
X37191325Y88264331D01*
X37164478Y88190902D01*
X37140910Y88126053D01*
X37122016Y88073610D01*
X37109712Y88038891D01*
X37094335Y87998218D01*
X37076250Y87958108D01*
X37053391Y87914832D01*
X37023692Y87864660D01*
X36985087Y87803862D01*
X36949807Y87750194D01*
X36824969Y87562081D01*
X36824981Y87292455D01*
X36949381Y87216157D01*
X36999101Y87183746D01*
X37059379Y87141461D01*
X37124772Y87093296D01*
X37189835Y87043244D01*
X37238863Y87003808D01*
X37403946Y86867756D01*
X37641198Y86781708D01*
X37878449Y86695660D01*
X38196082Y86669112D01*
X38293496Y86661594D01*
X38399913Y86654452D01*
X38509027Y86648038D01*
X38614536Y86642703D01*
X38710134Y86638797D01*
X38773114Y86636983D01*
X39032514Y86631402D01*
X39209219Y86672055D01*
X39285204Y86690958D01*
X39363476Y86712901D01*
X39436719Y86735704D01*
X39497616Y86757190D01*
X39505675Y86760340D01*
X39562041Y86782044D01*
X39620617Y86803407D01*
X39673501Y86821605D01*
X39704835Y86831524D01*
X39745167Y86844753D01*
X39777064Y86859394D01*
X39807166Y86879492D01*
X39842114Y86909090D01*
X39861605Y86926969D01*
X39938966Y86998862D01*
X39907144Y87166834D01*
X39896716Y87222688D01*
X39888951Y87268135D01*
X39883553Y87307777D01*
X39880229Y87346214D01*
X39878681Y87388049D01*
X39878616Y87437882D01*
X39879739Y87500315D01*
X39881432Y87567737D01*
X39887542Y87800667D01*
X39770654Y88150063D01*
X39688288Y88399696D01*
X39614473Y88630657D01*
X39549019Y88843563D01*
X39491737Y89039028D01*
X39446192Y89203612D01*
X39389535Y89415116D01*
X39423713Y89634903D01*
X39457891Y89854689D01*
X39908023Y91188745D01*
X39937986Y91421676D01*
X39967949Y91654606D01*
X40078406Y91961651D01*
X40109584Y92048152D01*
X40134962Y92117666D01*
X40155890Y92173139D01*
X40173717Y92217516D01*
X40189791Y92253743D01*
X40205462Y92284766D01*
X40222079Y92313531D01*
X40240990Y92342982D01*
X40263545Y92376066D01*
X40277207Y92395748D01*
X40310047Y92441696D01*
X40352907Y92499748D01*
X40402490Y92565545D01*
X40455497Y92634728D01*
X40508632Y92702937D01*
X40531866Y92732355D01*
X40581155Y92793927D01*
X40625086Y92847318D01*
X40666546Y92895604D01*
X40708419Y92941864D01*
X40753589Y92989174D01*
X40804941Y93040613D01*
X40865359Y93099257D01*
X40937730Y93168185D01*
X40961179Y93190362D01*
X41224177Y93438815D01*
X41356524Y93432102D01*
X41488870Y93425388D01*
X41612341Y93360548D01*
X41735812Y93295707D01*
X41867514Y92958425D01*
X41861969Y92745907D01*
X41856343Y92617079D01*
X41845911Y92491066D01*
X41830052Y92364006D01*
X41808142Y92232036D01*
X41779559Y92091295D01*
X41743678Y91937921D01*
X41711038Y91810120D01*
X41688378Y91723717D01*
X41670733Y91655393D01*
X41657653Y91602768D01*
X41648688Y91563462D01*
X41643388Y91535096D01*
X41641301Y91515290D01*
X41641978Y91501664D01*
X41644968Y91491839D01*
X41649346Y91484156D01*
X41664885Y91466617D01*
X41677622Y91461653D01*
X41684752Y91471817D01*
X41699600Y91498812D01*
X41720971Y91540258D01*
X41747668Y91593779D01*
X41778495Y91656996D01*
X41812255Y91727533D01*
X41825648Y91755854D01*
X41876349Y91864997D01*
X41919157Y91961012D01*
X41956314Y92049362D01*
X41990061Y92135511D01*
X42022639Y92224924D01*
X42046893Y92295165D01*
X42131219Y92543977D01*
X42140223Y92792789D01*
X42149228Y93041601D01*
X42110649Y93179210D01*
X42072069Y93316819D01*
X41960662Y93433316D01*
X41916353Y93479150D01*
X41881265Y93513333D01*
X41850230Y93539750D01*
X41818080Y93562286D01*
X41779649Y93584828D01*
X41729768Y93611260D01*
X41711414Y93620727D01*
X41573572Y93691641D01*
X41439902Y93692194D01*
X41385542Y93692930D01*
X41336010Y93694527D01*
X41296732Y93696751D01*
X41273134Y93699367D01*
X41272960Y93699401D01*
X41255844Y93706011D01*
X41235260Y93720890D01*
X41208775Y93746325D01*
X41173958Y93784606D01*
X41138784Y93825643D01*
X41063181Y93908401D01*
X40984224Y93979961D01*
X40895264Y94045974D01*
X40830848Y94087406D01*
X40815837Y94093544D01*
X40785072Y94104068D01*
X40743136Y94117465D01*
X40697902Y94131247D01*
X40635127Y94148505D01*
X40576387Y94160995D01*
X40513732Y94170086D01*
X40439208Y94177144D01*
X40424802Y94178239D01*
X40366081Y94182027D01*
X40311347Y94184550D01*
X40265795Y94185639D01*
X40234616Y94185123D01*
X40228929Y94184640D01*
X40206150Y94182261D01*
X40165970Y94178363D01*
X40112080Y94173290D01*
X40048173Y94167389D01*
X39977939Y94161005D01*
X39946045Y94158139D01*
X39866906Y94151185D01*
X39804465Y94146222D01*
X39754347Y94143197D01*
X39712174Y94142055D01*
X39673568Y94142743D01*
X39634154Y94145206D01*
X39589552Y94149392D01*
X39553002Y94153307D01*
X39400492Y94170020D01*
X39256620Y94250113D01*
X39112747Y94330207D01*
X39036747Y94300389D01*
G37*
X39036747Y94300389D02*
X39002762Y94286306D01*
X38976741Y94272499D01*
X38953961Y94255095D01*
X38929701Y94230218D01*
X38899238Y94193993D01*
X38883799Y94174886D01*
X38844410Y94122869D01*
X38802674Y94062826D01*
X38765062Y94004253D01*
X38749251Y93977472D01*
X38679732Y93865367D01*
X38597035Y93752059D01*
X38498627Y93634165D01*
X38460891Y93592163D01*
X38415592Y93540916D01*
X38366979Y93483201D01*
X38321380Y93426665D01*
X38289955Y93385574D01*
X38248454Y93333390D01*
X38198436Y93276614D01*
X38147814Y93224021D01*
X38123086Y93200515D01*
X38075020Y93154763D01*
X38038255Y93114006D01*
X38006870Y93070917D01*
X37974946Y93018168D01*
X37972936Y93014628D01*
X37947724Y92968407D01*
X37928888Y92928477D01*
X37914050Y92888272D01*
X37900834Y92841227D01*
X37886864Y92780775D01*
X37884716Y92770882D01*
X37872233Y92711528D01*
X37864032Y92665880D01*
X37859573Y92627025D01*
X37858315Y92588053D01*
X37859719Y92542048D01*
X37862756Y92489805D01*
X37866601Y92432608D01*
X37870645Y92390737D01*
X37876301Y92358377D01*
X37884984Y92329713D01*
X37898108Y92298930D01*
X37917086Y92260213D01*
X37919984Y92254439D01*
X37940302Y92213138D01*
X37956429Y92178746D01*
X37966322Y92155717D01*
X37968445Y92148823D01*
X37960806Y92139051D01*
X37939802Y92118360D01*
X37908301Y92089425D01*
X37869171Y92054923D01*
X37851936Y92040088D01*
X37735427Y91940475D01*
X37649305Y91771071D01*
X37620292Y91713664D01*
X37597934Y91667661D01*
X37580579Y91628302D01*
X37566575Y91590828D01*
X37554274Y91550479D01*
X37542022Y91502496D01*
X37528170Y91442119D01*
X37515839Y91386304D01*
X37468495Y91170941D01*
X37385828Y91024118D01*
X37354231Y90967129D01*
X37330114Y90920564D01*
X37311126Y90878566D01*
X37294915Y90835275D01*
X37279128Y90784832D01*
X37261415Y90721377D01*
X37255529Y90699506D01*
X37227444Y90580537D01*
X37204328Y90450986D01*
X37185914Y90308588D01*
X37171936Y90151078D01*
X37162126Y89976193D01*
X37158532Y89875865D01*
X37156473Y89794457D01*
X37155850Y89726923D01*
X37156938Y89666922D01*
X37160014Y89608113D01*
X37165352Y89544157D01*
X37173231Y89468711D01*
X37178155Y89425161D01*
X37186831Y89351272D01*
X37194643Y89291029D01*
X37202634Y89239525D01*
X37211847Y89191858D01*
X37223324Y89143121D01*
X37238107Y89088408D01*
X37257238Y89022817D01*
X37279077Y88950294D01*
X37353780Y88703787D01*
X37249279Y88421631D01*
X37220057Y88342516D01*
X37191325Y88264331D01*
X37164478Y88190902D01*
X37140910Y88126053D01*
X37122016Y88073610D01*
X37109712Y88038891D01*
X37094335Y87998218D01*
X37076250Y87958108D01*
X37053391Y87914832D01*
X37023692Y87864660D01*
X36985087Y87803862D01*
X36949807Y87750194D01*
X36824969Y87562081D01*
X36824981Y87292455D01*
X36949381Y87216157D01*
X36999101Y87183746D01*
X37059379Y87141461D01*
X37124772Y87093296D01*
X37189835Y87043244D01*
X37238863Y87003808D01*
X37403946Y86867756D01*
X37641198Y86781708D01*
X37878449Y86695660D01*
X38196082Y86669112D01*
X38293496Y86661594D01*
X38399913Y86654452D01*
X38509027Y86648038D01*
X38614536Y86642703D01*
X38710134Y86638797D01*
X38773114Y86636983D01*
X39032514Y86631402D01*
X39209219Y86672055D01*
X39285204Y86690958D01*
X39363476Y86712901D01*
X39436719Y86735704D01*
X39497616Y86757190D01*
X39505675Y86760340D01*
X39562041Y86782044D01*
X39620617Y86803407D01*
X39673501Y86821605D01*
X39704835Y86831524D01*
X39745167Y86844753D01*
X39777064Y86859394D01*
X39807166Y86879492D01*
X39842114Y86909090D01*
X39861605Y86926969D01*
X39938966Y86998862D01*
X39907144Y87166834D01*
X39896716Y87222688D01*
X39888951Y87268135D01*
X39883553Y87307777D01*
X39880229Y87346214D01*
X39878681Y87388049D01*
X39878616Y87437882D01*
X39879739Y87500315D01*
X39881432Y87567737D01*
X39887542Y87800667D01*
X39770654Y88150063D01*
X39688288Y88399696D01*
X39614473Y88630657D01*
X39549019Y88843563D01*
X39491737Y89039028D01*
X39446192Y89203612D01*
X39389535Y89415116D01*
X39423713Y89634903D01*
X39457891Y89854689D01*
X39908023Y91188745D01*
X39937986Y91421676D01*
X39967949Y91654606D01*
X40078406Y91961651D01*
X40109584Y92048152D01*
X40134962Y92117666D01*
X40155890Y92173139D01*
X40173717Y92217516D01*
X40189791Y92253743D01*
X40205462Y92284766D01*
X40222079Y92313531D01*
X40240990Y92342982D01*
X40263545Y92376066D01*
X40277207Y92395748D01*
X40310047Y92441696D01*
X40352907Y92499748D01*
X40402490Y92565545D01*
X40455497Y92634728D01*
X40508632Y92702937D01*
X40531866Y92732355D01*
X40581155Y92793927D01*
X40625086Y92847318D01*
X40666546Y92895604D01*
X40708419Y92941864D01*
X40753589Y92989174D01*
X40804941Y93040613D01*
X40865359Y93099257D01*
X40937730Y93168185D01*
X40961179Y93190362D01*
X41224177Y93438815D01*
X41356524Y93432102D01*
X41488870Y93425388D01*
X41612341Y93360548D01*
X41735812Y93295707D01*
X41867514Y92958425D01*
X41861969Y92745907D01*
X41856343Y92617079D01*
X41845911Y92491066D01*
X41830052Y92364006D01*
X41808142Y92232036D01*
X41779559Y92091295D01*
X41743678Y91937921D01*
X41711038Y91810120D01*
X41688378Y91723717D01*
X41670733Y91655393D01*
X41657653Y91602768D01*
X41648688Y91563462D01*
X41643388Y91535096D01*
X41641301Y91515290D01*
X41641978Y91501664D01*
X41644968Y91491839D01*
X41649346Y91484156D01*
X41664885Y91466617D01*
X41677622Y91461653D01*
X41684752Y91471817D01*
X41699600Y91498812D01*
X41720971Y91540258D01*
X41747668Y91593779D01*
X41778495Y91656996D01*
X41812255Y91727533D01*
X41825648Y91755854D01*
X41876349Y91864997D01*
X41919157Y91961012D01*
X41956314Y92049362D01*
X41990061Y92135511D01*
X42022639Y92224924D01*
X42046893Y92295165D01*
X42131219Y92543977D01*
X42140223Y92792789D01*
X42149228Y93041601D01*
X42110649Y93179210D01*
X42072069Y93316819D01*
X41960662Y93433316D01*
X41916353Y93479150D01*
X41881265Y93513333D01*
X41850230Y93539750D01*
X41818080Y93562286D01*
X41779649Y93584828D01*
X41729768Y93611260D01*
X41711414Y93620727D01*
X41573572Y93691641D01*
X41439902Y93692194D01*
X41385542Y93692930D01*
X41336010Y93694527D01*
X41296732Y93696751D01*
X41273134Y93699367D01*
X41272960Y93699401D01*
X41255844Y93706011D01*
X41235260Y93720890D01*
X41208775Y93746325D01*
X41173958Y93784606D01*
X41138784Y93825643D01*
X41063181Y93908401D01*
X40984224Y93979961D01*
X40895264Y94045974D01*
X40830848Y94087406D01*
X40815837Y94093544D01*
X40785072Y94104068D01*
X40743136Y94117465D01*
X40697902Y94131247D01*
X40635127Y94148505D01*
X40576387Y94160995D01*
X40513732Y94170086D01*
X40439208Y94177144D01*
X40424802Y94178239D01*
X40366081Y94182027D01*
X40311347Y94184550D01*
X40265795Y94185639D01*
X40234616Y94185123D01*
X40228929Y94184640D01*
X40206150Y94182261D01*
X40165970Y94178363D01*
X40112080Y94173290D01*
X40048173Y94167389D01*
X39977939Y94161005D01*
X39946045Y94158139D01*
X39866906Y94151185D01*
X39804465Y94146222D01*
X39754347Y94143197D01*
X39712174Y94142055D01*
X39673568Y94142743D01*
X39634154Y94145206D01*
X39589552Y94149392D01*
X39553002Y94153307D01*
X39400492Y94170020D01*
X39256620Y94250113D01*
X39112747Y94330207D01*
X39036747Y94300389D01*
%TD*%
D11*
%TO.C,J1*%
X32310000Y110500000D03*
X29770000Y110500000D03*
X27230000Y110500000D03*
X24690000Y110500000D03*
%TD*%
%TO.C,J2*%
X60310000Y110500000D03*
X57770000Y110500000D03*
X55230000Y110500000D03*
X52690000Y110500000D03*
%TD*%
%TO.C,J6*%
X9398026Y75194077D03*
X11194077Y73398026D03*
X7601974Y73398026D03*
X9398026Y71601974D03*
D12*
G36*
X9086898Y69805923D02*
G01*
X7601974Y68320999D01*
X6117050Y69805923D01*
X7601974Y71290847D01*
X9086898Y69805923D01*
G37*
D11*
X5805923Y71601974D03*
%TD*%
D13*
%TO.C,J7*%
X34700000Y43600000D03*
X48000000Y21900000D03*
D14*
X31070000Y44910000D03*
X31070000Y42370000D03*
X31070000Y39830000D03*
X31070000Y37290000D03*
X31070000Y34750000D03*
X31070000Y32210000D03*
X31070000Y29670000D03*
X31070000Y27130000D03*
X31070000Y24590000D03*
X31070000Y22050000D03*
X31070000Y19510000D03*
X31070000Y16970000D03*
X31070000Y14430000D03*
X53930000Y44910000D03*
X53930000Y42370000D03*
X53930000Y39830000D03*
X53930000Y37290000D03*
X53930000Y34750000D03*
X53930000Y32210000D03*
X53930000Y29670000D03*
X53930000Y27130000D03*
X53930000Y24590000D03*
X53930000Y22050000D03*
X53930000Y19510000D03*
X53930000Y16970000D03*
D15*
X53930000Y14430000D03*
%TD*%
D11*
%TO.C,J4*%
X21040000Y117770000D03*
X21040000Y115230000D03*
X18500000Y117770000D03*
X18500000Y115230000D03*
D16*
X15960000Y115230000D03*
D11*
X15960000Y117770000D03*
%TD*%
%TO.C,J5*%
X79194077Y71601974D03*
X77398026Y69805923D03*
X77398026Y73398026D03*
X75601974Y71601974D03*
D12*
G36*
X73805923Y71913102D02*
G01*
X72320999Y73398026D01*
X73805923Y74882950D01*
X75290847Y73398026D01*
X73805923Y71913102D01*
G37*
D11*
X75601974Y75194077D03*
%TD*%
%TO.C,J3*%
X69040000Y117770000D03*
X69040000Y115230000D03*
X66500000Y117770000D03*
X66500000Y115230000D03*
D16*
X63960000Y115230000D03*
D11*
X63960000Y117770000D03*
%TD*%
D17*
%TO.C,H5*%
X42500000Y118500000D03*
%TD*%
D18*
%TO.C,H1*%
X6500000Y118500000D03*
%TD*%
%TO.C,H2*%
X78500000Y118500000D03*
%TD*%
%TO.C,H3*%
X6500000Y6500000D03*
%TD*%
%TO.C,H4*%
X78500000Y6500000D03*
%TD*%
D16*
%TO.C,J12*%
X12500000Y91610000D03*
D19*
X12500000Y94150000D03*
X12500000Y96690000D03*
X12500000Y99230000D03*
X12500000Y101770000D03*
X12500000Y104310000D03*
X12500000Y106850000D03*
X12500000Y109390000D03*
%TD*%
D16*
%TO.C,J13*%
X72500000Y109390000D03*
D19*
X72500000Y106850000D03*
X72500000Y104310000D03*
X72500000Y101770000D03*
X72500000Y99230000D03*
X72500000Y96690000D03*
X72500000Y94150000D03*
X72500000Y91610000D03*
%TD*%
D20*
%TO.C,J8*%
X78500000Y45500000D03*
D21*
X78500000Y37600000D03*
%TD*%
D20*
%TO.C,J9*%
X78500000Y14500000D03*
D21*
X78500000Y22400000D03*
%TD*%
D20*
%TO.C,J10*%
X6500000Y45500000D03*
D21*
X6500000Y37600000D03*
%TD*%
D20*
%TO.C,J11*%
X6500000Y14500000D03*
D21*
X6500000Y22400000D03*
%TD*%
M02*
