%TF.GenerationSoftware,KiCad,Pcbnew,(5.1.6)-1*%
%TF.CreationDate,2020-10-12T10:25:55+11:00*%
%TF.ProjectId,swag-badge,73776167-2d62-4616-9467-652e6b696361,rev?*%
%TF.SameCoordinates,Original*%
%TF.FileFunction,Legend,Top*%
%TF.FilePolarity,Positive*%
%FSLAX46Y46*%
G04 Gerber Fmt 4.6, Leading zero omitted, Abs format (unit mm)*
G04 Created by KiCad (PCBNEW (5.1.6)-1) date 2020-10-12 10:25:55*
%MOMM*%
%LPD*%
G01*
G04 APERTURE LIST*
%ADD10C,0.150000*%
%ADD11C,1.250000*%
%ADD12C,0.120000*%
%ADD13C,1.200000*%
%ADD14C,0.010000*%
G04 APERTURE END LIST*
D10*
X42954642Y97023809D02*
X42907023Y97071428D01*
X42811785Y97119047D01*
X42716547Y97119047D01*
X42621309Y97071428D01*
X42573690Y97023809D01*
X42526071Y96928571D01*
X42526071Y96833333D01*
X42573690Y96738095D01*
X42621309Y96690476D01*
X42716547Y96642857D01*
X42811785Y96642857D01*
X42907023Y96690476D01*
X42954642Y96738095D01*
X42954642Y97119047D02*
X42954642Y96738095D01*
X43002261Y96690476D01*
X43049880Y96690476D01*
X43145119Y96738095D01*
X43192738Y96833333D01*
X43192738Y97071428D01*
X43097500Y97214285D01*
X42954642Y97309523D01*
X42764166Y97357142D01*
X42573690Y97309523D01*
X42430833Y97214285D01*
X42335595Y97071428D01*
X42287976Y96880952D01*
X42335595Y96690476D01*
X42430833Y96547619D01*
X42573690Y96452380D01*
X42764166Y96404761D01*
X42954642Y96452380D01*
X43097500Y96547619D01*
X43573690Y96595238D02*
X43668928Y96547619D01*
X43859404Y96547619D01*
X43954642Y96595238D01*
X44002261Y96690476D01*
X44002261Y96738095D01*
X43954642Y96833333D01*
X43859404Y96880952D01*
X43716547Y96880952D01*
X43621309Y96928571D01*
X43573690Y97023809D01*
X43573690Y97071428D01*
X43621309Y97166666D01*
X43716547Y97214285D01*
X43859404Y97214285D01*
X43954642Y97166666D01*
X44335595Y97214285D02*
X44526071Y96547619D01*
X44716547Y97023809D01*
X44907023Y96547619D01*
X45097500Y97214285D01*
X45907023Y96547619D02*
X45907023Y97071428D01*
X45859404Y97166666D01*
X45764166Y97214285D01*
X45573690Y97214285D01*
X45478452Y97166666D01*
X45907023Y96595238D02*
X45811785Y96547619D01*
X45573690Y96547619D01*
X45478452Y96595238D01*
X45430833Y96690476D01*
X45430833Y96785714D01*
X45478452Y96880952D01*
X45573690Y96928571D01*
X45811785Y96928571D01*
X45907023Y96976190D01*
X46811785Y97214285D02*
X46811785Y96404761D01*
X46764166Y96309523D01*
X46716547Y96261904D01*
X46621309Y96214285D01*
X46478452Y96214285D01*
X46383214Y96261904D01*
X46811785Y96595238D02*
X46716547Y96547619D01*
X46526071Y96547619D01*
X46430833Y96595238D01*
X46383214Y96642857D01*
X46335595Y96738095D01*
X46335595Y97023809D01*
X46383214Y97119047D01*
X46430833Y97166666D01*
X46526071Y97214285D01*
X46716547Y97214285D01*
X46811785Y97166666D01*
X47287976Y96547619D02*
X47287976Y97547619D01*
X47287976Y97166666D02*
X47383214Y97214285D01*
X47573690Y97214285D01*
X47668928Y97166666D01*
X47716547Y97119047D01*
X47764166Y97023809D01*
X47764166Y96738095D01*
X47716547Y96642857D01*
X47668928Y96595238D01*
X47573690Y96547619D01*
X47383214Y96547619D01*
X47287976Y96595238D01*
X48621309Y96547619D02*
X48621309Y97071428D01*
X48573690Y97166666D01*
X48478452Y97214285D01*
X48287976Y97214285D01*
X48192738Y97166666D01*
X48621309Y96595238D02*
X48526071Y96547619D01*
X48287976Y96547619D01*
X48192738Y96595238D01*
X48145119Y96690476D01*
X48145119Y96785714D01*
X48192738Y96880952D01*
X48287976Y96928571D01*
X48526071Y96928571D01*
X48621309Y96976190D01*
X49526071Y96547619D02*
X49526071Y97547619D01*
X49526071Y96595238D02*
X49430833Y96547619D01*
X49240357Y96547619D01*
X49145119Y96595238D01*
X49097500Y96642857D01*
X49049880Y96738095D01*
X49049880Y97023809D01*
X49097500Y97119047D01*
X49145119Y97166666D01*
X49240357Y97214285D01*
X49430833Y97214285D01*
X49526071Y97166666D01*
X50430833Y97214285D02*
X50430833Y96404761D01*
X50383214Y96309523D01*
X50335595Y96261904D01*
X50240357Y96214285D01*
X50097500Y96214285D01*
X50002261Y96261904D01*
X50430833Y96595238D02*
X50335595Y96547619D01*
X50145119Y96547619D01*
X50049880Y96595238D01*
X50002261Y96642857D01*
X49954642Y96738095D01*
X49954642Y97023809D01*
X50002261Y97119047D01*
X50049880Y97166666D01*
X50145119Y97214285D01*
X50335595Y97214285D01*
X50430833Y97166666D01*
X51287976Y96595238D02*
X51192738Y96547619D01*
X51002261Y96547619D01*
X50907023Y96595238D01*
X50859404Y96690476D01*
X50859404Y97071428D01*
X50907023Y97166666D01*
X51002261Y97214285D01*
X51192738Y97214285D01*
X51287976Y97166666D01*
X51335595Y97071428D01*
X51335595Y96976190D01*
X50859404Y96880952D01*
X51716547Y97452380D02*
X51764166Y97500000D01*
X51859404Y97547619D01*
X52097500Y97547619D01*
X52192738Y97500000D01*
X52240357Y97452380D01*
X52287976Y97357142D01*
X52287976Y97261904D01*
X52240357Y97119047D01*
X51668928Y96547619D01*
X52287976Y96547619D01*
X52907023Y97547619D02*
X53002261Y97547619D01*
X53097500Y97500000D01*
X53145119Y97452380D01*
X53192738Y97357142D01*
X53240357Y97166666D01*
X53240357Y96928571D01*
X53192738Y96738095D01*
X53145119Y96642857D01*
X53097500Y96595238D01*
X53002261Y96547619D01*
X52907023Y96547619D01*
X52811785Y96595238D01*
X52764166Y96642857D01*
X52716547Y96738095D01*
X52668928Y96928571D01*
X52668928Y97166666D01*
X52716547Y97357142D01*
X52764166Y97452380D01*
X52811785Y97500000D01*
X52907023Y97547619D01*
X53621309Y97452380D02*
X53668928Y97500000D01*
X53764166Y97547619D01*
X54002261Y97547619D01*
X54097500Y97500000D01*
X54145119Y97452380D01*
X54192738Y97357142D01*
X54192738Y97261904D01*
X54145119Y97119047D01*
X53573690Y96547619D01*
X54192738Y96547619D01*
X55145119Y96547619D02*
X54573690Y96547619D01*
X54859404Y96547619D02*
X54859404Y97547619D01*
X54764166Y97404761D01*
X54668928Y97309523D01*
X54573690Y97261904D01*
X42954642Y99023809D02*
X42907023Y99071428D01*
X42811785Y99119047D01*
X42716547Y99119047D01*
X42621309Y99071428D01*
X42573690Y99023809D01*
X42526071Y98928571D01*
X42526071Y98833333D01*
X42573690Y98738095D01*
X42621309Y98690476D01*
X42716547Y98642857D01*
X42811785Y98642857D01*
X42907023Y98690476D01*
X42954642Y98738095D01*
X42954642Y99119047D02*
X42954642Y98738095D01*
X43002261Y98690476D01*
X43049880Y98690476D01*
X43145119Y98738095D01*
X43192738Y98833333D01*
X43192738Y99071428D01*
X43097500Y99214285D01*
X42954642Y99309523D01*
X42764166Y99357142D01*
X42573690Y99309523D01*
X42430833Y99214285D01*
X42335595Y99071428D01*
X42287976Y98880952D01*
X42335595Y98690476D01*
X42430833Y98547619D01*
X42573690Y98452380D01*
X42764166Y98404761D01*
X42954642Y98452380D01*
X43097500Y98547619D01*
X43621309Y99214285D02*
X43621309Y98547619D01*
X43621309Y99119047D02*
X43668928Y99166666D01*
X43764166Y99214285D01*
X43907023Y99214285D01*
X44002261Y99166666D01*
X44049880Y99071428D01*
X44049880Y98547619D01*
X44430833Y99214285D02*
X44668928Y98547619D01*
X44907023Y99214285D02*
X44668928Y98547619D01*
X44573690Y98309523D01*
X44526071Y98261904D01*
X44430833Y98214285D01*
X45668928Y98595238D02*
X45573690Y98547619D01*
X45383214Y98547619D01*
X45287976Y98595238D01*
X45240357Y98690476D01*
X45240357Y99071428D01*
X45287976Y99166666D01*
X45383214Y99214285D01*
X45573690Y99214285D01*
X45668928Y99166666D01*
X45716547Y99071428D01*
X45716547Y98976190D01*
X45240357Y98880952D01*
X45907023Y98452380D02*
X46668928Y98452380D01*
X46907023Y99214285D02*
X46907023Y98547619D01*
X46907023Y99119047D02*
X46954642Y99166666D01*
X47049880Y99214285D01*
X47192738Y99214285D01*
X47287976Y99166666D01*
X47335595Y99071428D01*
X47335595Y98547619D01*
X47811785Y98547619D02*
X47811785Y99214285D01*
X47811785Y99547619D02*
X47764166Y99500000D01*
X47811785Y99452380D01*
X47859404Y99500000D01*
X47811785Y99547619D01*
X47811785Y99452380D01*
X48716547Y98595238D02*
X48621309Y98547619D01*
X48430833Y98547619D01*
X48335595Y98595238D01*
X48287976Y98642857D01*
X48240357Y98738095D01*
X48240357Y99023809D01*
X48287976Y99119047D01*
X48335595Y99166666D01*
X48430833Y99214285D01*
X48621309Y99214285D01*
X48716547Y99166666D01*
X49287976Y98547619D02*
X49192738Y98595238D01*
X49145119Y98642857D01*
X49097500Y98738095D01*
X49097500Y99023809D01*
X49145119Y99119047D01*
X49192738Y99166666D01*
X49287976Y99214285D01*
X49430833Y99214285D01*
X49526071Y99166666D01*
X49573690Y99119047D01*
X49621309Y99023809D01*
X49621309Y98738095D01*
X49573690Y98642857D01*
X49526071Y98595238D01*
X49430833Y98547619D01*
X49287976Y98547619D01*
X50192738Y98547619D02*
X50097500Y98595238D01*
X50049880Y98690476D01*
X50049880Y99547619D01*
X51002261Y98547619D02*
X51002261Y99071428D01*
X50954642Y99166666D01*
X50859404Y99214285D01*
X50668928Y99214285D01*
X50573690Y99166666D01*
X51002261Y98595238D02*
X50907023Y98547619D01*
X50668928Y98547619D01*
X50573690Y98595238D01*
X50526071Y98690476D01*
X50526071Y98785714D01*
X50573690Y98880952D01*
X50668928Y98928571D01*
X50907023Y98928571D01*
X51002261Y98976190D01*
X42954642Y101023809D02*
X42907023Y101071428D01*
X42811785Y101119047D01*
X42716547Y101119047D01*
X42621309Y101071428D01*
X42573690Y101023809D01*
X42526071Y100928571D01*
X42526071Y100833333D01*
X42573690Y100738095D01*
X42621309Y100690476D01*
X42716547Y100642857D01*
X42811785Y100642857D01*
X42907023Y100690476D01*
X42954642Y100738095D01*
X42954642Y101119047D02*
X42954642Y100738095D01*
X43002261Y100690476D01*
X43049880Y100690476D01*
X43145119Y100738095D01*
X43192738Y100833333D01*
X43192738Y101071428D01*
X43097500Y101214285D01*
X42954642Y101309523D01*
X42764166Y101357142D01*
X42573690Y101309523D01*
X42430833Y101214285D01*
X42335595Y101071428D01*
X42287976Y100880952D01*
X42335595Y100690476D01*
X42430833Y100547619D01*
X42573690Y100452380D01*
X42764166Y100404761D01*
X42954642Y100452380D01*
X43097500Y100547619D01*
X43621309Y100547619D02*
X43621309Y101214285D01*
X43621309Y101119047D02*
X43668928Y101166666D01*
X43764166Y101214285D01*
X43907023Y101214285D01*
X44002261Y101166666D01*
X44049880Y101071428D01*
X44049880Y100547619D01*
X44049880Y101071428D02*
X44097500Y101166666D01*
X44192738Y101214285D01*
X44335595Y101214285D01*
X44430833Y101166666D01*
X44478452Y101071428D01*
X44478452Y100547619D01*
X45383214Y100547619D02*
X45383214Y101071428D01*
X45335595Y101166666D01*
X45240357Y101214285D01*
X45049880Y101214285D01*
X44954642Y101166666D01*
X45383214Y100595238D02*
X45287976Y100547619D01*
X45049880Y100547619D01*
X44954642Y100595238D01*
X44907023Y100690476D01*
X44907023Y100785714D01*
X44954642Y100880952D01*
X45049880Y100928571D01*
X45287976Y100928571D01*
X45383214Y100976190D01*
X46287976Y101214285D02*
X46287976Y100404761D01*
X46240357Y100309523D01*
X46192738Y100261904D01*
X46097500Y100214285D01*
X45954642Y100214285D01*
X45859404Y100261904D01*
X46287976Y100595238D02*
X46192738Y100547619D01*
X46002261Y100547619D01*
X45907023Y100595238D01*
X45859404Y100642857D01*
X45811785Y100738095D01*
X45811785Y101023809D01*
X45859404Y101119047D01*
X45907023Y101166666D01*
X46002261Y101214285D01*
X46192738Y101214285D01*
X46287976Y101166666D01*
X47145119Y100595238D02*
X47049880Y100547619D01*
X46859404Y100547619D01*
X46764166Y100595238D01*
X46716547Y100690476D01*
X46716547Y101071428D01*
X46764166Y101166666D01*
X46859404Y101214285D01*
X47049880Y101214285D01*
X47145119Y101166666D01*
X47192738Y101071428D01*
X47192738Y100976190D01*
X46716547Y100880952D01*
X47811785Y101547619D02*
X47907023Y101547619D01*
X48002261Y101500000D01*
X48049880Y101452380D01*
X48097500Y101357142D01*
X48145119Y101166666D01*
X48145119Y100928571D01*
X48097500Y100738095D01*
X48049880Y100642857D01*
X48002261Y100595238D01*
X47907023Y100547619D01*
X47811785Y100547619D01*
X47716547Y100595238D01*
X47668928Y100642857D01*
X47621309Y100738095D01*
X47573690Y100928571D01*
X47573690Y101166666D01*
X47621309Y101357142D01*
X47668928Y101452380D01*
X47716547Y101500000D01*
X47811785Y101547619D01*
X48573690Y100547619D02*
X48573690Y101214285D01*
X48573690Y101023809D02*
X48621309Y101119047D01*
X48668928Y101166666D01*
X48764166Y101214285D01*
X48859404Y101214285D01*
X42954642Y103023809D02*
X42907023Y103071428D01*
X42811785Y103119047D01*
X42716547Y103119047D01*
X42621309Y103071428D01*
X42573690Y103023809D01*
X42526071Y102928571D01*
X42526071Y102833333D01*
X42573690Y102738095D01*
X42621309Y102690476D01*
X42716547Y102642857D01*
X42811785Y102642857D01*
X42907023Y102690476D01*
X42954642Y102738095D01*
X42954642Y103119047D02*
X42954642Y102738095D01*
X43002261Y102690476D01*
X43049880Y102690476D01*
X43145119Y102738095D01*
X43192738Y102833333D01*
X43192738Y103071428D01*
X43097500Y103214285D01*
X42954642Y103309523D01*
X42764166Y103357142D01*
X42573690Y103309523D01*
X42430833Y103214285D01*
X42335595Y103071428D01*
X42287976Y102880952D01*
X42335595Y102690476D01*
X42430833Y102547619D01*
X42573690Y102452380D01*
X42764166Y102404761D01*
X42954642Y102452380D01*
X43097500Y102547619D01*
X43621309Y103214285D02*
X43621309Y102357142D01*
X43573690Y102261904D01*
X43478452Y102214285D01*
X43430833Y102214285D01*
X43621309Y103547619D02*
X43573690Y103500000D01*
X43621309Y103452380D01*
X43668928Y103500000D01*
X43621309Y103547619D01*
X43621309Y103452380D01*
X44240357Y102547619D02*
X44145119Y102595238D01*
X44097500Y102642857D01*
X44049880Y102738095D01*
X44049880Y103023809D01*
X44097500Y103119047D01*
X44145119Y103166666D01*
X44240357Y103214285D01*
X44383214Y103214285D01*
X44478452Y103166666D01*
X44526071Y103119047D01*
X44573690Y103023809D01*
X44573690Y102738095D01*
X44526071Y102642857D01*
X44478452Y102595238D01*
X44383214Y102547619D01*
X44240357Y102547619D01*
X45002261Y103214285D02*
X45002261Y102547619D01*
X45002261Y103119047D02*
X45049880Y103166666D01*
X45145119Y103214285D01*
X45287976Y103214285D01*
X45383214Y103166666D01*
X45430833Y103071428D01*
X45430833Y102547619D01*
X46049880Y102547619D02*
X45954642Y102595238D01*
X45907023Y102642857D01*
X45859404Y102738095D01*
X45859404Y103023809D01*
X45907023Y103119047D01*
X45954642Y103166666D01*
X46049880Y103214285D01*
X46192738Y103214285D01*
X46287976Y103166666D01*
X46335595Y103119047D01*
X46383214Y103023809D01*
X46383214Y102738095D01*
X46335595Y102642857D01*
X46287976Y102595238D01*
X46192738Y102547619D01*
X46049880Y102547619D01*
X46716547Y102547619D02*
X47240357Y103214285D01*
X46716547Y103214285D02*
X47240357Y102547619D01*
X48002261Y102595238D02*
X47907023Y102547619D01*
X47716547Y102547619D01*
X47621309Y102595238D01*
X47573690Y102690476D01*
X47573690Y103071428D01*
X47621309Y103166666D01*
X47716547Y103214285D01*
X47907023Y103214285D01*
X48002261Y103166666D01*
X48049880Y103071428D01*
X48049880Y102976190D01*
X47573690Y102880952D01*
X48478452Y102547619D02*
X48478452Y103214285D01*
X48478452Y103023809D02*
X48526071Y103119047D01*
X48573690Y103166666D01*
X48668928Y103214285D01*
X48764166Y103214285D01*
X14954642Y97023809D02*
X14907023Y97071428D01*
X14811785Y97119047D01*
X14716547Y97119047D01*
X14621309Y97071428D01*
X14573690Y97023809D01*
X14526071Y96928571D01*
X14526071Y96833333D01*
X14573690Y96738095D01*
X14621309Y96690476D01*
X14716547Y96642857D01*
X14811785Y96642857D01*
X14907023Y96690476D01*
X14954642Y96738095D01*
X14954642Y97119047D02*
X14954642Y96738095D01*
X15002261Y96690476D01*
X15049880Y96690476D01*
X15145119Y96738095D01*
X15192738Y96833333D01*
X15192738Y97071428D01*
X15097500Y97214285D01*
X14954642Y97309523D01*
X14764166Y97357142D01*
X14573690Y97309523D01*
X14430833Y97214285D01*
X14335595Y97071428D01*
X14287976Y96880952D01*
X14335595Y96690476D01*
X14430833Y96547619D01*
X14573690Y96452380D01*
X14764166Y96404761D01*
X14954642Y96452380D01*
X15097500Y96547619D01*
X16049880Y97214285D02*
X16049880Y96404761D01*
X16002261Y96309523D01*
X15954642Y96261904D01*
X15859404Y96214285D01*
X15716547Y96214285D01*
X15621309Y96261904D01*
X16049880Y96595238D02*
X15954642Y96547619D01*
X15764166Y96547619D01*
X15668928Y96595238D01*
X15621309Y96642857D01*
X15573690Y96738095D01*
X15573690Y97023809D01*
X15621309Y97119047D01*
X15668928Y97166666D01*
X15764166Y97214285D01*
X15954642Y97214285D01*
X16049880Y97166666D01*
X16907023Y96595238D02*
X16811785Y96547619D01*
X16621309Y96547619D01*
X16526071Y96595238D01*
X16478452Y96690476D01*
X16478452Y97071428D01*
X16526071Y97166666D01*
X16621309Y97214285D01*
X16811785Y97214285D01*
X16907023Y97166666D01*
X16954642Y97071428D01*
X16954642Y96976190D01*
X16478452Y96880952D01*
X17764166Y96595238D02*
X17668928Y96547619D01*
X17478452Y96547619D01*
X17383214Y96595238D01*
X17335595Y96690476D01*
X17335595Y97071428D01*
X17383214Y97166666D01*
X17478452Y97214285D01*
X17668928Y97214285D01*
X17764166Y97166666D01*
X17811785Y97071428D01*
X17811785Y96976190D01*
X17335595Y96880952D01*
X18240357Y96547619D02*
X18240357Y97547619D01*
X18335595Y96928571D02*
X18621309Y96547619D01*
X18621309Y97214285D02*
X18240357Y96833333D01*
X19002261Y96595238D02*
X19097500Y96547619D01*
X19287976Y96547619D01*
X19383214Y96595238D01*
X19430833Y96690476D01*
X19430833Y96738095D01*
X19383214Y96833333D01*
X19287976Y96880952D01*
X19145119Y96880952D01*
X19049880Y96928571D01*
X19002261Y97023809D01*
X19002261Y97071428D01*
X19049880Y97166666D01*
X19145119Y97214285D01*
X19287976Y97214285D01*
X19383214Y97166666D01*
X20287976Y96595238D02*
X20192738Y96547619D01*
X20002261Y96547619D01*
X19907023Y96595238D01*
X19859404Y96642857D01*
X19811785Y96738095D01*
X19811785Y97023809D01*
X19859404Y97119047D01*
X19907023Y97166666D01*
X20002261Y97214285D01*
X20192738Y97214285D01*
X20287976Y97166666D01*
X21145119Y96547619D02*
X21145119Y97071428D01*
X21097500Y97166666D01*
X21002261Y97214285D01*
X20811785Y97214285D01*
X20716547Y97166666D01*
X21145119Y96595238D02*
X21049880Y96547619D01*
X20811785Y96547619D01*
X20716547Y96595238D01*
X20668928Y96690476D01*
X20668928Y96785714D01*
X20716547Y96880952D01*
X20811785Y96928571D01*
X21049880Y96928571D01*
X21145119Y96976190D01*
X21621309Y97214285D02*
X21621309Y96214285D01*
X21621309Y97166666D02*
X21716547Y97214285D01*
X21907023Y97214285D01*
X22002261Y97166666D01*
X22049880Y97119047D01*
X22097500Y97023809D01*
X22097500Y96738095D01*
X22049880Y96642857D01*
X22002261Y96595238D01*
X21907023Y96547619D01*
X21716547Y96547619D01*
X21621309Y96595238D01*
X22907023Y96595238D02*
X22811785Y96547619D01*
X22621309Y96547619D01*
X22526071Y96595238D01*
X22478452Y96690476D01*
X22478452Y97071428D01*
X22526071Y97166666D01*
X22621309Y97214285D01*
X22811785Y97214285D01*
X22907023Y97166666D01*
X22954642Y97071428D01*
X22954642Y96976190D01*
X22478452Y96880952D01*
X14954642Y99023809D02*
X14907023Y99071428D01*
X14811785Y99119047D01*
X14716547Y99119047D01*
X14621309Y99071428D01*
X14573690Y99023809D01*
X14526071Y98928571D01*
X14526071Y98833333D01*
X14573690Y98738095D01*
X14621309Y98690476D01*
X14716547Y98642857D01*
X14811785Y98642857D01*
X14907023Y98690476D01*
X14954642Y98738095D01*
X14954642Y99119047D02*
X14954642Y98738095D01*
X15002261Y98690476D01*
X15049880Y98690476D01*
X15145119Y98738095D01*
X15192738Y98833333D01*
X15192738Y99071428D01*
X15097500Y99214285D01*
X14954642Y99309523D01*
X14764166Y99357142D01*
X14573690Y99309523D01*
X14430833Y99214285D01*
X14335595Y99071428D01*
X14287976Y98880952D01*
X14335595Y98690476D01*
X14430833Y98547619D01*
X14573690Y98452380D01*
X14764166Y98404761D01*
X14954642Y98452380D01*
X15097500Y98547619D01*
X15621309Y98547619D02*
X15621309Y99214285D01*
X15621309Y99023809D02*
X15668928Y99119047D01*
X15716547Y99166666D01*
X15811785Y99214285D01*
X15907023Y99214285D01*
X16668928Y98547619D02*
X16668928Y99547619D01*
X16668928Y98595238D02*
X16573690Y98547619D01*
X16383214Y98547619D01*
X16287976Y98595238D01*
X16240357Y98642857D01*
X16192738Y98738095D01*
X16192738Y99023809D01*
X16240357Y99119047D01*
X16287976Y99166666D01*
X16383214Y99214285D01*
X16573690Y99214285D01*
X16668928Y99166666D01*
X16907023Y98452380D02*
X17668928Y98452380D01*
X17907023Y99214285D02*
X17907023Y98214285D01*
X17907023Y99166666D02*
X18002261Y99214285D01*
X18192738Y99214285D01*
X18287976Y99166666D01*
X18335595Y99119047D01*
X18383214Y99023809D01*
X18383214Y98738095D01*
X18335595Y98642857D01*
X18287976Y98595238D01*
X18192738Y98547619D01*
X18002261Y98547619D01*
X17907023Y98595238D01*
X18954642Y98547619D02*
X18859404Y98595238D01*
X18811785Y98642857D01*
X18764166Y98738095D01*
X18764166Y99023809D01*
X18811785Y99119047D01*
X18859404Y99166666D01*
X18954642Y99214285D01*
X19097500Y99214285D01*
X19192738Y99166666D01*
X19240357Y99119047D01*
X19287976Y99023809D01*
X19287976Y98738095D01*
X19240357Y98642857D01*
X19192738Y98595238D01*
X19097500Y98547619D01*
X18954642Y98547619D01*
X19621309Y99214285D02*
X19811785Y98547619D01*
X20002261Y99023809D01*
X20192738Y98547619D01*
X20383214Y99214285D01*
X21145119Y98595238D02*
X21049880Y98547619D01*
X20859404Y98547619D01*
X20764166Y98595238D01*
X20716547Y98690476D01*
X20716547Y99071428D01*
X20764166Y99166666D01*
X20859404Y99214285D01*
X21049880Y99214285D01*
X21145119Y99166666D01*
X21192738Y99071428D01*
X21192738Y98976190D01*
X20716547Y98880952D01*
X21621309Y98547619D02*
X21621309Y99214285D01*
X21621309Y99023809D02*
X21668928Y99119047D01*
X21716547Y99166666D01*
X21811785Y99214285D01*
X21907023Y99214285D01*
X22192738Y98595238D02*
X22287976Y98547619D01*
X22478452Y98547619D01*
X22573690Y98595238D01*
X22621309Y98690476D01*
X22621309Y98738095D01*
X22573690Y98833333D01*
X22478452Y98880952D01*
X22335595Y98880952D01*
X22240357Y98928571D01*
X22192738Y99023809D01*
X22192738Y99071428D01*
X22240357Y99166666D01*
X22335595Y99214285D01*
X22478452Y99214285D01*
X22573690Y99166666D01*
X14335595Y100547619D02*
X14335595Y101547619D01*
X14716547Y101547619D01*
X14811785Y101500000D01*
X14859404Y101452380D01*
X14907023Y101357142D01*
X14907023Y101214285D01*
X14859404Y101119047D01*
X14811785Y101071428D01*
X14716547Y101023809D01*
X14335595Y101023809D01*
X15764166Y100547619D02*
X15764166Y101071428D01*
X15716547Y101166666D01*
X15621309Y101214285D01*
X15430833Y101214285D01*
X15335595Y101166666D01*
X15764166Y100595238D02*
X15668928Y100547619D01*
X15430833Y100547619D01*
X15335595Y100595238D01*
X15287976Y100690476D01*
X15287976Y100785714D01*
X15335595Y100880952D01*
X15430833Y100928571D01*
X15668928Y100928571D01*
X15764166Y100976190D01*
X16240357Y101214285D02*
X16240357Y100547619D01*
X16240357Y101119047D02*
X16287976Y101166666D01*
X16383214Y101214285D01*
X16526071Y101214285D01*
X16621309Y101166666D01*
X16668928Y101071428D01*
X16668928Y100547619D01*
X17573690Y100595238D02*
X17478452Y100547619D01*
X17287976Y100547619D01*
X17192738Y100595238D01*
X17145119Y100642857D01*
X17097500Y100738095D01*
X17097500Y101023809D01*
X17145119Y101119047D01*
X17192738Y101166666D01*
X17287976Y101214285D01*
X17478452Y101214285D01*
X17573690Y101166666D01*
X18430833Y100547619D02*
X18430833Y101071428D01*
X18383214Y101166666D01*
X18287976Y101214285D01*
X18097500Y101214285D01*
X18002261Y101166666D01*
X18430833Y100595238D02*
X18335595Y100547619D01*
X18097500Y100547619D01*
X18002261Y100595238D01*
X17954642Y100690476D01*
X17954642Y100785714D01*
X18002261Y100880952D01*
X18097500Y100928571D01*
X18335595Y100928571D01*
X18430833Y100976190D01*
X18907023Y100547619D02*
X18907023Y101547619D01*
X19002261Y100928571D02*
X19287976Y100547619D01*
X19287976Y101214285D02*
X18907023Y100833333D01*
X20097500Y100595238D02*
X20002261Y100547619D01*
X19811785Y100547619D01*
X19716547Y100595238D01*
X19668928Y100690476D01*
X19668928Y101071428D01*
X19716547Y101166666D01*
X19811785Y101214285D01*
X20002261Y101214285D01*
X20097500Y101166666D01*
X20145119Y101071428D01*
X20145119Y100976190D01*
X19668928Y100880952D01*
X21049880Y100547619D02*
X20573690Y100547619D01*
X20573690Y101547619D01*
X21764166Y100595238D02*
X21668928Y100547619D01*
X21478452Y100547619D01*
X21383214Y100595238D01*
X21335595Y100690476D01*
X21335595Y101071428D01*
X21383214Y101166666D01*
X21478452Y101214285D01*
X21668928Y101214285D01*
X21764166Y101166666D01*
X21811785Y101071428D01*
X21811785Y100976190D01*
X21335595Y100880952D01*
X22668928Y101214285D02*
X22668928Y100404761D01*
X22621309Y100309523D01*
X22573690Y100261904D01*
X22478452Y100214285D01*
X22335595Y100214285D01*
X22240357Y100261904D01*
X22668928Y100595238D02*
X22573690Y100547619D01*
X22383214Y100547619D01*
X22287976Y100595238D01*
X22240357Y100642857D01*
X22192738Y100738095D01*
X22192738Y101023809D01*
X22240357Y101119047D01*
X22287976Y101166666D01*
X22383214Y101214285D01*
X22573690Y101214285D01*
X22668928Y101166666D01*
X23526071Y100595238D02*
X23430833Y100547619D01*
X23240357Y100547619D01*
X23145119Y100595238D01*
X23097500Y100690476D01*
X23097500Y101071428D01*
X23145119Y101166666D01*
X23240357Y101214285D01*
X23430833Y101214285D01*
X23526071Y101166666D01*
X23573690Y101071428D01*
X23573690Y100976190D01*
X23097500Y100880952D01*
X24002261Y101214285D02*
X24002261Y100547619D01*
X24002261Y101119047D02*
X24049880Y101166666D01*
X24145119Y101214285D01*
X24287976Y101214285D01*
X24383214Y101166666D01*
X24430833Y101071428D01*
X24430833Y100547619D01*
X25335595Y100547619D02*
X25335595Y101547619D01*
X25335595Y100595238D02*
X25240357Y100547619D01*
X25049880Y100547619D01*
X24954642Y100595238D01*
X24907023Y100642857D01*
X24859404Y100738095D01*
X24859404Y101023809D01*
X24907023Y101119047D01*
X24954642Y101166666D01*
X25049880Y101214285D01*
X25240357Y101214285D01*
X25335595Y101166666D01*
X14954642Y103023809D02*
X14907023Y103071428D01*
X14811785Y103119047D01*
X14716547Y103119047D01*
X14621309Y103071428D01*
X14573690Y103023809D01*
X14526071Y102928571D01*
X14526071Y102833333D01*
X14573690Y102738095D01*
X14621309Y102690476D01*
X14716547Y102642857D01*
X14811785Y102642857D01*
X14907023Y102690476D01*
X14954642Y102738095D01*
X14954642Y103119047D02*
X14954642Y102738095D01*
X15002261Y102690476D01*
X15049880Y102690476D01*
X15145119Y102738095D01*
X15192738Y102833333D01*
X15192738Y103071428D01*
X15097500Y103214285D01*
X14954642Y103309523D01*
X14764166Y103357142D01*
X14573690Y103309523D01*
X14430833Y103214285D01*
X14335595Y103071428D01*
X14287976Y102880952D01*
X14335595Y102690476D01*
X14430833Y102547619D01*
X14573690Y102452380D01*
X14764166Y102404761D01*
X14954642Y102452380D01*
X15097500Y102547619D01*
X15764166Y102547619D02*
X15668928Y102595238D01*
X15621309Y102690476D01*
X15621309Y103547619D01*
X16145119Y102547619D02*
X16145119Y103214285D01*
X16145119Y103547619D02*
X16097500Y103500000D01*
X16145119Y103452380D01*
X16192738Y103500000D01*
X16145119Y103547619D01*
X16145119Y103452380D01*
X16621309Y103214285D02*
X16621309Y102547619D01*
X16621309Y103119047D02*
X16668928Y103166666D01*
X16764166Y103214285D01*
X16907023Y103214285D01*
X17002261Y103166666D01*
X17049880Y103071428D01*
X17049880Y102547619D01*
X17954642Y103214285D02*
X17954642Y102547619D01*
X17526071Y103214285D02*
X17526071Y102690476D01*
X17573690Y102595238D01*
X17668928Y102547619D01*
X17811785Y102547619D01*
X17907023Y102595238D01*
X17954642Y102642857D01*
X18335595Y102547619D02*
X18859404Y103214285D01*
X18335595Y103214285D02*
X18859404Y102547619D01*
X19668928Y102595238D02*
X19573690Y102547619D01*
X19383214Y102547619D01*
X19287976Y102595238D01*
X19240357Y102642857D01*
X19192738Y102738095D01*
X19192738Y103023809D01*
X19240357Y103119047D01*
X19287976Y103166666D01*
X19383214Y103214285D01*
X19573690Y103214285D01*
X19668928Y103166666D01*
X20240357Y102547619D02*
X20145119Y102595238D01*
X20097500Y102642857D01*
X20049880Y102738095D01*
X20049880Y103023809D01*
X20097500Y103119047D01*
X20145119Y103166666D01*
X20240357Y103214285D01*
X20383214Y103214285D01*
X20478452Y103166666D01*
X20526071Y103119047D01*
X20573690Y103023809D01*
X20573690Y102738095D01*
X20526071Y102642857D01*
X20478452Y102595238D01*
X20383214Y102547619D01*
X20240357Y102547619D01*
X21002261Y103214285D02*
X21002261Y102547619D01*
X21002261Y103119047D02*
X21049880Y103166666D01*
X21145119Y103214285D01*
X21287976Y103214285D01*
X21383214Y103166666D01*
X21430833Y103071428D01*
X21430833Y102547619D01*
X21764166Y103214285D02*
X22145119Y103214285D01*
X21907023Y102547619D02*
X21907023Y103404761D01*
X21954642Y103500000D01*
X22049880Y103547619D01*
X22145119Y103547619D01*
X22907023Y102547619D02*
X22907023Y103071428D01*
X22859404Y103166666D01*
X22764166Y103214285D01*
X22573690Y103214285D01*
X22478452Y103166666D01*
X22907023Y102595238D02*
X22811785Y102547619D01*
X22573690Y102547619D01*
X22478452Y102595238D01*
X22430833Y102690476D01*
X22430833Y102785714D01*
X22478452Y102880952D01*
X22573690Y102928571D01*
X22811785Y102928571D01*
X22907023Y102976190D01*
X23811785Y103214285D02*
X23811785Y102547619D01*
X23383214Y103214285D02*
X23383214Y102690476D01*
X23430833Y102595238D01*
X23526071Y102547619D01*
X23668928Y102547619D01*
X23764166Y102595238D01*
X23811785Y102642857D01*
D11*
%TO.C,J6*%
X633636Y69101974D02*
G75*
G03*
X633636Y69101974I-381000J0D01*
G01*
D12*
%TO.C,J7*%
X52699999Y8255000D02*
X52699999Y46990000D01*
X27300001Y46990000D02*
X27300001Y8255000D01*
X50159999Y49529999D02*
X29840001Y49529999D01*
X50159999Y49530000D02*
G75*
G02*
X52699999Y46990000I0J-2540000D01*
G01*
X27300002Y46990000D02*
G75*
G02*
X29840001Y49529999I2539999J0D01*
G01*
D11*
%TO.C,J4*%
X11682000Y117429000D02*
G75*
G03*
X11682000Y117429000I-381000J0D01*
G01*
D12*
%TO.C,J1*%
X19000000Y83700001D02*
X19000000Y81700001D01*
X32999999Y83700001D02*
X19000000Y83700001D01*
X32999999Y81700001D02*
X32999999Y83700001D01*
X12350000Y81700001D02*
X19000000Y81700001D01*
X12350000Y109500000D02*
X12350000Y81700001D01*
X39650000Y109500000D02*
X12350000Y109500000D01*
X39650000Y81700001D02*
X39650000Y109500000D01*
X32999999Y81700001D02*
X39650000Y81700001D01*
%TO.C,SW4*%
X52000000Y93500000D02*
X56000000Y93500000D01*
X52000000Y90500000D02*
X56000000Y90500000D01*
%TO.C,SW3*%
X28000000Y90500000D02*
X24000000Y90500000D01*
X28000000Y93500000D02*
X24000000Y93500000D01*
%TO.C,J2*%
X47000000Y83700001D02*
X47000000Y81700001D01*
X60999999Y83700001D02*
X47000000Y83700001D01*
X60999999Y81700001D02*
X60999999Y83700001D01*
X40350000Y81700001D02*
X47000000Y81700001D01*
X40350000Y109500000D02*
X40350000Y81700001D01*
X67650000Y109500000D02*
X40350000Y109500000D01*
X67650000Y81700001D02*
X67650000Y109500000D01*
X60999999Y81700001D02*
X67650000Y81700001D01*
D11*
%TO.C,J5*%
X73482974Y75747364D02*
G75*
G03*
X73482974Y75747364I-381000J0D01*
G01*
%TO.C,J3*%
X59682000Y117429000D02*
G75*
G03*
X59682000Y117429000I-381000J0D01*
G01*
D12*
%TO.C,SW1*%
X29000000Y90500000D02*
X23000000Y90500000D01*
X23000000Y90500000D02*
X23000000Y93500000D01*
X23000000Y93500000D02*
X29000000Y93500000D01*
X29000000Y93500000D02*
X29000000Y90500000D01*
%TO.C,SW2*%
X51000000Y93500000D02*
X57000000Y93500000D01*
X57000000Y93500000D02*
X57000000Y90500000D01*
X57000000Y90500000D02*
X51000000Y90500000D01*
X51000000Y90500000D02*
X51000000Y93500000D01*
D13*
%TO.C,T1*%
X14000000Y17500000D02*
X14000000Y37500000D01*
X19500000Y43000000D02*
G75*
G03*
X19500000Y43000000I-5500000J0D01*
G01*
X19500000Y12000000D02*
G75*
G03*
X19500000Y12000000I-5500000J0D01*
G01*
%TO.C,T2*%
X66000000Y17500000D02*
X66000000Y37500000D01*
X71500000Y43000000D02*
G75*
G03*
X71500000Y43000000I-5500000J0D01*
G01*
X71500000Y12000000D02*
G75*
G03*
X71500000Y12000000I-5500000J0D01*
G01*
D12*
%TO.C,J12*%
X11270000Y87840000D02*
X10000000Y87840000D01*
X11270000Y89110000D02*
X11270000Y87840000D01*
X5900000Y87780000D02*
X8560000Y87780000D01*
X5900000Y108220000D02*
X5900000Y87780000D01*
X8560000Y108220000D02*
X5900000Y108220000D01*
X8560000Y87780000D02*
X8560000Y108220000D01*
%TO.C,J13*%
X68730000Y108160000D02*
X70000000Y108160000D01*
X68730000Y106890000D02*
X68730000Y108160000D01*
X74100000Y108220000D02*
X71440000Y108220000D01*
X74100000Y87780000D02*
X74100000Y108220000D01*
X71440000Y87780000D02*
X74100000Y87780000D01*
X71440000Y108220000D02*
X71440000Y87780000D01*
D14*
%TO.C,L1*%
G36*
X17109296Y65581159D02*
G01*
X16717549Y65581159D01*
X16717549Y70896207D01*
X17109296Y70896207D01*
X17109296Y65581159D01*
G37*
X17109296Y65581159D02*
X16717549Y65581159D01*
X16717549Y70896207D01*
X17109296Y70896207D01*
X17109296Y65581159D01*
G36*
X30952772Y70895656D02*
G01*
X31794498Y69758084D01*
X31896452Y69620393D01*
X31994991Y69487505D01*
X32089377Y69360406D01*
X32178874Y69240080D01*
X32262745Y69127510D01*
X32340252Y69023682D01*
X32410660Y68929579D01*
X32473231Y68846185D01*
X32527228Y68774486D01*
X32571915Y68715464D01*
X32606555Y68670105D01*
X32630411Y68639393D01*
X32642746Y68624311D01*
X32644324Y68622877D01*
X32651496Y68631514D01*
X32670523Y68656184D01*
X32700667Y68695894D01*
X32741187Y68749656D01*
X32791344Y68816478D01*
X32850398Y68895370D01*
X32917609Y68985342D01*
X32992239Y69085404D01*
X33073547Y69194564D01*
X33160793Y69311832D01*
X33253239Y69436219D01*
X33350144Y69566733D01*
X33450769Y69702384D01*
X33492056Y69758078D01*
X34331687Y70890913D01*
X34551625Y70893778D01*
X34616997Y70894214D01*
X34674295Y70893799D01*
X34720477Y70892623D01*
X34752502Y70890772D01*
X34767329Y70888336D01*
X34767962Y70887488D01*
X34761361Y70878070D01*
X34742858Y70852570D01*
X34713146Y70811928D01*
X34672916Y70757084D01*
X34622862Y70688978D01*
X34563676Y70608551D01*
X34496052Y70516742D01*
X34420683Y70414492D01*
X34338260Y70302740D01*
X34249477Y70182428D01*
X34155026Y70054494D01*
X34055601Y69919880D01*
X33951894Y69779524D01*
X33844598Y69634368D01*
X33822051Y69603872D01*
X33714175Y69457900D01*
X33609819Y69316549D01*
X33509670Y69180759D01*
X33414417Y69051467D01*
X33324746Y68929610D01*
X33241345Y68816129D01*
X33164902Y68711959D01*
X33096105Y68618040D01*
X33035642Y68535310D01*
X32984199Y68464706D01*
X32942465Y68407167D01*
X32911128Y68363630D01*
X32890875Y68335035D01*
X32882394Y68322318D01*
X32882173Y68321751D01*
X32888651Y68312545D01*
X32907092Y68287251D01*
X32936824Y68246776D01*
X32977176Y68192026D01*
X33027477Y68123909D01*
X33087055Y68043329D01*
X33155240Y67951195D01*
X33231360Y67848411D01*
X33314744Y67735886D01*
X33404721Y67614524D01*
X33500619Y67485233D01*
X33601767Y67348919D01*
X33707495Y67206488D01*
X33817130Y67058846D01*
X33893847Y66955566D01*
X34005855Y66804779D01*
X34114476Y66658523D01*
X34219033Y66517709D01*
X34318851Y66383248D01*
X34413254Y66256053D01*
X34501566Y66137034D01*
X34583111Y66027104D01*
X34657212Y65927174D01*
X34723194Y65838155D01*
X34780382Y65760959D01*
X34828098Y65696497D01*
X34865667Y65645682D01*
X34892414Y65609423D01*
X34907661Y65588634D01*
X34911111Y65583806D01*
X34909627Y65579323D01*
X34897661Y65575918D01*
X34873150Y65573471D01*
X34834028Y65571859D01*
X34778233Y65570961D01*
X34703701Y65570655D01*
X34688224Y65570654D01*
X34457316Y65570736D01*
X33552063Y66789108D01*
X33446043Y66931761D01*
X33343403Y67069790D01*
X33244860Y67202235D01*
X33151130Y67328138D01*
X33062930Y67446537D01*
X32980975Y67556473D01*
X32905983Y67656986D01*
X32838670Y67747117D01*
X32779752Y67825905D01*
X32729945Y67892391D01*
X32689966Y67945616D01*
X32660531Y67984618D01*
X32642358Y68008439D01*
X32636223Y68016102D01*
X32628549Y68008870D01*
X32608788Y67985137D01*
X32577376Y67945477D01*
X32534746Y67890468D01*
X32481333Y67820685D01*
X32417573Y67736702D01*
X32343898Y67639097D01*
X32260744Y67528445D01*
X32168546Y67405321D01*
X32067738Y67270301D01*
X31958754Y67123961D01*
X31842029Y66966876D01*
X31717997Y66799623D01*
X31716534Y66797648D01*
X30807433Y65570571D01*
X30574408Y65570571D01*
X30496270Y65570799D01*
X30437245Y65571565D01*
X30395277Y65572991D01*
X30368309Y65575198D01*
X30354283Y65578311D01*
X30351143Y65582451D01*
X30351930Y65583806D01*
X30359328Y65593632D01*
X30378699Y65619528D01*
X30409364Y65660584D01*
X30450644Y65715890D01*
X30501861Y65784536D01*
X30562336Y65865611D01*
X30631390Y65958205D01*
X30708345Y66061408D01*
X30792522Y66174310D01*
X30883241Y66296001D01*
X30979825Y66425569D01*
X31081595Y66562106D01*
X31187871Y66704701D01*
X31297976Y66852443D01*
X31375012Y66955820D01*
X31500056Y67123761D01*
X31618913Y67283667D01*
X31731082Y67434856D01*
X31836061Y67576642D01*
X31933350Y67708342D01*
X32022447Y67829272D01*
X32102850Y67938748D01*
X32174059Y68036086D01*
X32235570Y68120601D01*
X32286885Y68191611D01*
X32327499Y68248430D01*
X32356914Y68290376D01*
X32374626Y68316764D01*
X32380135Y68326909D01*
X32380124Y68326933D01*
X32373091Y68336735D01*
X32354188Y68362632D01*
X32324115Y68403677D01*
X32283566Y68458921D01*
X32233241Y68527416D01*
X32173837Y68608214D01*
X32106051Y68700368D01*
X32030581Y68802928D01*
X31948124Y68914948D01*
X31859378Y69035479D01*
X31765040Y69163573D01*
X31665808Y69298282D01*
X31562379Y69438658D01*
X31455452Y69583752D01*
X31439222Y69605773D01*
X31331834Y69751485D01*
X31227841Y69892616D01*
X31127941Y70028218D01*
X31032830Y70157342D01*
X30943208Y70279041D01*
X30859770Y70392368D01*
X30783215Y70496374D01*
X30714239Y70590112D01*
X30653541Y70672635D01*
X30601817Y70742994D01*
X30559766Y70800243D01*
X30528084Y70843432D01*
X30507469Y70871615D01*
X30498619Y70883844D01*
X30498350Y70884243D01*
X30502021Y70888435D01*
X30519894Y70891615D01*
X30553494Y70893865D01*
X30604349Y70895262D01*
X30673985Y70895888D01*
X30721864Y70895932D01*
X30952772Y70895656D01*
G37*
X30952772Y70895656D02*
X31794498Y69758084D01*
X31896452Y69620393D01*
X31994991Y69487505D01*
X32089377Y69360406D01*
X32178874Y69240080D01*
X32262745Y69127510D01*
X32340252Y69023682D01*
X32410660Y68929579D01*
X32473231Y68846185D01*
X32527228Y68774486D01*
X32571915Y68715464D01*
X32606555Y68670105D01*
X32630411Y68639393D01*
X32642746Y68624311D01*
X32644324Y68622877D01*
X32651496Y68631514D01*
X32670523Y68656184D01*
X32700667Y68695894D01*
X32741187Y68749656D01*
X32791344Y68816478D01*
X32850398Y68895370D01*
X32917609Y68985342D01*
X32992239Y69085404D01*
X33073547Y69194564D01*
X33160793Y69311832D01*
X33253239Y69436219D01*
X33350144Y69566733D01*
X33450769Y69702384D01*
X33492056Y69758078D01*
X34331687Y70890913D01*
X34551625Y70893778D01*
X34616997Y70894214D01*
X34674295Y70893799D01*
X34720477Y70892623D01*
X34752502Y70890772D01*
X34767329Y70888336D01*
X34767962Y70887488D01*
X34761361Y70878070D01*
X34742858Y70852570D01*
X34713146Y70811928D01*
X34672916Y70757084D01*
X34622862Y70688978D01*
X34563676Y70608551D01*
X34496052Y70516742D01*
X34420683Y70414492D01*
X34338260Y70302740D01*
X34249477Y70182428D01*
X34155026Y70054494D01*
X34055601Y69919880D01*
X33951894Y69779524D01*
X33844598Y69634368D01*
X33822051Y69603872D01*
X33714175Y69457900D01*
X33609819Y69316549D01*
X33509670Y69180759D01*
X33414417Y69051467D01*
X33324746Y68929610D01*
X33241345Y68816129D01*
X33164902Y68711959D01*
X33096105Y68618040D01*
X33035642Y68535310D01*
X32984199Y68464706D01*
X32942465Y68407167D01*
X32911128Y68363630D01*
X32890875Y68335035D01*
X32882394Y68322318D01*
X32882173Y68321751D01*
X32888651Y68312545D01*
X32907092Y68287251D01*
X32936824Y68246776D01*
X32977176Y68192026D01*
X33027477Y68123909D01*
X33087055Y68043329D01*
X33155240Y67951195D01*
X33231360Y67848411D01*
X33314744Y67735886D01*
X33404721Y67614524D01*
X33500619Y67485233D01*
X33601767Y67348919D01*
X33707495Y67206488D01*
X33817130Y67058846D01*
X33893847Y66955566D01*
X34005855Y66804779D01*
X34114476Y66658523D01*
X34219033Y66517709D01*
X34318851Y66383248D01*
X34413254Y66256053D01*
X34501566Y66137034D01*
X34583111Y66027104D01*
X34657212Y65927174D01*
X34723194Y65838155D01*
X34780382Y65760959D01*
X34828098Y65696497D01*
X34865667Y65645682D01*
X34892414Y65609423D01*
X34907661Y65588634D01*
X34911111Y65583806D01*
X34909627Y65579323D01*
X34897661Y65575918D01*
X34873150Y65573471D01*
X34834028Y65571859D01*
X34778233Y65570961D01*
X34703701Y65570655D01*
X34688224Y65570654D01*
X34457316Y65570736D01*
X33552063Y66789108D01*
X33446043Y66931761D01*
X33343403Y67069790D01*
X33244860Y67202235D01*
X33151130Y67328138D01*
X33062930Y67446537D01*
X32980975Y67556473D01*
X32905983Y67656986D01*
X32838670Y67747117D01*
X32779752Y67825905D01*
X32729945Y67892391D01*
X32689966Y67945616D01*
X32660531Y67984618D01*
X32642358Y68008439D01*
X32636223Y68016102D01*
X32628549Y68008870D01*
X32608788Y67985137D01*
X32577376Y67945477D01*
X32534746Y67890468D01*
X32481333Y67820685D01*
X32417573Y67736702D01*
X32343898Y67639097D01*
X32260744Y67528445D01*
X32168546Y67405321D01*
X32067738Y67270301D01*
X31958754Y67123961D01*
X31842029Y66966876D01*
X31717997Y66799623D01*
X31716534Y66797648D01*
X30807433Y65570571D01*
X30574408Y65570571D01*
X30496270Y65570799D01*
X30437245Y65571565D01*
X30395277Y65572991D01*
X30368309Y65575198D01*
X30354283Y65578311D01*
X30351143Y65582451D01*
X30351930Y65583806D01*
X30359328Y65593632D01*
X30378699Y65619528D01*
X30409364Y65660584D01*
X30450644Y65715890D01*
X30501861Y65784536D01*
X30562336Y65865611D01*
X30631390Y65958205D01*
X30708345Y66061408D01*
X30792522Y66174310D01*
X30883241Y66296001D01*
X30979825Y66425569D01*
X31081595Y66562106D01*
X31187871Y66704701D01*
X31297976Y66852443D01*
X31375012Y66955820D01*
X31500056Y67123761D01*
X31618913Y67283667D01*
X31731082Y67434856D01*
X31836061Y67576642D01*
X31933350Y67708342D01*
X32022447Y67829272D01*
X32102850Y67938748D01*
X32174059Y68036086D01*
X32235570Y68120601D01*
X32286885Y68191611D01*
X32327499Y68248430D01*
X32356914Y68290376D01*
X32374626Y68316764D01*
X32380135Y68326909D01*
X32380124Y68326933D01*
X32373091Y68336735D01*
X32354188Y68362632D01*
X32324115Y68403677D01*
X32283566Y68458921D01*
X32233241Y68527416D01*
X32173837Y68608214D01*
X32106051Y68700368D01*
X32030581Y68802928D01*
X31948124Y68914948D01*
X31859378Y69035479D01*
X31765040Y69163573D01*
X31665808Y69298282D01*
X31562379Y69438658D01*
X31455452Y69583752D01*
X31439222Y69605773D01*
X31331834Y69751485D01*
X31227841Y69892616D01*
X31127941Y70028218D01*
X31032830Y70157342D01*
X30943208Y70279041D01*
X30859770Y70392368D01*
X30783215Y70496374D01*
X30714239Y70590112D01*
X30653541Y70672635D01*
X30601817Y70742994D01*
X30559766Y70800243D01*
X30528084Y70843432D01*
X30507469Y70871615D01*
X30498619Y70883844D01*
X30498350Y70884243D01*
X30502021Y70888435D01*
X30519894Y70891615D01*
X30553494Y70893865D01*
X30604349Y70895262D01*
X30673985Y70895888D01*
X30721864Y70895932D01*
X30952772Y70895656D01*
G36*
X23303126Y65580621D02*
G01*
X23137383Y65583537D01*
X22971639Y65586453D01*
X19359191Y70182695D01*
X19356521Y67876633D01*
X19353850Y65570571D01*
X18962151Y65570571D01*
X18962151Y70885619D01*
X19297884Y70885619D01*
X21107279Y68577903D01*
X22916674Y66270186D01*
X22919344Y68583196D01*
X22922015Y70896207D01*
X23303126Y70896207D01*
X23303126Y65580621D01*
G37*
X23303126Y65580621D02*
X23137383Y65583537D01*
X22971639Y65586453D01*
X19359191Y70182695D01*
X19356521Y67876633D01*
X19353850Y65570571D01*
X18962151Y65570571D01*
X18962151Y70885619D01*
X19297884Y70885619D01*
X21107279Y68577903D01*
X22916674Y66270186D01*
X22919344Y68583196D01*
X22922015Y70896207D01*
X23303126Y70896207D01*
X23303126Y65580621D01*
G36*
X12651855Y65919967D02*
G01*
X15722301Y65919967D01*
X15722301Y65570571D01*
X12260108Y65570571D01*
X12260108Y70896207D01*
X12651855Y70896207D01*
X12651855Y65919967D01*
G37*
X12651855Y65919967D02*
X15722301Y65919967D01*
X15722301Y65570571D01*
X12260108Y65570571D01*
X12260108Y70896207D01*
X12651855Y70896207D01*
X12651855Y65919967D01*
G36*
X61445186Y68236036D02*
G01*
X61548496Y68011836D01*
X61649539Y67792564D01*
X61747955Y67579004D01*
X61843382Y67371942D01*
X61935458Y67172162D01*
X62023822Y66980449D01*
X62108111Y66797586D01*
X62187964Y66624359D01*
X62263020Y66461552D01*
X62332916Y66309950D01*
X62397291Y66170337D01*
X62455783Y66043497D01*
X62508031Y65930216D01*
X62553673Y65831278D01*
X62592346Y65747466D01*
X62623690Y65679567D01*
X62647343Y65628364D01*
X62662942Y65594642D01*
X62670127Y65579185D01*
X62670553Y65578291D01*
X62672594Y65571967D01*
X62669774Y65567311D01*
X62659521Y65564122D01*
X62639262Y65562203D01*
X62606425Y65561352D01*
X62558438Y65561370D01*
X62492727Y65562058D01*
X62465852Y65562410D01*
X62251773Y65565278D01*
X61573629Y67052926D01*
X58481501Y67047562D01*
X57813881Y65560696D01*
X57386051Y65559984D01*
X57409387Y65610452D01*
X57415774Y65624296D01*
X57430656Y65656568D01*
X57453663Y65706467D01*
X57484426Y65773191D01*
X57522573Y65855937D01*
X57567736Y65953903D01*
X57619546Y66066287D01*
X57677631Y66192287D01*
X57741622Y66331101D01*
X57811151Y66481926D01*
X57885846Y66643962D01*
X57965338Y66816405D01*
X58049257Y66998453D01*
X58137234Y67189305D01*
X58228899Y67388158D01*
X58234198Y67399655D01*
X58644880Y67399655D01*
X58655251Y67398529D01*
X58685382Y67397396D01*
X58733857Y67396273D01*
X58799259Y67395171D01*
X58880172Y67394107D01*
X58975182Y67393094D01*
X59082871Y67392146D01*
X59201823Y67391278D01*
X59330623Y67390503D01*
X59467855Y67389836D01*
X59612103Y67389292D01*
X59706440Y67389016D01*
X59863045Y67388592D01*
X60019538Y67388134D01*
X60173859Y67387648D01*
X60323950Y67387145D01*
X60467751Y67386630D01*
X60603203Y67386112D01*
X60728247Y67385600D01*
X60840823Y67385101D01*
X60938872Y67384622D01*
X61020334Y67384172D01*
X61083151Y67383760D01*
X61094670Y67383671D01*
X61186481Y67383004D01*
X61259265Y67382695D01*
X61315169Y67382850D01*
X61356339Y67383575D01*
X61384922Y67384976D01*
X61403065Y67387161D01*
X61412915Y67390236D01*
X61416618Y67394306D01*
X61416322Y67399478D01*
X61416287Y67399604D01*
X61411354Y67411368D01*
X61398263Y67441083D01*
X61377585Y67487488D01*
X61349890Y67549327D01*
X61315747Y67625339D01*
X61275727Y67714267D01*
X61230400Y67814851D01*
X61180337Y67925832D01*
X61126108Y68045951D01*
X61068282Y68173951D01*
X61007431Y68308571D01*
X60944124Y68448553D01*
X60878931Y68592639D01*
X60812424Y68739569D01*
X60745171Y68888084D01*
X60677743Y69036926D01*
X60610711Y69184836D01*
X60544645Y69330556D01*
X60480115Y69472825D01*
X60417690Y69610386D01*
X60357942Y69741979D01*
X60301441Y69866346D01*
X60248756Y69982228D01*
X60200459Y70088366D01*
X60157118Y70183502D01*
X60119305Y70266375D01*
X60087590Y70335729D01*
X60062542Y70390303D01*
X60044733Y70428839D01*
X60034732Y70450078D01*
X60032725Y70453987D01*
X60027881Y70445219D01*
X60014892Y70418399D01*
X59994326Y70374776D01*
X59966749Y70315598D01*
X59932730Y70242114D01*
X59892835Y70155571D01*
X59847631Y70057218D01*
X59797687Y69948304D01*
X59743568Y69830077D01*
X59685842Y69703785D01*
X59625078Y69570677D01*
X59561841Y69432002D01*
X59496699Y69289007D01*
X59430219Y69142941D01*
X59362969Y68995053D01*
X59295516Y68846591D01*
X59228427Y68698803D01*
X59162270Y68552938D01*
X59097611Y68410244D01*
X59035019Y68271969D01*
X58975059Y68139363D01*
X58918300Y68013673D01*
X58865308Y67896148D01*
X58816652Y67788036D01*
X58772898Y67690586D01*
X58734613Y67605046D01*
X58702366Y67532664D01*
X58676722Y67474689D01*
X58658249Y67432370D01*
X58647515Y67406955D01*
X58644880Y67399655D01*
X58234198Y67399655D01*
X58323882Y67594210D01*
X58421813Y67806659D01*
X58522322Y68024703D01*
X58625040Y68247540D01*
X58634431Y68267912D01*
X59836140Y70874903D01*
X60032669Y70874967D01*
X60229198Y70875032D01*
X61445186Y68236036D01*
G37*
X61445186Y68236036D02*
X61548496Y68011836D01*
X61649539Y67792564D01*
X61747955Y67579004D01*
X61843382Y67371942D01*
X61935458Y67172162D01*
X62023822Y66980449D01*
X62108111Y66797586D01*
X62187964Y66624359D01*
X62263020Y66461552D01*
X62332916Y66309950D01*
X62397291Y66170337D01*
X62455783Y66043497D01*
X62508031Y65930216D01*
X62553673Y65831278D01*
X62592346Y65747466D01*
X62623690Y65679567D01*
X62647343Y65628364D01*
X62662942Y65594642D01*
X62670127Y65579185D01*
X62670553Y65578291D01*
X62672594Y65571967D01*
X62669774Y65567311D01*
X62659521Y65564122D01*
X62639262Y65562203D01*
X62606425Y65561352D01*
X62558438Y65561370D01*
X62492727Y65562058D01*
X62465852Y65562410D01*
X62251773Y65565278D01*
X61573629Y67052926D01*
X58481501Y67047562D01*
X57813881Y65560696D01*
X57386051Y65559984D01*
X57409387Y65610452D01*
X57415774Y65624296D01*
X57430656Y65656568D01*
X57453663Y65706467D01*
X57484426Y65773191D01*
X57522573Y65855937D01*
X57567736Y65953903D01*
X57619546Y66066287D01*
X57677631Y66192287D01*
X57741622Y66331101D01*
X57811151Y66481926D01*
X57885846Y66643962D01*
X57965338Y66816405D01*
X58049257Y66998453D01*
X58137234Y67189305D01*
X58228899Y67388158D01*
X58234198Y67399655D01*
X58644880Y67399655D01*
X58655251Y67398529D01*
X58685382Y67397396D01*
X58733857Y67396273D01*
X58799259Y67395171D01*
X58880172Y67394107D01*
X58975182Y67393094D01*
X59082871Y67392146D01*
X59201823Y67391278D01*
X59330623Y67390503D01*
X59467855Y67389836D01*
X59612103Y67389292D01*
X59706440Y67389016D01*
X59863045Y67388592D01*
X60019538Y67388134D01*
X60173859Y67387648D01*
X60323950Y67387145D01*
X60467751Y67386630D01*
X60603203Y67386112D01*
X60728247Y67385600D01*
X60840823Y67385101D01*
X60938872Y67384622D01*
X61020334Y67384172D01*
X61083151Y67383760D01*
X61094670Y67383671D01*
X61186481Y67383004D01*
X61259265Y67382695D01*
X61315169Y67382850D01*
X61356339Y67383575D01*
X61384922Y67384976D01*
X61403065Y67387161D01*
X61412915Y67390236D01*
X61416618Y67394306D01*
X61416322Y67399478D01*
X61416287Y67399604D01*
X61411354Y67411368D01*
X61398263Y67441083D01*
X61377585Y67487488D01*
X61349890Y67549327D01*
X61315747Y67625339D01*
X61275727Y67714267D01*
X61230400Y67814851D01*
X61180337Y67925832D01*
X61126108Y68045951D01*
X61068282Y68173951D01*
X61007431Y68308571D01*
X60944124Y68448553D01*
X60878931Y68592639D01*
X60812424Y68739569D01*
X60745171Y68888084D01*
X60677743Y69036926D01*
X60610711Y69184836D01*
X60544645Y69330556D01*
X60480115Y69472825D01*
X60417690Y69610386D01*
X60357942Y69741979D01*
X60301441Y69866346D01*
X60248756Y69982228D01*
X60200459Y70088366D01*
X60157118Y70183502D01*
X60119305Y70266375D01*
X60087590Y70335729D01*
X60062542Y70390303D01*
X60044733Y70428839D01*
X60034732Y70450078D01*
X60032725Y70453987D01*
X60027881Y70445219D01*
X60014892Y70418399D01*
X59994326Y70374776D01*
X59966749Y70315598D01*
X59932730Y70242114D01*
X59892835Y70155571D01*
X59847631Y70057218D01*
X59797687Y69948304D01*
X59743568Y69830077D01*
X59685842Y69703785D01*
X59625078Y69570677D01*
X59561841Y69432002D01*
X59496699Y69289007D01*
X59430219Y69142941D01*
X59362969Y68995053D01*
X59295516Y68846591D01*
X59228427Y68698803D01*
X59162270Y68552938D01*
X59097611Y68410244D01*
X59035019Y68271969D01*
X58975059Y68139363D01*
X58918300Y68013673D01*
X58865308Y67896148D01*
X58816652Y67788036D01*
X58772898Y67690586D01*
X58734613Y67605046D01*
X58702366Y67532664D01*
X58676722Y67474689D01*
X58658249Y67432370D01*
X58647515Y67406955D01*
X58644880Y67399655D01*
X58234198Y67399655D01*
X58323882Y67594210D01*
X58421813Y67806659D01*
X58522322Y68024703D01*
X58625040Y68247540D01*
X58634431Y68267912D01*
X59836140Y70874903D01*
X60032669Y70874967D01*
X60229198Y70875032D01*
X61445186Y68236036D01*
G36*
X63878216Y69210109D02*
G01*
X63878705Y68987028D01*
X63879187Y68784089D01*
X63879674Y68600258D01*
X63880179Y68434503D01*
X63880714Y68285790D01*
X63881292Y68153085D01*
X63881925Y68035355D01*
X63882626Y67931566D01*
X63883408Y67840686D01*
X63884282Y67761680D01*
X63885262Y67693516D01*
X63886360Y67635160D01*
X63887589Y67585578D01*
X63888961Y67543737D01*
X63890488Y67508604D01*
X63892184Y67479145D01*
X63894060Y67454326D01*
X63896130Y67433115D01*
X63898405Y67414478D01*
X63900151Y67402251D01*
X63933410Y67215241D01*
X63974462Y67045943D01*
X64024097Y66892084D01*
X64083106Y66751392D01*
X64152279Y66621595D01*
X64195330Y66553449D01*
X64268956Y66455508D01*
X64353807Y66366108D01*
X64452224Y66283331D01*
X64566550Y66205258D01*
X64699130Y66129969D01*
X64734766Y66111677D01*
X64913177Y66031140D01*
X65090530Y65970466D01*
X65270282Y65928828D01*
X65455886Y65905397D01*
X65622343Y65899179D01*
X65826604Y65909207D01*
X66024562Y65939349D01*
X66216466Y65989693D01*
X66402569Y66060326D01*
X66583125Y66151337D01*
X66758383Y66262813D01*
X66840498Y66323461D01*
X66938183Y66411910D01*
X67026833Y66519105D01*
X67106199Y66644524D01*
X67176029Y66787645D01*
X67236073Y66947947D01*
X67286080Y67124906D01*
X67325799Y67318002D01*
X67329851Y67342165D01*
X67332830Y67360613D01*
X67335540Y67378581D01*
X67337997Y67397111D01*
X67340215Y67417246D01*
X67342209Y67440029D01*
X67343994Y67466501D01*
X67345584Y67497707D01*
X67346995Y67534687D01*
X67348240Y67578485D01*
X67349336Y67630143D01*
X67350296Y67690704D01*
X67351136Y67761211D01*
X67351870Y67842705D01*
X67352513Y67936229D01*
X67353080Y68042827D01*
X67353585Y68163540D01*
X67354044Y68299410D01*
X67354471Y68451482D01*
X67354881Y68620796D01*
X67355289Y68808396D01*
X67355710Y69015325D01*
X67356053Y69188933D01*
X67359405Y70896207D01*
X67750479Y70896207D01*
X67750370Y69268341D01*
X67750335Y69042490D01*
X67750248Y68836703D01*
X67750087Y68649871D01*
X67749831Y68480883D01*
X67749459Y68328629D01*
X67748950Y68191999D01*
X67748283Y68069882D01*
X67747436Y67961167D01*
X67746388Y67864745D01*
X67745118Y67779504D01*
X67743605Y67704335D01*
X67741828Y67638127D01*
X67739765Y67579769D01*
X67737396Y67528152D01*
X67734698Y67482164D01*
X67731651Y67440696D01*
X67728234Y67402637D01*
X67724426Y67366877D01*
X67720204Y67332305D01*
X67715549Y67297810D01*
X67712323Y67275198D01*
X67678187Y67088095D01*
X67631423Y66907788D01*
X67572946Y66736124D01*
X67503673Y66574951D01*
X67424518Y66426117D01*
X67336399Y66291471D01*
X67240229Y66172859D01*
X67136926Y66072130D01*
X67101977Y66043558D01*
X66920519Y65915249D01*
X66728231Y65804422D01*
X66526822Y65711602D01*
X66318003Y65637315D01*
X66103484Y65582085D01*
X65884977Y65546438D01*
X65664192Y65530899D01*
X65447645Y65535659D01*
X65235082Y65560346D01*
X65023202Y65604715D01*
X64814799Y65667733D01*
X64612665Y65748365D01*
X64419592Y65845577D01*
X64238374Y65958335D01*
X64166625Y66009963D01*
X64099890Y66062860D01*
X64042973Y66114977D01*
X63989519Y66172679D01*
X63933175Y66242328D01*
X63928504Y66248409D01*
X63821980Y66403710D01*
X63730371Y66572147D01*
X63653515Y66754202D01*
X63591253Y66950356D01*
X63543425Y67161092D01*
X63509872Y67386892D01*
X63494683Y67555774D01*
X63493224Y67588393D01*
X63491847Y67641298D01*
X63490559Y67713599D01*
X63489365Y67804406D01*
X63488272Y67912829D01*
X63487283Y68037977D01*
X63486406Y68178962D01*
X63485645Y68334894D01*
X63485006Y68504882D01*
X63484495Y68688037D01*
X63484117Y68883469D01*
X63483877Y69090288D01*
X63483782Y69305398D01*
X63483618Y70896207D01*
X63874627Y70896207D01*
X63878216Y69210109D01*
G37*
X63878216Y69210109D02*
X63878705Y68987028D01*
X63879187Y68784089D01*
X63879674Y68600258D01*
X63880179Y68434503D01*
X63880714Y68285790D01*
X63881292Y68153085D01*
X63881925Y68035355D01*
X63882626Y67931566D01*
X63883408Y67840686D01*
X63884282Y67761680D01*
X63885262Y67693516D01*
X63886360Y67635160D01*
X63887589Y67585578D01*
X63888961Y67543737D01*
X63890488Y67508604D01*
X63892184Y67479145D01*
X63894060Y67454326D01*
X63896130Y67433115D01*
X63898405Y67414478D01*
X63900151Y67402251D01*
X63933410Y67215241D01*
X63974462Y67045943D01*
X64024097Y66892084D01*
X64083106Y66751392D01*
X64152279Y66621595D01*
X64195330Y66553449D01*
X64268956Y66455508D01*
X64353807Y66366108D01*
X64452224Y66283331D01*
X64566550Y66205258D01*
X64699130Y66129969D01*
X64734766Y66111677D01*
X64913177Y66031140D01*
X65090530Y65970466D01*
X65270282Y65928828D01*
X65455886Y65905397D01*
X65622343Y65899179D01*
X65826604Y65909207D01*
X66024562Y65939349D01*
X66216466Y65989693D01*
X66402569Y66060326D01*
X66583125Y66151337D01*
X66758383Y66262813D01*
X66840498Y66323461D01*
X66938183Y66411910D01*
X67026833Y66519105D01*
X67106199Y66644524D01*
X67176029Y66787645D01*
X67236073Y66947947D01*
X67286080Y67124906D01*
X67325799Y67318002D01*
X67329851Y67342165D01*
X67332830Y67360613D01*
X67335540Y67378581D01*
X67337997Y67397111D01*
X67340215Y67417246D01*
X67342209Y67440029D01*
X67343994Y67466501D01*
X67345584Y67497707D01*
X67346995Y67534687D01*
X67348240Y67578485D01*
X67349336Y67630143D01*
X67350296Y67690704D01*
X67351136Y67761211D01*
X67351870Y67842705D01*
X67352513Y67936229D01*
X67353080Y68042827D01*
X67353585Y68163540D01*
X67354044Y68299410D01*
X67354471Y68451482D01*
X67354881Y68620796D01*
X67355289Y68808396D01*
X67355710Y69015325D01*
X67356053Y69188933D01*
X67359405Y70896207D01*
X67750479Y70896207D01*
X67750370Y69268341D01*
X67750335Y69042490D01*
X67750248Y68836703D01*
X67750087Y68649871D01*
X67749831Y68480883D01*
X67749459Y68328629D01*
X67748950Y68191999D01*
X67748283Y68069882D01*
X67747436Y67961167D01*
X67746388Y67864745D01*
X67745118Y67779504D01*
X67743605Y67704335D01*
X67741828Y67638127D01*
X67739765Y67579769D01*
X67737396Y67528152D01*
X67734698Y67482164D01*
X67731651Y67440696D01*
X67728234Y67402637D01*
X67724426Y67366877D01*
X67720204Y67332305D01*
X67715549Y67297810D01*
X67712323Y67275198D01*
X67678187Y67088095D01*
X67631423Y66907788D01*
X67572946Y66736124D01*
X67503673Y66574951D01*
X67424518Y66426117D01*
X67336399Y66291471D01*
X67240229Y66172859D01*
X67136926Y66072130D01*
X67101977Y66043558D01*
X66920519Y65915249D01*
X66728231Y65804422D01*
X66526822Y65711602D01*
X66318003Y65637315D01*
X66103484Y65582085D01*
X65884977Y65546438D01*
X65664192Y65530899D01*
X65447645Y65535659D01*
X65235082Y65560346D01*
X65023202Y65604715D01*
X64814799Y65667733D01*
X64612665Y65748365D01*
X64419592Y65845577D01*
X64238374Y65958335D01*
X64166625Y66009963D01*
X64099890Y66062860D01*
X64042973Y66114977D01*
X63989519Y66172679D01*
X63933175Y66242328D01*
X63928504Y66248409D01*
X63821980Y66403710D01*
X63730371Y66572147D01*
X63653515Y66754202D01*
X63591253Y66950356D01*
X63543425Y67161092D01*
X63509872Y67386892D01*
X63494683Y67555774D01*
X63493224Y67588393D01*
X63491847Y67641298D01*
X63490559Y67713599D01*
X63489365Y67804406D01*
X63488272Y67912829D01*
X63487283Y68037977D01*
X63486406Y68178962D01*
X63485645Y68334894D01*
X63485006Y68504882D01*
X63484495Y68688037D01*
X63484117Y68883469D01*
X63483877Y69090288D01*
X63483782Y69305398D01*
X63483618Y70896207D01*
X63874627Y70896207D01*
X63878216Y69210109D01*
G36*
X25508068Y69204815D02*
G01*
X25511495Y67513423D01*
X25535301Y67365194D01*
X25573005Y67168335D01*
X25620275Y66989463D01*
X25677727Y66827375D01*
X25745976Y66680867D01*
X25825638Y66548735D01*
X25917327Y66429777D01*
X26021659Y66322788D01*
X26103585Y66253559D01*
X26259654Y66144562D01*
X26423906Y66055083D01*
X26596427Y65985086D01*
X26777307Y65934537D01*
X26966634Y65903401D01*
X27003608Y65899674D01*
X27075854Y65894997D01*
X27160633Y65892578D01*
X27252847Y65892291D01*
X27347399Y65894013D01*
X27439191Y65897618D01*
X27523123Y65902983D01*
X27594099Y65909982D01*
X27628478Y65914937D01*
X27799912Y65953160D01*
X27965191Y66007942D01*
X28122284Y66078047D01*
X28269159Y66162237D01*
X28403782Y66259274D01*
X28524124Y66367922D01*
X28628150Y66486943D01*
X28674822Y66552072D01*
X28757866Y66691629D01*
X28827896Y66841821D01*
X28885363Y67004144D01*
X28930715Y67180099D01*
X28964401Y67371181D01*
X28986871Y67578890D01*
X28988334Y67598125D01*
X28989896Y67630488D01*
X28991354Y67683319D01*
X28992704Y67755910D01*
X28993942Y67847551D01*
X28995063Y67957535D01*
X28996063Y68085154D01*
X28996936Y68229700D01*
X28997679Y68390465D01*
X28998287Y68566741D01*
X28998756Y68757819D01*
X28999081Y68962992D01*
X28999257Y69181552D01*
X28999290Y69321280D01*
X28999333Y70896207D01*
X29391080Y70896207D01*
X29390936Y69368925D01*
X29390846Y69185036D01*
X29390617Y69004804D01*
X29390257Y68829609D01*
X29389774Y68660834D01*
X29389177Y68499859D01*
X29388475Y68348066D01*
X29387675Y68206837D01*
X29386786Y68077553D01*
X29385816Y67961596D01*
X29384774Y67860346D01*
X29383668Y67775186D01*
X29382506Y67707497D01*
X29381297Y67658660D01*
X29380450Y67636883D01*
X29361006Y67394674D01*
X29327863Y67168413D01*
X29280881Y66957781D01*
X29219918Y66762459D01*
X29144832Y66582129D01*
X29055484Y66416473D01*
X28951731Y66265172D01*
X28833433Y66127906D01*
X28700448Y66004358D01*
X28634056Y65951858D01*
X28458497Y65833020D01*
X28273347Y65732915D01*
X28079611Y65651943D01*
X27878294Y65590503D01*
X27670402Y65548996D01*
X27596457Y65539272D01*
X27553196Y65535858D01*
X27492867Y65533227D01*
X27419561Y65531372D01*
X27337370Y65530286D01*
X27250387Y65529962D01*
X27162704Y65530392D01*
X27078413Y65531569D01*
X27001605Y65533486D01*
X26936373Y65536134D01*
X26886810Y65539508D01*
X26876490Y65540560D01*
X26707571Y65568257D01*
X26534040Y65612877D01*
X26361131Y65672595D01*
X26194077Y65745587D01*
X26038111Y65830029D01*
X26027256Y65836620D01*
X25873611Y65941002D01*
X25735110Y66057097D01*
X25611348Y66185602D01*
X25501922Y66327215D01*
X25406427Y66482635D01*
X25324459Y66652560D01*
X25255613Y66837687D01*
X25199484Y67038715D01*
X25155670Y67256342D01*
X25138311Y67371176D01*
X25135942Y67390156D01*
X25133779Y67411323D01*
X25131812Y67435709D01*
X25130026Y67464344D01*
X25128412Y67498261D01*
X25126955Y67538491D01*
X25125643Y67586065D01*
X25124466Y67642015D01*
X25123409Y67707373D01*
X25122462Y67783170D01*
X25121611Y67870437D01*
X25120845Y67970207D01*
X25120151Y68083510D01*
X25119517Y68211377D01*
X25118930Y68354842D01*
X25118379Y68514934D01*
X25117852Y68692686D01*
X25117336Y68889129D01*
X25116818Y69105295D01*
X25116603Y69199521D01*
X25112783Y70896207D01*
X25504642Y70896207D01*
X25508068Y69204815D01*
G37*
X25508068Y69204815D02*
X25511495Y67513423D01*
X25535301Y67365194D01*
X25573005Y67168335D01*
X25620275Y66989463D01*
X25677727Y66827375D01*
X25745976Y66680867D01*
X25825638Y66548735D01*
X25917327Y66429777D01*
X26021659Y66322788D01*
X26103585Y66253559D01*
X26259654Y66144562D01*
X26423906Y66055083D01*
X26596427Y65985086D01*
X26777307Y65934537D01*
X26966634Y65903401D01*
X27003608Y65899674D01*
X27075854Y65894997D01*
X27160633Y65892578D01*
X27252847Y65892291D01*
X27347399Y65894013D01*
X27439191Y65897618D01*
X27523123Y65902983D01*
X27594099Y65909982D01*
X27628478Y65914937D01*
X27799912Y65953160D01*
X27965191Y66007942D01*
X28122284Y66078047D01*
X28269159Y66162237D01*
X28403782Y66259274D01*
X28524124Y66367922D01*
X28628150Y66486943D01*
X28674822Y66552072D01*
X28757866Y66691629D01*
X28827896Y66841821D01*
X28885363Y67004144D01*
X28930715Y67180099D01*
X28964401Y67371181D01*
X28986871Y67578890D01*
X28988334Y67598125D01*
X28989896Y67630488D01*
X28991354Y67683319D01*
X28992704Y67755910D01*
X28993942Y67847551D01*
X28995063Y67957535D01*
X28996063Y68085154D01*
X28996936Y68229700D01*
X28997679Y68390465D01*
X28998287Y68566741D01*
X28998756Y68757819D01*
X28999081Y68962992D01*
X28999257Y69181552D01*
X28999290Y69321280D01*
X28999333Y70896207D01*
X29391080Y70896207D01*
X29390936Y69368925D01*
X29390846Y69185036D01*
X29390617Y69004804D01*
X29390257Y68829609D01*
X29389774Y68660834D01*
X29389177Y68499859D01*
X29388475Y68348066D01*
X29387675Y68206837D01*
X29386786Y68077553D01*
X29385816Y67961596D01*
X29384774Y67860346D01*
X29383668Y67775186D01*
X29382506Y67707497D01*
X29381297Y67658660D01*
X29380450Y67636883D01*
X29361006Y67394674D01*
X29327863Y67168413D01*
X29280881Y66957781D01*
X29219918Y66762459D01*
X29144832Y66582129D01*
X29055484Y66416473D01*
X28951731Y66265172D01*
X28833433Y66127906D01*
X28700448Y66004358D01*
X28634056Y65951858D01*
X28458497Y65833020D01*
X28273347Y65732915D01*
X28079611Y65651943D01*
X27878294Y65590503D01*
X27670402Y65548996D01*
X27596457Y65539272D01*
X27553196Y65535858D01*
X27492867Y65533227D01*
X27419561Y65531372D01*
X27337370Y65530286D01*
X27250387Y65529962D01*
X27162704Y65530392D01*
X27078413Y65531569D01*
X27001605Y65533486D01*
X26936373Y65536134D01*
X26886810Y65539508D01*
X26876490Y65540560D01*
X26707571Y65568257D01*
X26534040Y65612877D01*
X26361131Y65672595D01*
X26194077Y65745587D01*
X26038111Y65830029D01*
X26027256Y65836620D01*
X25873611Y65941002D01*
X25735110Y66057097D01*
X25611348Y66185602D01*
X25501922Y66327215D01*
X25406427Y66482635D01*
X25324459Y66652560D01*
X25255613Y66837687D01*
X25199484Y67038715D01*
X25155670Y67256342D01*
X25138311Y67371176D01*
X25135942Y67390156D01*
X25133779Y67411323D01*
X25131812Y67435709D01*
X25130026Y67464344D01*
X25128412Y67498261D01*
X25126955Y67538491D01*
X25125643Y67586065D01*
X25124466Y67642015D01*
X25123409Y67707373D01*
X25122462Y67783170D01*
X25121611Y67870437D01*
X25120845Y67970207D01*
X25120151Y68083510D01*
X25119517Y68211377D01*
X25118930Y68354842D01*
X25118379Y68514934D01*
X25117852Y68692686D01*
X25117336Y68889129D01*
X25116818Y69105295D01*
X25116603Y69199521D01*
X25112783Y70896207D01*
X25504642Y70896207D01*
X25508068Y69204815D01*
G36*
X44637432Y63548312D02*
G01*
X42138724Y63548312D01*
X42138724Y61896624D01*
X44372739Y61896624D01*
X44372739Y61631930D01*
X42138724Y61631930D01*
X42138724Y59906128D01*
X42555190Y59906128D01*
X42634109Y59906035D01*
X42731482Y59905767D01*
X42844588Y59905338D01*
X42970707Y59904763D01*
X43107118Y59904057D01*
X43251100Y59903235D01*
X43399933Y59902311D01*
X43550895Y59901300D01*
X43701267Y59900218D01*
X43846895Y59899091D01*
X44722134Y59892053D01*
X44722134Y59630847D01*
X41831680Y59630847D01*
X41831680Y63813006D01*
X44637432Y63813006D01*
X44637432Y63548312D01*
G37*
X44637432Y63548312D02*
X42138724Y63548312D01*
X42138724Y61896624D01*
X44372739Y61896624D01*
X44372739Y61631930D01*
X42138724Y61631930D01*
X42138724Y59906128D01*
X42555190Y59906128D01*
X42634109Y59906035D01*
X42731482Y59905767D01*
X42844588Y59905338D01*
X42970707Y59904763D01*
X43107118Y59904057D01*
X43251100Y59903235D01*
X43399933Y59902311D01*
X43550895Y59901300D01*
X43701267Y59900218D01*
X43846895Y59899091D01*
X44722134Y59892053D01*
X44722134Y59630847D01*
X41831680Y59630847D01*
X41831680Y63813006D01*
X44637432Y63813006D01*
X44637432Y63548312D01*
G36*
X31974489Y59895540D02*
G01*
X34388495Y59895540D01*
X34388495Y59630847D01*
X31667445Y59630847D01*
X31667445Y63813006D01*
X31974489Y63813006D01*
X31974489Y59895540D01*
G37*
X31974489Y59895540D02*
X34388495Y59895540D01*
X34388495Y59630847D01*
X31667445Y59630847D01*
X31667445Y63813006D01*
X31974489Y63813006D01*
X31974489Y59895540D01*
G36*
X38645667Y61995902D02*
G01*
X40068820Y60178799D01*
X40071497Y61995902D01*
X40074175Y63813006D01*
X40370571Y63813006D01*
X40370571Y59609056D01*
X40230562Y59612011D01*
X40090552Y59614965D01*
X38676810Y61432675D01*
X37263068Y63250384D01*
X37260391Y61430028D01*
X37257714Y59609671D01*
X36950730Y59609671D01*
X36950730Y63813006D01*
X37222514Y63813006D01*
X38645667Y61995902D01*
G37*
X38645667Y61995902D02*
X40068820Y60178799D01*
X40071497Y61995902D01*
X40074175Y63813006D01*
X40370571Y63813006D01*
X40370571Y59609056D01*
X40230562Y59612011D01*
X40090552Y59614965D01*
X38676810Y61432675D01*
X37263068Y63250384D01*
X37260391Y61430028D01*
X37257714Y59609671D01*
X36950730Y59609671D01*
X36950730Y63813006D01*
X37222514Y63813006D01*
X38645667Y61995902D01*
G36*
X35489621Y59609671D02*
G01*
X35182576Y59609671D01*
X35182576Y63813006D01*
X35489621Y63813006D01*
X35489621Y59609671D01*
G37*
X35489621Y59609671D02*
X35182576Y59609671D01*
X35182576Y63813006D01*
X35489621Y63813006D01*
X35489621Y59609671D01*
G36*
X27066614Y63807712D02*
G01*
X28485599Y61995968D01*
X29904585Y60184225D01*
X29907262Y61998615D01*
X29909939Y63813006D01*
X30206336Y63813006D01*
X30206336Y59609038D01*
X30075145Y59612002D01*
X29943954Y59614965D01*
X28521393Y61435451D01*
X27098833Y63255936D01*
X27096156Y61432804D01*
X27093479Y59609671D01*
X26786494Y59609671D01*
X26786494Y63813620D01*
X27066614Y63807712D01*
G37*
X27066614Y63807712D02*
X28485599Y61995968D01*
X29904585Y60184225D01*
X29907262Y61998615D01*
X29909939Y63813006D01*
X30206336Y63813006D01*
X30206336Y59609038D01*
X30075145Y59612002D01*
X29943954Y59614965D01*
X28521393Y61435451D01*
X27098833Y63255936D01*
X27096156Y61432804D01*
X27093479Y59609671D01*
X26786494Y59609671D01*
X26786494Y63813620D01*
X27066614Y63807712D01*
G36*
X23696180Y63836932D02*
G01*
X23799049Y63830492D01*
X23889723Y63820882D01*
X23931330Y63814451D01*
X24153425Y63766184D01*
X24360729Y63702765D01*
X24553247Y63624192D01*
X24730980Y63530465D01*
X24811880Y63479535D01*
X24973763Y63359160D01*
X25121953Y63223180D01*
X25255767Y63072701D01*
X25374521Y62908828D01*
X25477530Y62732667D01*
X25564109Y62545322D01*
X25633575Y62347899D01*
X25685242Y62141504D01*
X25703522Y62039558D01*
X25712622Y61962885D01*
X25718785Y61871447D01*
X25722018Y61770935D01*
X25722326Y61667035D01*
X25719715Y61565437D01*
X25714190Y61471827D01*
X25705758Y61391895D01*
X25702843Y61372531D01*
X25658641Y61157527D01*
X25598444Y60956211D01*
X25521980Y60768089D01*
X25428980Y60592668D01*
X25319173Y60429454D01*
X25192288Y60277953D01*
X25048056Y60137672D01*
X25007029Y60102429D01*
X24854008Y59987212D01*
X24685893Y59884406D01*
X24505585Y59795263D01*
X24315984Y59721032D01*
X24119993Y59662965D01*
X23920511Y59622312D01*
X23879024Y59616184D01*
X23791604Y59606433D01*
X23693375Y59599331D01*
X23591128Y59595094D01*
X23491654Y59593936D01*
X23401747Y59596073D01*
X23350771Y59599410D01*
X23129340Y59628606D01*
X22917494Y59675820D01*
X22715954Y59740379D01*
X22525445Y59821608D01*
X22346690Y59918833D01*
X22180412Y60031381D01*
X22027335Y60158577D01*
X21888182Y60299747D01*
X21763676Y60454218D01*
X21654540Y60621315D01*
X21561498Y60800364D01*
X21485274Y60990693D01*
X21426590Y61191625D01*
X21386170Y61402488D01*
X21381855Y61433952D01*
X21368377Y61588196D01*
X21366478Y61716632D01*
X21678454Y61716632D01*
X21678841Y61636214D01*
X21679811Y61572626D01*
X21681700Y61521521D01*
X21684847Y61478556D01*
X21689587Y61439385D01*
X21696257Y61399663D01*
X21705194Y61355046D01*
X21707221Y61345443D01*
X21752601Y61170510D01*
X21812809Y61000707D01*
X21886087Y60840169D01*
X21970675Y60693028D01*
X22008759Y60636770D01*
X22066592Y60562298D01*
X22137220Y60482129D01*
X22215368Y60401614D01*
X22295766Y60326100D01*
X22373139Y60260937D01*
X22397874Y60242049D01*
X22469377Y60193394D01*
X22554669Y60142245D01*
X22647241Y60092139D01*
X22740583Y60046615D01*
X22821384Y60011882D01*
X22957922Y59965516D01*
X23114097Y59926852D01*
X23289810Y59895909D01*
X23403710Y59881158D01*
X23461597Y59877172D01*
X23533580Y59876218D01*
X23612810Y59878200D01*
X23692439Y59883022D01*
X23722150Y59885654D01*
X23905524Y59911968D01*
X24085709Y59954228D01*
X24259537Y60011264D01*
X24423841Y60081907D01*
X24575453Y60164986D01*
X24690121Y60243106D01*
X24771462Y60309343D01*
X24855467Y60386491D01*
X24937270Y60469537D01*
X25012002Y60553465D01*
X25074796Y60633258D01*
X25090793Y60655953D01*
X25189777Y60819461D01*
X25270959Y60992897D01*
X25334072Y61174319D01*
X25378850Y61361783D01*
X25405024Y61553345D01*
X25412329Y61747064D01*
X25400497Y61940995D01*
X25369261Y62133196D01*
X25319292Y62318848D01*
X25286557Y62408170D01*
X25244609Y62505417D01*
X25196708Y62604000D01*
X25146114Y62697328D01*
X25096088Y62778809D01*
X25080330Y62801876D01*
X25034466Y62861293D01*
X24975824Y62928823D01*
X24908746Y63000120D01*
X24837579Y63070841D01*
X24766666Y63136641D01*
X24700353Y63193175D01*
X24653064Y63229142D01*
X24501762Y63323587D01*
X24337124Y63403805D01*
X24162145Y63469045D01*
X23979821Y63518559D01*
X23793148Y63551597D01*
X23605121Y63567410D01*
X23418736Y63565249D01*
X23337119Y63558313D01*
X23136591Y63526711D01*
X22944859Y63476877D01*
X22762859Y63409551D01*
X22591526Y63325472D01*
X22431797Y63225380D01*
X22284607Y63110017D01*
X22150893Y62980121D01*
X22031591Y62836433D01*
X21927635Y62679693D01*
X21839963Y62510641D01*
X21769509Y62330016D01*
X21764565Y62314840D01*
X21736524Y62223126D01*
X21715011Y62141033D01*
X21699261Y62063242D01*
X21688508Y61984435D01*
X21681985Y61899293D01*
X21678928Y61802497D01*
X21678454Y61716632D01*
X21366478Y61716632D01*
X21365943Y61752764D01*
X21374245Y61920108D01*
X21392975Y62082677D01*
X21412861Y62193081D01*
X21441359Y62307033D01*
X21479456Y62428590D01*
X21524608Y62550980D01*
X21574271Y62667433D01*
X21625901Y62771176D01*
X21638570Y62793899D01*
X21740214Y62953160D01*
X21857635Y63104340D01*
X21987971Y63244430D01*
X22128359Y63370419D01*
X22275936Y63479299D01*
X22313172Y63503214D01*
X22492265Y63602620D01*
X22685232Y63686271D01*
X22891617Y63754002D01*
X23110965Y63805650D01*
X23191955Y63820100D01*
X23273067Y63830144D01*
X23369561Y63836808D01*
X23475921Y63840132D01*
X23586632Y63840159D01*
X23696180Y63836932D01*
G37*
X23696180Y63836932D02*
X23799049Y63830492D01*
X23889723Y63820882D01*
X23931330Y63814451D01*
X24153425Y63766184D01*
X24360729Y63702765D01*
X24553247Y63624192D01*
X24730980Y63530465D01*
X24811880Y63479535D01*
X24973763Y63359160D01*
X25121953Y63223180D01*
X25255767Y63072701D01*
X25374521Y62908828D01*
X25477530Y62732667D01*
X25564109Y62545322D01*
X25633575Y62347899D01*
X25685242Y62141504D01*
X25703522Y62039558D01*
X25712622Y61962885D01*
X25718785Y61871447D01*
X25722018Y61770935D01*
X25722326Y61667035D01*
X25719715Y61565437D01*
X25714190Y61471827D01*
X25705758Y61391895D01*
X25702843Y61372531D01*
X25658641Y61157527D01*
X25598444Y60956211D01*
X25521980Y60768089D01*
X25428980Y60592668D01*
X25319173Y60429454D01*
X25192288Y60277953D01*
X25048056Y60137672D01*
X25007029Y60102429D01*
X24854008Y59987212D01*
X24685893Y59884406D01*
X24505585Y59795263D01*
X24315984Y59721032D01*
X24119993Y59662965D01*
X23920511Y59622312D01*
X23879024Y59616184D01*
X23791604Y59606433D01*
X23693375Y59599331D01*
X23591128Y59595094D01*
X23491654Y59593936D01*
X23401747Y59596073D01*
X23350771Y59599410D01*
X23129340Y59628606D01*
X22917494Y59675820D01*
X22715954Y59740379D01*
X22525445Y59821608D01*
X22346690Y59918833D01*
X22180412Y60031381D01*
X22027335Y60158577D01*
X21888182Y60299747D01*
X21763676Y60454218D01*
X21654540Y60621315D01*
X21561498Y60800364D01*
X21485274Y60990693D01*
X21426590Y61191625D01*
X21386170Y61402488D01*
X21381855Y61433952D01*
X21368377Y61588196D01*
X21366478Y61716632D01*
X21678454Y61716632D01*
X21678841Y61636214D01*
X21679811Y61572626D01*
X21681700Y61521521D01*
X21684847Y61478556D01*
X21689587Y61439385D01*
X21696257Y61399663D01*
X21705194Y61355046D01*
X21707221Y61345443D01*
X21752601Y61170510D01*
X21812809Y61000707D01*
X21886087Y60840169D01*
X21970675Y60693028D01*
X22008759Y60636770D01*
X22066592Y60562298D01*
X22137220Y60482129D01*
X22215368Y60401614D01*
X22295766Y60326100D01*
X22373139Y60260937D01*
X22397874Y60242049D01*
X22469377Y60193394D01*
X22554669Y60142245D01*
X22647241Y60092139D01*
X22740583Y60046615D01*
X22821384Y60011882D01*
X22957922Y59965516D01*
X23114097Y59926852D01*
X23289810Y59895909D01*
X23403710Y59881158D01*
X23461597Y59877172D01*
X23533580Y59876218D01*
X23612810Y59878200D01*
X23692439Y59883022D01*
X23722150Y59885654D01*
X23905524Y59911968D01*
X24085709Y59954228D01*
X24259537Y60011264D01*
X24423841Y60081907D01*
X24575453Y60164986D01*
X24690121Y60243106D01*
X24771462Y60309343D01*
X24855467Y60386491D01*
X24937270Y60469537D01*
X25012002Y60553465D01*
X25074796Y60633258D01*
X25090793Y60655953D01*
X25189777Y60819461D01*
X25270959Y60992897D01*
X25334072Y61174319D01*
X25378850Y61361783D01*
X25405024Y61553345D01*
X25412329Y61747064D01*
X25400497Y61940995D01*
X25369261Y62133196D01*
X25319292Y62318848D01*
X25286557Y62408170D01*
X25244609Y62505417D01*
X25196708Y62604000D01*
X25146114Y62697328D01*
X25096088Y62778809D01*
X25080330Y62801876D01*
X25034466Y62861293D01*
X24975824Y62928823D01*
X24908746Y63000120D01*
X24837579Y63070841D01*
X24766666Y63136641D01*
X24700353Y63193175D01*
X24653064Y63229142D01*
X24501762Y63323587D01*
X24337124Y63403805D01*
X24162145Y63469045D01*
X23979821Y63518559D01*
X23793148Y63551597D01*
X23605121Y63567410D01*
X23418736Y63565249D01*
X23337119Y63558313D01*
X23136591Y63526711D01*
X22944859Y63476877D01*
X22762859Y63409551D01*
X22591526Y63325472D01*
X22431797Y63225380D01*
X22284607Y63110017D01*
X22150893Y62980121D01*
X22031591Y62836433D01*
X21927635Y62679693D01*
X21839963Y62510641D01*
X21769509Y62330016D01*
X21764565Y62314840D01*
X21736524Y62223126D01*
X21715011Y62141033D01*
X21699261Y62063242D01*
X21688508Y61984435D01*
X21681985Y61899293D01*
X21678928Y61802497D01*
X21678454Y61716632D01*
X21366478Y61716632D01*
X21365943Y61752764D01*
X21374245Y61920108D01*
X21392975Y62082677D01*
X21412861Y62193081D01*
X21441359Y62307033D01*
X21479456Y62428590D01*
X21524608Y62550980D01*
X21574271Y62667433D01*
X21625901Y62771176D01*
X21638570Y62793899D01*
X21740214Y62953160D01*
X21857635Y63104340D01*
X21987971Y63244430D01*
X22128359Y63370419D01*
X22275936Y63479299D01*
X22313172Y63503214D01*
X22492265Y63602620D01*
X22685232Y63686271D01*
X22891617Y63754002D01*
X23110965Y63805650D01*
X23191955Y63820100D01*
X23273067Y63830144D01*
X23369561Y63836808D01*
X23475921Y63840132D01*
X23586632Y63840159D01*
X23696180Y63836932D01*
%TO.C,J6*%
D10*
X2329778Y70707107D02*
X2464465Y70774450D01*
X2632824Y70942809D01*
X2666496Y71043824D01*
X2666496Y71111168D01*
X2632824Y71212183D01*
X2565481Y71279526D01*
X2464465Y71313198D01*
X2397122Y71313198D01*
X2296107Y71279526D01*
X2127748Y71178511D01*
X2026733Y71144839D01*
X1959389Y71144839D01*
X1858374Y71178511D01*
X1791030Y71245855D01*
X1757359Y71346870D01*
X1757359Y71414213D01*
X1791030Y71515229D01*
X1959389Y71683587D01*
X2094076Y71750931D01*
X2834855Y71548900D02*
X3171572Y71885618D01*
X2969542Y71279526D02*
X2498137Y72222335D01*
X3440946Y71750931D01*
X3104229Y72828427D02*
X3238916Y72963114D01*
X3339931Y72996786D01*
X3474618Y72996786D01*
X3642977Y72895770D01*
X3878679Y72660068D01*
X3979694Y72491709D01*
X3979694Y72357022D01*
X3946022Y72256007D01*
X3811335Y72121320D01*
X3710320Y72087648D01*
X3575633Y72087648D01*
X3407274Y72188664D01*
X3171572Y72424366D01*
X3070557Y72592725D01*
X3070557Y72727412D01*
X3104229Y72828427D01*
X4316412Y72491709D02*
X4855160Y73030457D01*
X4181725Y73905923D02*
X4619457Y74343656D01*
X4653129Y73838579D01*
X4754144Y73939595D01*
X4855160Y73973266D01*
X4922503Y73973266D01*
X5023518Y73939595D01*
X5191877Y73771236D01*
X5225549Y73670221D01*
X5225549Y73602877D01*
X5191877Y73501862D01*
X4989847Y73299831D01*
X4888831Y73266160D01*
X4821488Y73266160D01*
%TO.C,J4*%
X13904761Y117095238D02*
X14047619Y117047619D01*
X14285714Y117047619D01*
X14380952Y117095238D01*
X14428571Y117142857D01*
X14476190Y117238095D01*
X14476190Y117333333D01*
X14428571Y117428571D01*
X14380952Y117476190D01*
X14285714Y117523809D01*
X14095238Y117571428D01*
X14000000Y117619047D01*
X13952380Y117666666D01*
X13904761Y117761904D01*
X13904761Y117857142D01*
X13952380Y117952380D01*
X14000000Y118000000D01*
X14095238Y118047619D01*
X14333333Y118047619D01*
X14476190Y118000000D01*
X14857142Y117333333D02*
X15333333Y117333333D01*
X14761904Y117047619D02*
X15095238Y118047619D01*
X15428571Y117047619D01*
X15952380Y118047619D02*
X16142857Y118047619D01*
X16238095Y118000000D01*
X16333333Y117904761D01*
X16380952Y117714285D01*
X16380952Y117380952D01*
X16333333Y117190476D01*
X16238095Y117095238D01*
X16142857Y117047619D01*
X15952380Y117047619D01*
X15857142Y117095238D01*
X15761904Y117190476D01*
X15714285Y117380952D01*
X15714285Y117714285D01*
X15761904Y117904761D01*
X15857142Y118000000D01*
X15952380Y118047619D01*
X16571428Y116952380D02*
X17333333Y116952380D01*
X18095238Y117047619D02*
X17523809Y117047619D01*
X17809523Y117047619D02*
X17809523Y118047619D01*
X17714285Y117904761D01*
X17619047Y117809523D01*
X17523809Y117761904D01*
%TO.C,J5*%
X74636396Y73599510D02*
X74703739Y73464823D01*
X74872098Y73296464D01*
X74973113Y73262792D01*
X75040457Y73262792D01*
X75141472Y73296464D01*
X75208815Y73363807D01*
X75242487Y73464823D01*
X75242487Y73532166D01*
X75208815Y73633181D01*
X75107800Y73801540D01*
X75074128Y73902555D01*
X75074128Y73969899D01*
X75107800Y74070914D01*
X75175144Y74138258D01*
X75276159Y74171929D01*
X75343502Y74171929D01*
X75444518Y74138258D01*
X75612876Y73969899D01*
X75680220Y73835212D01*
X75478189Y73094433D02*
X75814907Y72757716D01*
X75208815Y72959746D02*
X76151624Y73431151D01*
X75680220Y72488342D01*
X76757716Y72825059D02*
X76892403Y72690372D01*
X76926075Y72589357D01*
X76926075Y72454670D01*
X76825059Y72286311D01*
X76589357Y72050609D01*
X76420998Y71949594D01*
X76286311Y71949594D01*
X76185296Y71983266D01*
X76050609Y72117953D01*
X76016937Y72218968D01*
X76016937Y72353655D01*
X76117953Y72522014D01*
X76353655Y72757716D01*
X76522014Y72858731D01*
X76656701Y72858731D01*
X76757716Y72825059D01*
X76420998Y71612876D02*
X76959746Y71074128D01*
X77969899Y71141472D02*
X77498494Y70670067D01*
X78070914Y71579205D02*
X77397479Y71242487D01*
X77835212Y70804754D01*
%TO.C,J3*%
X61904761Y117095238D02*
X62047619Y117047619D01*
X62285714Y117047619D01*
X62380952Y117095238D01*
X62428571Y117142857D01*
X62476190Y117238095D01*
X62476190Y117333333D01*
X62428571Y117428571D01*
X62380952Y117476190D01*
X62285714Y117523809D01*
X62095238Y117571428D01*
X62000000Y117619047D01*
X61952380Y117666666D01*
X61904761Y117761904D01*
X61904761Y117857142D01*
X61952380Y117952380D01*
X62000000Y118000000D01*
X62095238Y118047619D01*
X62333333Y118047619D01*
X62476190Y118000000D01*
X62857142Y117333333D02*
X63333333Y117333333D01*
X62761904Y117047619D02*
X63095238Y118047619D01*
X63428571Y117047619D01*
X63952380Y118047619D02*
X64142857Y118047619D01*
X64238095Y118000000D01*
X64333333Y117904761D01*
X64380952Y117714285D01*
X64380952Y117380952D01*
X64333333Y117190476D01*
X64238095Y117095238D01*
X64142857Y117047619D01*
X63952380Y117047619D01*
X63857142Y117095238D01*
X63761904Y117190476D01*
X63714285Y117380952D01*
X63714285Y117714285D01*
X63761904Y117904761D01*
X63857142Y118000000D01*
X63952380Y118047619D01*
X64571428Y116952380D02*
X65333333Y116952380D01*
X65523809Y117952380D02*
X65571428Y118000000D01*
X65666666Y118047619D01*
X65904761Y118047619D01*
X66000000Y118000000D01*
X66047619Y117952380D01*
X66095238Y117857142D01*
X66095238Y117761904D01*
X66047619Y117619047D01*
X65476190Y117047619D01*
X66095238Y117047619D01*
%TO.C,SW1*%
X24543809Y88897619D02*
X24543809Y89897619D01*
X25210476Y89897619D02*
X25400952Y89897619D01*
X25496190Y89850000D01*
X25591428Y89754761D01*
X25639047Y89564285D01*
X25639047Y89230952D01*
X25591428Y89040476D01*
X25496190Y88945238D01*
X25400952Y88897619D01*
X25210476Y88897619D01*
X25115238Y88945238D01*
X25020000Y89040476D01*
X24972380Y89230952D01*
X24972380Y89564285D01*
X25020000Y89754761D01*
X25115238Y89850000D01*
X25210476Y89897619D01*
X26591428Y88897619D02*
X26020000Y88897619D01*
X26305714Y88897619D02*
X26305714Y89897619D01*
X26210476Y89754761D01*
X26115238Y89659523D01*
X26020000Y89611904D01*
X27448571Y89897619D02*
X27258095Y89897619D01*
X27162857Y89850000D01*
X27115238Y89802380D01*
X27020000Y89659523D01*
X26972380Y89469047D01*
X26972380Y89088095D01*
X27020000Y88992857D01*
X27067619Y88945238D01*
X27162857Y88897619D01*
X27353333Y88897619D01*
X27448571Y88945238D01*
X27496190Y88992857D01*
X27543809Y89088095D01*
X27543809Y89326190D01*
X27496190Y89421428D01*
X27448571Y89469047D01*
X27353333Y89516666D01*
X27162857Y89516666D01*
X27067619Y89469047D01*
X27020000Y89421428D01*
X26972380Y89326190D01*
%TO.C,SW2*%
X52563809Y88927619D02*
X52563809Y89927619D01*
X53230476Y89927619D02*
X53420952Y89927619D01*
X53516190Y89880000D01*
X53611428Y89784761D01*
X53659047Y89594285D01*
X53659047Y89260952D01*
X53611428Y89070476D01*
X53516190Y88975238D01*
X53420952Y88927619D01*
X53230476Y88927619D01*
X53135238Y88975238D01*
X53040000Y89070476D01*
X52992380Y89260952D01*
X52992380Y89594285D01*
X53040000Y89784761D01*
X53135238Y89880000D01*
X53230476Y89927619D01*
X54611428Y88927619D02*
X54040000Y88927619D01*
X54325714Y88927619D02*
X54325714Y89927619D01*
X54230476Y89784761D01*
X54135238Y89689523D01*
X54040000Y89641904D01*
X54944761Y89927619D02*
X55611428Y89927619D01*
X55182857Y88927619D01*
%TD*%
M02*
