%TF.GenerationSoftware,KiCad,Pcbnew,(5.1.6)-1*%
%TF.CreationDate,2020-10-27T18:56:41+11:00*%
%TF.ProjectId,swag-badge,73776167-2d62-4616-9467-652e6b696361,rev?*%
%TF.SameCoordinates,PX2d4cae0PY916f720*%
%TF.FileFunction,Soldermask,Top*%
%TF.FilePolarity,Negative*%
%FSLAX46Y46*%
G04 Gerber Fmt 4.6, Leading zero omitted, Abs format (unit mm)*
G04 Created by KiCad (PCBNEW (5.1.6)-1) date 2020-10-27 18:56:41*
%MOMM*%
%LPD*%
G01*
G04 APERTURE LIST*
%ADD10C,0.010000*%
%ADD11C,2.100000*%
%ADD12C,0.100000*%
%ADD13C,4.900000*%
%ADD14O,2.500000X1.700000*%
%ADD15R,2.500000X1.700000*%
%ADD16R,2.100000X2.100000*%
%ADD17R,1.500000X2.100000*%
%ADD18R,1.600000X2.100000*%
%ADD19O,14.100000X3.100000*%
%ADD20C,4.100000*%
%ADD21O,2.100000X2.100000*%
%ADD22C,2.600000*%
G04 APERTURE END LIST*
D10*
%TO.C,L1*%
G36*
X59800375Y73046812D02*
G01*
X56624052Y73046812D01*
X56624052Y70770446D01*
X59461567Y70770446D01*
X59461567Y70421051D01*
X56624052Y70421051D01*
X56624052Y68070571D01*
X56232305Y68070571D01*
X56232305Y73385619D01*
X59800375Y73385619D01*
X59800375Y73046812D01*
G37*
X59800375Y73046812D02*
X56624052Y73046812D01*
X56624052Y70770446D01*
X59461567Y70770446D01*
X59461567Y70421051D01*
X56624052Y70421051D01*
X56624052Y68070571D01*
X56232305Y68070571D01*
X56232305Y73385619D01*
X59800375Y73385619D01*
X59800375Y73046812D01*
G36*
X54379450Y68080635D02*
G01*
X54211437Y68083544D01*
X54043425Y68086453D01*
X52244764Y70383659D01*
X50446103Y72680864D01*
X50443432Y70375718D01*
X50440761Y68070571D01*
X50049062Y68070571D01*
X50049062Y73386144D01*
X50218296Y73383235D01*
X50387531Y73380325D01*
X52178072Y71082785D01*
X52329923Y70887969D01*
X52478420Y70697516D01*
X52623034Y70512104D01*
X52763237Y70332408D01*
X52898501Y70159103D01*
X53028297Y69992865D01*
X53152095Y69834371D01*
X53269368Y69684295D01*
X53379586Y69543314D01*
X53482222Y69412104D01*
X53576746Y69291340D01*
X53662630Y69181697D01*
X53739345Y69083853D01*
X53806363Y68998482D01*
X53863154Y68926260D01*
X53909190Y68867864D01*
X53943943Y68823968D01*
X53966884Y68795249D01*
X53977484Y68782382D01*
X53978159Y68781715D01*
X53979175Y68791801D01*
X53980150Y68822352D01*
X53981079Y68872657D01*
X53981959Y68942006D01*
X53982789Y69029688D01*
X53983565Y69134993D01*
X53984283Y69257211D01*
X53984942Y69395630D01*
X53985537Y69549540D01*
X53986067Y69718230D01*
X53986528Y69900991D01*
X53986917Y70097111D01*
X53987232Y70305880D01*
X53987469Y70526588D01*
X53987625Y70758524D01*
X53987698Y71000976D01*
X53987703Y71087196D01*
X53987703Y73396207D01*
X54379450Y73396207D01*
X54379450Y68080635D01*
G37*
X54379450Y68080635D02*
X54211437Y68083544D01*
X54043425Y68086453D01*
X52244764Y70383659D01*
X50446103Y72680864D01*
X50443432Y70375718D01*
X50440761Y68070571D01*
X50049062Y68070571D01*
X50049062Y73386144D01*
X50218296Y73383235D01*
X50387531Y73380325D01*
X52178072Y71082785D01*
X52329923Y70887969D01*
X52478420Y70697516D01*
X52623034Y70512104D01*
X52763237Y70332408D01*
X52898501Y70159103D01*
X53028297Y69992865D01*
X53152095Y69834371D01*
X53269368Y69684295D01*
X53379586Y69543314D01*
X53482222Y69412104D01*
X53576746Y69291340D01*
X53662630Y69181697D01*
X53739345Y69083853D01*
X53806363Y68998482D01*
X53863154Y68926260D01*
X53909190Y68867864D01*
X53943943Y68823968D01*
X53966884Y68795249D01*
X53977484Y68782382D01*
X53978159Y68781715D01*
X53979175Y68791801D01*
X53980150Y68822352D01*
X53981079Y68872657D01*
X53981959Y68942006D01*
X53982789Y69029688D01*
X53983565Y69134993D01*
X53984283Y69257211D01*
X53984942Y69395630D01*
X53985537Y69549540D01*
X53986067Y69718230D01*
X53986528Y69900991D01*
X53986917Y70097111D01*
X53987232Y70305880D01*
X53987469Y70526588D01*
X53987625Y70758524D01*
X53987698Y71000976D01*
X53987703Y71087196D01*
X53987703Y73396207D01*
X54379450Y73396207D01*
X54379450Y68080635D01*
G36*
X40705392Y73431463D02*
G01*
X40796927Y73428875D01*
X40876624Y73424616D01*
X40938308Y73418842D01*
X41139650Y73386798D01*
X41337268Y73342186D01*
X41528056Y73286060D01*
X41708909Y73219469D01*
X41876724Y73143467D01*
X42028395Y73059105D01*
X42060609Y73038669D01*
X42123554Y72995528D01*
X42192438Y72944653D01*
X42262276Y72890026D01*
X42328083Y72835630D01*
X42384877Y72785446D01*
X42419830Y72751668D01*
X42472007Y72698155D01*
X42419830Y72641993D01*
X42388151Y72607915D01*
X42348900Y72565720D01*
X42308940Y72522785D01*
X42295624Y72508483D01*
X42223594Y72431133D01*
X42147093Y72499601D01*
X41975764Y72639517D01*
X41795766Y72760214D01*
X41606634Y72861917D01*
X41407900Y72944850D01*
X41199095Y73009238D01*
X40996393Y73052514D01*
X40936224Y73060477D01*
X40859960Y73067015D01*
X40772640Y73071999D01*
X40679305Y73075295D01*
X40584995Y73076775D01*
X40494750Y73076306D01*
X40413610Y73073759D01*
X40349616Y73069301D01*
X40117825Y73036593D01*
X39894515Y72984664D01*
X39680037Y72913655D01*
X39474743Y72823704D01*
X39278983Y72714952D01*
X39093108Y72587538D01*
X39043236Y72548819D01*
X38893642Y72416537D01*
X38754933Y72267596D01*
X38628588Y72104306D01*
X38516087Y71928979D01*
X38418908Y71743926D01*
X38338531Y71551460D01*
X38276434Y71353892D01*
X38274908Y71348059D01*
X38229235Y71132250D01*
X38203061Y70912622D01*
X38196365Y70691695D01*
X38209123Y70471989D01*
X38241311Y70256023D01*
X38286580Y70067965D01*
X38357185Y69858909D01*
X38445577Y69660578D01*
X38550867Y69473711D01*
X38672169Y69299049D01*
X38808595Y69137331D01*
X38959258Y68989296D01*
X39123270Y68855684D01*
X39299744Y68737236D01*
X39487792Y68634690D01*
X39686528Y68548786D01*
X39895064Y68480264D01*
X40112513Y68429864D01*
X40282496Y68404216D01*
X40361649Y68397051D01*
X40454381Y68392051D01*
X40554711Y68389262D01*
X40656660Y68388727D01*
X40754245Y68390494D01*
X40841487Y68394607D01*
X40899021Y68399529D01*
X41105319Y68432623D01*
X41309211Y68485649D01*
X41508241Y68557529D01*
X41699950Y68647185D01*
X41881882Y68753536D01*
X42051578Y68875503D01*
X42127741Y68939082D01*
X42226636Y69025764D01*
X42263684Y68990206D01*
X42285909Y68967912D01*
X42317806Y68934687D01*
X42354837Y68895302D01*
X42386966Y68860542D01*
X42473200Y68766436D01*
X42399251Y68697540D01*
X42234737Y68558083D01*
X42058058Y68435059D01*
X41868777Y68328266D01*
X41666458Y68237503D01*
X41450666Y68162568D01*
X41220966Y68103258D01*
X41043386Y68069572D01*
X40994862Y68062315D01*
X40946364Y68056613D01*
X40894154Y68052247D01*
X40834492Y68048998D01*
X40763642Y68046646D01*
X40677864Y68044972D01*
X40610088Y68044119D01*
X40530985Y68043442D01*
X40457143Y68043123D01*
X40391704Y68043153D01*
X40337813Y68043520D01*
X40298612Y68044213D01*
X40277245Y68045220D01*
X40276574Y68045294D01*
X40125245Y68064824D01*
X39990363Y68086438D01*
X39867220Y68111249D01*
X39751110Y68140373D01*
X39637326Y68174922D01*
X39521162Y68216012D01*
X39466611Y68237029D01*
X39358961Y68281067D01*
X39265414Y68323211D01*
X39179510Y68366624D01*
X39094790Y68414469D01*
X39054711Y68438668D01*
X38859715Y68570532D01*
X38679986Y68716909D01*
X38515833Y68877319D01*
X38367567Y69051284D01*
X38235499Y69238325D01*
X38119939Y69437964D01*
X38021198Y69649721D01*
X37939586Y69873119D01*
X37875414Y70107678D01*
X37834010Y70320467D01*
X37826527Y70382605D01*
X37820790Y70461484D01*
X37816798Y70552743D01*
X37814550Y70652020D01*
X37814046Y70754954D01*
X37815285Y70857182D01*
X37818267Y70954344D01*
X37822992Y71042076D01*
X37829457Y71116018D01*
X37834119Y71151605D01*
X37881463Y71392335D01*
X37947346Y71623490D01*
X38031532Y71844595D01*
X38133784Y72055173D01*
X38253863Y72254747D01*
X38391533Y72442841D01*
X38546558Y72618977D01*
X38582245Y72655352D01*
X38754509Y72812860D01*
X38938944Y72953055D01*
X39135489Y73075906D01*
X39344080Y73181383D01*
X39564656Y73269458D01*
X39797152Y73340100D01*
X40041508Y73393279D01*
X40170696Y73413669D01*
X40234593Y73420443D01*
X40314842Y73425736D01*
X40406745Y73429516D01*
X40505603Y73431752D01*
X40606718Y73432411D01*
X40705392Y73431463D01*
G37*
X40705392Y73431463D02*
X40796927Y73428875D01*
X40876624Y73424616D01*
X40938308Y73418842D01*
X41139650Y73386798D01*
X41337268Y73342186D01*
X41528056Y73286060D01*
X41708909Y73219469D01*
X41876724Y73143467D01*
X42028395Y73059105D01*
X42060609Y73038669D01*
X42123554Y72995528D01*
X42192438Y72944653D01*
X42262276Y72890026D01*
X42328083Y72835630D01*
X42384877Y72785446D01*
X42419830Y72751668D01*
X42472007Y72698155D01*
X42419830Y72641993D01*
X42388151Y72607915D01*
X42348900Y72565720D01*
X42308940Y72522785D01*
X42295624Y72508483D01*
X42223594Y72431133D01*
X42147093Y72499601D01*
X41975764Y72639517D01*
X41795766Y72760214D01*
X41606634Y72861917D01*
X41407900Y72944850D01*
X41199095Y73009238D01*
X40996393Y73052514D01*
X40936224Y73060477D01*
X40859960Y73067015D01*
X40772640Y73071999D01*
X40679305Y73075295D01*
X40584995Y73076775D01*
X40494750Y73076306D01*
X40413610Y73073759D01*
X40349616Y73069301D01*
X40117825Y73036593D01*
X39894515Y72984664D01*
X39680037Y72913655D01*
X39474743Y72823704D01*
X39278983Y72714952D01*
X39093108Y72587538D01*
X39043236Y72548819D01*
X38893642Y72416537D01*
X38754933Y72267596D01*
X38628588Y72104306D01*
X38516087Y71928979D01*
X38418908Y71743926D01*
X38338531Y71551460D01*
X38276434Y71353892D01*
X38274908Y71348059D01*
X38229235Y71132250D01*
X38203061Y70912622D01*
X38196365Y70691695D01*
X38209123Y70471989D01*
X38241311Y70256023D01*
X38286580Y70067965D01*
X38357185Y69858909D01*
X38445577Y69660578D01*
X38550867Y69473711D01*
X38672169Y69299049D01*
X38808595Y69137331D01*
X38959258Y68989296D01*
X39123270Y68855684D01*
X39299744Y68737236D01*
X39487792Y68634690D01*
X39686528Y68548786D01*
X39895064Y68480264D01*
X40112513Y68429864D01*
X40282496Y68404216D01*
X40361649Y68397051D01*
X40454381Y68392051D01*
X40554711Y68389262D01*
X40656660Y68388727D01*
X40754245Y68390494D01*
X40841487Y68394607D01*
X40899021Y68399529D01*
X41105319Y68432623D01*
X41309211Y68485649D01*
X41508241Y68557529D01*
X41699950Y68647185D01*
X41881882Y68753536D01*
X42051578Y68875503D01*
X42127741Y68939082D01*
X42226636Y69025764D01*
X42263684Y68990206D01*
X42285909Y68967912D01*
X42317806Y68934687D01*
X42354837Y68895302D01*
X42386966Y68860542D01*
X42473200Y68766436D01*
X42399251Y68697540D01*
X42234737Y68558083D01*
X42058058Y68435059D01*
X41868777Y68328266D01*
X41666458Y68237503D01*
X41450666Y68162568D01*
X41220966Y68103258D01*
X41043386Y68069572D01*
X40994862Y68062315D01*
X40946364Y68056613D01*
X40894154Y68052247D01*
X40834492Y68048998D01*
X40763642Y68046646D01*
X40677864Y68044972D01*
X40610088Y68044119D01*
X40530985Y68043442D01*
X40457143Y68043123D01*
X40391704Y68043153D01*
X40337813Y68043520D01*
X40298612Y68044213D01*
X40277245Y68045220D01*
X40276574Y68045294D01*
X40125245Y68064824D01*
X39990363Y68086438D01*
X39867220Y68111249D01*
X39751110Y68140373D01*
X39637326Y68174922D01*
X39521162Y68216012D01*
X39466611Y68237029D01*
X39358961Y68281067D01*
X39265414Y68323211D01*
X39179510Y68366624D01*
X39094790Y68414469D01*
X39054711Y68438668D01*
X38859715Y68570532D01*
X38679986Y68716909D01*
X38515833Y68877319D01*
X38367567Y69051284D01*
X38235499Y69238325D01*
X38119939Y69437964D01*
X38021198Y69649721D01*
X37939586Y69873119D01*
X37875414Y70107678D01*
X37834010Y70320467D01*
X37826527Y70382605D01*
X37820790Y70461484D01*
X37816798Y70552743D01*
X37814550Y70652020D01*
X37814046Y70754954D01*
X37815285Y70857182D01*
X37818267Y70954344D01*
X37822992Y71042076D01*
X37829457Y71116018D01*
X37834119Y71151605D01*
X37881463Y71392335D01*
X37947346Y71623490D01*
X38031532Y71844595D01*
X38133784Y72055173D01*
X38253863Y72254747D01*
X38391533Y72442841D01*
X38546558Y72618977D01*
X38582245Y72655352D01*
X38754509Y72812860D01*
X38938944Y72953055D01*
X39135489Y73075906D01*
X39344080Y73181383D01*
X39564656Y73269458D01*
X39797152Y73340100D01*
X40041508Y73393279D01*
X40170696Y73413669D01*
X40234593Y73420443D01*
X40314842Y73425736D01*
X40406745Y73429516D01*
X40505603Y73431752D01*
X40606718Y73432411D01*
X40705392Y73431463D01*
G36*
X46168610Y73477712D02*
G01*
X46337823Y73468361D01*
X46493668Y73450429D01*
X46642605Y73422779D01*
X46791090Y73384271D01*
X46905680Y73347703D01*
X47113059Y73268254D01*
X47307202Y73175794D01*
X47490800Y73068623D01*
X47666550Y72945044D01*
X47837143Y72803358D01*
X47972585Y72674961D01*
X48140049Y72493987D01*
X48287775Y72305558D01*
X48416037Y72109141D01*
X48525108Y71904198D01*
X48615264Y71690196D01*
X48686780Y71466599D01*
X48739928Y71232871D01*
X48753769Y71151605D01*
X48762449Y71078697D01*
X48768687Y70989946D01*
X48772482Y70890545D01*
X48773832Y70785686D01*
X48772737Y70680561D01*
X48769194Y70580363D01*
X48763201Y70490283D01*
X48754758Y70415514D01*
X48753995Y70410463D01*
X48707149Y70176116D01*
X48639999Y69945392D01*
X48553337Y69720066D01*
X48447953Y69501912D01*
X48324639Y69292706D01*
X48184185Y69094221D01*
X48145484Y69045244D01*
X48096079Y68987107D01*
X48035246Y68920226D01*
X47966989Y68848620D01*
X47895309Y68776309D01*
X47824209Y68707312D01*
X47757690Y68645649D01*
X47699756Y68595339D01*
X47687995Y68585740D01*
X47495752Y68443750D01*
X47293145Y68318073D01*
X47082141Y68209550D01*
X46864705Y68119026D01*
X46642806Y68047340D01*
X46418408Y67995338D01*
X46250190Y67969822D01*
X46165949Y67962393D01*
X46068065Y67957727D01*
X45962742Y67955809D01*
X45856180Y67956624D01*
X45754581Y67960158D01*
X45664147Y67966395D01*
X45618767Y67971309D01*
X45390101Y68011093D01*
X45167165Y68070617D01*
X44951082Y68148955D01*
X44742976Y68245177D01*
X44543969Y68358356D01*
X44355185Y68487564D01*
X44177748Y68631873D01*
X44012779Y68790356D01*
X43861403Y68962084D01*
X43724743Y69146130D01*
X43603923Y69341566D01*
X43500064Y69547464D01*
X43414291Y69762897D01*
X43400507Y69803688D01*
X43351836Y69963370D01*
X43314818Y70113012D01*
X43288563Y70258666D01*
X43272178Y70406381D01*
X43264774Y70562211D01*
X43265237Y70722802D01*
X43274835Y70914699D01*
X43295320Y71093400D01*
X43327917Y71264539D01*
X43373851Y71433748D01*
X43434349Y71606661D01*
X43483914Y71728028D01*
X43508091Y71781353D01*
X43537959Y71842684D01*
X43571217Y71907735D01*
X43605566Y71972216D01*
X43638706Y72031842D01*
X43668336Y72082325D01*
X43692157Y72119376D01*
X43698660Y72128331D01*
X43716867Y72152147D01*
X43985199Y71884435D01*
X43947666Y71822418D01*
X43844806Y71632692D01*
X43762275Y71437152D01*
X43700164Y71236147D01*
X43658563Y71030023D01*
X43637562Y70819131D01*
X43636279Y70627512D01*
X43651344Y70427133D01*
X43682398Y70235580D01*
X43730469Y70048770D01*
X43796584Y69862618D01*
X43870660Y69695790D01*
X43945719Y69551412D01*
X44026418Y69418747D01*
X44115996Y69293390D01*
X44217692Y69170940D01*
X44334746Y69046991D01*
X44382514Y68999949D01*
X44553948Y68847788D01*
X44733995Y68714945D01*
X44922978Y68601257D01*
X45121217Y68506560D01*
X45329034Y68430688D01*
X45546750Y68373477D01*
X45640610Y68355082D01*
X45742431Y68341250D01*
X45858336Y68332578D01*
X45981868Y68329066D01*
X46106574Y68330713D01*
X46225998Y68337520D01*
X46333687Y68349486D01*
X46368564Y68355096D01*
X46579200Y68403148D01*
X46786393Y68471989D01*
X46989785Y68561463D01*
X47189020Y68671410D01*
X47383742Y68801672D01*
X47402126Y68815197D01*
X47456530Y68858669D01*
X47520639Y68914962D01*
X47590828Y68980444D01*
X47663471Y69051483D01*
X47734943Y69124446D01*
X47801620Y69195701D01*
X47859877Y69261616D01*
X47906088Y69318558D01*
X47911005Y69325090D01*
X48038390Y69511794D01*
X48147445Y69704713D01*
X48237562Y69902401D01*
X48308130Y70103410D01*
X48358541Y70306292D01*
X48380478Y70440551D01*
X48397281Y70651470D01*
X48393597Y70861522D01*
X48370112Y71069484D01*
X48327512Y71274133D01*
X48266481Y71474246D01*
X48187706Y71668598D01*
X48091873Y71855966D01*
X47979666Y72035127D01*
X47851772Y72204857D01*
X47708876Y72363934D01*
X47551664Y72511132D01*
X47380821Y72645230D01*
X47197034Y72765004D01*
X47026261Y72857034D01*
X46823798Y72945054D01*
X46618145Y73012849D01*
X46410419Y73060458D01*
X46201732Y73087919D01*
X45993201Y73095269D01*
X45785940Y73082547D01*
X45581064Y73049791D01*
X45379687Y72997039D01*
X45182925Y72924328D01*
X44991892Y72831697D01*
X44910286Y72784848D01*
X44848334Y72747518D01*
X44717060Y72878478D01*
X44674447Y72921413D01*
X44637609Y72959339D01*
X44608968Y72989696D01*
X44590946Y73009925D01*
X44585786Y73017235D01*
X44594614Y73026221D01*
X44618921Y73043152D01*
X44655440Y73066120D01*
X44700905Y73093220D01*
X44752049Y73122546D01*
X44805605Y73152192D01*
X44858307Y73180253D01*
X44906888Y73204823D01*
X44909449Y73206070D01*
X45126877Y73301374D01*
X45344966Y73375899D01*
X45565439Y73430020D01*
X45790020Y73464106D01*
X46020431Y73478530D01*
X46168610Y73477712D01*
G37*
X46168610Y73477712D02*
X46337823Y73468361D01*
X46493668Y73450429D01*
X46642605Y73422779D01*
X46791090Y73384271D01*
X46905680Y73347703D01*
X47113059Y73268254D01*
X47307202Y73175794D01*
X47490800Y73068623D01*
X47666550Y72945044D01*
X47837143Y72803358D01*
X47972585Y72674961D01*
X48140049Y72493987D01*
X48287775Y72305558D01*
X48416037Y72109141D01*
X48525108Y71904198D01*
X48615264Y71690196D01*
X48686780Y71466599D01*
X48739928Y71232871D01*
X48753769Y71151605D01*
X48762449Y71078697D01*
X48768687Y70989946D01*
X48772482Y70890545D01*
X48773832Y70785686D01*
X48772737Y70680561D01*
X48769194Y70580363D01*
X48763201Y70490283D01*
X48754758Y70415514D01*
X48753995Y70410463D01*
X48707149Y70176116D01*
X48639999Y69945392D01*
X48553337Y69720066D01*
X48447953Y69501912D01*
X48324639Y69292706D01*
X48184185Y69094221D01*
X48145484Y69045244D01*
X48096079Y68987107D01*
X48035246Y68920226D01*
X47966989Y68848620D01*
X47895309Y68776309D01*
X47824209Y68707312D01*
X47757690Y68645649D01*
X47699756Y68595339D01*
X47687995Y68585740D01*
X47495752Y68443750D01*
X47293145Y68318073D01*
X47082141Y68209550D01*
X46864705Y68119026D01*
X46642806Y68047340D01*
X46418408Y67995338D01*
X46250190Y67969822D01*
X46165949Y67962393D01*
X46068065Y67957727D01*
X45962742Y67955809D01*
X45856180Y67956624D01*
X45754581Y67960158D01*
X45664147Y67966395D01*
X45618767Y67971309D01*
X45390101Y68011093D01*
X45167165Y68070617D01*
X44951082Y68148955D01*
X44742976Y68245177D01*
X44543969Y68358356D01*
X44355185Y68487564D01*
X44177748Y68631873D01*
X44012779Y68790356D01*
X43861403Y68962084D01*
X43724743Y69146130D01*
X43603923Y69341566D01*
X43500064Y69547464D01*
X43414291Y69762897D01*
X43400507Y69803688D01*
X43351836Y69963370D01*
X43314818Y70113012D01*
X43288563Y70258666D01*
X43272178Y70406381D01*
X43264774Y70562211D01*
X43265237Y70722802D01*
X43274835Y70914699D01*
X43295320Y71093400D01*
X43327917Y71264539D01*
X43373851Y71433748D01*
X43434349Y71606661D01*
X43483914Y71728028D01*
X43508091Y71781353D01*
X43537959Y71842684D01*
X43571217Y71907735D01*
X43605566Y71972216D01*
X43638706Y72031842D01*
X43668336Y72082325D01*
X43692157Y72119376D01*
X43698660Y72128331D01*
X43716867Y72152147D01*
X43985199Y71884435D01*
X43947666Y71822418D01*
X43844806Y71632692D01*
X43762275Y71437152D01*
X43700164Y71236147D01*
X43658563Y71030023D01*
X43637562Y70819131D01*
X43636279Y70627512D01*
X43651344Y70427133D01*
X43682398Y70235580D01*
X43730469Y70048770D01*
X43796584Y69862618D01*
X43870660Y69695790D01*
X43945719Y69551412D01*
X44026418Y69418747D01*
X44115996Y69293390D01*
X44217692Y69170940D01*
X44334746Y69046991D01*
X44382514Y68999949D01*
X44553948Y68847788D01*
X44733995Y68714945D01*
X44922978Y68601257D01*
X45121217Y68506560D01*
X45329034Y68430688D01*
X45546750Y68373477D01*
X45640610Y68355082D01*
X45742431Y68341250D01*
X45858336Y68332578D01*
X45981868Y68329066D01*
X46106574Y68330713D01*
X46225998Y68337520D01*
X46333687Y68349486D01*
X46368564Y68355096D01*
X46579200Y68403148D01*
X46786393Y68471989D01*
X46989785Y68561463D01*
X47189020Y68671410D01*
X47383742Y68801672D01*
X47402126Y68815197D01*
X47456530Y68858669D01*
X47520639Y68914962D01*
X47590828Y68980444D01*
X47663471Y69051483D01*
X47734943Y69124446D01*
X47801620Y69195701D01*
X47859877Y69261616D01*
X47906088Y69318558D01*
X47911005Y69325090D01*
X48038390Y69511794D01*
X48147445Y69704713D01*
X48237562Y69902401D01*
X48308130Y70103410D01*
X48358541Y70306292D01*
X48380478Y70440551D01*
X48397281Y70651470D01*
X48393597Y70861522D01*
X48370112Y71069484D01*
X48327512Y71274133D01*
X48266481Y71474246D01*
X48187706Y71668598D01*
X48091873Y71855966D01*
X47979666Y72035127D01*
X47851772Y72204857D01*
X47708876Y72363934D01*
X47551664Y72511132D01*
X47380821Y72645230D01*
X47197034Y72765004D01*
X47026261Y72857034D01*
X46823798Y72945054D01*
X46618145Y73012849D01*
X46410419Y73060458D01*
X46201732Y73087919D01*
X45993201Y73095269D01*
X45785940Y73082547D01*
X45581064Y73049791D01*
X45379687Y72997039D01*
X45182925Y72924328D01*
X44991892Y72831697D01*
X44910286Y72784848D01*
X44848334Y72747518D01*
X44717060Y72878478D01*
X44674447Y72921413D01*
X44637609Y72959339D01*
X44608968Y72989696D01*
X44590946Y73009925D01*
X44585786Y73017235D01*
X44594614Y73026221D01*
X44618921Y73043152D01*
X44655440Y73066120D01*
X44700905Y73093220D01*
X44752049Y73122546D01*
X44805605Y73152192D01*
X44858307Y73180253D01*
X44906888Y73204823D01*
X44909449Y73206070D01*
X45126877Y73301374D01*
X45344966Y73375899D01*
X45565439Y73430020D01*
X45790020Y73464106D01*
X46020431Y73478530D01*
X46168610Y73477712D01*
G36*
X57575105Y66354227D02*
G01*
X57661784Y66350843D01*
X57736641Y66345335D01*
X57789485Y66338631D01*
X57916409Y66310821D01*
X58043936Y66270653D01*
X58168178Y66220010D01*
X58285250Y66160775D01*
X58391264Y66094830D01*
X58482335Y66024059D01*
X58526968Y65981344D01*
X58606193Y65889114D01*
X58670922Y65792079D01*
X58723695Y65685610D01*
X58767048Y65565075D01*
X58780407Y65518925D01*
X58789601Y65470714D01*
X58796044Y65406614D01*
X58799736Y65331731D01*
X58800676Y65251171D01*
X58798863Y65170042D01*
X58794295Y65093450D01*
X58786972Y65026502D01*
X58780513Y64989538D01*
X58737884Y64831109D01*
X58680532Y64684146D01*
X58673338Y64668768D01*
X58642969Y64611056D01*
X58601902Y64541805D01*
X58553169Y64465594D01*
X58499802Y64387004D01*
X58444835Y64310614D01*
X58391299Y64241005D01*
X58384458Y64232514D01*
X58365346Y64210713D01*
X58332253Y64175065D01*
X58286227Y64126639D01*
X58228317Y64066506D01*
X58159572Y63995734D01*
X58081041Y63915394D01*
X57993771Y63826555D01*
X57898812Y63730286D01*
X57797212Y63627658D01*
X57690020Y63519740D01*
X57578285Y63407601D01*
X57463055Y63292311D01*
X57445692Y63274970D01*
X57334015Y63163420D01*
X57226647Y63056099D01*
X57124526Y62953948D01*
X57028589Y62857908D01*
X56939774Y62768920D01*
X56859018Y62687924D01*
X56787259Y62615863D01*
X56725433Y62553676D01*
X56674479Y62502305D01*
X56635333Y62462690D01*
X56608933Y62435774D01*
X56596216Y62422495D01*
X56595170Y62421214D01*
X56605752Y62420878D01*
X56635865Y62420345D01*
X56683867Y62419634D01*
X56748117Y62418763D01*
X56826971Y62417750D01*
X56918787Y62416612D01*
X57021922Y62415368D01*
X57134734Y62414036D01*
X57255581Y62412634D01*
X57382820Y62411181D01*
X57514808Y62409693D01*
X57649904Y62408190D01*
X57786464Y62406689D01*
X57922846Y62405208D01*
X58057407Y62403766D01*
X58188506Y62402380D01*
X58314499Y62401069D01*
X58433744Y62399850D01*
X58544599Y62398742D01*
X58645421Y62397763D01*
X58734568Y62396930D01*
X58810397Y62396262D01*
X58871265Y62395778D01*
X58915531Y62395494D01*
X58940121Y62395426D01*
X59006294Y62395540D01*
X59006294Y62130847D01*
X56126428Y62130847D01*
X56126428Y62351449D01*
X57074781Y63291981D01*
X57194830Y63411170D01*
X57311832Y63527584D01*
X57424778Y63640208D01*
X57532658Y63748023D01*
X57634464Y63850014D01*
X57729185Y63945164D01*
X57815812Y64032455D01*
X57893337Y64110870D01*
X57960750Y64179394D01*
X58017041Y64237009D01*
X58061202Y64282698D01*
X58092222Y64315444D01*
X58108147Y64333097D01*
X58161305Y64399033D01*
X58215598Y64471808D01*
X58268321Y64547339D01*
X58316769Y64621543D01*
X58358235Y64690337D01*
X58390014Y64749636D01*
X58402867Y64777891D01*
X58447812Y64907210D01*
X58477701Y65038975D01*
X58492480Y65170173D01*
X58492097Y65297795D01*
X58476500Y65418829D01*
X58445637Y65530263D01*
X58417112Y65596625D01*
X58352012Y65705823D01*
X58274396Y65798378D01*
X58183192Y65875466D01*
X58132267Y65908513D01*
X58014132Y65970535D01*
X57892430Y66017828D01*
X57764329Y66050968D01*
X57626996Y66070530D01*
X57477597Y66077088D01*
X57326259Y66072079D01*
X57138882Y66053411D01*
X56967324Y66022106D01*
X56809944Y65977507D01*
X56665100Y65918959D01*
X56531150Y65845804D01*
X56406452Y65757387D01*
X56296745Y65660297D01*
X56265639Y65630952D01*
X56240077Y65608703D01*
X56223812Y65596731D01*
X56220351Y65595586D01*
X56208626Y65603847D01*
X56185576Y65622800D01*
X56154825Y65649210D01*
X56119996Y65679842D01*
X56084714Y65711461D01*
X56052605Y65740832D01*
X56027292Y65764719D01*
X56012399Y65779887D01*
X56009963Y65783374D01*
X56017453Y65794553D01*
X56037770Y65816507D01*
X56067678Y65846209D01*
X56103946Y65880632D01*
X56143340Y65916747D01*
X56182625Y65951529D01*
X56218569Y65981949D01*
X56241562Y66000211D01*
X56378303Y66091881D01*
X56530910Y66171312D01*
X56697479Y66237782D01*
X56876105Y66290569D01*
X57064884Y66328951D01*
X57135453Y66339166D01*
X57207927Y66346456D01*
X57293017Y66351603D01*
X57385835Y66354611D01*
X57481493Y66355485D01*
X57575105Y66354227D01*
G37*
X57575105Y66354227D02*
X57661784Y66350843D01*
X57736641Y66345335D01*
X57789485Y66338631D01*
X57916409Y66310821D01*
X58043936Y66270653D01*
X58168178Y66220010D01*
X58285250Y66160775D01*
X58391264Y66094830D01*
X58482335Y66024059D01*
X58526968Y65981344D01*
X58606193Y65889114D01*
X58670922Y65792079D01*
X58723695Y65685610D01*
X58767048Y65565075D01*
X58780407Y65518925D01*
X58789601Y65470714D01*
X58796044Y65406614D01*
X58799736Y65331731D01*
X58800676Y65251171D01*
X58798863Y65170042D01*
X58794295Y65093450D01*
X58786972Y65026502D01*
X58780513Y64989538D01*
X58737884Y64831109D01*
X58680532Y64684146D01*
X58673338Y64668768D01*
X58642969Y64611056D01*
X58601902Y64541805D01*
X58553169Y64465594D01*
X58499802Y64387004D01*
X58444835Y64310614D01*
X58391299Y64241005D01*
X58384458Y64232514D01*
X58365346Y64210713D01*
X58332253Y64175065D01*
X58286227Y64126639D01*
X58228317Y64066506D01*
X58159572Y63995734D01*
X58081041Y63915394D01*
X57993771Y63826555D01*
X57898812Y63730286D01*
X57797212Y63627658D01*
X57690020Y63519740D01*
X57578285Y63407601D01*
X57463055Y63292311D01*
X57445692Y63274970D01*
X57334015Y63163420D01*
X57226647Y63056099D01*
X57124526Y62953948D01*
X57028589Y62857908D01*
X56939774Y62768920D01*
X56859018Y62687924D01*
X56787259Y62615863D01*
X56725433Y62553676D01*
X56674479Y62502305D01*
X56635333Y62462690D01*
X56608933Y62435774D01*
X56596216Y62422495D01*
X56595170Y62421214D01*
X56605752Y62420878D01*
X56635865Y62420345D01*
X56683867Y62419634D01*
X56748117Y62418763D01*
X56826971Y62417750D01*
X56918787Y62416612D01*
X57021922Y62415368D01*
X57134734Y62414036D01*
X57255581Y62412634D01*
X57382820Y62411181D01*
X57514808Y62409693D01*
X57649904Y62408190D01*
X57786464Y62406689D01*
X57922846Y62405208D01*
X58057407Y62403766D01*
X58188506Y62402380D01*
X58314499Y62401069D01*
X58433744Y62399850D01*
X58544599Y62398742D01*
X58645421Y62397763D01*
X58734568Y62396930D01*
X58810397Y62396262D01*
X58871265Y62395778D01*
X58915531Y62395494D01*
X58940121Y62395426D01*
X59006294Y62395540D01*
X59006294Y62130847D01*
X56126428Y62130847D01*
X56126428Y62351449D01*
X57074781Y63291981D01*
X57194830Y63411170D01*
X57311832Y63527584D01*
X57424778Y63640208D01*
X57532658Y63748023D01*
X57634464Y63850014D01*
X57729185Y63945164D01*
X57815812Y64032455D01*
X57893337Y64110870D01*
X57960750Y64179394D01*
X58017041Y64237009D01*
X58061202Y64282698D01*
X58092222Y64315444D01*
X58108147Y64333097D01*
X58161305Y64399033D01*
X58215598Y64471808D01*
X58268321Y64547339D01*
X58316769Y64621543D01*
X58358235Y64690337D01*
X58390014Y64749636D01*
X58402867Y64777891D01*
X58447812Y64907210D01*
X58477701Y65038975D01*
X58492480Y65170173D01*
X58492097Y65297795D01*
X58476500Y65418829D01*
X58445637Y65530263D01*
X58417112Y65596625D01*
X58352012Y65705823D01*
X58274396Y65798378D01*
X58183192Y65875466D01*
X58132267Y65908513D01*
X58014132Y65970535D01*
X57892430Y66017828D01*
X57764329Y66050968D01*
X57626996Y66070530D01*
X57477597Y66077088D01*
X57326259Y66072079D01*
X57138882Y66053411D01*
X56967324Y66022106D01*
X56809944Y65977507D01*
X56665100Y65918959D01*
X56531150Y65845804D01*
X56406452Y65757387D01*
X56296745Y65660297D01*
X56265639Y65630952D01*
X56240077Y65608703D01*
X56223812Y65596731D01*
X56220351Y65595586D01*
X56208626Y65603847D01*
X56185576Y65622800D01*
X56154825Y65649210D01*
X56119996Y65679842D01*
X56084714Y65711461D01*
X56052605Y65740832D01*
X56027292Y65764719D01*
X56012399Y65779887D01*
X56009963Y65783374D01*
X56017453Y65794553D01*
X56037770Y65816507D01*
X56067678Y65846209D01*
X56103946Y65880632D01*
X56143340Y65916747D01*
X56182625Y65951529D01*
X56218569Y65981949D01*
X56241562Y66000211D01*
X56378303Y66091881D01*
X56530910Y66171312D01*
X56697479Y66237782D01*
X56876105Y66290569D01*
X57064884Y66328951D01*
X57135453Y66339166D01*
X57207927Y66346456D01*
X57293017Y66351603D01*
X57385835Y66354611D01*
X57481493Y66355485D01*
X57575105Y66354227D01*
G36*
X50216637Y66354522D02*
G01*
X50312761Y66351974D01*
X50402946Y66347116D01*
X50482964Y66340035D01*
X50548587Y66330822D01*
X50578449Y66324521D01*
X50716358Y66285450D01*
X50838829Y66240771D01*
X50951340Y66188183D01*
X51059369Y66125383D01*
X51072824Y66116704D01*
X51187325Y66029995D01*
X51285546Y65930221D01*
X51367039Y65818379D01*
X51431354Y65695468D01*
X51478044Y65562486D01*
X51506658Y65420432D01*
X51516749Y65270303D01*
X51510928Y65142309D01*
X51494649Y65016378D01*
X51469517Y64898501D01*
X51434118Y64785335D01*
X51387040Y64673536D01*
X51326869Y64559762D01*
X51252191Y64440669D01*
X51161594Y64312913D01*
X51158671Y64308986D01*
X51141762Y64286922D01*
X51122272Y64262816D01*
X51099336Y64235774D01*
X51072091Y64204901D01*
X51039672Y64169301D01*
X51001216Y64128081D01*
X50955859Y64080346D01*
X50902737Y64025200D01*
X50840986Y63961750D01*
X50769743Y63889101D01*
X50688143Y63806357D01*
X50595323Y63712624D01*
X50490419Y63607008D01*
X50372567Y63488614D01*
X50240903Y63356547D01*
X50184196Y63299711D01*
X49306171Y62419846D01*
X49960839Y62412947D01*
X50099384Y62411468D01*
X50249622Y62409831D01*
X50407010Y62408087D01*
X50567005Y62406287D01*
X50725062Y62404484D01*
X50876640Y62402728D01*
X51017193Y62401072D01*
X51142180Y62399567D01*
X51168716Y62399241D01*
X51721926Y62392435D01*
X51721926Y62130847D01*
X48841366Y62130847D01*
X48844359Y62244974D01*
X48847353Y62359101D01*
X49800250Y63304402D01*
X49920392Y63423709D01*
X50037369Y63540112D01*
X50150188Y63652611D01*
X50257853Y63760201D01*
X50359368Y63861880D01*
X50453737Y63956647D01*
X50539966Y64043498D01*
X50617059Y64121431D01*
X50684021Y64189443D01*
X50739855Y64246532D01*
X50783568Y64291696D01*
X50814162Y64323931D01*
X50830192Y64341693D01*
X50882642Y64407431D01*
X50936519Y64480470D01*
X50988686Y64556116D01*
X51036007Y64629677D01*
X51075345Y64696459D01*
X51102071Y64748489D01*
X51151326Y64873278D01*
X51184269Y64999838D01*
X51202053Y65133603D01*
X51206124Y65238350D01*
X51203374Y65333252D01*
X51193114Y65414911D01*
X51173832Y65490394D01*
X51144020Y65566764D01*
X51129204Y65598333D01*
X51071337Y65698962D01*
X51002081Y65785064D01*
X50918835Y65859172D01*
X50818999Y65923820D01*
X50767453Y65950754D01*
X50653906Y66000318D01*
X50539335Y66037324D01*
X50420210Y66062318D01*
X50292998Y66075849D01*
X50154169Y66078464D01*
X50000191Y66070711D01*
X49996145Y66070392D01*
X49810712Y66048474D01*
X49640563Y66013123D01*
X49484091Y65963679D01*
X49339691Y65899483D01*
X49205759Y65819875D01*
X49080687Y65724195D01*
X49020397Y65669573D01*
X48983318Y65634668D01*
X48957976Y65612715D01*
X48941148Y65601680D01*
X48929609Y65599527D01*
X48920136Y65604222D01*
X48918693Y65605392D01*
X48884383Y65634741D01*
X48846772Y65667919D01*
X48809198Y65701849D01*
X48774998Y65733456D01*
X48747511Y65759664D01*
X48730073Y65777397D01*
X48725594Y65783342D01*
X48733167Y65795485D01*
X48753770Y65818293D01*
X48784231Y65848797D01*
X48821376Y65884031D01*
X48862033Y65921025D01*
X48903029Y65956812D01*
X48941191Y65988425D01*
X48962632Y66005073D01*
X49101750Y66096859D01*
X49256559Y66176065D01*
X49425231Y66242006D01*
X49605940Y66294001D01*
X49796857Y66331364D01*
X49857317Y66339803D01*
X49934915Y66347398D01*
X50023486Y66352323D01*
X50118803Y66354668D01*
X50216637Y66354522D01*
G37*
X50216637Y66354522D02*
X50312761Y66351974D01*
X50402946Y66347116D01*
X50482964Y66340035D01*
X50548587Y66330822D01*
X50578449Y66324521D01*
X50716358Y66285450D01*
X50838829Y66240771D01*
X50951340Y66188183D01*
X51059369Y66125383D01*
X51072824Y66116704D01*
X51187325Y66029995D01*
X51285546Y65930221D01*
X51367039Y65818379D01*
X51431354Y65695468D01*
X51478044Y65562486D01*
X51506658Y65420432D01*
X51516749Y65270303D01*
X51510928Y65142309D01*
X51494649Y65016378D01*
X51469517Y64898501D01*
X51434118Y64785335D01*
X51387040Y64673536D01*
X51326869Y64559762D01*
X51252191Y64440669D01*
X51161594Y64312913D01*
X51158671Y64308986D01*
X51141762Y64286922D01*
X51122272Y64262816D01*
X51099336Y64235774D01*
X51072091Y64204901D01*
X51039672Y64169301D01*
X51001216Y64128081D01*
X50955859Y64080346D01*
X50902737Y64025200D01*
X50840986Y63961750D01*
X50769743Y63889101D01*
X50688143Y63806357D01*
X50595323Y63712624D01*
X50490419Y63607008D01*
X50372567Y63488614D01*
X50240903Y63356547D01*
X50184196Y63299711D01*
X49306171Y62419846D01*
X49960839Y62412947D01*
X50099384Y62411468D01*
X50249622Y62409831D01*
X50407010Y62408087D01*
X50567005Y62406287D01*
X50725062Y62404484D01*
X50876640Y62402728D01*
X51017193Y62401072D01*
X51142180Y62399567D01*
X51168716Y62399241D01*
X51721926Y62392435D01*
X51721926Y62130847D01*
X48841366Y62130847D01*
X48844359Y62244974D01*
X48847353Y62359101D01*
X49800250Y63304402D01*
X49920392Y63423709D01*
X50037369Y63540112D01*
X50150188Y63652611D01*
X50257853Y63760201D01*
X50359368Y63861880D01*
X50453737Y63956647D01*
X50539966Y64043498D01*
X50617059Y64121431D01*
X50684021Y64189443D01*
X50739855Y64246532D01*
X50783568Y64291696D01*
X50814162Y64323931D01*
X50830192Y64341693D01*
X50882642Y64407431D01*
X50936519Y64480470D01*
X50988686Y64556116D01*
X51036007Y64629677D01*
X51075345Y64696459D01*
X51102071Y64748489D01*
X51151326Y64873278D01*
X51184269Y64999838D01*
X51202053Y65133603D01*
X51206124Y65238350D01*
X51203374Y65333252D01*
X51193114Y65414911D01*
X51173832Y65490394D01*
X51144020Y65566764D01*
X51129204Y65598333D01*
X51071337Y65698962D01*
X51002081Y65785064D01*
X50918835Y65859172D01*
X50818999Y65923820D01*
X50767453Y65950754D01*
X50653906Y66000318D01*
X50539335Y66037324D01*
X50420210Y66062318D01*
X50292998Y66075849D01*
X50154169Y66078464D01*
X50000191Y66070711D01*
X49996145Y66070392D01*
X49810712Y66048474D01*
X49640563Y66013123D01*
X49484091Y65963679D01*
X49339691Y65899483D01*
X49205759Y65819875D01*
X49080687Y65724195D01*
X49020397Y65669573D01*
X48983318Y65634668D01*
X48957976Y65612715D01*
X48941148Y65601680D01*
X48929609Y65599527D01*
X48920136Y65604222D01*
X48918693Y65605392D01*
X48884383Y65634741D01*
X48846772Y65667919D01*
X48809198Y65701849D01*
X48774998Y65733456D01*
X48747511Y65759664D01*
X48730073Y65777397D01*
X48725594Y65783342D01*
X48733167Y65795485D01*
X48753770Y65818293D01*
X48784231Y65848797D01*
X48821376Y65884031D01*
X48862033Y65921025D01*
X48903029Y65956812D01*
X48941191Y65988425D01*
X48962632Y66005073D01*
X49101750Y66096859D01*
X49256559Y66176065D01*
X49425231Y66242006D01*
X49605940Y66294001D01*
X49796857Y66331364D01*
X49857317Y66339803D01*
X49934915Y66347398D01*
X50023486Y66352323D01*
X50118803Y66354668D01*
X50216637Y66354522D01*
G36*
X60636807Y62109671D02*
G01*
X60340350Y62109671D01*
X60340350Y66037724D01*
X59313339Y66037724D01*
X59313339Y66299164D01*
X59442054Y66306085D01*
X59478675Y66307472D01*
X59533777Y66308766D01*
X59604666Y66309939D01*
X59688648Y66310963D01*
X59783029Y66311810D01*
X59885115Y66312452D01*
X59992211Y66312860D01*
X60101623Y66313006D01*
X60636807Y66313006D01*
X60636807Y62109671D01*
G37*
X60636807Y62109671D02*
X60340350Y62109671D01*
X60340350Y66037724D01*
X59313339Y66037724D01*
X59313339Y66299164D01*
X59442054Y66306085D01*
X59478675Y66307472D01*
X59533777Y66308766D01*
X59604666Y66309939D01*
X59688648Y66310963D01*
X59783029Y66311810D01*
X59885115Y66312452D01*
X59992211Y66312860D01*
X60101623Y66313006D01*
X60636807Y66313006D01*
X60636807Y62109671D01*
G36*
X54037715Y66347852D02*
G01*
X54119896Y66342207D01*
X54188405Y66333542D01*
X54203418Y66330763D01*
X54348665Y66293961D01*
X54491848Y66243302D01*
X54627842Y66181012D01*
X54751524Y66109316D01*
X54813977Y66065527D01*
X54922393Y65974135D01*
X55028317Y65866645D01*
X55127458Y65748056D01*
X55215525Y65623371D01*
X55266862Y65537714D01*
X55316416Y65438031D01*
X55364620Y65321409D01*
X55410146Y65192084D01*
X55451669Y65054290D01*
X55487863Y64912266D01*
X55517402Y64770246D01*
X55529603Y64698375D01*
X55536451Y64640533D01*
X55541968Y64565960D01*
X55546150Y64478431D01*
X55548992Y64381721D01*
X55550489Y64279607D01*
X55550637Y64175864D01*
X55549431Y64074268D01*
X55546866Y63978595D01*
X55542938Y63892621D01*
X55537641Y63820121D01*
X55530972Y63764871D01*
X55530767Y63763620D01*
X55486288Y63536787D01*
X55430651Y63327675D01*
X55363719Y63135928D01*
X55285357Y62961187D01*
X55195431Y62803095D01*
X55133730Y62713173D01*
X55088114Y62656374D01*
X55031148Y62593205D01*
X54967551Y62528295D01*
X54902043Y62466273D01*
X54839344Y62411769D01*
X54784174Y62369413D01*
X54781126Y62367304D01*
X54646968Y62286129D01*
X54499744Y62216847D01*
X54345368Y62161967D01*
X54222741Y62130548D01*
X54173105Y62122342D01*
X54109334Y62115127D01*
X54036917Y62109194D01*
X53961343Y62104834D01*
X53888101Y62102340D01*
X53822680Y62102002D01*
X53770570Y62104112D01*
X53754773Y62105695D01*
X53592901Y62133847D01*
X53437046Y62175810D01*
X53291228Y62230258D01*
X53159472Y62295861D01*
X53134959Y62310327D01*
X53100436Y62330650D01*
X53072732Y62345762D01*
X53056884Y62352943D01*
X53055528Y62353189D01*
X53041277Y62360052D01*
X53015159Y62378717D01*
X52980562Y62406301D01*
X52940874Y62439920D01*
X52899483Y62476691D01*
X52859776Y62513729D01*
X52825141Y62548152D01*
X52819385Y62554189D01*
X52708298Y62684964D01*
X52610125Y62828480D01*
X52524232Y62985998D01*
X52449989Y63158781D01*
X52386763Y63348091D01*
X52347389Y63496666D01*
X52328425Y63578904D01*
X52313247Y63652840D01*
X52301382Y63722754D01*
X52292357Y63792924D01*
X52285700Y63867630D01*
X52280938Y63951153D01*
X52277597Y64047771D01*
X52275445Y64147812D01*
X52275175Y64211338D01*
X52585010Y64211338D01*
X52585180Y64114665D01*
X52585686Y64035964D01*
X52586695Y63972034D01*
X52588374Y63919674D01*
X52590889Y63875681D01*
X52594407Y63836853D01*
X52599096Y63799989D01*
X52605122Y63761888D01*
X52609845Y63734890D01*
X52650974Y63537239D01*
X52700264Y63358495D01*
X52757979Y63197919D01*
X52824382Y63054770D01*
X52894128Y62936691D01*
X52936090Y62879131D01*
X52988867Y62815315D01*
X53047995Y62749972D01*
X53109011Y62687826D01*
X53167451Y62633606D01*
X53218850Y62592038D01*
X53221257Y62590303D01*
X53327763Y62524084D01*
X53447913Y62466738D01*
X53575070Y62421044D01*
X53698184Y62390603D01*
X53773733Y62380929D01*
X53862824Y62376839D01*
X53958649Y62378077D01*
X54054395Y62384385D01*
X54143252Y62395506D01*
X54214154Y62410053D01*
X54288641Y62433354D01*
X54370394Y62465346D01*
X54453074Y62503054D01*
X54530342Y62543504D01*
X54595859Y62583720D01*
X54617981Y62599548D01*
X54667460Y62640772D01*
X54724237Y62694040D01*
X54783318Y62754152D01*
X54839706Y62815910D01*
X54888407Y62874116D01*
X54912509Y62906080D01*
X54977298Y63009499D01*
X55037739Y63130514D01*
X55092738Y63265799D01*
X55141199Y63412025D01*
X55182025Y63565865D01*
X55214120Y63723991D01*
X55236390Y63883077D01*
X55237410Y63892773D01*
X55242735Y63963887D01*
X55245941Y64049727D01*
X55247140Y64145875D01*
X55246441Y64247915D01*
X55243955Y64351428D01*
X55239793Y64451998D01*
X55234065Y64545207D01*
X55226882Y64626638D01*
X55218355Y64691874D01*
X55217251Y64698375D01*
X55178127Y64890782D01*
X55131015Y65064953D01*
X55075156Y65222555D01*
X55009792Y65365255D01*
X54934164Y65494718D01*
X54847514Y65612612D01*
X54754689Y65715022D01*
X54634807Y65820801D01*
X54505545Y65907648D01*
X54367427Y65975347D01*
X54220981Y66023681D01*
X54066732Y66052433D01*
X53913589Y66061413D01*
X53752422Y66051447D01*
X53598557Y66021694D01*
X53452522Y65972370D01*
X53314842Y65903692D01*
X53186043Y65815876D01*
X53072490Y65715022D01*
X52974030Y65605547D01*
X52887270Y65485466D01*
X52811533Y65353262D01*
X52746138Y65207416D01*
X52690410Y65046410D01*
X52643669Y64868726D01*
X52605237Y64672845D01*
X52604196Y64666611D01*
X52598471Y64628650D01*
X52593956Y64589365D01*
X52590523Y64545711D01*
X52588042Y64494645D01*
X52586385Y64433123D01*
X52585425Y64358100D01*
X52585032Y64266533D01*
X52585010Y64211338D01*
X52275175Y64211338D01*
X52274730Y64315943D01*
X52279197Y64467608D01*
X52289420Y64607009D01*
X52305971Y64738348D01*
X52329423Y64865826D01*
X52360350Y64993646D01*
X52399325Y65126010D01*
X52415793Y65176656D01*
X52471576Y65331287D01*
X52530860Y65468360D01*
X52595745Y65591446D01*
X52668333Y65704116D01*
X52750726Y65809941D01*
X52845024Y65912492D01*
X52854229Y65921745D01*
X52981701Y66036990D01*
X53115133Y66133193D01*
X53256934Y66211633D01*
X53409511Y66273591D01*
X53575270Y66320345D01*
X53623760Y66330763D01*
X53687720Y66340223D01*
X53766867Y66346661D01*
X53855429Y66350079D01*
X53947636Y66350476D01*
X54037715Y66347852D01*
G37*
X54037715Y66347852D02*
X54119896Y66342207D01*
X54188405Y66333542D01*
X54203418Y66330763D01*
X54348665Y66293961D01*
X54491848Y66243302D01*
X54627842Y66181012D01*
X54751524Y66109316D01*
X54813977Y66065527D01*
X54922393Y65974135D01*
X55028317Y65866645D01*
X55127458Y65748056D01*
X55215525Y65623371D01*
X55266862Y65537714D01*
X55316416Y65438031D01*
X55364620Y65321409D01*
X55410146Y65192084D01*
X55451669Y65054290D01*
X55487863Y64912266D01*
X55517402Y64770246D01*
X55529603Y64698375D01*
X55536451Y64640533D01*
X55541968Y64565960D01*
X55546150Y64478431D01*
X55548992Y64381721D01*
X55550489Y64279607D01*
X55550637Y64175864D01*
X55549431Y64074268D01*
X55546866Y63978595D01*
X55542938Y63892621D01*
X55537641Y63820121D01*
X55530972Y63764871D01*
X55530767Y63763620D01*
X55486288Y63536787D01*
X55430651Y63327675D01*
X55363719Y63135928D01*
X55285357Y62961187D01*
X55195431Y62803095D01*
X55133730Y62713173D01*
X55088114Y62656374D01*
X55031148Y62593205D01*
X54967551Y62528295D01*
X54902043Y62466273D01*
X54839344Y62411769D01*
X54784174Y62369413D01*
X54781126Y62367304D01*
X54646968Y62286129D01*
X54499744Y62216847D01*
X54345368Y62161967D01*
X54222741Y62130548D01*
X54173105Y62122342D01*
X54109334Y62115127D01*
X54036917Y62109194D01*
X53961343Y62104834D01*
X53888101Y62102340D01*
X53822680Y62102002D01*
X53770570Y62104112D01*
X53754773Y62105695D01*
X53592901Y62133847D01*
X53437046Y62175810D01*
X53291228Y62230258D01*
X53159472Y62295861D01*
X53134959Y62310327D01*
X53100436Y62330650D01*
X53072732Y62345762D01*
X53056884Y62352943D01*
X53055528Y62353189D01*
X53041277Y62360052D01*
X53015159Y62378717D01*
X52980562Y62406301D01*
X52940874Y62439920D01*
X52899483Y62476691D01*
X52859776Y62513729D01*
X52825141Y62548152D01*
X52819385Y62554189D01*
X52708298Y62684964D01*
X52610125Y62828480D01*
X52524232Y62985998D01*
X52449989Y63158781D01*
X52386763Y63348091D01*
X52347389Y63496666D01*
X52328425Y63578904D01*
X52313247Y63652840D01*
X52301382Y63722754D01*
X52292357Y63792924D01*
X52285700Y63867630D01*
X52280938Y63951153D01*
X52277597Y64047771D01*
X52275445Y64147812D01*
X52275175Y64211338D01*
X52585010Y64211338D01*
X52585180Y64114665D01*
X52585686Y64035964D01*
X52586695Y63972034D01*
X52588374Y63919674D01*
X52590889Y63875681D01*
X52594407Y63836853D01*
X52599096Y63799989D01*
X52605122Y63761888D01*
X52609845Y63734890D01*
X52650974Y63537239D01*
X52700264Y63358495D01*
X52757979Y63197919D01*
X52824382Y63054770D01*
X52894128Y62936691D01*
X52936090Y62879131D01*
X52988867Y62815315D01*
X53047995Y62749972D01*
X53109011Y62687826D01*
X53167451Y62633606D01*
X53218850Y62592038D01*
X53221257Y62590303D01*
X53327763Y62524084D01*
X53447913Y62466738D01*
X53575070Y62421044D01*
X53698184Y62390603D01*
X53773733Y62380929D01*
X53862824Y62376839D01*
X53958649Y62378077D01*
X54054395Y62384385D01*
X54143252Y62395506D01*
X54214154Y62410053D01*
X54288641Y62433354D01*
X54370394Y62465346D01*
X54453074Y62503054D01*
X54530342Y62543504D01*
X54595859Y62583720D01*
X54617981Y62599548D01*
X54667460Y62640772D01*
X54724237Y62694040D01*
X54783318Y62754152D01*
X54839706Y62815910D01*
X54888407Y62874116D01*
X54912509Y62906080D01*
X54977298Y63009499D01*
X55037739Y63130514D01*
X55092738Y63265799D01*
X55141199Y63412025D01*
X55182025Y63565865D01*
X55214120Y63723991D01*
X55236390Y63883077D01*
X55237410Y63892773D01*
X55242735Y63963887D01*
X55245941Y64049727D01*
X55247140Y64145875D01*
X55246441Y64247915D01*
X55243955Y64351428D01*
X55239793Y64451998D01*
X55234065Y64545207D01*
X55226882Y64626638D01*
X55218355Y64691874D01*
X55217251Y64698375D01*
X55178127Y64890782D01*
X55131015Y65064953D01*
X55075156Y65222555D01*
X55009792Y65365255D01*
X54934164Y65494718D01*
X54847514Y65612612D01*
X54754689Y65715022D01*
X54634807Y65820801D01*
X54505545Y65907648D01*
X54367427Y65975347D01*
X54220981Y66023681D01*
X54066732Y66052433D01*
X53913589Y66061413D01*
X53752422Y66051447D01*
X53598557Y66021694D01*
X53452522Y65972370D01*
X53314842Y65903692D01*
X53186043Y65815876D01*
X53072490Y65715022D01*
X52974030Y65605547D01*
X52887270Y65485466D01*
X52811533Y65353262D01*
X52746138Y65207416D01*
X52690410Y65046410D01*
X52643669Y64868726D01*
X52605237Y64672845D01*
X52604196Y64666611D01*
X52598471Y64628650D01*
X52593956Y64589365D01*
X52590523Y64545711D01*
X52588042Y64494645D01*
X52586385Y64433123D01*
X52585425Y64358100D01*
X52585032Y64266533D01*
X52585010Y64211338D01*
X52275175Y64211338D01*
X52274730Y64315943D01*
X52279197Y64467608D01*
X52289420Y64607009D01*
X52305971Y64738348D01*
X52329423Y64865826D01*
X52360350Y64993646D01*
X52399325Y65126010D01*
X52415793Y65176656D01*
X52471576Y65331287D01*
X52530860Y65468360D01*
X52595745Y65591446D01*
X52668333Y65704116D01*
X52750726Y65809941D01*
X52845024Y65912492D01*
X52854229Y65921745D01*
X52981701Y66036990D01*
X53115133Y66133193D01*
X53256934Y66211633D01*
X53409511Y66273591D01*
X53575270Y66320345D01*
X53623760Y66330763D01*
X53687720Y66340223D01*
X53766867Y66346661D01*
X53855429Y66350079D01*
X53947636Y66350476D01*
X54037715Y66347852D01*
%TD*%
D11*
%TO.C,J1*%
X32310000Y110500000D03*
X29770000Y110500000D03*
X27230000Y110500000D03*
X24690000Y110500000D03*
%TD*%
%TO.C,J2*%
X60310000Y110500000D03*
X57770000Y110500000D03*
X55230000Y110500000D03*
X52690000Y110500000D03*
%TD*%
%TO.C,J6*%
X9398026Y75194077D03*
X11194077Y73398026D03*
X7601974Y73398026D03*
X9398026Y71601974D03*
D12*
G36*
X9086898Y69805923D02*
G01*
X7601974Y68320999D01*
X6117050Y69805923D01*
X7601974Y71290847D01*
X9086898Y69805923D01*
G37*
D11*
X5805923Y71601974D03*
%TD*%
D13*
%TO.C,J7*%
X34700000Y43600000D03*
X48000000Y21900000D03*
D14*
X31070000Y44910000D03*
X31070000Y42370000D03*
X31070000Y39830000D03*
X31070000Y37290000D03*
X31070000Y34750000D03*
X31070000Y32210000D03*
X31070000Y29670000D03*
X31070000Y27130000D03*
X31070000Y24590000D03*
X31070000Y22050000D03*
X31070000Y19510000D03*
X31070000Y16970000D03*
X31070000Y14430000D03*
X53930000Y44910000D03*
X53930000Y42370000D03*
X53930000Y39830000D03*
X53930000Y37290000D03*
X53930000Y34750000D03*
X53930000Y32210000D03*
X53930000Y29670000D03*
X53930000Y27130000D03*
X53930000Y24590000D03*
X53930000Y22050000D03*
X53930000Y19510000D03*
X53930000Y16970000D03*
D15*
X53930000Y14430000D03*
%TD*%
D11*
%TO.C,J4*%
X21040000Y117770000D03*
X21040000Y115230000D03*
X18500000Y117770000D03*
X18500000Y115230000D03*
D16*
X15960000Y115230000D03*
D11*
X15960000Y117770000D03*
%TD*%
D17*
%TO.C,SW4*%
X58550000Y94500000D03*
X54450000Y94500000D03*
%TD*%
%TO.C,SW3*%
X26450000Y94500000D03*
X30550000Y94500000D03*
%TD*%
D11*
%TO.C,J5*%
X79194077Y71601974D03*
X77398026Y69805923D03*
X77398026Y73398026D03*
X75601974Y71601974D03*
D12*
G36*
X73805923Y71913102D02*
G01*
X72320999Y73398026D01*
X73805923Y74882950D01*
X75290847Y73398026D01*
X73805923Y71913102D01*
G37*
D11*
X75601974Y75194077D03*
%TD*%
%TO.C,J3*%
X69040000Y117770000D03*
X69040000Y115230000D03*
X66500000Y117770000D03*
X66500000Y115230000D03*
D16*
X63960000Y115230000D03*
D11*
X63960000Y117770000D03*
%TD*%
D18*
%TO.C,SW1*%
X24500000Y94500000D03*
X32500000Y94500000D03*
%TD*%
%TO.C,SW2*%
X60500000Y94500000D03*
X52500000Y94500000D03*
%TD*%
D19*
%TO.C,H5*%
X42500000Y118500000D03*
%TD*%
D20*
%TO.C,H1*%
X6500000Y118500000D03*
%TD*%
%TO.C,H2*%
X78500000Y118500000D03*
%TD*%
%TO.C,H3*%
X6500000Y6500000D03*
%TD*%
%TO.C,H4*%
X78500000Y6500000D03*
%TD*%
D16*
%TO.C,J12*%
X12500000Y91610000D03*
D21*
X12500000Y94150000D03*
X12500000Y96690000D03*
X12500000Y99230000D03*
X12500000Y101770000D03*
X12500000Y104310000D03*
X12500000Y106850000D03*
X12500000Y109390000D03*
%TD*%
D16*
%TO.C,J13*%
X72500000Y109390000D03*
D21*
X72500000Y106850000D03*
X72500000Y104310000D03*
X72500000Y101770000D03*
X72500000Y99230000D03*
X72500000Y96690000D03*
X72500000Y94150000D03*
X72500000Y91610000D03*
%TD*%
D22*
%TO.C,J8*%
X78500000Y45500000D03*
%TD*%
%TO.C,J9*%
X78500000Y14500000D03*
%TD*%
%TO.C,J10*%
X6500000Y45500000D03*
%TD*%
%TO.C,J11*%
X6500000Y14500000D03*
%TD*%
M02*
