M48
; DRILL file {KiCad (5.1.6)-1} date 10/27/20 18:56:50
; FORMAT={-:-/ absolute / metric / decimal}
; #@! TF.CreationDate,2020-10-27T18:56:50+11:00
; #@! TF.GenerationSoftware,Kicad,Pcbnew,(5.1.6)-1
; #@! TF.FileFunction,Plated,1,2,PTH
FMAT,2
METRIC
T1C0.400
T2C1.000
%
G90
G05
T1
X6.5Y37.5
X6.5Y22.5
X13.58Y60.49
X14.75Y59.32
X15.965Y58.105
X17.215Y56.855
X18.8Y64.9
X18.9Y53.0
X20.5Y107.3
X24.4Y88.5
X24.44Y86.95
X25.4Y56.855
X26.0Y99.9
X26.8Y107.3
X29.8Y56.85
X42.53Y12.33
X55.93Y77.5
X63.2Y77.5
X68.4Y83.1
X78.5Y37.5
X78.5Y22.5
X79.2Y90.6
T2
X24.69Y110.5
X27.23Y110.5
X29.77Y110.5
X32.31Y110.5
X73.806Y73.398
X75.602Y75.194
X75.602Y71.602
X77.398Y73.398
X77.398Y69.806
X79.194Y71.602
X15.96Y117.77
X15.96Y115.23
X18.5Y117.77
X18.5Y115.23
X21.04Y117.77
X21.04Y115.23
X31.07Y44.91
X31.07Y42.37
X31.07Y39.83
X31.07Y37.29
X31.07Y34.75
X31.07Y32.21
X31.07Y29.67
X31.07Y27.13
X31.07Y24.59
X31.07Y22.05
X31.07Y19.51
X31.07Y16.97
X31.07Y14.43
X53.93Y44.91
X53.93Y42.37
X53.93Y39.83
X53.93Y37.29
X53.93Y34.75
X53.93Y32.21
X53.93Y29.67
X53.93Y27.13
X53.93Y24.59
X53.93Y22.05
X53.93Y19.51
X53.93Y16.97
X53.93Y14.43
X52.69Y110.5
X55.23Y110.5
X57.77Y110.5
X60.31Y110.5
X72.5Y109.39
X72.5Y106.85
X72.5Y104.31
X72.5Y101.77
X72.5Y99.23
X72.5Y96.69
X72.5Y94.15
X72.5Y91.61
X63.96Y117.77
X63.96Y115.23
X66.5Y117.77
X66.5Y115.23
X69.04Y117.77
X69.04Y115.23
X12.5Y109.39
X12.5Y106.85
X12.5Y104.31
X12.5Y101.77
X12.5Y99.23
X12.5Y96.69
X12.5Y94.15
X12.5Y91.61
X5.806Y71.602
X7.602Y73.398
X7.602Y69.806
X9.398Y75.194
X9.398Y71.602
X11.194Y73.398
T0
M30
