M48
; DRILL file {KiCad (5.1.6)-1} date 10/12/20 10:26:15
; FORMAT={-:-/ absolute / metric / decimal}
; #@! TF.CreationDate,2020-10-12T10:26:15+11:00
; #@! TF.GenerationSoftware,Kicad,Pcbnew,(5.1.6)-1
; #@! TF.FileFunction,Plated,1,2,PTH
FMAT,2
METRIC
T1C0.400
T2C1.000
%
G90
G05
T1
X4.0Y35.0
X4.0Y20.0
X11.08Y57.99
X12.25Y56.82
X13.465Y55.605
X14.715Y54.355
X16.3Y62.4
X16.4Y50.5
X18.0Y104.8
X21.9Y86.0
X21.94Y84.45
X22.9Y54.355
X23.5Y97.4
X24.3Y104.8
X27.3Y54.35
X40.03Y9.83
X53.43Y75.0
X60.7Y75.0
X65.9Y80.6
X76.0Y35.0
X76.0Y20.0
X76.7Y88.1
T2
X13.46Y115.27
X13.46Y112.73
X16.0Y115.27
X16.0Y112.73
X18.54Y115.27
X18.54Y112.73
X3.306Y69.102
X5.102Y70.898
X5.102Y67.306
X6.898Y72.694
X6.898Y69.102
X8.694Y70.898
X71.306Y70.898
X73.102Y72.694
X73.102Y69.102
X74.898Y70.898
X74.898Y67.306
X76.694Y69.102
X50.19Y108.0
X52.73Y108.0
X55.27Y108.0
X57.81Y108.0
X28.57Y42.41
X28.57Y39.87
X28.57Y37.33
X28.57Y34.79
X28.57Y32.25
X28.57Y29.71
X28.57Y27.17
X28.57Y24.63
X28.57Y22.09
X28.57Y19.55
X28.57Y17.01
X28.57Y14.47
X28.57Y11.93
X51.43Y42.41
X51.43Y39.87
X51.43Y37.33
X51.43Y34.79
X51.43Y32.25
X51.43Y29.71
X51.43Y27.17
X51.43Y24.63
X51.43Y22.09
X51.43Y19.55
X51.43Y17.01
X51.43Y14.47
X51.43Y11.93
X61.46Y115.27
X61.46Y112.73
X64.0Y115.27
X64.0Y112.73
X66.54Y115.27
X66.54Y112.73
X70.0Y106.89
X70.0Y104.35
X70.0Y101.81
X70.0Y99.27
X70.0Y96.73
X70.0Y94.19
X70.0Y91.65
X70.0Y89.11
X22.19Y108.0
X24.73Y108.0
X27.27Y108.0
X29.81Y108.0
X10.0Y106.89
X10.0Y104.35
X10.0Y101.81
X10.0Y99.27
X10.0Y96.73
X10.0Y94.19
X10.0Y91.65
X10.0Y89.11
T0
M30
